<?xml version="1.0" standalone="no"?>
<!DOCTYPE svg PUBLIC "-//W3C//DTD SVG 20010904//EN"
 "http://www.w3.org/TR/2001/REC-SVG-20010904/DTD/svg10.dtd">
<svg version="1.0" xmlns="http://www.w3.org/2000/svg"
 width="3000.000000pt" height="1200.000000pt" viewBox="0 0 3000.000000 1200.000000"
 preserveAspectRatio="xMidYMid meet">

<g transform="translate(0.000000,1200.000000) scale(0.100000,-0.100000)"
fill="#000000" stroke="none">
<path d="M16875 11988 c-2 -7 -15 -53 -30 -103 -14 -49 -37 -124 -50 -165 -12
-41 -34 -113 -48 -160 -72 -239 -80 -260 -95 -260 -8 0 -38 -7 -66 -15 -28 -8
-91 -26 -141 -41 -176 -51 -347 -115 -376 -140 -8 -8 -25 -14 -36 -14 -30 0
-125 -77 -121 -98 6 -32 63 -46 318 -78 291 -37 311 -40 303 -59 -3 -10 -11
-11 -28 -5 -31 12 -172 24 -162 14 4 -4 33 -21 65 -36 31 -15 46 -25 32 -22
-14 4 -43 15 -65 26 -50 24 -209 56 -322 65 -51 3 -99 13 -121 25 -20 10 -41
18 -48 18 -6 0 -14 -23 -17 -52 -4 -29 -8 -62 -9 -72 -4 -28 44 -57 148 -91
49 -15 94 -33 100 -39 6 -6 19 -40 28 -76 9 -36 21 -81 26 -100 5 -19 14 -70
21 -112 6 -43 16 -78 20 -78 5 0 9 -21 9 -46 0 -40 -2 -45 -17 -39 -30 11 48
-63 84 -80 18 -9 33 -23 33 -32 0 -9 -13 -60 -30 -112 -33 -106 -79 -262 -115
-386 -13 -44 -32 -111 -44 -149 -11 -38 -18 -72 -16 -76 3 -4 -9 -45 -25 -91
-64 -178 -63 -175 -71 -154 -6 17 -8 17 -8 3 -1 -11 -6 -15 -15 -12 -9 4 -16
-2 -18 -17 -2 -18 -13 -25 -59 -35 -31 -7 -80 -27 -108 -43 -29 -17 -54 -31
-57 -31 -3 0 -44 -26 -92 -59 -130 -87 -211 -180 -247 -282 -14 -39 -14 -39
16 -55 25 -12 59 -64 59 -89 0 -10 -55 7 -82 26 -23 16 -28 17 -28 4 0 -8 4
-15 9 -15 4 0 6 -11 4 -24 -7 -33 26 -50 98 -52 31 0 61 -4 67 -8 25 -15 273
-23 382 -12 80 8 93 11 118 25 13 7 31 9 40 5 9 -4 22 -6 27 -4 6 2 30 4 55 6
67 5 99 10 107 17 3 4 18 7 32 7 15 0 31 8 39 20 7 11 22 20 34 20 12 0 44 7
72 15 28 8 64 17 79 20 15 3 31 13 34 21 3 9 17 27 29 40 28 27 31 64 9 98 -9
13 -14 28 -13 34 5 18 -72 116 -120 151 -58 43 -172 103 -239 125 -29 10 -52
20 -51 24 1 4 -2 15 -6 24 -5 11 4 66 22 135 21 85 27 122 19 134 -7 11 -5 25
6 47 8 18 18 45 22 62 6 28 25 43 25 20 0 -5 8 -10 18 -9 10 0 12 3 5 6 -17 6
-16 23 1 23 8 0 17 8 21 18 6 12 11 -3 19 -48 9 -56 15 -67 39 -78 15 -7 27
-20 27 -28 0 -8 10 -14 24 -14 34 0 56 -10 56 -25 0 -17 37 -26 80 -19 38 6
52 -3 75 -50 6 -12 21 -22 35 -23 61 -5 153 -37 158 -55 5 -20 37 -31 73 -26
22 3 24 -1 27 -39 3 -47 4 -48 34 -32 17 9 25 6 52 -20 18 -17 41 -31 52 -31
24 0 67 -37 59 -51 -4 -5 6 -14 20 -19 26 -10 27 -16 8 -68 -3 -7 7 -17 25
-23 27 -9 31 -16 42 -76 11 -56 11 -68 -1 -77 -8 -6 -15 -22 -16 -36 -1 -14
-4 -53 -6 -87 -4 -47 -2 -63 9 -67 22 -8 19 -85 -3 -92 -39 -12 -48 -22 -49
-55 -1 -43 -20 -80 -37 -73 -8 3 -16 -8 -22 -28 -9 -29 -14 -33 -42 -30 -24 1
-36 -4 -45 -18 -7 -11 -20 -20 -29 -20 -10 0 -20 -11 -23 -25 -7 -28 -52 -55
-93 -55 -21 0 -29 -5 -29 -19 0 -16 4 -17 31 -8 16 6 41 18 55 28 56 38 141
89 150 89 6 0 10 4 10 8 0 4 12 15 28 24 44 27 162 147 162 166 0 14 107 102
124 102 3 0 15 4 28 9 13 5 27 9 32 9 18 1 26 28 20 73 -11 86 37 201 127 304
44 50 166 142 265 199 97 57 425 187 475 189 21 1 34 6 31 11 -3 5 8 6 24 2
18 -4 24 -3 16 2 -17 11 52 27 70 16 6 -4 8 -3 5 3 -8 13 236 73 299 73 38 0
55 5 69 20 9 10 22 18 28 17 6 -1 17 10 24 26 8 15 19 27 24 27 6 0 7 5 3 12
-5 7 -2 9 8 5 11 -4 18 2 22 19 5 17 13 24 31 24 14 0 25 4 25 10 0 5 -8 7
-17 3 -15 -5 -14 -2 3 14 12 12 29 23 39 24 10 2 21 11 23 19 5 13 3 13 -12 1
-14 -12 -16 -12 -11 2 4 8 15 17 25 20 21 5 38 53 24 67 -5 5 -64 -45 -137
-117 -80 -78 -131 -123 -137 -117 -6 6 38 57 115 134 69 69 125 128 125 132 0
5 -9 8 -20 8 -11 0 -20 -4 -20 -8 0 -15 -172 -161 -184 -156 -7 3 -30 -9 -51
-26 -28 -22 -41 -28 -44 -18 -2 7 -9 16 -15 21 -8 5 -6 10 4 18 12 8 11 9 -5
5 -11 -2 -41 -7 -67 -11 -44 -6 -48 -5 -48 15 0 27 40 252 47 263 3 5 -17 -7
-43 -26 -94 -67 -121 -72 -34 -7 57 43 95 80 84 80 -5 0 -1 5 8 11 10 5 23 20
29 32 9 18 9 20 -2 10 -23 -22 -27 -14 -17 30 5 23 10 92 11 152 l1 110 96 46
c114 56 181 109 163 131 -7 8 -8 19 -3 28 5 8 6 18 3 22 -2 5 1 16 8 24 12 14
9 14 -25 0 -45 -19 -57 -20 -36 -3 30 23 72 86 65 97 -4 6 1 20 10 30 9 10 14
24 10 30 -3 5 7 27 22 48 52 67 63 91 63 135 0 79 -55 160 -159 235 -47 34
-70 36 -30 3 l24 -20 -23 -1 c-15 0 -26 8 -32 25 -5 14 -13 25 -18 25 -5 0
-29 14 -55 31 -92 60 -350 135 -645 185 -151 26 -164 26 -179 11 -15 -15 -15
-17 3 -24 10 -4 20 -19 22 -33 1 -13 13 -35 25 -49 14 -15 17 -22 7 -19 -8 2
-27 26 -42 53 -14 27 -34 54 -42 61 -26 18 -316 39 -537 38 -207 -1 -371 -14
-508 -40 -40 -8 -75 -13 -77 -11 -2 2 28 109 67 238 38 129 81 270 94 314 13
44 27 88 31 98 6 16 2 18 -36 15 l-43 -3 -49 -160 c-27 -88 -60 -198 -74 -245
-76 -253 -87 -289 -194 -645 -28 -93 -55 -181 -60 -195 -5 -14 -18 -58 -30
-98 -12 -40 -24 -71 -27 -68 -3 2 4 33 15 68 11 35 55 180 97 323 42 143 87
294 100 335 13 41 28 91 33 110 6 19 47 156 91 304 45 148 81 270 81 272 0 10
-21 2 -25 -8z m1280 -720 c61 -16 135 -35 165 -43 30 -7 69 -19 85 -25 17 -7
44 -16 60 -20 17 -4 91 -26 165 -49 74 -22 147 -41 163 -41 16 0 27 -5 27 -14
0 -7 12 -21 26 -31 29 -18 27 -32 -3 -16 -61 35 -371 143 -385 135 -4 -3 -56
11 -116 31 -59 19 -116 35 -125 35 -10 0 -25 4 -35 9 -9 5 -47 17 -84 26 -37
9 -73 24 -80 33 -11 14 -10 15 7 8 11 -4 70 -21 130 -38z m8 -55 c-7 -2 -19
-2 -25 0 -7 3 -2 5 12 5 14 0 19 -2 13 -5z m42 -13 c3 -6 -1 -7 -9 -4 -18 7
-21 14 -7 14 6 0 13 -4 16 -10z m25 -31 c202 -55 411 -135 473 -183 19 -14 36
-26 40 -26 9 0 80 -71 99 -99 31 -45 20 -116 -26 -170 l-21 -24 22 12 c12 6
25 11 30 11 14 -1 -30 -30 -45 -30 -8 0 -25 -9 -39 -20 -14 -11 -33 -20 -43
-20 -9 0 -25 -9 -35 -20 -10 -12 -24 -19 -31 -16 -7 3 -14 1 -16 -3 -2 -5 -19
-12 -38 -16 -42 -9 -39 -4 19 25 23 12 40 16 36 9 -5 -8 -4 -10 4 -5 6 4 9 11
6 16 -3 4 2 21 10 36 8 16 15 37 15 47 0 9 5 17 11 17 7 0 8 7 4 18 -4 9 -8
28 -9 42 -1 14 -7 24 -14 22 -7 -1 -12 9 -12 24 0 17 -6 28 -20 31 -11 3 -17
9 -14 14 3 5 -5 13 -18 18 l-23 8 23 7 c12 4 22 12 22 17 0 14 -16 11 -30 -6
-7 -8 -22 -15 -34 -16 -20 0 -21 -1 -1 -9 18 -8 18 -9 -5 -10 -23 -1 -23 -2
-5 -10 12 -5 15 -9 5 -9 -7 -1 5 -13 28 -28 58 -38 45 -41 -19 -4 -53 29 -133
59 -216 81 -24 6 -43 15 -43 20 0 4 -15 12 -32 15 -18 4 -37 11 -43 15 -10 7
-89 21 -155 26 -19 2 -55 6 -80 9 -25 4 -60 8 -79 9 -25 1 -36 8 -43 25 -6 17
-12 21 -21 14 -12 -10 -135 -43 -158 -43 -8 0 -7 5 2 17 13 15 12 15 -7 5 -12
-6 -24 -9 -26 -6 -7 6 -176 -33 -200 -46 -10 -6 -23 -10 -29 -10 -21 0 -161
-73 -166 -86 -3 -8 -8 -12 -13 -9 -4 2 -13 -7 -20 -20 -7 -14 -17 -25 -21 -25
-8 0 -38 -51 -40 -67 -1 -5 -4 -14 -7 -21 -6 -18 -3 -20 53 -27 l50 -7 -1 46
c-1 24 3 52 10 61 17 23 67 34 94 20 l23 -12 -26 -17 c-14 -9 -25 -23 -25 -31
0 -7 -13 -23 -30 -35 -30 -21 -40 -50 -18 -50 6 0 9 -2 6 -5 -2 -3 -56 6 -119
19 -63 13 -167 35 -233 47 -65 13 -114 25 -108 27 6 2 56 -7 112 -18 55 -12
107 -20 115 -16 8 3 23 22 34 44 50 97 199 180 411 227 108 25 195 53 278 92
40 18 78 31 84 27 6 -4 8 -3 5 3 -7 12 14 23 43 23 17 0 63 19 109 45 28 16
79 11 181 -16z m80 1 c8 -5 11 -10 5 -10 -5 0 -17 5 -25 10 -8 5 -10 10 -5 10
6 0 17 -5 25 -10z m186 -25 c10 -8 14 -15 8 -15 -5 0 -19 7 -30 15 -10 8 -14
15 -8 15 5 0 19 -7 30 -15z m9 -35 c8 -13 -5 -13 -25 0 -13 8 -13 10 2 10 9 0
20 -4 23 -10z m62 4 c-3 -3 -12 -4 -19 -1 -8 3 -5 6 6 6 11 1 17 -2 13 -5z
m43 -14 c8 -5 11 -10 5 -10 -5 0 -17 5 -25 10 -8 5 -10 10 -5 10 6 0 17 -5 25
-10z m123 -51 c20 -11 37 -22 37 -24 0 -6 -56 17 -96 39 -26 15 -27 16 -4 10
14 -4 42 -15 63 -25z m307 -111 c24 -53 26 -90 5 -82 -8 4 -15 1 -15 -5 0 -23
-17 -10 -34 25 -21 45 -15 54 13 18 28 -35 37 -13 17 44 -19 54 -11 54 14 0z
m-92 -63 c12 -19 22 -45 22 -57 0 -18 2 -20 10 -8 5 8 11 12 14 9 3 -3 -10
-21 -29 -39 l-35 -34 0 31 c0 18 -5 44 -10 60 -9 26 -9 27 5 9 8 -11 15 -30
15 -43 0 -13 5 -23 11 -23 14 0 2 56 -22 98 -25 43 -10 41 19 -3z m-1025 3
c-13 -6 -23 -17 -23 -25 0 -7 -4 -13 -10 -13 -5 0 -7 6 -4 14 3 8 1 17 -5 21
-6 3 -11 -1 -11 -11 0 -14 -3 -15 -12 -6 -22 22 -38 13 -39 -20 l-1 -33 -13
35 -13 35 -2 -30 c-1 -29 -2 -29 -11 -7 -12 31 -33 23 -39 -14 l-6 -29 -8 35
c-8 34 -9 34 -15 10 -6 -22 -8 -23 -14 -7 -9 24 -30 17 -38 -14 -7 -23 -7 -23
-8 -1 -1 26 -21 30 -22 5 0 -15 -2 -15 -8 2 -6 15 -3 22 13 29 70 28 344 51
289 24z m485 -18 c45 -11 96 -27 113 -35 35 -19 30 -39 -7 -25 -21 8 -26 6
-34 -13 -10 -22 -10 -22 -7 2 1 13 -4 26 -10 28 -7 3 -13 -1 -13 -8 0 -8 -5
-7 -12 4 -7 10 -30 19 -50 22 -29 4 -38 1 -41 -13 -4 -13 -5 -12 -6 4 -1 27
-60 41 -62 15 -1 -14 -2 -14 -6 0 -2 9 -14 21 -26 27 -40 19 70 14 161 -8z
m-1594 -38 c5 -3 -1 -9 -13 -13 -22 -9 -61 7 -61 24 0 8 56 0 74 -11z m599
-179 c-7 -2 -19 -2 -25 0 -7 3 -2 5 12 5 14 0 19 -2 13 -5z m54 -9 c-3 -3 -12
-4 -19 -1 -8 3 -5 6 6 6 11 1 17 -2 13 -5z m140 -30 c-3 -3 -12 -4 -19 -1 -8
3 -5 6 6 6 11 1 17 -2 13 -5z m50 -10 c-3 -3 -12 -4 -19 -1 -8 3 -5 6 6 6 11
1 17 -2 13 -5z m100 -20 c-3 -3 -12 -4 -19 -1 -8 3 -5 6 6 6 11 1 17 -2 13 -5z
m-1287 -51 c-11 -17 -11 -17 -6 0 3 10 6 24 7 30 0 9 2 9 5 0 3 -7 0 -20 -6
-30z m319 -317 c13 -14 28 -23 34 -19 20 12 77 21 77 11 0 -16 -22 -52 -46
-75 -25 -23 -64 -21 -64 3 0 8 -4 14 -8 14 -9 0 -52 84 -52 101 0 14 30 -3 59
-35z m-170 -80 c13 -7 34 -33 46 -56 l22 -43 22 37 c13 20 26 35 29 33 4 -2
15 -7 25 -11 17 -6 16 -10 -13 -64 -18 -31 -33 -58 -34 -59 -1 -1 -18 3 -37 8
-32 10 -40 20 -72 90 -36 80 -34 90 12 65z m311 -125 l0 -99 -27 7 c-27 7 -28
10 -31 82 -3 66 -1 76 19 92 11 9 25 17 30 17 5 0 9 -45 9 -99z m-106 69 c24
-9 26 -14 26 -75 0 -67 -5 -74 -44 -59 -12 5 -16 21 -16 75 0 38 2 69 4 69 3
0 16 -4 30 -10z m-254 -200 c158 -159 214 -220 202 -220 -6 0 -46 35 -90 78
-77 74 -189 177 -254 234 -21 18 -29 31 -24 43 8 23 12 20 166 -135z m495 136
c43 -18 66 -60 44 -81 -11 -12 -22 -13 -53 -4 -21 6 -40 8 -43 5 -8 -8 61 -36
86 -36 14 0 19 -5 15 -15 -14 -35 -104 -9 -143 41 -57 73 2 128 94 90z m245
-108 c0 -91 -2 -100 -17 -93 -10 4 -37 10 -60 12 -56 7 -95 47 -95 98 0 46 15
57 70 52 35 -4 42 -2 42 13 0 23 7 28 35 22 25 -4 25 -6 25 -104z m183 45 c3
-5 -1 -14 -9 -21 -12 -11 -14 -9 -14 8 0 20 14 27 23 13z m-85 -25 c79 -19 90
-31 94 -99 l3 -61 -30 7 c-16 3 -47 8 -68 9 -47 4 -79 31 -75 65 3 24 7 26 56
26 28 -1 52 3 52 7 0 7 -64 28 -87 28 -14 0 -17 13 -6 23 8 9 6 9 61 -5z
m-1118 -348 c0 -5 -5 -10 -11 -10 -5 0 -7 5 -4 10 3 6 8 10 11 10 2 0 4 -4 4
-10z m-333 -517 c-3 -10 -5 -4 -5 12 0 17 2 24 5 18 2 -7 2 -21 0 -30z m331
-68 c56 -29 87 -53 80 -60 -3 -3 -17 -1 -31 4 -22 9 -25 8 -20 -6 4 -11 2 -14
-8 -11 -8 3 -13 11 -11 18 4 19 -18 40 -42 40 -22 0 -46 17 -46 32 0 15 30 8
78 -17z m-38 -91 c0 -2 -9 0 -20 6 -11 6 -20 13 -20 16 0 2 9 0 20 -6 11 -6
20 -13 20 -16z m-414 -5 c39 -24 42 -29 15 -24 -14 3 -18 -1 -14 -11 9 -24 -3
-16 -31 21 -31 40 -19 45 30 14z m83 -35 c6 4 9 2 5 -7 -2 -7 5 -19 18 -26 38
-20 72 -40 88 -51 8 -6 30 -19 48 -30 38 -23 42 -39 7 -32 -14 2 -25 11 -25
18 0 8 -7 14 -15 14 -8 0 -15 5 -15 10 0 6 -7 10 -15 10 -13 0 -41 16 -134 77
-2 1 0 10 3 20 6 14 9 15 15 4 5 -7 14 -11 20 -7z m331 -10 c0 -8 -4 -12 -10
-9 -5 3 -10 10 -10 16 0 5 5 9 10 9 6 0 10 -7 10 -16z m-347 -85 c12 -11 41
-29 65 -40 48 -22 55 -31 14 -19 -37 10 -112 57 -112 70 0 15 9 12 33 -11z
m-150 -146 c-7 -2 -19 -2 -25 0 -7 3 -2 5 12 5 14 0 19 -2 13 -5z m60 0 c-7
-2 -19 -2 -25 0 -7 3 -2 5 12 5 14 0 19 -2 13 -5z"/>
<path d="M18257 11064 c-16 -9 -26 -18 -23 -21 3 -3 12 -1 19 6 15 12 50 5 42
-9 -3 -4 10 -11 28 -14 54 -12 167 -14 173 -4 9 14 -28 38 -48 32 -10 -3 -18
0 -18 6 0 6 -10 8 -25 4 -15 -4 -25 -2 -25 5 0 16 -90 13 -123 -5z"/>
<path d="M18662 10948 c6 -18 28 -21 28 -4 0 9 -7 16 -16 16 -9 0 -14 -5 -12
-12z"/>
<path d="M17015 9979 c-9 -13 -7 -15 28 -23 29 -7 35 2 15 22 -15 15 -35 15
-43 1z"/>
<path d="M17200 9911 c-8 -17 -7 -24 10 -41 30 -30 42 -25 38 17 -3 44 -30 57
-48 24z"/>
<path d="M17390 9826 c0 -15 37 -32 47 -22 3 3 3 12 0 21 -8 19 -47 20 -47 1z"/>
<path d="M20713 11303 c9 -2 23 -2 30 0 6 3 -1 5 -18 5 -16 0 -22 -2 -12 -5z"/>
<path d="M20130 11208 c-36 -10 -137 -40 -225 -65 -156 -46 -195 -63 -195 -89
0 -7 -6 -15 -12 -18 -7 -3 1 -3 17 0 21 4 26 3 16 -4 -7 -5 -11 -14 -7 -20 7
-12 63 1 80 18 5 5 19 10 31 10 12 0 26 5 31 10 15 15 215 72 230 66 7 -3 18
2 25 10 7 8 18 13 26 10 8 -3 31 1 51 10 21 9 31 18 24 21 -9 4 -10 9 -2 17 7
9 5 17 -8 28 -15 13 -24 13 -82 -4z m70 -32 c0 -2 -7 -7 -16 -10 -8 -3 -12 -2
-9 4 6 10 25 14 25 6z m-140 -46 c-8 -5 -22 -9 -30 -9 -10 0 -8 3 5 9 27 12
43 12 25 0z m-119 -36 c-25 -8 -47 -12 -49 -9 -5 5 56 23 78 23 8 0 -5 -6 -29
-14z m-161 -44 c-8 -5 -19 -10 -25 -10 -5 0 -3 5 5 10 8 5 20 10 25 10 6 0 3
-5 -5 -10z"/>
<path d="M21120 11176 c0 -3 9 -10 20 -16 11 -6 20 -8 20 -6 0 3 -9 10 -20 16
-11 6 -20 8 -20 6z"/>
<path d="M20290 11131 c0 -6 4 -13 10 -16 6 -3 7 1 4 9 -7 18 -14 21 -14 7z"/>
<path d="M20178 11096 c-22 -16 -23 -36 -3 -36 8 0 15 -8 15 -17 0 -16 -2 -16
-11 -3 -8 12 -10 12 -7 -4 2 -12 12 -20 25 -21 21 -1 21 0 7 26 -17 34 -18 56
-1 62 6 3 8 6 2 6 -5 0 -18 -6 -27 -13z"/>
<path d="M21357 11089 c7 -7 15 -10 18 -7 3 3 -2 9 -12 12 -14 6 -15 5 -6 -5z"/>
<path d="M19908 11033 c7 -3 16 -2 19 1 4 3 -2 6 -13 5 -11 0 -14 -3 -6 -6z"/>
<path d="M19646 11021 c-4 -5 3 -7 14 -4 23 6 26 13 6 13 -8 0 -17 -4 -20 -9z"/>
<path d="M20196 10988 c3 -4 -2 -8 -10 -8 -16 0 -22 -16 -8 -23 15 -9 72 14
72 29 0 14 -2 14 -16 0 -19 -20 -25 -20 -18 -3 3 8 -2 14 -10 14 -8 0 -13 -4
-10 -9z"/>
<path d="M19774 10979 c-3 -6 -12 -8 -18 -6 -15 6 -17 -23 -4 -40 5 -7 7 -16
4 -22 -7 -11 22 -25 49 -22 18 1 18 0 -3 -12 -12 -7 -20 -16 -17 -19 9 -9 85
13 79 23 -3 5 -9 7 -14 4 -16 -10 -50 19 -61 53 -11 34 -4 57 10 33 7 -10 9
-10 14 1 6 16 -29 22 -39 7z"/>
<path d="M21415 10980 c-3 -5 -1 -10 4 -10 6 0 11 5 11 10 0 6 -2 10 -4 10 -3
0 -8 -4 -11 -10z"/>
<path d="M21650 10986 c0 -2 7 -7 16 -10 8 -3 12 -2 9 4 -6 10 -25 14 -25 6z"/>
<path d="M12785 10950 c-44 -18 -68 -57 -74 -122 -6 -60 -7 -63 -36 -68 -27
-5 -30 -9 -30 -40 0 -32 3 -35 33 -38 l32 -3 0 -160 0 -159 55 0 55 0 0 160 0
160 80 0 80 0 0 -160 0 -160 54 0 c40 0 55 4 60 16 3 9 6 80 6 159 l0 144 53
3 52 3 0 40 0 40 -52 3 -53 3 0 43 c0 49 9 56 71 56 39 0 39 0 39 39 0 46 -9
51 -84 51 -92 0 -144 -54 -145 -152 l-1 -38 -80 0 -80 0 0 31 c0 51 16 69 60
69 40 0 40 0 40 39 0 26 -5 41 -16 45 -22 8 -95 6 -119 -4z"/>
<path d="M11573 10940 c-30 -12 -43 -41 -43 -94 0 -60 25 -86 80 -86 50 0 73
31 73 96 0 67 -53 108 -110 84z m58 -51 c11 -22 5 -84 -10 -94 -32 -19 -60 41
-42 88 13 32 36 35 52 6z"/>
<path d="M19870 10940 c0 -5 5 -10 10 -10 6 0 10 5 10 10 0 6 -4 10 -10 10 -5
0 -10 -4 -10 -10z"/>
<path d="M21770 10940 c8 -5 20 -10 25 -10 6 0 3 5 -5 10 -8 5 -19 10 -25 10
-5 0 -3 -5 5 -10z"/>
<path d="M11707 10784 c-42 -85 -77 -157 -77 -160 0 -2 10 -4 23 -4 23 0 53
52 143 248 l33 72 -22 0 c-20 0 -34 -22 -100 -156z"/>
<path d="M15930 10930 c8 -5 24 -9 35 -9 l20 0 -20 9 c-11 5 -27 9 -35 9 -13
1 -13 0 0 -9z"/>
<path d="M11225 10921 c-69 -17 -114 -62 -140 -141 -13 -40 -16 -77 -13 -163
3 -102 6 -117 33 -166 37 -68 93 -101 170 -101 80 0 133 33 170 105 26 51 30
70 33 161 3 79 0 116 -14 160 -36 115 -128 171 -239 145z m104 -113 c27 -28
36 -73 35 -184 -1 -68 -5 -100 -20 -130 -24 -49 -63 -65 -102 -43 -44 24 -56
62 -56 179 -1 111 13 173 42 190 30 17 80 11 101 -12z"/>
<path d="M19828 10923 c7 -3 16 -2 19 1 4 3 -2 6 -13 5 -11 0 -14 -3 -6 -6z"/>
<path d="M8370 10724 c0 -217 9 -263 59 -313 83 -83 259 -83 342 0 50 50 59
100 59 319 l0 180 -60 0 -60 0 0 -192 c0 -217 -4 -233 -64 -262 -32 -16 -44
-17 -75 -7 -74 22 -76 28 -79 257 l-3 204 -60 0 -59 0 0 -186z"/>
<path d="M10703 10734 c-112 -160 -123 -179 -123 -220 l0 -44 130 0 130 0 0
-56 0 -55 48 3 47 3 3 52 c3 50 4 52 35 55 30 3 32 5 32 43 0 38 -2 40 -32 43
l-33 3 0 175 0 174 -57 0 -58 0 -122 -176z m137 -74 l0 -100 -76 0 -76 0 19
28 c56 86 119 172 126 172 4 0 7 -45 7 -100z"/>
<path d="M21887 10899 c7 -7 15 -10 18 -7 3 3 -2 9 -12 12 -14 6 -15 5 -6 -5z"/>
<path d="M19490 10896 c0 -2 7 -7 16 -10 8 -3 12 -2 9 4 -6 10 -25 14 -25 6z"/>
<path d="M16280 10880 c-13 -8 -13 -10 2 -10 9 0 20 5 23 10 8 13 -5 13 -25 0z"/>
<path d="M9665 10833 c-9 -68 -11 -71 -42 -75 -25 -3 -28 -7 -28 -38 0 -31 3
-35 28 -38 l27 -3 0 -113 c0 -124 10 -167 44 -189 30 -20 102 -29 146 -19 33
7 35 10 35 47 0 39 -1 40 -32 37 -71 -7 -73 -3 -73 123 l0 114 53 3 52 3 0 40
0 40 -52 3 -53 3 0 39 c0 61 -7 70 -55 70 l-44 0 -6 -47z"/>
<path d="M19390 10860 c0 -5 5 -10 11 -10 5 0 7 5 4 10 -3 6 -8 10 -11 10 -2
0 -4 -4 -4 -10z"/>
<path d="M19580 10855 c14 -8 30 -14 35 -14 6 0 -1 6 -15 14 -14 8 -29 14 -35
14 -5 0 1 -6 15 -14z"/>
<path d="M20198 10853 c7 -3 16 -2 19 1 4 3 -2 6 -13 5 -11 0 -14 -3 -6 -6z"/>
<path d="M22020 10850 c8 -5 22 -9 30 -9 10 0 8 3 -5 9 -27 12 -43 12 -25 0z"/>
<path d="M19660 10826 c0 -2 7 -7 16 -10 8 -3 12 -2 9 4 -6 10 -25 14 -25 6z"/>
<path d="M22110 10820 c8 -5 20 -10 25 -10 6 0 3 5 -5 10 -8 5 -19 10 -25 10
-5 0 -3 -5 5 -10z"/>
<path d="M19407 10809 c7 -7 15 -10 18 -7 3 3 -2 9 -12 12 -14 6 -15 5 -6 -5z"/>
<path d="M19823 10813 c9 -2 25 -2 35 0 9 3 1 5 -18 5 -19 0 -27 -2 -17 -5z"/>
<path d="M11825 10801 c-34 -14 -48 -39 -49 -84 -1 -64 24 -97 74 -97 57 0 80
26 80 89 0 73 -48 115 -105 92z m53 -82 c4 -55 -16 -80 -42 -54 -30 30 -13
110 22 103 12 -2 18 -16 20 -49z"/>
<path d="M22220 10782 c8 -5 26 -13 40 -16 17 -5 20 -4 10 2 -8 5 -26 13 -40
16 -17 5 -20 4 -10 -2z"/>
<path d="M9088 10757 c-45 -23 -48 -23 -53 -6 -5 15 -16 19 -51 19 l-44 0 0
-285 0 -285 55 0 55 0 0 95 0 95 23 -15 c42 -27 110 -30 160 -6 67 32 101 101
100 202 -1 125 -54 197 -150 206 -37 4 -59 -1 -95 -20z m92 -77 c10 -5 23 -24
29 -41 23 -67 7 -170 -29 -189 -24 -13 -86 -13 -111 0 -17 10 -19 22 -19 115
0 88 3 106 18 114 22 13 88 14 112 1z"/>
<path d="M10048 10770 c-84 -25 -128 -95 -128 -205 0 -148 78 -223 220 -213
103 7 167 75 177 186 10 106 -31 186 -112 223 -42 19 -110 23 -157 9z m107
-86 c46 -18 62 -151 25 -211 -17 -28 -26 -33 -57 -33 -48 0 -59 7 -78 53 -19
45 -19 97 -1 141 20 49 63 68 111 50z"/>
<path d="M12328 10770 c-84 -25 -128 -95 -128 -205 0 -142 70 -215 203 -215
111 0 184 70 194 188 7 78 -11 138 -56 183 -52 52 -138 72 -213 49z m107 -86
c26 -10 45 -60 45 -119 0 -88 -26 -125 -88 -125 -37 0 -49 10 -67 53 -19 45
-19 97 -1 141 20 49 63 68 111 50z"/>
<path d="M19320 10756 c0 -2 8 -10 18 -17 15 -13 16 -12 3 4 -13 16 -21 21
-21 13z"/>
<path d="M22305 10750 c27 -12 43 -12 25 0 -8 5 -22 9 -30 9 -10 0 -8 -3 5 -9z"/>
<path d="M19740 10710 c20 -13 33 -13 25 0 -3 6 -14 10 -23 10 -15 0 -15 -2
-2 -10z"/>
<path d="M19426 10701 c5 -5 20 -12 34 -15 l25 -7 -25 15 c-28 17 -50 21 -34
7z"/>
<path d="M21728 10703 c6 -2 18 -2 25 0 6 3 1 5 -13 5 -14 0 -19 -2 -12 -5z"/>
<path d="M22292 10680 c0 -14 2 -19 5 -12 2 6 2 18 0 25 -3 6 -5 1 -5 -13z"/>
<path d="M19520 10664 c0 -7 52 -25 57 -20 2 2 -10 8 -26 14 -17 6 -31 9 -31
6z"/>
<path d="M22355 10650 c-3 -5 -1 -10 4 -10 6 0 11 5 11 10 0 6 -2 10 -4 10 -3
0 -8 -4 -11 -10z"/>
<path d="M19616 10621 c5 -5 20 -12 34 -15 l25 -7 -25 15 c-28 17 -50 21 -34
7z"/>
<path d="M19700 10587 c14 -8 36 -17 50 -21 l25 -7 -25 14 c-14 8 -36 17 -50
21 l-25 7 25 -14z"/>
<path d="M20105 10560 c3 -5 13 -10 21 -10 8 0 12 5 9 10 -3 6 -13 10 -21 10
-8 0 -12 -4 -9 -10z"/>
<path d="M19820 10535 c14 -8 30 -14 35 -14 6 0 -1 6 -15 14 -14 8 -29 14 -35
14 -5 0 1 -6 15 -14z"/>
<path d="M22429 10533 c-13 -16 -12 -17 4 -4 9 7 17 15 17 17 0 8 -8 3 -21
-13z"/>
<path d="M21995 10516 c-22 -7 -51 -17 -65 -24 -70 -32 -311 -111 -325 -106
-10 4 -15 0 -15 -10 0 -9 -5 -16 -11 -16 -5 0 -8 -4 -4 -9 3 -5 1 -12 -5 -16
-15 -10 -12 -20 16 -50 30 -33 26 -50 -15 -58 -17 -4 -31 -11 -31 -16 0 -6 16
-3 36 5 48 20 42 -1 -9 -35 -51 -34 -48 -72 5 -52 12 5 26 8 30 7 4 0 19 15
33 33 19 26 25 46 23 78 -2 61 -9 57 177 123 44 15 88 31 98 35 9 4 17 3 17
-3 0 -5 -61 -31 -135 -57 -75 -26 -134 -50 -131 -52 2 -3 57 14 122 38 64 23
129 42 143 41 69 -2 82 -5 72 -15 -6 -6 -16 -12 -23 -13 -26 -4 -129 -46 -125
-51 3 -2 22 3 42 11 49 21 56 20 26 -3 -13 -10 -21 -23 -17 -29 8 -14 71 3 95
26 10 9 28 25 39 34 12 10 22 29 22 42 0 19 8 27 36 36 19 7 34 14 31 16 -2 2
-18 -1 -36 -7 -40 -14 -48 -7 -27 23 30 42 14 89 -28 87 -12 -1 -39 -7 -61
-13z m33 -107 c2 -9 -4 -19 -12 -22 -9 -4 -15 -1 -13 5 1 6 -4 13 -12 16 -8 3
-11 0 -7 -7 5 -7 1 -9 -9 -5 -14 6 -14 8 2 20 23 17 47 14 51 -7z m-38 -94 c0
-8 -4 -15 -10 -15 -5 0 -10 7 -10 15 0 8 5 15 10 15 6 0 10 -7 10 -15z"/>
<path d="M19890 10506 c28 -17 50 -21 35 -7 -6 5 -21 12 -35 15 l-25 7 25 -15z"/>
<path d="M22350 10500 c-9 -6 -10 -10 -3 -10 6 0 15 5 18 10 8 12 4 12 -15 0z"/>
<path d="M20000 10460 c19 -11 40 -19 45 -19 6 0 -6 8 -25 19 -19 11 -39 19
-45 19 -5 0 6 -8 25 -19z"/>
<path d="M22235 10460 c-3 -5 -2 -10 4 -10 5 0 13 5 16 10 3 6 2 10 -4 10 -5
0 -13 -4 -16 -10z"/>
<path d="M22200 10450 c-9 -6 -10 -10 -3 -10 6 0 15 5 18 10 8 12 4 12 -15 0z"/>
<path d="M21218 10433 c7 -3 16 -2 19 1 4 3 -2 6 -13 5 -11 0 -14 -3 -6 -6z"/>
<path d="M20096 10421 c5 -5 20 -12 34 -15 l25 -7 -25 15 c-28 17 -50 21 -34
7z"/>
<path d="M20495 10400 c3 -5 13 -10 21 -10 8 0 12 5 9 10 -3 6 -13 10 -21 10
-8 0 -12 -4 -9 -10z"/>
<path d="M20160 10397 c0 -7 171 -79 176 -74 2 2 -31 19 -73 37 -103 43 -103
43 -103 37z"/>
<path d="M20356 10311 c5 -5 20 -12 34 -15 l25 -7 -25 15 c-28 17 -50 21 -34
7z"/>
<path d="M20450 10271 c19 -10 46 -21 60 -25 14 -3 3 5 -25 18 -58 29 -87 34
-35 7z"/>
<path d="M21780 10264 l-25 -15 25 7 c14 3 29 10 35 15 15 14 -7 10 -35 -7z"/>
<path d="M20560 10225 c14 -8 30 -14 35 -14 6 0 -1 6 -15 14 -14 8 -29 14 -35
14 -5 0 1 -6 15 -14z"/>
<path d="M20654 10185 c11 -8 26 -15 33 -15 22 0 14 8 -19 19 -30 10 -31 9
-14 -4z"/>
<path d="M21460 10184 l-25 -15 25 7 c14 3 32 10 40 15 13 7 13 8 0 8 -8 0
-26 -6 -40 -15z"/>
<path d="M20978 10173 c12 -2 30 -2 40 0 9 3 -1 5 -23 4 -22 0 -30 -2 -17 -4z"/>
<path d="M21108 10173 c7 -3 16 -2 19 1 4 3 -2 6 -13 5 -11 0 -14 -3 -6 -6z"/>
<path d="M21408 10163 c7 -3 16 -2 19 1 4 3 -2 6 -13 5 -11 0 -14 -3 -6 -6z"/>
<path d="M20736 10151 c5 -5 20 -12 34 -15 l25 -7 -25 15 c-28 17 -50 21 -34
7z"/>
<path d="M21345 10144 l-30 -15 30 6 c17 4 34 11 40 16 13 13 -5 10 -40 -7z"/>
<path d="M20836 10111 c5 -5 23 -12 39 -16 30 -6 30 -6 -4 10 -38 17 -49 19
-35 6z"/>
<path d="M21235 10105 l-30 -14 30 6 c17 3 34 10 40 14 14 13 -5 10 -40 -6z"/>
<path d="M20918 10083 c7 -3 16 -2 19 1 4 3 -2 6 -13 5 -11 0 -14 -3 -6 -6z"/>
<path d="M20998 10073 c7 -3 16 -2 19 1 4 3 -2 6 -13 5 -11 0 -14 -3 -6 -6z"/>
<path d="M21083 10073 c9 -2 23 -2 30 0 6 3 -1 5 -18 5 -16 0 -22 -2 -12 -5z"/>
<path d="M21170 9882 c-130 -8 -219 -19 -226 -26 -8 -8 -14 -165 -18 -525 -4
-283 -8 -516 -10 -518 -2 -3 -131 59 -286 137 -342 171 -390 193 -390 177 0
-13 157 -110 177 -110 7 0 9 -5 6 -10 -4 -6 3 -8 15 -5 12 4 20 3 17 -2 -2 -4
17 -15 43 -24 26 -10 55 -21 64 -27 10 -5 24 -9 31 -9 8 0 49 -18 93 -39 43
-21 114 -55 157 -75 l77 -37 0 -289 c0 -280 -1 -289 -20 -295 -23 -7 -25 -16
-7 -34 10 -10 9 -11 -5 -6 -13 5 -15 2 -10 -17 10 -41 95 -92 174 -104 21 -4
41 -11 44 -15 3 -5 33 -9 68 -9 52 0 66 4 84 23 12 13 22 28 22 34 0 6 11 18
24 26 17 12 26 13 35 4 8 -8 11 -7 11 6 0 21 27 12 33 -11 3 -11 5 -9 6 7 1
16 5 21 16 17 8 -3 15 -1 15 4 0 19 21 10 30 -12 9 -20 10 -21 8 -3 -4 35 69
96 137 115 l60 17 1 159 c0 87 -1 130 -3 94 -3 -51 -8 -69 -24 -82 -12 -10
-16 -18 -10 -18 6 0 11 -7 11 -15 0 -8 -4 -15 -10 -15 -5 0 -10 5 -10 10 0 12
-30 13 -49 1 -13 -8 -13 -12 -1 -26 12 -14 12 -18 -1 -26 -12 -7 -12 -9 1 -9
13 0 13 -1 0 -10 -13 -9 -13 -10 0 -10 12 0 13 -2 1 -9 -11 -7 -11 -9 0 -14 8
-3 4 -6 -8 -6 -21 -1 -23 3 -23 54 0 48 -3 55 -19 55 -11 0 -23 6 -27 12 -5 7
-14 71 -20 143 -7 71 -19 150 -28 175 -10 29 -12 48 -5 56 9 12 -18 44 -29 34
-10 -9 -22 54 -18 96 3 41 18 70 69 137 35 45 72 66 126 70 45 4 53 1 69 -28
9 -15 11 31 12 203 0 122 0 225 1 229 1 4 -44 32 -100 62 l-101 56 0 125 c0
132 -6 151 -44 148 -12 0 -118 -8 -236 -16z m138 -110 c6 -9 12 -19 12 -24 0
-20 -53 -36 -142 -42 -87 -6 -98 -5 -107 12 -14 25 0 43 51 63 54 22 166 17
186 -9z m26 -211 c3 -5 -2 -12 -11 -16 -10 -3 -19 -1 -22 6 -2 8 -5 8 -10 0
-8 -13 -71 -4 -71 10 0 12 107 12 114 0z m-4 -201 c0 -72 -4 -102 -12 -105 -7
-2 -50 -6 -95 -10 l-83 -6 0 100 0 99 68 7 c59 5 88 9 115 14 4 0 7 -44 7 -99z
m250 55 c0 -16 -6 -25 -15 -25 -15 0 -21 31 -8 43 13 14 23 6 23 -18z m-604
-123 c-3 -3 0 -12 6 -21 10 -13 10 -14 -2 -4 -16 15 -23 46 -8 37 5 -3 7 -9 4
-12z m-26 -132 l-11 -25 6 25 c2 14 6 39 6 55 l2 30 4 -30 c2 -17 -1 -42 -7
-55z m380 -20 c0 -5 -7 -10 -16 -10 -8 0 -12 5 -9 10 3 6 10 10 16 10 5 0 9
-4 9 -10z m-30 -50 c-56 -13 -160 -19 -160 -10 0 10 54 16 140 17 49 1 51 0
20 -7z m-60 -40 c-36 -12 -72 -12 -65 0 3 6 25 10 48 9 36 -1 38 -2 17 -9z
m-293 -122 c-3 -8 -6 -5 -6 6 -1 11 2 17 5 13 3 -3 4 -12 1 -19z m330 -310
c-3 -8 -6 -5 -6 6 -1 11 2 17 5 13 3 -3 4 -12 1 -19z m-267 -307 l0 -145 -40
39 -40 39 0 145 0 145 40 -39 40 -39 0 -145z m318 152 c-3 -27 -5 -28 -91 -39
-48 -5 -90 -8 -92 -5 -3 2 -5 15 -5 27 0 20 6 23 58 29 31 3 64 8 72 9 49 11
61 6 58 -21z m-241 -99 c-10 -10 -57 36 -57 55 0 11 10 6 32 -16 18 -18 29
-36 25 -39z m241 4 c-3 -48 11 -41 -140 -61 l-48 -7 0 45 0 44 48 6 c26 3 54
8 62 9 8 2 30 4 48 5 33 1 33 1 30 -41z m-240 -74 c-8 -7 -58 41 -58 56 0 6
14 -3 32 -19 18 -17 29 -33 26 -37z m-51 -66 c-3 -8 -6 -5 -6 6 -1 11 2 17 5
13 3 -3 4 -12 1 -19z m520 16 c-3 -3 -12 -4 -19 -1 -8 3 -5 6 6 6 11 1 17 -2
13 -5z m-486 -51 c13 -16 12 -17 -3 -4 -17 13 -22 21 -14 21 2 0 10 -8 17 -17z
m0 -70 c13 -16 12 -17 -3 -4 -17 13 -22 21 -14 21 2 0 10 -8 17 -17z m109 -37
c0 -2 -7 -6 -15 -10 -8 -3 -15 -1 -15 4 0 6 7 10 15 10 8 0 15 -2 15 -4z"/>
<path d="M21295 9390 c3 -5 8 -10 11 -10 2 0 4 5 4 10 0 6 -5 10 -11 10 -5 0
-7 -4 -4 -10z"/>
<path d="M21160 9381 c0 -5 9 -7 20 -4 11 3 20 7 20 9 0 2 -9 4 -20 4 -11 0
-20 -4 -20 -9z"/>
<path d="M21275 8370 l-30 -8 33 -1 c17 0 32 4 32 9 0 6 -1 9 -2 9 -2 -1 -16
-5 -33 -9z"/>
<path d="M20676 9862 c-4 -7 2 -24 16 -41 19 -22 26 -25 36 -15 16 17 15 35 0
32 -7 -2 -12 3 -10 11 2 8 -3 11 -12 8 -8 -3 -16 -1 -19 6 -2 8 -5 8 -11 -1z"/>
<path d="M8133 9853 c-10 -3 -13 -66 -13 -263 0 -142 3 -265 6 -274 9 -24 109
-23 118 1 4 10 6 63 5 118 l-2 100 107 3 106 3 2 -93 c0 -51 2 -97 3 -103 2
-5 3 -18 4 -28 1 -15 9 -18 59 -15 l57 3 3 254 c2 140 1 265 -3 278 -5 20 -12
23 -53 23 -26 0 -53 -5 -60 -12 -8 -8 -12 -48 -12 -115 l0 -103 -107 0 -108 0
3 91 c5 131 2 139 -56 138 -26 0 -53 -3 -59 -6z"/>
<path d="M10525 9848 c-3 -8 -4 -132 -3 -278 l3 -265 57 -3 c53 -3 58 -1 63
21 4 13 5 65 3 115 l-3 91 90 3 90 3 3 43 3 42 -90 0 -91 0 0 70 0 70 111 0
110 0 -3 48 -3 47 -168 3 c-129 2 -169 0 -172 -10z"/>
<path d="M20761 9820 c1 -42 1 -43 9 -16 6 17 5 36 0 45 -7 11 -9 3 -9 -29z"/>
<path d="M20563 9844 c3 -4 -1 -13 -9 -22 -13 -12 -13 -16 -2 -23 22 -14 65
-10 79 8 12 14 12 16 0 8 -11 -6 -13 -3 -9 13 5 20 2 22 -30 22 -19 0 -33 -3
-29 -6z"/>
<path d="M11725 9783 c-11 -66 -16 -74 -46 -80 -26 -5 -29 -9 -29 -44 0 -37 2
-39 30 -39 l30 0 0 -122 c0 -144 13 -178 76 -198 35 -12 122 -9 144 5 6 3 10
24 10 47 l0 40 -35 -6 c-67 -13 -75 0 -75 124 l0 109 53 3 52 3 3 43 3 42 -55
0 -55 0 -3 53 -3 52 -47 3 -47 3 -6 -38z"/>
<path d="M8797 9706 c-22 -8 -50 -24 -63 -37 -48 -45 -70 -148 -51 -242 11
-50 68 -114 115 -127 93 -25 199 0 239 56 72 102 48 278 -45 336 -43 26 -143
34 -195 14z m129 -99 c22 -19 28 -34 32 -80 8 -98 -19 -147 -81 -147 -62 0
-95 73 -78 166 15 80 73 107 127 61z"/>
<path d="M9313 9696 c-49 -23 -51 -24 -56 -5 -4 15 -14 19 -50 19 -32 0 -47
-5 -51 -16 -3 -9 -6 -94 -6 -189 0 -95 3 -180 6 -189 5 -12 20 -16 60 -16 l54
0 0 154 0 154 31 11 c44 15 75 14 93 -5 13 -13 16 -42 16 -165 l0 -150 58 3
57 3 5 155 c5 154 5 154 30 161 92 25 100 11 100 -172 l0 -149 61 0 60 0 -3
180 -3 180 -28 27 c-24 25 -35 28 -90 28 -43 0 -74 -6 -102 -21 l-40 -20 -34
23 c-44 30 -101 30 -168 -1z"/>
<path d="M9970 9704 c-78 -34 -113 -96 -113 -201 0 -140 68 -213 200 -213 35
0 84 5 109 11 43 11 44 13 44 50 l0 39 -57 -6 c-32 -4 -60 -7 -63 -6 -77 1
-120 28 -120 74 0 23 1 23 111 20 75 -2 115 1 125 9 9 7 14 31 14 63 0 69 -33
135 -80 158 -43 22 -123 23 -170 2z m127 -86 c13 -12 23 -32 23 -45 0 -22 -3
-23 -79 -23 l-78 0 5 25 c6 32 47 65 80 65 14 0 36 -10 49 -22z"/>
<path d="M11020 9705 c-79 -36 -113 -97 -113 -202 0 -143 67 -213 206 -213 38
0 87 5 108 12 36 10 39 14 39 49 l0 37 -94 -5 c-91 -6 -95 -5 -120 20 -14 14
-26 35 -26 47 0 19 6 20 113 20 75 0 117 4 125 12 7 7 12 36 12 65 0 62 -27
124 -65 149 -36 23 -141 28 -185 9z m129 -91 c12 -15 21 -35 21 -45 0 -17 -9
-19 -79 -19 l-78 0 5 25 c11 61 95 85 131 39z"/>
<path d="M11394 9706 c-17 -8 -41 -27 -53 -42 -19 -24 -22 -38 -18 -78 5 -61
30 -85 117 -117 68 -25 84 -39 75 -68 -8 -26 -48 -34 -114 -21 -80 15 -81 14
-81 -26 0 -31 4 -37 35 -50 52 -21 157 -18 206 7 71 36 90 133 37 186 -13 12
-54 35 -93 51 -60 24 -70 32 -70 53 0 24 2 24 83 23 l82 -1 0 38 c0 35 -3 39
-37 48 -52 15 -132 13 -169 -3z"/>
<path d="M19937 9619 c7 -7 15 -10 18 -7 3 3 -2 9 -12 12 -14 6 -15 5 -6 -5z"/>
<path d="M19978 9598 c5 -5 16 -8 23 -6 8 3 3 7 -10 11 -17 4 -21 3 -13 -5z"/>
<path d="M20020 9553 c0 -43 5 -41 13 5 4 18 2 32 -3 32 -6 0 -10 -16 -10 -37z"/>
<path d="M19856 9561 c-28 -9 -52 -23 -54 -29 -2 -8 3 -10 15 -6 16 5 16 4 -1
-10 -26 -21 -36 -20 -36 3 0 14 -6 19 -20 18 -11 -1 -20 -7 -20 -14 0 -7 -1
-16 -1 -20 -2 -8 50 -41 65 -42 6 -1 2 5 -8 12 -15 11 -5 17 79 47 53 19 99
39 102 44 4 5 -1 7 -10 3 -10 -3 -17 -2 -17 3 0 15 -38 11 -94 -9z m84 0 c0
-5 -12 -11 -27 -14 -16 -3 -36 -9 -45 -12 -10 -4 -18 -3 -18 2 0 6 15 15 33
21 42 13 57 14 57 3z m-163 -67 c-3 -3 -12 -4 -19 -1 -8 3 -5 6 6 6 11 1 17
-2 13 -5z"/>
<path d="M19995 9570 c-3 -5 -1 -10 4 -10 6 0 11 5 11 10 0 6 -2 10 -4 10 -3
0 -8 -4 -11 -10z"/>
<path d="M19562 9538 c-26 -26 -13 -54 41 -91 30 -21 58 -37 64 -37 6 0 16 -6
22 -13 6 -8 32 -24 58 -36 27 -13 55 -27 63 -32 16 -10 122 -61 130 -64 35 -9
49 -18 44 -27 -4 -7 -2 -8 4 -4 22 13 12 24 -40 49 -29 14 -110 53 -180 87
l-128 62 0 37 c0 30 -6 42 -30 59 -34 26 -33 25 -48 10z"/>
<path d="M19963 9513 c-3 -10 -8 -22 -11 -27 -3 -5 0 -6 5 -3 11 7 25 47 17
47 -3 0 -7 -8 -11 -17z"/>
<path d="M16266 9473 c-11 -11 -6 -20 19 -31 14 -6 25 -8 25 -4 0 12 -38 41
-44 35z"/>
<path d="M19746 9451 c-4 -7 -5 -15 -2 -18 9 -9 19 4 14 18 -4 11 -6 11 -12 0z"/>
<path d="M19675 9340 c3 -6 12 -10 19 -10 27 0 154 -71 200 -111 25 -23 58
-61 72 -85 36 -61 41 -55 7 8 -30 56 -97 115 -177 155 -64 32 -129 55 -121 43z"/>
<path d="M21956 9306 c4 -10 1 -16 -9 -16 -8 0 -17 6 -20 13 -2 6 -7 9 -11 6
-4 -4 3 -16 15 -27 20 -19 20 -22 6 -37 -9 -9 -32 -22 -50 -30 -30 -12 -37
-12 -53 1 -16 13 -17 15 -2 10 10 -3 24 2 33 10 8 8 18 13 23 10 10 -6 38 11
30 19 -10 10 -138 -39 -138 -53 0 -15 -40 -7 -51 10 -3 5 -6 -7 -7 -27 -1 -20
3 -33 8 -30 5 3 6 13 3 22 -5 13 -2 15 17 10 13 -3 31 -2 40 3 9 5 22 5 29 1
8 -6 -1 -13 -28 -25 -51 -20 -54 -30 -3 -12 136 48 252 106 213 106 -11 0 -11
3 -2 14 10 12 8 13 -9 9 -14 -4 -20 -1 -18 7 2 7 -3 15 -10 17 -8 3 -10 -1 -6
-11z m29 -46 c3 -5 1 -10 -4 -10 -6 0 -11 5 -11 10 0 6 2 10 4 10 3 0 8 -4 11
-10z"/>
<path d="M18872 9289 c-13 -5 -27 -7 -31 -5 -4 3 -48 -6 -97 -20 -49 -13 -111
-29 -138 -34 -28 -6 -52 -14 -55 -19 -4 -5 -15 -11 -26 -14 -16 -4 -14 -5 7
-6 15 0 33 -8 42 -16 8 -8 19 -15 24 -15 12 0 24 -29 16 -41 -3 -5 2 -12 10
-15 29 -11 17 -26 -14 -19 -26 6 -30 4 -30 -14 0 -18 6 -21 38 -21 39 0 156
25 176 38 6 3 14 7 17 7 3 0 13 7 22 16 17 18 13 31 -8 23 -10 -4 -12 6 -8 43
4 40 11 54 45 86 22 20 39 37 37 36 -2 0 -15 -4 -27 -10z"/>
<path d="M21883 9179 c-54 -23 -73 -36 -73 -50 0 -24 4 -24 76 5 37 15 60 31
63 43 2 10 8 21 15 25 25 17 -13 6 -81 -23z"/>
<path d="M20002 9132 c41 -79 37 -160 -12 -256 -76 -150 -311 -327 -584 -440
-45 -19 -49 -19 -41 -6 3 6 1 10 -4 10 -6 0 -11 -7 -11 -16 0 -13 -6 -15 -27
-10 -18 4 -23 3 -15 -2 11 -7 10 -10 -3 -16 -26 -9 -42 -7 -25 4 24 16 0 12
-80 -14 -47 -15 -67 -25 -55 -28 21 -4 -65 -28 -260 -74 -98 -23 -155 -29
-220 -24 -35 3 -271 -14 -250 -18 41 -7 85 -24 85 -32 0 -7 -153 -27 -172 -22
-5 1 -8 -2 -8 -6 0 -9 95 -66 175 -105 120 -59 342 -117 545 -143 134 -16 416
-18 545 -4 499 58 886 252 1012 507 36 73 38 82 38 173 0 88 -3 101 -34 164
-39 81 -137 185 -225 241 -106 67 -279 145 -377 168 l-26 7 29 -58z m-752
-751 c-8 -5 -31 -11 -50 -15 l-35 -6 35 14 c41 17 75 21 50 7z m-622 -138
c-10 -2 -26 -2 -35 0 -10 3 -2 5 17 5 19 0 27 -2 18 -5z m-80 -10 c-10 -2 -28
-2 -40 0 -13 2 -5 4 17 4 22 1 32 -1 23 -4z"/>
<path d="M21995 9140 c-16 -7 -17 -9 -3 -9 9 -1 20 4 23 9 7 11 7 11 -20 0z"/>
<path d="M21770 9130 c-13 -8 -13 -10 2 -10 9 0 20 5 23 10 8 13 -5 13 -25 0z"/>
<path d="M21921 9110 c-23 -11 -47 -17 -52 -14 -5 3 -9 1 -9 -5 0 -5 -24 -14
-52 -20 -59 -13 -138 -40 -152 -53 -6 -5 -6 -12 1 -19 9 -9 23 -7 55 8 70 33
203 88 208 86 3 -1 17 7 30 18 32 24 26 23 -29 -1z"/>
<path d="M18879 9097 c-18 -25 -121 -56 -200 -60 -26 -1 -45 -6 -42 -11 8 -12
-68 3 -85 16 -18 16 -25 3 -12 -21 6 -12 7 -21 3 -21 -4 -1 3 -7 17 -15 33
-19 17 -19 -20 0 -24 12 -28 13 -24 1 3 -7 -1 -16 -9 -19 -8 -3 -14 0 -13 6 1
13 -6 17 -29 17 -8 0 -15 -6 -15 -14 0 -7 -11 -16 -25 -18 -13 -3 -22 -2 -20
3 11 17 -13 17 -29 0 -9 -10 -35 -26 -56 -36 -22 -10 -38 -20 -35 -23 5 -5
-22 -23 -62 -41 -13 -6 -23 -13 -23 -16 0 -4 5 -3 12 1 7 4 8 3 4 -4 -4 -7
-14 -12 -22 -12 -9 0 -12 -5 -8 -12 4 -6 3 -8 -4 -4 -6 3 -16 -2 -22 -11 -11
-17 -11 -17 -6 0 10 33 -14 7 -38 -41 -33 -66 -49 -152 -41 -224 8 -68 58
-176 104 -224 26 -28 38 -32 106 -39 90 -8 266 0 418 21 59 8 112 14 117 14 6
0 9 3 9 8 -4 22 3 32 24 33 17 1 16 3 -8 9 l-30 7 25 11 c23 10 23 11 4 11
-15 1 -23 9 -27 27 -6 31 2 64 14 64 5 0 9 18 9 40 0 23 5 40 11 40 6 0 9 7 5
15 -3 9 0 15 9 15 8 0 15 5 15 10 0 20 39 50 57 43 16 -6 16 -5 4 10 -17 21
-8 22 13 1 19 -19 76 -36 76 -23 0 5 -8 9 -18 9 -11 0 -27 9 -38 21 -15 17
-16 23 -6 40 12 18 10 19 -15 13 -160 -37 -256 -72 -402 -146 -94 -48 -128
-61 -113 -45 12 13 19 27 15 31 -4 4 -1 5 7 1 9 -3 23 5 34 20 10 14 25 25 32
25 8 0 14 5 14 11 0 6 7 9 15 5 8 -3 18 1 22 8 9 16 53 39 114 61 128 47 154
55 183 60 17 2 54 9 81 15 73 14 292 40 348 40 57 0 87 14 87 40 0 10 8 21 18
24 9 3 89 3 177 1 116 -3 179 -10 229 -24 38 -11 76 -16 85 -13 26 10 -13 -46
-73 -103 -28 -27 -43 -43 -31 -35 86 61 170 165 191 237 12 39 12 48 -1 66
-15 21 -15 20 -15 -11 0 -18 -4 -31 -9 -28 -5 4 -7 -4 -4 -16 l5 -23 -19 21
c-12 14 -35 24 -68 28 -69 10 -85 15 -85 31 0 18 -26 26 -57 19 -19 -5 -30 -2
-40 11 -12 17 -13 17 -13 2 0 -21 -36 -23 -47 -3 -6 9 -40 15 -118 20 -166 9
-235 17 -235 28 0 6 -19 8 -47 4 -103 -13 -193 -18 -193 -10 0 5 -16 10 -35
11 -23 2 -35 -1 -35 -10 0 -8 -4 -7 -10 3 -6 9 -10 10 -10 3 0 -6 -10 -15 -22
-19 -22 -7 -22 -7 -3 -15 13 -5 15 -8 5 -8 -8 0 -21 3 -28 8 -10 6 -7 12 13
25 15 10 24 20 21 23 -3 3 -12 1 -19 -6 -12 -9 -13 -7 -9 14 5 31 -8 32 -29 2z
m-329 -135 c0 -5 -9 -17 -20 -27 -11 -10 -20 -13 -20 -7 0 7 5 12 10 12 6 0
10 7 10 15 0 8 5 15 10 15 6 0 10 -4 10 -8z m1394 -61 c-7 -9 -24 13 -24 32 0
21 1 21 13 -3 8 -14 12 -27 11 -29z"/>
<path d="M20892 8880 c0 -14 2 -19 5 -12 2 6 2 18 0 25 -3 6 -5 1 -5 -13z"/>
<path d="M8144 8857 c-2 -7 -3 -71 -2 -143 l3 -129 88 -5 89 -5 13 -38 c25
-72 75 -107 152 -107 65 0 109 28 135 87 16 35 19 55 13 87 -4 23 -11 91 -14
151 l-6 110 -233 3 c-185 2 -234 0 -238 -11z m446 -32 c0 -13 -30 -15 -210
-15 -180 0 -210 2 -210 15 0 13 30 15 210 15 180 0 210 -2 210 -15z m-168 -97
c-43 -21 -74 -55 -86 -95 -7 -21 -13 -23 -87 -23 l-79 0 0 70 0 70 148 0 147
-1 -43 -21z m168 -3 l0 -24 -37 21 c-21 12 -40 23 -42 25 -2 2 14 3 37 3 38 0
42 -2 42 -25z m-49 -30 c39 -21 69 -71 69 -118 0 -28 -8 -46 -32 -73 -84 -90
-219 -39 -218 83 1 95 96 152 181 108z"/>
<path d="M8393 8638 c-18 -24 -22 -48 -13 -73 13 -34 56 -34 72 0 6 14 14 25
17 25 17 -1 31 -19 25 -33 -3 -10 -1 -17 5 -17 7 0 14 7 18 16 6 15 7 15 19 0
18 -26 48 -16 52 17 3 26 -4 32 -36 28 -11 -2 -11 2 -2 19 15 29 2 40 -16 15
-14 -19 -16 -19 -25 -2 -12 21 -38 22 -45 2 -5 -13 -8 -13 -21 0 -18 18 -37
19 -50 3z m37 -42 c0 -14 -4 -28 -10 -31 -6 -4 -10 7 -10 24 0 17 5 31 10 31
6 0 10 -11 10 -24z"/>
<path d="M21590 8815 l-55 -13 58 -1 c44 -1 57 2 57 14 0 8 -1 14 -2 14 -2 -1
-28 -7 -58 -14z"/>
<path d="M8979 8799 c-8 -16 -8 -28 0 -45 18 -41 71 -25 71 21 0 44 -50 61
-71 24z m43 -11 c6 -17 -1 -38 -13 -38 -5 0 -9 11 -9 25 0 26 14 34 22 13z"/>
<path d="M9073 8783 c-8 -21 -24 -55 -34 -75 -12 -23 -15 -39 -9 -43 6 -3 26
28 45 71 39 86 39 84 24 84 -5 0 -17 -17 -26 -37z"/>
<path d="M10086 8813 c-8 -8 -8 -237 0 -257 7 -18 49 -22 60 -5 4 7 -1 16 -10
21 -13 7 -16 28 -16 122 0 89 -3 115 -14 119 -8 3 -17 3 -20 0z"/>
<path d="M10186 8813 c-3 -4 -6 -61 -6 -128 0 -128 5 -145 47 -145 26 0 32 25
8 34 -12 4 -15 27 -15 120 0 88 -3 115 -14 119 -8 3 -17 3 -20 0z"/>
<path d="M11307 8806 c-12 -10 -14 -20 -8 -41 5 -20 10 -25 15 -17 6 10 11 10
22 1 11 -9 14 -8 14 4 0 8 2 21 5 29 8 21 -27 38 -48 24z"/>
<path d="M8804 8776 c-24 -20 -28 -33 -32 -88 -5 -86 14 -134 60 -146 75 -20
123 30 122 128 -1 57 -15 96 -43 117 -26 20 -77 15 -107 -11z m88 -23 c24 -22
26 -143 2 -167 -43 -43 -84 -1 -84 86 0 45 5 63 20 78 24 24 38 25 62 3z"/>
<path d="M9294 8787 c-2 -7 -3 -65 -2 -127 3 -100 5 -115 21 -118 15 -3 17 8
17 127 0 111 -2 131 -15 131 -9 0 -18 -6 -21 -13z"/>
<path d="M21488 8793 c6 -2 18 -2 25 0 6 3 1 5 -13 5 -14 0 -19 -2 -12 -5z"/>
<path d="M9770 8760 c0 -10 -9 -24 -20 -30 -24 -13 -26 -30 -5 -30 12 0 15
-14 15 -63 0 -78 14 -100 60 -95 42 4 51 25 13 30 -27 3 -28 5 -28 63 0 54 2
60 23 65 31 7 29 24 -3 28 -19 3 -25 9 -25 28 0 15 -6 24 -15 24 -8 0 -15 -9
-15 -20z"/>
<path d="M11030 8757 c0 -16 -7 -26 -20 -30 -11 -3 -20 -10 -20 -15 0 -5 9
-12 20 -15 17 -4 20 -14 20 -65 0 -83 5 -92 51 -92 43 0 57 26 17 32 -21 3
-23 9 -26 66 -3 61 -2 62 23 62 35 0 33 28 -2 32 -20 2 -28 9 -28 23 0 11 -8
21 -17 23 -13 3 -18 -3 -18 -21z"/>
<path d="M9102 8748 c-17 -17 -15 -63 2 -77 11 -9 20 -10 35 -1 28 14 29 65 2
80 -24 13 -24 13 -39 -2z m36 -40 c-2 -13 -7 -23 -13 -23 -5 0 -11 10 -13 23
-2 15 2 22 13 22 11 0 15 -7 13 -22z"/>
<path d="M19142 8718 c11 -31 21 -37 16 -11 -2 10 7 22 22 30 24 13 24 13 -11
10 -35 -2 -36 -3 -27 -29z"/>
<path d="M9925 8731 c-16 -3 -31 -14 -33 -23 -3 -14 3 -15 38 -11 30 4 45 2
51 -8 17 -27 9 -39 -25 -39 -48 0 -66 -9 -77 -38 -7 -18 -5 -31 6 -49 14 -21
22 -23 78 -20 l62 3 3 64 c4 87 -2 106 -39 119 -18 6 -32 10 -33 10 -1 -1 -14
-4 -31 -8z m65 -130 c0 -29 -63 -45 -73 -18 -8 24 6 37 39 37 27 0 34 -4 34
-19z"/>
<path d="M10365 8729 c-16 -5 -39 -6 -52 -3 -23 6 -23 5 -23 -90 0 -89 1 -96
20 -96 18 0 20 7 20 75 0 71 1 75 25 81 48 12 55 1 55 -81 0 -68 2 -75 20 -75
18 0 20 7 20 74 0 77 5 86 50 86 23 0 29 -19 28 -95 -1 -53 1 -60 18 -60 16 0
19 9 22 55 7 116 -18 150 -91 125 -21 -7 -39 -9 -42 -5 -8 13 -39 17 -70 9z"/>
<path d="M10663 8732 c-84 -13 -82 -178 2 -194 38 -8 90 6 90 22 0 11 -11 14
-46 12 -49 -4 -76 15 -65 44 5 12 18 15 58 12 52 -3 53 -2 56 25 6 54 -35 88
-95 79z m55 -59 c3 -21 -1 -23 -37 -23 -27 0 -41 4 -41 13 0 41 72 50 78 10z"/>
<path d="M11172 8725 c-29 -13 -33 -19 -30 -47 3 -28 10 -36 50 -56 35 -16 46
-26 41 -38 -5 -13 -16 -15 -50 -11 -36 4 -43 2 -41 -11 8 -42 113 -30 124 14
9 35 -1 51 -46 74 -49 25 -47 45 3 45 44 0 50 21 11 35 -14 6 -26 10 -27 10
-1 -1 -17 -7 -35 -15z"/>
<path d="M19111 8723 c7 -12 15 -20 18 -17 3 2 -3 12 -13 22 -17 16 -18 16 -5
-5z"/>
<path d="M9390 8633 c0 -86 1 -93 20 -93 18 0 20 7 20 75 0 71 1 75 25 81 46
11 54 1 57 -78 3 -64 5 -73 22 -73 18 0 19 7 17 80 -1 44 -7 85 -13 92 -6 8
-34 11 -79 10 l-69 -2 0 -92z"/>
<path d="M9596 8711 c-28 -31 -14 -64 36 -87 60 -27 57 -49 -5 -48 -38 0 -47
-3 -45 -15 2 -12 18 -17 55 -19 46 -3 54 0 69 23 23 35 5 68 -48 88 -50 20
-45 41 11 45 56 4 49 26 -10 30 -35 2 -49 -2 -63 -17z"/>
<path d="M10800 8633 c0 -86 1 -93 20 -93 18 0 20 7 20 75 0 71 1 75 25 81 48
12 55 1 55 -81 0 -68 2 -75 20 -75 18 0 20 7 20 84 0 57 -4 87 -13 95 -8 6
-43 10 -80 9 l-67 -2 0 -93z"/>
<path d="M19085 8700 c-3 -5 -2 -10 4 -10 5 0 13 5 16 10 3 6 2 10 -4 10 -5 0
-13 -4 -16 -10z"/>
<path d="M18976 8675 c4 -8 11 -15 16 -15 6 0 5 6 -2 15 -7 8 -14 15 -16 15
-2 0 -1 -7 2 -15z"/>
<path d="M19018 8679 c-4 -9 1 -20 13 -27 12 -8 19 -8 19 -2 0 5 -4 10 -9 10
-5 0 -11 8 -13 18 -3 15 -4 15 -10 1z"/>
<path d="M19107 8676 c-4 -10 -1 -13 9 -9 15 6 19 23 5 23 -5 0 -11 -7 -14
-14z"/>
<path d="M19136 8663 c-6 -14 -5 -15 5 -6 7 7 10 15 7 18 -3 3 -9 -2 -12 -12z"/>
<path d="M19072 8640 c12 -19 28 -27 28 -14 0 7 -27 34 -34 34 -4 0 -1 -9 6
-20z"/>
<path d="M19070 8350 c-18 -12 -2 -12 25 0 13 6 15 9 5 9 -8 0 -22 -4 -30 -9z"/>
<path d="M8213 8329 c-35 -10 -80 -58 -89 -95 -9 -37 4 -74 41 -111 28 -28 40
-33 83 -33 58 0 97 25 118 77 l14 33 90 0 c83 0 120 -10 85 -24 -11 -4 -15
-22 -15 -70 0 -75 2 -76 95 -76 62 0 87 -12 68 -31 -6 -6 -15 -4 -23 6 -18 22
-77 19 -97 -5 -15 -17 -30 -20 -109 -20 -78 0 -93 3 -109 20 -22 24 -72 26
-97 3 -17 -15 -18 -14 -18 24 0 26 -5 43 -14 46 -22 9 -26 -2 -26 -65 0 -52 3
-59 23 -67 13 -5 29 -16 36 -25 19 -23 74 -20 96 4 16 17 31 20 110 20 79 0
94 -3 110 -20 31 -35 73 -26 122 25 24 25 43 53 43 63 0 23 -28 62 -44 62 -7
0 -32 30 -57 67 -69 106 -65 103 -177 103 l-97 0 -19 34 c-12 23 -32 40 -57
50 -44 18 -42 18 -86 5z m113 -81 c29 -56 -10 -118 -75 -118 -48 0 -81 32 -81
80 0 87 116 115 156 38z m293 -137 c27 -38 26 -43 -6 -39 -23 2 -29 8 -31 36
-4 40 10 41 37 3z m-279 -151 c0 -24 -25 -33 -40 -14 -10 11 -10 17 0 28 15
19 40 10 40 -14z m311 -14 c-16 -19 -41 -10 -41 14 0 24 21 31 39 14 11 -10
12 -16 2 -28z"/>
<path d="M8268 8240 c-15 -11 -33 -17 -45 -14 -29 8 -39 -13 -17 -37 23 -26
43 -24 76 8 44 42 32 80 -14 43z"/>
<path d="M18908 8333 c7 -3 16 -2 19 1 4 3 -2 6 -13 5 -11 0 -14 -3 -6 -6z"/>
<path d="M18985 8330 c-13 -5 -14 -9 -5 -9 8 0 24 4 35 9 13 5 14 9 5 9 -8 0
-24 -4 -35 -9z"/>
<path d="M18843 8323 c9 -2 23 -2 30 0 6 3 -1 5 -18 5 -16 0 -22 -2 -12 -5z"/>
<path d="M18910 8318 c-25 -5 -56 -12 -69 -14 -13 -3 -21 -7 -18 -10 7 -8 137
18 137 28 0 4 -1 7 -2 7 -2 -1 -23 -6 -48 -11z"/>
<path d="M10249 8263 c-4 -48 0 -244 5 -252 11 -17 66 -14 66 4 0 8 -7 15 -15
15 -12 0 -15 20 -15 120 0 113 -1 120 -20 120 -11 0 -20 -3 -21 -7z"/>
<path d="M11150 8260 c0 -5 -8 -10 -17 -10 -13 0 -14 -3 -6 -11 6 -6 9 -17 7
-24 -3 -7 6 -12 25 -12 24 0 29 4 28 21 -2 30 -37 64 -37 36z"/>
<path d="M10352 8238 c2 -13 10 -23 18 -23 8 0 16 10 18 23 3 17 -2 22 -18 22
-16 0 -21 -5 -18 -22z"/>
<path d="M8900 8125 c0 -118 1 -125 20 -125 18 0 20 7 20 55 l0 55 45 0 c33 0
45 4 45 15 0 11 -12 15 -45 15 l-45 0 0 40 0 40 55 0 c42 0 55 3 55 15 0 12
-15 15 -75 15 l-75 0 0 -125z"/>
<path d="M9090 8125 c0 -118 1 -125 20 -125 17 0 20 7 20 50 0 45 2 50 23 50
16 0 30 -14 52 -50 18 -30 36 -50 47 -50 24 0 23 5 -8 57 l-26 45 21 22 c13
14 21 36 21 59 0 50 -27 67 -107 67 l-63 0 0 -125z m118 83 c33 -33 2 -78 -52
-78 -24 0 -26 3 -26 45 0 44 1 45 33 45 18 0 38 -5 45 -12z"/>
<path d="M9300 8125 l0 -125 80 0 c63 0 80 3 80 15 0 10 -15 15 -57 17 l-58 3
-3 38 -3 37 50 0 c44 0 51 3 51 20 0 17 -7 20 -51 20 l-50 0 3 33 c3 32 4 32
61 35 42 2 57 7 57 17 0 12 -17 15 -80 15 l-80 0 0 -125z"/>
<path d="M9510 8125 l0 -125 80 0 c64 0 80 3 80 15 0 12 -13 15 -60 15 l-60 0
0 39 0 40 48 3 c34 2 47 7 47 18 0 11 -13 16 -47 18 -47 3 -48 4 -48 37 l0 34
57 3 c34 2 58 8 61 16 3 9 -17 12 -77 12 l-81 0 0 -125z"/>
<path d="M9810 8125 l0 -125 60 0 c102 0 140 36 140 131 0 84 -41 119 -140
119 l-60 0 0 -125z m131 76 c20 -16 24 -28 23 -76 0 -48 -4 -61 -23 -76 -13
-11 -38 -19 -57 -19 l-34 0 0 95 0 95 34 0 c19 0 44 -9 57 -19z"/>
<path d="M10075 8165 c-19 -18 -25 -35 -25 -69 0 -59 7 -74 42 -92 35 -18 103
-11 112 11 4 11 -5 14 -39 13 -46 -1 -75 14 -75 38 0 9 18 14 58 16 53 3 57 5
60 29 8 68 -82 105 -133 54z m83 -17 c24 -24 13 -38 -28 -38 -26 0 -40 5 -40
13 0 18 21 37 40 37 9 0 21 -5 28 -12z"/>
<path d="M10357 8184 c-4 -4 -7 -47 -7 -96 0 -82 1 -88 20 -88 20 0 21 5 18
92 -3 84 -12 111 -31 92z"/>
<path d="M10420 8183 c0 -4 14 -47 32 -95 27 -72 37 -88 54 -88 17 0 27 16 52
84 36 95 38 109 16 104 -14 -3 -25 -26 -61 -128 -3 -9 -16 14 -32 55 -17 44
-33 71 -44 73 -9 2 -17 0 -17 -5z"/>
<path d="M10652 8183 c-20 -8 -42 -59 -42 -96 0 -66 58 -107 124 -89 50 14 44
32 -11 32 -48 0 -73 12 -73 37 0 8 20 13 58 15 56 3 57 3 60 35 5 55 -56 90
-116 66z m76 -50 c3 -21 -1 -23 -37 -23 -27 0 -41 4 -41 13 0 41 72 50 78 10z"/>
<path d="M10817 8183 c-4 -3 -7 -46 -7 -95 0 -81 2 -88 20 -88 18 0 20 7 20
69 0 72 6 81 51 81 22 0 26 28 5 36 -8 3 -24 1 -35 -5 -13 -7 -22 -8 -26 -1
-7 12 -19 13 -28 3z"/>
<path d="M10940 8178 c0 -8 15 -52 34 -98 38 -91 36 -113 -10 -130 -29 -12
-23 -30 10 -30 34 0 52 26 96 143 45 120 47 130 24 125 -10 -2 -26 -30 -41
-71 -14 -37 -27 -66 -29 -65 -2 2 -13 33 -26 68 -15 42 -29 66 -41 68 -9 2
-17 -3 -17 -10z"/>
<path d="M16634 8092 c-15 -23 3 -49 31 -44 45 7 47 12 17 37 -36 30 -34 30
-48 7z"/>
<path d="M21466 8003 c6 -24 -11 -32 -19 -10 -3 6 -6 3 -6 -8 -1 -27 14 -51
23 -36 4 6 19 11 33 11 19 0 24 4 19 16 -3 9 -6 20 -6 26 0 6 -9 8 -20 5 -10
-3 -21 0 -24 7 -3 6 -3 1 0 -11z"/>
<path d="M21404 7979 c1 -13 7 -33 14 -44 10 -19 11 -19 10 5 -1 14 -7 34 -14
44 -12 18 -13 17 -10 -5z"/>
<path d="M18690 7975 c46 -18 64 -17 25 0 -16 8 -37 14 -45 14 -8 0 1 -7 20
-14z"/>
<path d="M18114 7968 c-4 -6 2 -19 15 -29 19 -15 20 -22 11 -39 -6 -12 -9 -24
-6 -27 3 -3 8 1 11 9 4 10 14 14 28 11 22 -4 22 -4 3 11 -11 9 -16 16 -12 16
5 0 3 7 -4 15 -6 8 -17 13 -23 12 -7 -1 -11 6 -11 16 2 20 -2 22 -12 5z"/>
<path d="M20545 7928 c-131 -171 -358 -313 -618 -388 -104 -29 -261 -58 -372
-69 -105 -10 -415 -6 -475 5 -19 4 -38 7 -42 6 -23 -5 -259 51 -348 83 -178
63 -176 62 -154 67 25 6 -48 28 -91 28 -17 0 -71 11 -120 25 -50 14 -94 25
-98 25 -14 0 93 -94 127 -111 17 -9 65 -34 106 -56 42 -21 105 -50 140 -63 36
-13 70 -26 75 -30 31 -21 193 -56 370 -79 100 -14 461 -14 576 -1 90 10 217
39 309 70 136 46 328 134 374 171 6 5 35 27 63 49 57 43 163 165 163 187 0 7
5 13 11 13 6 0 9 9 6 20 -3 11 -2 18 2 16 4 -3 15 15 24 40 9 24 15 44 14 44
-2 0 -21 -23 -42 -52z"/>
<path d="M21330 7969 c0 -9 7 -35 15 -58 14 -42 14 -42 -8 -35 -12 4 -23 11
-25 15 -8 21 -92 2 -92 -20 0 -9 64 -26 135 -35 22 -3 168 -8 325 -11 157 -3
357 -10 445 -16 311 -22 455 9 442 94 -6 35 -23 40 -57 16 -38 -29 -118 -32
-242 -10 -103 18 -368 9 -547 -18 -122 -19 -136 -19 -163 -5 -17 9 -40 13 -51
10 -13 -3 -25 1 -33 12 -12 15 -13 15 -14 -7 0 -19 -3 -21 -14 -12 -11 9 -15
9 -18 -1 -4 -10 -8 -10 -21 1 -15 12 -17 11 -17 -3 0 -9 -4 -16 -8 -16 -11 0
-32 45 -32 68 0 9 -5 24 -10 32 -8 13 -10 13 -10 -1z"/>
<path d="M21370 7965 c0 -11 5 -27 10 -35 8 -12 10 -12 10 5 0 11 -5 27 -10
35 -8 12 -10 12 -10 -5z"/>
<path d="M18472 7940 l-32 -30 45 0 c26 0 55 -5 67 -11 11 -6 36 -13 56 -15
43 -6 99 -38 83 -48 -6 -4 -11 -12 -11 -18 0 -7 5 -7 14 1 15 13 26 -4 26 -40
0 -22 10 -24 30 -6 8 6 6 2 -4 -10 -30 -37 1 -27 39 12 31 31 34 37 23 60 -22
48 -156 116 -253 128 -46 6 -53 4 -83 -23z m43 -11 c-4 -5 -16 -9 -28 -9 -20
0 -20 0 -2 14 21 15 40 12 30 -5z"/>
<path d="M18222 7879 c-36 -14 -21 -32 43 -51 57 -18 84 -16 55 2 -12 8 -11
10 5 11 11 0 14 3 8 6 -19 7 -16 23 5 24 23 2 -36 16 -68 17 -14 0 -36 -3 -48
-9z"/>
<path d="M18361 7866 c2 -2 18 -6 34 -10 22 -5 26 -4 15 4 -14 9 -59 15 -49 6z"/>
<path d="M18517 7809 c7 -7 15 -10 18 -7 3 3 -2 9 -12 12 -14 6 -15 5 -6 -5z"/>
<path d="M18705 7729 c-9 -14 -2 -20 14 -10 8 6 9 11 3 15 -6 3 -14 1 -17 -5z"/>
<path d="M18670 7721 c0 -6 5 -13 10 -16 6 -3 10 1 10 9 0 9 -4 16 -10 16 -5
0 -10 -4 -10 -9z"/>
<path d="M8870 7620 c0 -48 3 -60 16 -60 11 0 14 5 10 16 -3 9 -6 36 -6 60 0
24 -4 44 -10 44 -6 0 -10 -27 -10 -60z"/>
<path d="M8131 7662 c-1 -7 -5 -11 -10 -7 -6 3 -9 -3 -8 -14 1 -12 9 -18 22
-18 13 0 21 6 22 18 1 11 -2 17 -7 14 -4 -3 -11 1 -13 7 -4 10 -6 10 -6 0z"/>
<path d="M8170 7660 c0 -5 7 -10 15 -10 11 0 15 -12 15 -45 0 -25 5 -45 10
-45 6 0 10 20 10 45 0 38 3 45 20 45 11 0 20 5 20 10 0 6 -20 10 -45 10 -25 0
-45 -4 -45 -10z"/>
<path d="M8276 7661 c-4 -5 -3 -16 0 -25 3 -9 1 -22 -5 -30 -23 -27 -2 -46 50
-46 27 0 49 5 49 10 0 6 -4 10 -9 10 -4 0 -6 12 -3 26 3 19 1 25 -7 20 -6 -4
-11 -15 -11 -24 0 -12 -3 -13 -12 -4 -8 8 -8 15 2 26 7 9 10 23 6 31 -6 16
-51 21 -60 6z m44 -16 c0 -8 -4 -15 -9 -15 -13 0 -22 16 -14 24 11 11 23 6 23
-9z m-6 -67 c-3 -5 -12 -4 -20 3 -7 6 -11 15 -8 21 3 5 12 4 20 -3 7 -6 11
-15 8 -21z"/>
<path d="M8400 7654 c-18 -20 -17 -74 1 -85 19 -12 69 -12 69 0 0 5 -12 11
-27 13 -24 3 -28 8 -28 33 0 25 4 30 28 33 15 2 27 8 27 13 0 15 -57 10 -70
-7z"/>
<path d="M8480 7621 c0 -11 9 -23 20 -26 11 -4 18 -10 15 -15 -3 -5 -12 -7
-20 -3 -8 3 -15 0 -15 -6 0 -15 47 -14 56 1 4 6 -2 19 -14 29 -25 20 -29 34
-7 25 8 -3 15 -1 15 4 0 6 -11 10 -25 10 -18 0 -25 -5 -25 -19z"/>
<path d="M8595 7631 c3 -6 11 -9 16 -6 5 4 15 3 21 -1 9 -6 5 -10 -12 -14 -16
-4 -26 -14 -28 -28 -3 -19 1 -22 33 -22 36 0 36 0 33 38 -3 34 -6 37 -37 40
-22 2 -31 0 -26 -7z m40 -51 c-3 -5 -10 -10 -16 -10 -5 0 -9 5 -9 10 0 6 7 10
16 10 8 0 12 -4 9 -10z"/>
<path d="M8680 7585 c0 -30 5 -55 10 -55 6 0 10 7 10 15 0 8 9 15 20 15 10 0
24 9 30 20 16 30 -4 60 -40 60 -30 0 -30 -1 -30 -55z m50 15 c0 -25 -18 -36
-26 -16 -8 21 3 49 16 41 5 -3 10 -15 10 -25z"/>
<path d="M8770 7586 c0 -31 5 -56 10 -56 6 0 10 6 10 14 0 9 12 16 28 18 24 3
27 7 27 38 0 33 -2 35 -37 38 l-38 3 0 -55z m55 14 c0 -13 -6 -25 -12 -27 -16
-6 -27 21 -19 43 9 23 31 11 31 -16z"/>
<path d="M8910 7634 c0 -4 5 -24 12 -46 9 -32 9 -41 -1 -48 -7 -4 -9 -10 -4
-13 15 -10 28 6 50 61 17 39 19 52 9 52 -8 0 -17 -12 -21 -27 l-7 -28 -10 28
c-8 24 -28 38 -28 21z"/>
</g>
</svg>
