<?xml version="1.0" standalone="no"?>
<!DOCTYPE svg PUBLIC "-//W3C//DTD SVG 20010904//EN"
 "http://www.w3.org/TR/2001/REC-SVG-20010904/DTD/svg10.dtd">
<svg version="1.0" xmlns="http://www.w3.org/2000/svg"
 width="3000.000000pt" height="1200.000000pt" viewBox="0 0 3000.000000 1200.000000"
 preserveAspectRatio="xMidYMid meet">

<g transform="translate(0.000000,1200.000000) scale(0.100000,-0.100000)"
fill="#000000" stroke="none">
<path d="M21840 11960 l0 -40 80 0 80 0 0 -80 0 -80 40 0 40 0 0 -80 0 -80 40
0 40 0 0 40 0 40 40 0 40 0 0 -130 0 -130 40 0 c33 0 40 -3 40 -20 0 -17 -7
-20 -40 -20 -22 0 -40 -4 -40 -10 0 -6 33 -10 80 -10 l80 0 0 -40 0 -40 40 0
40 0 0 -80 0 -80 40 0 40 0 0 -40 0 -40 40 0 40 0 0 -40 0 -40 -82 -1 c-46 -1
-86 -1 -90 0 -5 0 -8 -3 -8 -8 0 -4 21 -7 48 -6 31 2 34 1 10 -2 -57 -6 -45
-19 23 -27 96 -10 99 -9 99 19 0 23 4 25 40 25 40 0 40 0 40 -38 0 -30 -5 -42
-22 -51 l-23 -11 23 6 c13 3 22 1 22 -6 0 -6 16 -20 35 -31 19 -12 33 -25 30
-29 -3 -5 0 -12 6 -16 8 -4 9 -3 5 4 -5 8 1 12 16 12 28 0 64 -36 45 -44 -7
-3 -2 -3 10 0 15 3 28 -2 40 -15 10 -12 26 -21 36 -21 15 0 13 -4 -10 -26
l-28 -25 28 5 c19 5 27 2 27 -8 0 -8 -6 -17 -12 -19 -10 -4 -10 -6 0 -6 7 -1
10 -5 7 -11 -3 -5 -1 -10 6 -10 7 0 10 -2 7 -5 -3 -3 -22 4 -43 16 -31 19 -41
20 -57 10 -17 -11 -23 -9 -42 11 -11 12 -21 27 -21 33 -1 29 -29 93 -46 103
-25 16 -26 -3 -2 -30 13 -14 13 -18 2 -18 -8 0 -22 11 -32 24 -22 30 -95 61
-162 71 -52 7 -79 21 -69 36 3 5 0 9 -7 9 -15 0 -85 62 -81 73 1 5 -1 6 -6 3
-14 -8 -98 49 -124 84 -12 18 -32 36 -43 42 -11 5 -31 15 -45 23 -17 10 -39
13 -69 9 -34 -5 -42 -4 -36 6 5 9 4 11 -4 6 -6 -4 -9 -11 -6 -16 3 -5 -10 -9
-29 -8 -19 1 -33 5 -30 10 3 4 0 8 -5 8 -6 0 -11 -4 -11 -10 0 -5 -5 -10 -11
-10 -5 0 -8 4 -5 9 3 4 -13 3 -35 -3 -39 -10 -42 -9 -65 19 -17 22 -24 25 -24
13 0 -9 5 -20 11 -24 21 -13 -11 -21 -52 -14 -21 4 -39 5 -39 1 0 -3 -27 -14
-60 -25 -33 -10 -70 -27 -82 -38 -13 -11 -30 -25 -39 -32 -9 -6 -28 -34 -43
-63 -17 -32 -37 -55 -55 -63 -38 -15 -50 -42 -55 -125 -2 -38 -5 -71 -5 -72
-1 -1 -17 5 -36 13 -39 16 -57 18 -35 4 13 -8 12 -10 -2 -10 -10 0 -18 4 -18
10 0 13 -56 5 -102 -14 -21 -9 -38 -14 -38 -11 0 12 -122 -59 -151 -87 -50
-50 -65 -121 -35 -164 13 -19 12 -22 -19 -47 -19 -15 -51 -55 -72 -90 -37 -62
-37 -63 -35 -160 2 -106 14 -141 57 -175 27 -21 33 -42 12 -42 -23 0 -97 -61
-114 -93 -8 -17 -15 -50 -15 -74 1 -40 -1 -44 -28 -49 -16 -4 -37 -16 -48 -28
-44 -49 -78 -145 -69 -197 3 -19 10 -61 16 -93 11 -66 20 -76 74 -76 20 0 37
-2 37 -5 0 -9 -40 -45 -50 -45 -5 0 -10 -4 -10 -10 0 -5 6 -10 13 -10 8 0 7
-3 -3 -10 -23 -14 -9 -18 40 -11 l45 6 22 -45 c12 -27 17 -49 12 -54 -5 -6 -9
-16 -9 -24 0 -9 7 -6 20 9 l19 24 1 -25 c1 -37 14 -53 49 -54 17 0 31 -3 31
-6 0 -5 -33 -29 -55 -40 -5 -3 -49 -31 -97 -62 -78 -52 -125 -98 -99 -98 15 0
71 34 71 44 0 5 -7 3 -15 -4 -9 -7 -17 -11 -20 -8 -2 2 10 12 27 22 17 11 28
14 24 7 -8 -13 3 -14 23 -2 8 5 10 14 6 22 -6 9 -3 11 8 6 10 -3 17 -2 17 4 0
6 4 8 9 5 5 -4 11 -2 13 3 1 4 14 12 27 16 19 6 23 4 18 -8 -4 -11 -1 -14 7
-11 10 4 12 -7 8 -45 -4 -50 0 -57 31 -52 5 1 6 -3 2 -9 -3 -5 -12 -10 -19
-10 -11 0 -11 -8 1 -42 9 -25 10 -43 4 -47 -9 -6 12 -71 24 -71 3 0 3 5 0 10
-3 6 -4 10 -1 10 3 0 10 -10 17 -21 9 -17 8 -20 -3 -14 -7 4 2 -7 20 -24 27
-26 36 -30 52 -21 15 8 21 8 24 -2 13 -39 14 -42 15 -20 1 12 4 22 9 22 4 0
12 12 19 26 11 23 8 36 -28 111 -65 137 -78 179 -91 278 -8 71 -15 95 -27 98
-14 4 -14 5 1 6 12 1 19 13 23 39 3 20 15 85 26 144 11 59 17 112 14 119 -4 6
-2 15 5 19 6 4 18 39 25 77 7 38 27 103 43 144 52 130 184 433 205 469 11 19
27 49 35 65 63 125 147 199 270 235 23 7 42 17 42 23 0 5 11 6 25 3 24 -6 31
-4 82 22 12 7 41 14 65 17 28 3 36 2 24 -3 -16 -7 -17 -10 -5 -17 11 -7 8 -11
-11 -16 -18 -5 -10 -7 29 -8 44 -1 51 -3 42 -15 -9 -11 -4 -15 29 -20 24 -4
38 -11 35 -17 -4 -6 3 -7 19 -3 21 5 25 3 20 -9 -4 -12 5 -19 35 -27 23 -6 45
-9 50 -6 4 3 17 -4 29 -14 12 -11 26 -20 32 -20 21 0 41 -29 48 -67 l6 -38 7
30 c6 28 7 28 8 4 0 -14 8 -34 16 -45 14 -18 15 -17 10 11 -3 17 -2 23 1 15 4
-8 14 -26 23 -40 20 -31 21 -127 1 -122 -10 2 -11 -5 -4 -30 4 -18 9 -60 9
-94 1 -33 5 -66 9 -72 4 -7 4 -17 0 -23 -3 -6 0 -15 7 -20 11 -7 10 -9 -4 -9
-10 0 -28 6 -40 14 -12 7 -66 21 -121 30 -96 15 -99 15 -126 -4 -16 -11 -33
-20 -39 -20 -10 0 -13 -5 -15 -31 -1 -7 -24 -37 -53 -66 -52 -56 -146 -220
-142 -251 2 -24 -23 -82 -36 -82 -7 0 -22 -11 -35 -25 -16 -18 -31 -23 -49
-20 -13 2 -31 -1 -39 -8 -12 -9 -18 -7 -30 11 -16 24 -56 30 -69 10 -22 -36
-5 -68 36 -67 25 0 25 0 4 9 -33 14 -28 21 12 18 24 -1 34 -6 31 -15 -3 -7 1
-28 9 -47 11 -25 23 -36 44 -41 31 -6 47 -33 42 -67 -1 -10 3 -18 8 -18 6 0
11 -4 11 -10 0 -5 -9 -6 -22 -2 -13 4 -49 7 -80 6 -31 0 -55 2 -53 5 2 4 -10
13 -26 20 -16 7 -27 17 -23 22 6 10 -167 12 -203 3 -25 -7 -30 -33 -11 -67 6
-12 10 -37 10 -57 -3 -53 17 -136 39 -163 10 -14 19 -32 19 -41 0 -9 7 -27 15
-40 18 -27 106 -86 129 -86 9 0 16 -4 16 -10 0 -5 9 -10 20 -10 11 0 27 -12
36 -26 12 -17 19 -21 24 -13 6 8 12 5 20 -11 9 -17 9 -24 1 -30 -7 -4 -11 -12
-9 -19 3 -11 -65 -56 -87 -57 -5 0 -21 -3 -35 -7 -51 -16 -106 7 -126 51 -1 2
-21 5 -44 7 -24 2 -48 9 -53 14 -6 6 -23 11 -38 11 -15 0 -31 5 -35 11 -11 19
-24 -13 -12 -34 14 -26 2 -34 -13 -8 -10 15 -16 17 -26 9 -16 -13 -17 -38 -2
-38 6 0 9 -10 7 -22 -3 -20 -10 -23 -60 -26 -46 -2 -58 -6 -59 -20 0 -10 -3
-12 -6 -4 -8 20 -71 17 -668 -27 -71 -6 -220 -16 -329 -23 -184 -11 -202 -14
-227 -35 -15 -13 -31 -23 -36 -23 -4 0 -22 39 -38 87 -53 157 -141 304 -263
442 -47 53 -50 55 -110 59 -49 3 -77 -1 -141 -23 -119 -42 -144 -71 -155 -181
-7 -66 -22 -163 -38 -241 -12 -57 -5 -389 12 -548 5 -50 10 -277 11 -505 1
-374 13 -812 17 -667 1 31 6 57 11 57 5 0 12 10 16 23 9 27 8 26 25 60 7 15
21 27 32 27 10 0 18 5 18 10 0 13 140 13 174 0 14 -5 26 -15 26 -22 1 -17 41
-63 70 -78 18 -10 20 -14 9 -21 -12 -8 -12 -11 1 -19 8 -5 20 -10 26 -10 7 0
14 -8 17 -19 4 -18 58 -51 82 -51 7 0 20 -9 30 -20 23 -25 45 -26 45 -1 0 25
20 38 31 20 16 -25 11 -45 -6 -23 -14 19 -14 19 -15 -1 0 -31 35 -62 38 -32 2
32 16 93 22 97 6 5 47 168 114 455 14 61 32 155 41 210 21 137 58 255 90 285
14 13 25 31 25 40 0 10 16 38 35 64 32 40 55 55 193 122 86 41 163 78 170 82
8 4 27 38 43 76 16 38 37 75 47 82 9 7 40 14 68 14 29 0 67 8 92 20 51 25 94
26 115 2 23 -25 21 -35 -3 -22 -15 8 -20 8 -18 0 2 -6 -21 -19 -50 -29 -29
-10 -72 -31 -95 -47 -23 -16 -55 -36 -70 -44 -28 -14 -53 -47 -44 -57 3 -2 37
3 75 12 38 9 78 15 88 13 10 -2 -7 -8 -38 -12 -32 -4 -58 -10 -58 -12 0 -3 12
-16 28 -30 l27 -25 -32 16 c-31 14 -33 14 -34 -2 -2 -27 -2 -26 5 -56 6 -23 3
-29 -20 -38 -15 -5 -32 -16 -38 -24 -15 -18 -87 -55 -108 -55 -10 0 -49 -14
-87 -32 -47 -21 -67 -36 -64 -45 3 -8 0 -13 -7 -11 -7 2 -15 -3 -18 -11 -8
-22 96 -8 154 22 59 29 234 87 265 87 20 0 21 3 16 53 -4 28 -9 67 -13 85 l-6
33 72 -2 c92 -3 105 -14 95 -83 -4 -28 -9 -121 -11 -206 -4 -171 -13 -192 -54
-125 -24 38 -40 42 -20 5 24 -45 6 -65 -102 -118 -57 -28 -123 -58 -148 -69
-24 -10 -58 -30 -75 -46 -16 -15 -41 -30 -55 -33 -14 -3 -33 -9 -42 -15 -25
-13 -22 0 4 22 l21 19 -21 0 c-12 0 -35 -15 -52 -32 l-30 -33 -31 18 c-30 16
-31 16 -25 0 4 -10 4 -14 0 -10 -5 4 -9 33 -11 64 -3 45 1 62 19 89 13 19 28
32 33 30 6 -2 17 3 25 10 21 18 99 34 106 22 8 -13 62 0 109 27 61 35 211 95
238 95 57 0 63 150 7 180 -17 9 -18 8 -6 -15 13 -24 11 -79 -3 -71 -9 6 -31
-21 -23 -28 3 -4 -1 -4 -10 -1 -11 4 -20 -2 -30 -20 -14 -29 -138 -84 -238
-107 -30 -7 -61 -18 -68 -25 -19 -19 -62 -17 -62 3 0 24 -37 8 -89 -38 l-44
-38 -15 30 c-23 48 -26 27 -7 -44 22 -82 16 -236 -14 -346 -22 -81 -27 -120
-6 -55 l12 40 23 -45 c12 -25 36 -57 51 -71 16 -14 29 -33 29 -42 0 -10 5 -17
11 -17 6 0 17 -7 25 -15 20 -19 63 -19 70 0 10 25 19 17 38 -35 21 -59 34 -70
53 -45 12 18 13 18 13 1 0 -12 5 -16 18 -12 21 7 55 -24 73 -69 12 -28 13 -28
16 -7 5 28 23 29 23 1 0 -47 24 -8 42 67 10 43 23 93 30 109 21 58 79 190 100
228 11 22 18 49 15 63 -2 13 1 28 7 32 6 4 31 29 55 56 40 45 43 51 38 92 -4
41 -3 44 16 38 11 -3 38 -24 60 -45 50 -48 110 -77 198 -95 87 -18 235 -34
321 -34 l67 0 16 -77 c9 -43 18 -84 20 -90 3 -7 -5 -29 -16 -48 -22 -36 -37
-40 -83 -20 -11 5 -26 3 -37 -4 -12 -7 -19 -7 -19 -1 0 5 -18 10 -40 10 -22 0
-40 -5 -40 -10 0 -6 -16 -18 -35 -27 -19 -9 -35 -20 -35 -24 0 -3 14 -12 31
-19 19 -8 26 -16 19 -20 -17 -10 -3 -17 53 -25 26 -4 47 -11 47 -16 0 -5 23
-9 50 -9 28 0 50 5 50 10 0 6 5 10 11 10 6 0 9 -9 6 -20 -4 -15 5 -11 39 19
25 21 113 73 197 114 131 65 160 84 213 139 81 83 94 97 126 139 l27 36 -27
27 c-18 17 -23 29 -16 34 6 4 10 18 9 32 -2 30 -36 50 -87 50 -39 0 -52 15
-20 23 9 2 7 3 -5 2 -12 -1 -24 3 -27 9 -3 6 -8 1 -11 -11 -4 -13 -12 -23 -17
-23 -6 0 -7 8 -3 18 6 17 17 72 32 166 7 46 11 50 43 59 19 5 39 12 44 17 5 5
22 6 39 3 20 -4 28 -3 24 4 -7 11 81 30 110 24 7 -1 23 5 36 14 13 8 31 13 39
10 9 -4 23 1 32 10 15 15 16 15 16 0 0 -9 7 -23 15 -32 14 -14 15 -13 10 13
-5 24 -3 21 13 -11 l20 -40 16 35 c9 19 20 42 25 50 5 8 17 35 27 60 22 57 32
70 52 70 13 0 12 -3 -4 -16 -18 -15 -18 -15 6 -9 14 3 50 11 80 17 30 6 74 20
97 30 23 11 66 22 95 25 50 5 52 4 33 -11 -19 -16 -19 -17 15 -10 19 3 49 14
65 22 17 9 35 15 41 14 6 -1 19 7 29 18 11 12 31 20 52 20 37 0 56 25 32 42
-12 8 -11 9 1 5 8 -2 20 3 25 10 7 9 38 17 75 21 61 5 63 6 30 14 -19 4 -45 5
-57 3 -13 -3 -23 -1 -23 5 0 5 14 10 30 10 17 0 30 5 30 11 0 6 9 8 20 4 15
-5 18 -3 14 9 -3 9 -1 16 5 16 6 0 11 7 11 15 0 8 6 12 13 9 8 -3 13 3 13 16
0 11 -6 20 -14 20 -7 0 -10 -4 -7 -10 8 -13 -8 -13 -21 0 -5 5 -18 11 -29 13
-11 2 -33 9 -48 16 -16 6 -33 8 -38 5 -15 -9 -49 25 -42 43 3 8 12 12 19 9 17
-7 18 6 2 22 -18 18 -17 102 1 102 8 0 19 6 25 14 12 15 75 30 77 18 1 -4 3
-27 5 -52 2 -39 -1 -48 -24 -67 -15 -11 -24 -24 -20 -28 13 -13 70 53 63 74
-3 11 1 24 12 32 11 9 14 9 9 2 -4 -7 -2 -21 4 -32 7 -13 7 -22 0 -26 -13 -8
-13 -75 -1 -75 5 0 12 6 14 13 3 6 6 1 6 -13 1 -18 4 -21 10 -11 11 17 32 5
25 -14 -4 -10 -14 -13 -29 -9 -13 3 -32 1 -42 -5 -16 -10 -15 -11 7 -6 14 3
42 -1 62 -9 32 -14 37 -14 49 0 11 13 16 11 40 -12 23 -22 31 -25 43 -15 10 8
16 9 21 1 3 -6 11 -8 16 -5 5 4 9 2 9 -4 0 -9 26 -216 107 -853 9 -71 20 -128
25 -128 11 0 10 15 -12 195 -11 88 -23 180 -26 205 -3 25 -11 90 -19 145 -20
141 -66 497 -130 1015 -31 245 -60 474 -66 510 -5 36 -14 105 -20 155 l-11 90
39 33 c32 27 44 32 73 27 25 -3 29 -2 15 4 -40 17 50 25 97 8 24 -9 36 -16 28
-16 -12 -1 -14 -12 -12 -48 3 -44 56 -500 103 -893 11 -91 29 -237 39 -325 10
-88 28 -238 40 -334 11 -96 23 -199 26 -230 8 -77 53 -438 61 -479 6 -37 9
-39 71 -45 50 -5 48 -29 26 248 -8 110 -13 208 -10 218 2 11 1 30 -4 43 -15
37 -3 28 26 -21 28 -48 33 -52 52 -33 8 8 8 16 0 32 -11 21 -68 96 -79 106 -3
3 -9 23 -12 45 -6 34 -5 37 5 18 6 -13 15 -23 19 -23 14 0 85 -103 97 -140 6
-19 14 -69 17 -110 6 -85 0 -84 -10 3 -7 58 -10 63 -33 49 -10 -7 -9 -16 3
-46 9 -21 11 -35 6 -31 -6 3 -11 11 -11 16 0 16 -64 102 -68 91 -2 -6 17 -43
42 -83 26 -41 46 -85 46 -99 1 -23 1 -24 15 -7 12 17 14 15 20 -25 4 -24 5
-57 2 -74 -2 -18 -5 -9 -6 26 l-2 55 -14 -55 c-7 -30 -17 -91 -23 -135 -8 -63
-15 -83 -31 -94 -22 -14 -28 -55 -12 -80 7 -11 20 -11 66 -3 52 9 58 8 62 -9
3 -11 12 -19 19 -19 8 0 14 -8 14 -17 0 -15 -2 -16 -10 -3 -6 9 -10 10 -10 3
0 -6 5 -15 10 -18 18 -11 11 -32 -12 -38 -26 -7 -42 11 -26 30 8 10 5 13 -11
13 -18 0 -20 -3 -12 -18 7 -14 5 -21 -10 -30 -21 -13 -26 -3 -7 16 9 9 6 13
-10 19 -11 4 -22 13 -24 18 -1 6 -8 9 -14 7 -6 -1 -14 7 -17 18 -6 24 -39 26
-61 4 -14 -13 -33 -14 -134 -7 -64 4 -126 7 -137 5 -11 -2 -37 -3 -58 -4 -24
0 -36 -5 -34 -12 5 -14 -23 -35 -47 -36 -14 0 -17 -3 -9 -11 7 -7 27 -7 64 -1
30 6 57 8 60 6 4 -2 9 -26 13 -54 4 -27 11 -50 16 -50 6 0 10 7 10 16 0 8 4
13 9 9 5 -3 12 -1 16 5 8 14 111 13 151 -2 18 -6 35 -19 37 -28 3 -11 29 -24
73 -38 92 -26 196 -18 222 19 21 29 24 82 4 74 -7 -3 -10 0 -7 6 4 5 15 7 26
4 24 -8 25 10 2 24 -10 6 -13 11 -6 11 6 0 25 -11 41 -25 17 -14 35 -25 42
-25 6 0 -10 18 -35 40 -54 47 -44 53 17 10 42 -29 43 -29 59 -10 10 12 32 20
60 22 37 3 44 6 41 23 -3 23 30 47 53 39 8 -3 15 -9 15 -13 0 -4 18 -5 40 -3
32 3 40 1 40 -12 0 -9 5 -16 10 -16 13 0 13 17 -1 26 -6 3 -9 16 -7 28 4 19 1
22 -26 19 -22 -2 -26 -1 -13 5 10 4 18 11 18 15 -3 21 0 27 14 27 9 0 19 8 22
18 4 9 10 19 14 22 11 8 14 63 5 79 -7 11 -2 13 22 9 31 -4 34 8 9 40 -6 8 -6
12 1 12 6 0 12 -5 14 -12 3 -8 17 -5 46 10 l42 22 0 -50 c0 -28 5 -50 10 -50
6 0 10 -16 10 -35 0 -20 9 -53 20 -75 11 -22 20 -55 20 -75 0 -21 4 -34 10
-30 5 3 8 0 5 -7 -3 -7 4 -31 15 -53 11 -21 20 -46 20 -53 0 -9 7 -13 19 -9
16 4 21 -2 27 -27 4 -17 8 -34 8 -38 1 -3 4 -10 9 -14 4 -4 7 -15 7 -25 0 -9
6 -29 14 -44 14 -27 14 -27 20 26 19 194 41 611 42 814 1 132 7 272 13 310 6
39 12 77 12 85 2 40 -34 370 -53 490 -12 74 -22 149 -23 165 -5 95 -36 175
-66 175 -5 0 -28 9 -52 20 -120 56 -232 68 -281 29 -62 -49 -183 -217 -255
-354 -43 -81 -95 -155 -109 -155 -7 0 -34 12 -60 27 -42 25 -59 28 -154 31
l-106 4 -7 122 c-4 66 -11 159 -15 206 -7 74 -8 68 -5 -50 3 -90 -7 0 -30 275
-18 226 -34 411 -34 412 -1 1 -20 8 -43 16 -48 18 -78 19 -78 3 0 -5 -6 -4
-12 3 -10 11 -10 14 0 18 7 3 12 23 12 53 0 45 -3 51 -54 97 -48 44 -53 52
-49 83 7 57 13 80 22 80 4 0 13 -10 20 -22 9 -18 10 -18 5 -3 -8 25 -8 26 7
107 11 58 11 73 -5 125 -10 32 -19 68 -19 80 -1 11 -5 19 -9 16 -5 -2 -8 1 -8
7 0 6 -4 9 -8 6 -5 -3 -21 7 -36 23 -14 15 -42 33 -60 41 -19 7 -33 18 -32 24
2 6 1 8 -1 4 -15 -26 -53 10 -53 49 1 17 1 17 14 1 14 -20 28 -14 19 8 -3 8 1
14 10 14 9 0 18 -9 22 -19 3 -11 14 -23 24 -26 10 -3 24 -16 31 -30 7 -14 21
-27 30 -30 9 -3 29 -19 44 -36 15 -16 31 -27 36 -24 6 4 6 -5 0 -21 -8 -19 -8
-30 0 -38 8 -8 9 -6 5 5 -4 10 -2 20 4 24 16 9 81 -17 81 -32 0 -7 7 -13 15
-13 8 0 25 -6 36 -12 17 -10 23 -10 26 -1 3 8 19 -2 43 -27 21 -22 47 -40 57
-40 11 0 23 -4 29 -9 5 -4 33 -16 62 -27 28 -10 52 -24 52 -31 0 -9 14 -13 41
-13 34 0 46 -6 79 -40 21 -22 47 -40 57 -40 11 0 23 -4 29 -8 5 -5 38 -19 74
-32 36 -13 72 -31 80 -40 8 -10 46 -28 83 -41 38 -13 73 -32 78 -41 5 -10 15
-18 22 -18 7 -1 23 -14 37 -30 18 -22 33 -30 57 -30 29 0 68 -14 83 -30 14
-16 80 -48 80 -40 0 18 29 10 40 -10 6 -11 17 -20 25 -20 7 0 15 -3 17 -8 5
-12 143 -92 159 -92 8 0 43 -18 79 -40 36 -22 72 -40 80 -40 8 0 44 -18 80
-40 36 -22 72 -40 81 -40 8 0 37 -14 65 -32 57 -36 138 -70 174 -72 14 0 25
-5 25 -11 0 -5 -3 -9 -7 -8 -5 2 -8 0 -8 -3 0 -3 21 -14 48 -26 26 -11 51 -27
55 -34 4 -8 16 -14 25 -14 16 0 56 -17 145 -61 20 -11 54 -27 75 -38 83 -42
128 -61 140 -61 12 0 52 -20 62 -30 18 -21 87 -50 115 -50 19 0 38 -6 42 -14
13 -21 68 -45 90 -40 14 4 31 -4 52 -25 41 -40 83 -61 108 -55 11 3 27 -1 36
-10 9 -9 39 -27 66 -40 28 -12 58 -29 67 -37 9 -7 30 -19 48 -25 91 -34 142
-57 146 -65 3 -5 15 -10 25 -12 11 -2 29 -8 40 -14 11 -6 31 -11 45 -11 39 0
120 -33 131 -53 5 -11 16 -19 25 -19 23 0 111 -48 117 -64 3 -8 21 -19 39 -25
70 -21 104 -37 126 -58 24 -25 42 -29 59 -12 7 7 21 4 48 -11 20 -11 40 -19
42 -16 8 8 -23 46 -32 38 -5 -4 -5 -1 -1 6 10 17 12 16 45 -30 16 -24 40 -55
53 -70 13 -14 32 -37 42 -50 11 -12 49 -56 85 -97 83 -94 95 -116 78 -144 -12
-21 -12 -21 -15 8 -2 16 -13 36 -25 44 -51 35 -180 169 -221 231 -26 39 -55
70 -68 73 -30 8 -35 1 -15 -21 10 -10 17 -23 17 -29 0 -43 185 -259 267 -311
25 -16 47 -39 53 -56 5 -16 25 -47 43 -70 51 -63 54 -75 9 -32 -23 22 -44 47
-47 56 -5 16 -73 55 -81 47 -5 -5 150 -158 173 -171 13 -7 15 -5 10 8 -4 11
-3 15 4 11 6 -4 8 -13 5 -21 -3 -7 -1 -16 4 -19 5 -3 23 -24 42 -48 34 -44 27
-40 -57 28 -27 22 -46 34 -41 28 14 -24 -12 -13 -32 12 -29 36 -35 31 -30 -25
5 -47 4 -50 -23 -59 -20 -7 -29 -6 -33 2 -3 7 -3 -1 1 -18 8 -42 9 -42 51 -50
26 -5 45 -17 65 -42 29 -38 29 -55 0 -32 -15 13 -16 12 -9 -6 5 -11 12 -33 16
-50 6 -25 25 -70 48 -119 12 -24 -131 127 -162 171 -39 57 -41 63 -26 63 5 0
22 -19 37 -42 29 -44 36 -54 73 -98 l20 -25 -20 55 c-15 39 -35 67 -67 95 -25
22 -73 75 -105 118 -47 61 -63 76 -73 67 -13 -11 -26 2 -159 164 -21 25 -41
45 -43 42 -7 -6 118 -193 158 -236 17 -19 37 -46 43 -60 32 -73 75 -126 169
-206 131 -112 240 -214 234 -220 -2 -2 -26 15 -53 38 -27 24 -53 46 -59 50 -5
4 -27 22 -48 39 -31 26 -40 30 -47 19 -5 -8 -13 -11 -17 -6 -4 5 -2 11 5 13
20 8 14 25 -7 18 -11 -3 -23 0 -27 6 -5 8 -3 9 5 4 10 -6 11 -3 2 13 -13 24
-31 38 -31 23 0 -5 6 -11 13 -14 6 -2 9 -8 4 -12 -4 -5 -23 7 -42 25 -19 19
-35 29 -35 22 0 -15 98 -113 151 -152 23 -16 39 -30 35 -30 -20 0 -123 77
-187 140 -40 38 -74 70 -77 70 -14 0 -40 34 -35 46 6 17 -42 83 -68 92 -10 4
-40 39 -66 77 -51 73 -89 99 -77 51 7 -30 -2 -33 -28 -9 -10 9 -18 12 -18 6 0
-5 24 -32 53 -59 28 -28 84 -85 122 -127 96 -107 296 -267 435 -348 46 -27
102 -65 231 -158 33 -24 21 4 -21 47 -22 22 -40 46 -40 53 0 8 13 -1 29 -19
17 -17 35 -32 41 -32 13 0 70 -50 70 -62 0 -4 -13 -8 -30 -8 -16 0 -30 -4 -30
-9 0 -16 -33 -22 -49 -8 -9 8 -27 17 -41 20 -33 8 -67 33 -57 43 4 4 13 2 19
-4 7 -7 19 -12 27 -12 9 0 -1 11 -21 25 -20 14 -39 25 -42 25 -3 0 -26 15 -50
34 -25 18 -71 48 -103 66 -32 18 -64 40 -71 49 -10 13 -14 13 -21 2 -11 -17
-61 14 -152 93 -91 79 -95 70 -6 -14 70 -65 124 -108 158 -124 14 -6 -3 -4
-146 14 -156 21 -167 6 -27 -34 99 -29 137 -44 129 -52 -5 -5 -208 51 -242 66
-38 17 -162 50 -189 50 -24 0 -25 -2 -16 -20 10 -19 8 -19 -37 -14 -86 10 18
-30 130 -50 16 -3 44 -14 63 -25 27 -16 34 -17 34 -6 0 20 1 20 105 -14 49
-16 117 -37 150 -46 102 -29 145 -46 166 -68 17 -19 19 -19 19 -3 0 13 5 16
18 11 9 -4 42 -16 72 -26 30 -11 62 -24 72 -29 9 -5 48 -6 90 -1 40 4 78 6 84
4 6 -2 23 1 38 7 15 5 25 6 21 1 -8 -13 16 -26 43 -22 13 1 25 -4 28 -13 3 -8
21 -24 40 -35 l34 -20 6 24 c8 32 21 24 22 -12 0 -35 -35 -86 -54 -79 -12 4
-11 -1 1 -29 8 -19 22 -51 31 -71 19 -46 26 -40 14 11 -20 87 -7 118 30 73
l18 -23 11 28 c9 22 16 27 31 22 15 -5 21 0 26 19 3 13 12 27 20 30 19 7 18
26 -2 26 -13 0 -15 6 -10 28 4 15 14 32 22 38 7 6 14 23 14 38 0 43 17 29 24
-20 3 -26 6 -97 7 -158 1 -86 3 -103 10 -76 5 19 10 47 11 63 0 15 5 27 10 27
4 0 8 6 8 14 0 28 54 181 69 196 13 13 13 15 -2 18 -20 4 -21 15 -6 43 8 16
13 18 25 8 8 -6 14 -22 14 -35 0 -13 4 -24 9 -24 14 0 23 -33 11 -40 -15 -9
-26 -180 -12 -180 8 0 9 11 5 32 -4 21 -3 29 5 24 6 -4 8 -14 5 -22 -5 -14 -3
-15 15 -5 11 6 34 11 51 11 17 0 31 5 31 11 0 6 10 9 23 7 38 -5 34 -55 -13
-159 -22 -51 -38 -95 -34 -98 3 -3 10 3 16 14 11 19 11 19 19 0 6 -15 8 -11 8
17 1 28 5 36 15 32 9 -3 17 3 21 18 5 12 20 37 34 55 41 52 55 40 25 -23 -10
-21 -24 -34 -35 -34 -11 0 -19 -4 -19 -9 0 -15 18 -23 25 -11 4 6 10 8 15 5 5
-3 11 3 15 14 3 11 15 19 29 19 15 0 23 -5 20 -13 -6 -15 44 -27 52 -13 3 5
12 7 20 4 18 -7 65 14 58 25 -3 5 3 9 13 10 10 0 13 3 6 6 -20 8 -15 21 10 26
12 2 0 5 -27 6 -43 1 -48 3 -43 21 4 17 2 18 -14 9 -12 -6 -18 -17 -15 -27 3
-9 1 -24 -4 -32 -8 -12 -11 -11 -16 8 -6 20 -20 27 -51 23 -21 -3 -15 16 10
31 36 24 83 29 121 13 43 -18 96 -20 96 -2 0 6 5 4 11 -6 7 -12 6 -23 -5 -39
-9 -12 -16 -29 -16 -37 0 -8 12 4 27 27 15 23 31 42 35 42 13 0 9 -35 -8 -75
-19 -46 -11 -58 11 -16 16 31 32 43 22 17 -4 -10 -1 -13 8 -10 7 3 16 12 19
20 8 22 29 17 23 -6 -8 -30 5 -24 32 15 13 19 32 45 43 57 l20 23 -8 -30 c-7
-29 -27 -74 -64 -145 -10 -19 -32 -50 -49 -69 -33 -37 -37 -46 -21 -56 6 -3 7
1 4 9 -3 9 -1 16 5 16 6 0 11 -4 11 -10 0 -5 28 13 62 40 34 28 68 50 75 50 7
0 13 4 13 9 0 4 19 21 43 37 23 16 46 35 50 42 13 20 50 31 70 20 24 -12 21
-40 -5 -65 -13 -11 -35 -33 -49 -49 -14 -16 -38 -39 -53 -52 -15 -13 -25 -26
-22 -30 3 -3 12 3 20 13 8 11 19 16 30 12 9 -4 15 -3 12 1 -7 11 4 24 36 45
26 16 28 16 39 -5 10 -18 9 -20 -5 -15 -18 7 -23 -18 -6 -28 20 -13 40 15 30
41 -7 19 -6 24 5 24 8 0 15 7 15 15 0 8 4 15 10 15 5 0 6 7 3 17 -5 12 -3 14
8 7 8 -5 34 -9 59 -9 l45 0 5 -68 c3 -37 9 -67 14 -66 5 0 13 -5 17 -13 6 -8
9 1 10 27 1 22 3 32 6 23 5 -21 38 -24 47 -5 5 10 7 10 12 0 17 -38 24 2 24
145 l0 157 -20 -25 c-11 -14 -20 -31 -20 -37 0 -21 -20 -15 -20 6 0 37 22 81
40 81 17 0 18 14 19 210 1 116 -1 210 -4 210 -9 0 -35 -72 -30 -81 3 -5 -11
-15 -31 -24 -45 -19 -44 -19 -44 4 0 10 16 29 35 42 19 13 35 30 35 37 0 18
-28 26 -44 13 -7 -6 -16 -8 -19 -4 -17 17 -3 35 48 58 l55 26 0 50 c0 27 -2
49 -5 49 -3 0 -21 -7 -40 -14 -47 -20 -45 -6 3 19 36 19 37 22 40 80 2 32 -2
69 -8 81 -9 16 -9 27 -1 42 8 15 11 640 11 2201 l0 2181 -1635 0 -1635 0 0
-105 0 -105 53 -1 c80 -2 100 -10 109 -47 6 -22 14 -32 28 -32 11 0 20 -5 20
-11 0 -5 4 -8 8 -5 15 9 133 -125 158 -178 13 -28 29 -86 35 -129 11 -76 12
-77 40 -77 32 0 34 -6 22 -74 l-6 -38 -41 5 c-41 6 -42 5 -65 -39 -54 -101
-175 -175 -301 -182 -169 -10 -307 71 -364 211 -25 59 -30 87 -30 155 -1 80
-8 102 -21 62 -6 -19 -17 -25 -39 -21 -5 1 -13 -3 -17 -10 -12 -19 -22 93 -11
131 8 33 11 35 43 31 102 -12 125 2 96 60 -17 36 -14 49 9 49 8 0 12 -4 9 -10
-3 -5 1 -10 9 -10 9 0 16 5 16 10 0 6 4 10 9 10 6 0 29 13 53 29 24 16 53 32
65 35 14 5 23 17 25 34 2 21 9 28 31 30 l27 3 0 109 0 110 -2430 0 -2430 0 0
-40z m4440 26 c0 -2 -11 -11 -25 -20 -28 -19 -33 -15 -9 8 14 15 34 22 34 12z
m30 -200 c0 -3 -4 -8 -10 -11 -5 -3 -10 -1 -10 4 0 6 5 11 10 11 6 0 10 -2 10
-4z m450 -834 c0 -12 -88 -49 -135 -56 l-40 -7 24 20 c14 10 30 17 36 15 7 -3
34 4 61 15 59 24 54 23 54 13z m-252 -39 c52 -15 70 -33 32 -33 -11 0 -20 5
-20 11 0 5 -8 9 -17 8 -26 -4 -103 20 -103 32 0 10 27 6 108 -18z m-4601 -8
c-7 -13 -18 -27 -25 -30 -14 -5 -8 9 16 38 20 23 22 22 9 -8z m5188 -80 c-16
-14 -43 -29 -59 -35 -35 -12 -33 -10 25 29 53 37 76 40 34 6z m2291 -117 c34
-67 86 -143 132 -193 21 -22 57 -64 82 -94 25 -31 61 -61 84 -72 33 -14 36
-18 18 -18 -13 -1 -32 3 -42 9 -15 8 -157 171 -221 254 -16 20 -89 153 -89
162 0 15 13 -3 36 -48z m-8114 -40 c-21 -21 -14 -23 65 -23 45 0 78 -4 80 -11
2 -6 -14 -11 -39 -11 -92 -3 -168 -19 -184 -41 -8 -11 -16 -12 -28 -5 -14 8
-9 13 31 36 26 15 42 27 34 27 -8 0 -4 8 10 20 26 21 51 28 31 8z m5663 -8 c6
-9 -20 -11 -310 -15 -86 -2 -108 2 -99 16 7 13 401 12 409 -1z m-5753 -40
c-18 -11 -36 -20 -40 -20 -14 1 43 40 58 40 8 0 0 -9 -18 -20z m1744 -7 c-6
-6 -36 9 -36 18 0 5 9 4 20 -3 10 -7 18 -14 16 -15z m74 17 c8 -5 11 -12 8
-16 -4 -3 -14 1 -23 10 -18 17 -9 21 15 6z m120 -1 c0 -12 -35 -20 -38 -10 -2
6 -15 8 -30 5 -20 -4 -23 -3 -13 4 16 11 81 11 81 1z m-7 -37 c-3 -7 0 -10 8
-7 8 2 29 -9 47 -25 36 -33 40 -43 15 -33 -11 4 -14 3 -9 -5 10 -17 2 -15 -38
9 -20 12 -34 24 -31 28 2 4 -14 17 -36 28 l-40 21 44 -2 c31 -1 43 -5 40 -14z
m-2023 -12 c0 -5 -5 -10 -11 -10 -5 0 -7 5 -4 10 3 6 8 10 11 10 2 0 4 -4 4
-10z m2134 -100 c-7 13 -5 13 9 2 9 -8 21 -11 26 -8 5 4 13 1 17 -5 4 -8 3 -9
-4 -5 -7 4 -12 3 -12 -3 0 -6 9 -15 20 -21 11 -6 20 -17 20 -25 0 -8 5 -15 10
-15 6 0 10 -7 10 -15 0 -8 7 -15 15 -15 8 0 15 -9 15 -20 0 -11 -7 -20 -15
-20 -8 0 -15 7 -15 15 0 20 -9 19 -29 -4 -17 -19 -18 -18 -30 27 -7 26 -22 60
-35 77 -12 16 -26 39 -29 50 -6 16 -3 15 14 -5 11 -14 17 -18 13 -10z m-1260
8 c-5 -8 -2 -9 9 -5 11 4 20 -1 28 -16 9 -18 9 -20 -2 -9 -7 6 -24 12 -37 12
-21 0 -22 2 -12 15 15 18 24 20 14 3z m7446 -3 c31 -12 32 -14 10 -14 -14 0
-38 6 -55 14 -41 18 -3 19 45 0z m-6436 -19 c3 -14 3 -32 -1 -42 -4 -11 -2
-15 4 -11 6 4 13 -13 17 -45 6 -43 4 -53 -10 -61 -12 -7 -13 -11 -4 -17 8 -5
7 -9 -5 -13 -9 -4 -13 -3 -10 3 4 6 -5 7 -23 4 -19 -4 -32 -1 -42 11 -16 19
-7 29 43 45 21 7 36 14 34 16 -2 3 -16 0 -31 -6 -42 -16 -45 -13 -25 27 10 21
19 43 19 50 0 7 5 13 10 13 6 0 10 5 10 11 0 5 -4 7 -10 4 -12 -7 -12 -3 -4
19 9 23 21 20 28 -8z m6151 14 c-3 -5 -23 -10 -43 -9 -30 0 -33 2 -17 9 28 12
67 12 60 0z m370 -20 c13 -5 14 -9 5 -9 -8 0 -24 4 -35 9 -13 5 -14 9 -5 9 8
0 24 -4 35 -9z m306 -160 c31 -26 15 -26 -18 0 -14 11 -21 20 -15 20 5 0 20
-9 33 -20z m-1476 -45 c123 -10 173 -27 272 -94 82 -55 114 -81 99 -81 -8 0
-104 59 -156 96 -36 26 -60 34 -122 41 -53 6 -79 6 -82 -1 -3 -7 -8 -7 -13 1
-16 22 -110 34 -173 21 -8 -2 -16 2 -18 7 -4 14 36 24 78 20 19 -2 71 -7 115
-10z m1573 -34 c17 -17 32 -34 32 -37 0 -5 -43 31 -100 84 -3 3 4 0 15 -6 11
-5 35 -24 53 -41z m-1853 -1 c3 -5 -2 -10 -11 -10 -10 0 -26 -8 -37 -17 -12
-10 -17 -12 -12 -4 6 11 1 12 -31 7 -30 -6 -36 -5 -27 4 21 22 108 37 118 20z
m-175 -50 c0 -5 -5 -10 -11 -10 -5 0 -7 5 -4 10 3 6 8 10 11 10 2 0 4 -4 4
-10z m2120 -61 c0 -18 -20 1 -36 34 l-15 32 25 -28 c15 -15 26 -33 26 -38z
m-2151 47 c-11 -10 -79 -34 -79 -27 0 4 12 12 28 18 27 11 59 16 51 9z m1079
-161 c23 -9 42 -21 42 -26 0 -5 -17 -2 -37 7 -21 9 -52 20 -68 25 -17 5 -40
15 -50 23 -18 13 -15 14 25 2 25 -8 64 -22 88 -31z m-5657 -46 c15 -29 -3 -69
-31 -69 -17 0 -20 7 -20 45 0 38 3 45 20 45 10 0 24 -10 31 -21z m5759 5 l25
-15 -25 7 c-14 3 -32 10 -40 15 -13 7 -13 8 0 8 8 0 26 -6 40 -15z m95 -52
c-3 -3 -11 0 -18 7 -9 10 -8 11 6 5 10 -3 15 -9 12 -12z m-8155 -22 c-20 -13
-33 -13 -25 0 3 6 14 10 23 10 15 0 15 -2 2 -10z m8220 -11 c0 -14 -16 -11
-29 5 -10 12 -8 13 8 9 12 -3 21 -9 21 -14z m-8230 -84 c0 -43 27 -94 62 -115
29 -18 31 -20 10 -20 -12 0 -50 14 -82 30 -54 27 -60 33 -56 57 5 26 42 73 58
73 4 0 8 -11 8 -25z m1177 -121 c-3 -3 -12 -4 -19 -1 -8 3 -5 6 6 6 11 1 17
-2 13 -5z m63 -4 c0 -5 -2 -10 -4 -10 -3 0 -8 5 -11 10 -3 6 -1 10 4 10 6 0
11 -4 11 -10z m-1327 -18 c12 -5 0 -11 -40 -21 -32 -7 -61 -18 -65 -25 -5 -7
-8 -5 -8 5 0 35 66 59 113 41z m48 -10 c-5 -10 -18 -25 -28 -33 -12 -10 -11
-5 6 19 24 35 38 43 22 14z m93 -46 c-9 -15 -19 -25 -21 -22 -5 5 30 56 35 51
2 -2 -4 -15 -14 -29z m1213 3 c29 -20 27 -59 -3 -59 -41 0 -54 10 -48 36 5 19
3 23 -10 18 -19 -7 -49 2 -43 13 9 14 81 8 104 -8z m-163 -35 c8 -3 12 -12 9
-21 -4 -10 -2 -14 4 -10 6 4 14 0 17 -8 6 -16 120 -75 146 -75 19 -1 52 -25
44 -33 -3 -3 11 -13 32 -22 l39 -17 -32 -27 c-18 -15 -33 -34 -33 -43 0 -18
-34 -51 -43 -41 -4 3 -7 0 -7 -8 0 -8 -9 -20 -20 -27 -12 -7 -18 -17 -15 -22
3 -6 -3 -10 -14 -10 -13 0 -30 -14 -43 -35 -13 -19 -31 -35 -40 -35 -10 0 -18
-4 -18 -10 0 -25 -42 -6 -78 35 -22 25 -44 45 -50 45 -11 0 -9 26 14 137 8 40
14 91 14 115 1 48 15 72 51 88 21 9 21 10 2 6 -15 -3 -20 0 -16 10 6 15 13 17
37 8z m1496 2 c0 -3 -4 -8 -10 -11 -5 -3 -10 -1 -10 4 0 6 5 11 10 11 6 0 10
-2 10 -4z m-2595 -46 c3 -5 1 -10 -4 -10 -6 0 -11 5 -11 10 0 6 2 10 4 10 3 0
8 -4 11 -10z m2295 -4 c0 -3 -4 -8 -10 -11 -5 -3 -10 -1 -10 4 0 6 5 11 10 11
6 0 10 -2 10 -4z m355 -16 c3 -6 -1 -7 -9 -4 -18 7 -21 14 -7 14 6 0 13 -4 16
-10z m-34 -33 c-10 -9 -11 -8 -5 6 3 10 9 15 12 12 3 -3 0 -11 -7 -18z m94 13
c3 -5 1 -10 -4 -10 -6 0 -11 5 -11 10 0 6 2 10 4 10 3 0 8 -4 11 -10z m-72
-37 c-7 -2 -19 -2 -25 0 -7 3 -2 5 12 5 14 0 19 -2 13 -5z m81 -50 c10 -62 7
-93 -8 -93 -7 0 -29 -11 -49 -24 l-36 -25 -5 27 c-3 15 -8 53 -12 84 -6 56 -6
56 22 61 76 11 81 10 88 -30z m6186 -178 c23 -30 41 -58 38 -60 -5 -5 -152
171 -156 188 -4 16 64 -59 118 -128z m-6543 -260 c22 -182 44 -351 47 -377 l7
-48 -26 10 c-15 6 -78 10 -141 10 -63 0 -114 2 -114 4 0 2 9 21 20 43 21 42
64 169 75 221 8 37 22 40 59 11 39 -31 31 -8 -12 34 -30 29 -38 44 -35 65 2
15 -2 47 -10 72 -13 43 -12 47 16 98 27 49 29 59 23 117 -5 47 -3 65 6 68 40
17 42 12 85 -328z m-2317 155 c8 -5 11 -10 5 -10 -5 0 -17 5 -25 10 -8 5 -10
10 -5 10 6 0 17 -5 25 -10z m7894 -36 c12 -3 26 -4 32 -3 5 1 27 0 49 -1 l40
-3 -50 -6 -50 -6 36 -17 c19 -9 44 -27 55 -39 l19 -22 -25 13 c-14 7 -42 24
-62 36 -20 13 -58 25 -85 28 -64 6 -104 16 -98 26 3 4 24 5 48 3 40 -5 45 -3
52 18 l8 24 4 -22 c2 -13 14 -25 27 -29z m-7394 14 c0 -6 7 -7 16 -4 20 8 71
-28 71 -49 0 -13 -6 -15 -26 -10 -14 4 -33 13 -42 21 -8 8 -21 14 -27 14 -20
0 -74 38 -61 42 20 7 69 -3 69 -14z m-517 -3 c1 -5 -6 -11 -15 -13 -11 -2 -18
3 -18 13 0 17 30 18 33 0z m442 -73 c-5 -6 -55 45 -55 55 0 4 13 -6 30 -22 16
-16 28 -31 25 -33z m7692 42 c-3 -3 -12 -4 -19 -1 -8 3 -5 6 6 6 11 1 17 -2
13 -5z m-7472 -32 c5 -12 13 -22 17 -22 5 0 8 -5 8 -11 0 -5 -14 -2 -32 8 -18
10 -34 18 -36 19 -1 1 0 9 4 18 8 22 26 16 39 -12z m7565 8 c0 -5 -4 -10 -10
-10 -5 0 -10 5 -10 10 0 6 5 10 10 10 6 0 10 -4 10 -10z m-7763 -27 c-10 -9
13 -33 31 -33 13 0 12 3 -4 15 -14 12 -10 12 16 -2 19 -9 38 -16 41 -16 3 1 1
-16 -5 -38 -7 -27 -15 -38 -24 -34 -7 3 -18 5 -24 5 -6 0 -6 6 2 15 9 10 9 15
1 16 -6 1 -15 2 -20 3 -5 0 -24 14 -42 30 -25 21 -29 27 -13 22 15 -4 24 -2
28 9 3 8 9 15 12 15 4 0 4 -3 1 -7z m267 -18 c-4 -8 -8 -15 -10 -15 -2 0 -4 7
-4 15 0 8 4 15 10 15 5 0 7 -7 4 -15z m-134 -49 c0 -22 -11 -46 -21 -46 -4 0
-6 8 -3 18 5 14 3 14 -10 -2 -18 -23 -20 -18 -6 18 10 27 40 36 40 12z m443
-57 c-6 -20 -50 -45 -61 -34 -3 3 0 16 6 31 9 19 17 24 35 20 12 -3 16 -3 10
0 -7 3 -13 10 -13 16 0 7 5 6 14 -1 8 -7 12 -21 9 -32z m37 31 c0 -5 -5 -10
-11 -10 -5 0 -7 5 -4 10 3 6 8 10 11 10 2 0 4 -4 4 -10z m-1058 -32 c-9 -9
-12 -7 -12 12 0 19 3 21 12 12 9 -9 9 -15 0 -24z m8721 -40 c56 -20 75 -33 63
-45 -3 -3 -13 0 -22 8 -14 11 -18 11 -22 1 -3 -10 -7 -10 -18 -1 -11 9 -14 8
-14 -5 0 -25 -41 -20 -74 9 -36 31 -28 42 15 21 37 -18 49 -20 49 -6 0 5 -18
15 -40 21 -22 7 -40 16 -40 21 0 10 16 6 103 -24z m-5166 -14 c-3 -3 -12 -4
-19 -1 -8 3 -5 6 6 6 11 1 17 -2 13 -5z m5263 -34 c0 -5 -4 -10 -10 -10 -5 0
-10 5 -10 10 0 6 5 10 10 10 6 0 10 -4 10 -10z m-30 -25 c7 -8 8 -15 2 -15 -5
0 -15 7 -22 15 -7 8 -8 15 -2 15 5 0 15 -7 22 -15z m-55 -6 c11 -17 -1 -21
-15 -4 -8 9 -8 15 -2 15 6 0 14 -5 17 -11z m-1980 -69 c-16 -4 -50 -8 -75 -7
l-45 0 40 7 c22 4 56 7 75 7 l35 1 -30 -8z m-3115 -25 c0 -9 9 -15 25 -15 23
0 25 -4 25 -40 0 -31 -4 -40 -17 -40 -16 -1 -16 -2 1 -15 25 -19 13 -32 -39
-43 -22 -5 -39 -14 -37 -20 3 -17 -14 -15 -32 4 -9 8 -20 13 -25 9 -17 -10
-21 11 -8 39 12 26 50 36 62 16 3 -5 15 -10 26 -10 16 0 19 7 19 50 0 38 -4
50 -15 50 -16 0 -20 12 -8 23 11 12 23 8 23 -8z m4027 -31 c-7 -7 -37 7 -37
17 0 6 9 5 21 -1 11 -7 19 -14 16 -16z m-4910 -61 c-2 -16 -4 -3 -4 27 0 30 2
43 4 28 2 -16 2 -40 0 -55z m4097 38 c-5 -5 -44 -11 -86 -14 -61 -4 -78 -3
-78 8 0 10 21 14 87 14 49 0 83 -3 77 -8z m50 -12 c-3 -5 -10 -7 -15 -3 -5 3
-7 10 -3 15 3 5 10 7 15 3 5 -3 7 -10 3 -15z m151 11 c-75 -12 -143 -12 -125
0 8 5 51 9 95 9 76 -2 78 -2 30 -9z m670 0 c3 -5 2 -10 -4 -10 -5 0 -13 5 -16
10 -3 6 -2 10 4 10 5 0 13 -4 16 -10z m-7468 -62 c3 -18 9 -41 15 -52 6 -10 6
-16 1 -13 -5 4 -10 -7 -10 -23 0 -16 5 -27 10 -23 5 3 6 -8 2 -28 -4 -25 -3
-30 4 -19 9 12 11 11 12 -7 1 -13 2 -29 3 -35 1 -7 5 -16 11 -20 5 -4 10 -15
10 -25 0 -10 11 -20 25 -24 23 -6 23 -7 3 -8 -12 -1 -25 -5 -28 -11 -4 -6 14
-10 47 -10 62 0 305 -25 392 -40 143 -25 199 -54 149 -75 -32 -14 -446 -18
-604 -6 -263 20 -465 53 -452 74 4 7 8 16 8 21 0 6 22 21 48 35 38 19 53 22
66 14 10 -6 72 -12 144 -12 116 -1 127 0 137 18 18 35 9 171 -12 171 -5 0 -8
-8 -7 -17 1 -10 1 -25 0 -33 -1 -13 -3 -13 -10 -1 -5 8 -7 20 -4 27 3 7 -5 23
-16 35 -24 26 -24 28 -11 49 8 12 10 12 14 -3 17 -50 19 -53 24 -33 3 15 6 16
14 5 6 -9 7 8 3 51 -7 66 2 80 12 18z m7598 1 c47 -23 84 -43 81 -46 -5 -5
-176 76 -176 83 0 7 9 4 95 -37z m-756 -56 c14 -48 6 -55 -9 -9 -7 21 -16 33
-22 30 -7 -4 -8 -2 -4 4 13 21 25 13 35 -25z m-4322 -153 c0 -54 0 -53 -7 15
-4 39 -7 93 -7 120 0 47 0 46 7 -15 4 -36 7 -90 7 -120z m-4564 163 c-7 -2
-19 -2 -25 0 -7 3 -2 5 12 5 14 0 19 -2 13 -5z m1912 -20 c-8 -12 -15 -33 -15
-45 0 -26 -38 -94 -47 -84 -3 3 2 21 11 40 9 19 16 41 16 49 0 9 7 23 16 31 8
9 11 16 5 16 -6 0 -11 4 -11 8 0 4 9 8 20 8 18 0 18 -2 5 -23z m-1958 11 c-3
-3 -12 -4 -19 -1 -8 3 -5 6 6 6 11 1 17 -2 13 -5z m156 -1 c-7 -2 -21 -2 -30
0 -10 3 -4 5 12 5 17 0 24 -2 18 -5z m1748 -30 c-9 -16 -10 -15 -9 9 2 16 6
24 11 19 5 -5 5 -17 -2 -28z m2309 16 c0 -6 -4 -7 -10 -4 -5 3 -10 11 -10 16
0 6 5 7 10 4 6 -3 10 -11 10 -16z m1343 4 c-7 -2 -19 -2 -25 0 -7 3 -2 5 12 5
14 0 19 -2 13 -5z m-92 -14 c-24 -4 -49 -13 -56 -19 -9 -8 -14 -6 -19 5 -3 9
-2 14 3 10 5 -3 20 -1 33 4 12 6 37 10 53 9 24 0 21 -2 -14 -9z m-3451 -19
c-13 -9 -13 -11 0 -20 17 -11 10 -13 -14 -4 -13 5 -14 9 -5 20 6 8 17 14 23
14 6 0 4 -5 -4 -10z m2197 -27 c-3 -10 -5 -4 -5 12 0 17 2 24 5 18 2 -7 2 -21
0 -30z m1398 27 c4 -6 -12 -10 -40 -10 -26 0 -56 -5 -68 -12 -12 -6 -32 -13
-44 -14 -13 -2 -33 -5 -45 -9 -13 -3 -5 4 17 16 60 34 167 51 180 29z m4336
-23 c19 -9 66 -31 105 -49 38 -17 87 -37 109 -44 36 -11 37 -12 12 -13 -26 -1
-277 113 -277 125 0 3 3 3 8 1 4 -2 23 -11 43 -20z m-8056 -18 c-9 -17 -19
-28 -22 -25 -8 8 17 56 29 56 5 0 1 -14 -7 -31z m1699 -4 c-10 -8 -23 -15 -28
-15 -6 0 -1 7 10 15 10 8 23 15 28 15 6 0 1 -7 -10 -15z m5394 0 c35 -18 116
-130 106 -146 -3 -6 -18 8 -31 31 -14 23 -28 38 -32 34 -3 -5 -16 -15 -28 -21
-21 -12 -23 -10 -38 39 -14 50 -19 78 -12 78 2 0 18 -7 35 -15z m-4761 -52
c-3 -10 -5 -4 -5 12 0 17 2 24 5 18 2 -7 2 -21 0 -30z m-674 15 c-6 -7 -13
-25 -17 -40 -4 -17 -11 -25 -19 -22 -14 5 -57 -38 -57 -57 0 -6 -7 -8 -16 -5
-14 5 -15 4 -5 -8 10 -12 8 -17 -11 -27 -20 -10 -22 -10 -13 2 6 8 2 6 -7 -4
-10 -11 -15 -23 -12 -28 3 -5 2 -8 -3 -7 -4 1 -18 -3 -29 -10 -12 -6 -24 -9
-27 -5 -4 3 -4 -4 -2 -16 3 -16 0 -21 -13 -19 -9 2 -16 -2 -15 -9 2 -6 -6 -15
-17 -18 -10 -3 -22 -15 -25 -25 -6 -19 -7 -19 -30 -2 -14 9 -24 19 -25 22 0 3
64 59 142 125 78 66 153 130 167 142 28 24 50 31 34 11z m1084 -40 c-3 -7 -5
-2 -5 12 0 14 2 19 5 13 2 -7 2 -19 0 -25z m5277 17 c-4 -8 -8 -15 -10 -15 -2
0 -4 7 -4 15 0 8 4 15 10 15 5 0 7 -7 4 -15z m-1125 -32 c8 -14 12 -15 25 -4
18 15 21 8 6 -20 -9 -15 -15 -17 -30 -9 -28 15 -46 50 -26 50 8 0 19 -8 25
-17z m385 -5 c8 -13 17 -34 20 -48 3 -14 3 -19 0 -12 -3 6 -14 12 -24 12 -25
0 -43 25 -35 50 8 26 21 25 39 -2z m-4934 -9 c0 -11 -4 -18 -10 -14 -5 3 -7
12 -3 20 7 21 13 19 13 -6z m-147 4 c-7 -2 -19 -2 -25 0 -7 3 -2 5 12 5 14 0
19 -2 13 -5z m1376 -22 c19 -12 -21 -25 -50 -16 -17 6 -19 9 -8 16 8 5 21 9
29 9 8 0 21 -4 29 -9z m-842 -68 c-2 -16 -4 -5 -4 22 0 28 2 40 4 28 2 -13 2
-35 0 -50z m3905 6 c26 -57 29 -59 50 -48 13 6 20 8 16 4 -4 -4 -3 -16 3 -26
6 -13 6 -19 -1 -19 -5 0 -10 7 -10 15 0 8 -4 15 -10 15 -23 0 3 -42 32 -53 10
-3 20 -19 23 -34 3 -15 15 -48 26 -72 11 -24 18 -45 16 -47 -2 -2 -32 21 -66
52 -41 38 -60 62 -56 73 2 9 -2 30 -11 46 -9 17 -29 58 -45 93 -24 54 -26 62
-11 62 11 -1 27 -22 44 -61z m255 9 c4 -42 -12 -25 -21 22 -5 26 -4 32 5 23 7
-7 14 -27 16 -45z m130 -25 c2 -42 -7 -41 -47 4 l-32 36 23 18 c22 17 24 17
38 -4 9 -12 17 -37 18 -54z m167 24 c14 -24 37 -54 51 -67 25 -24 33 -50 15
-50 -5 0 -17 11 -26 24 -8 14 -21 23 -28 20 -8 -3 -19 14 -29 47 -27 83 -21
92 17 26z m-5104 13 c0 -5 -2 -10 -4 -10 -3 0 -8 5 -11 10 -3 6 -1 10 4 10 6
0 11 -4 11 -10z m667 -27 c-3 -10 -5 -4 -5 12 0 17 2 24 5 18 2 -7 2 -21 0
-30z m5623 -9 c-10 -26 -47 -63 -64 -64 -5 0 -19 -8 -30 -17 -12 -10 -8 -3 8
15 16 17 38 34 48 38 10 3 18 12 18 19 0 10 -6 12 -17 8 -16 -6 -16 -5 -4 10
7 9 22 17 32 17 16 0 17 -4 9 -26z m-1770 -35 c0 -9 11 -29 25 -45 28 -33 32
-46 10 -38 -8 4 -15 9 -15 14 0 4 -9 17 -20 30 -13 16 -18 30 -14 44 6 18 5
19 -10 7 -18 -15 -22 -1 -4 17 14 14 28 -1 28 -29z m236 -107 c26 -74 27 -87
7 -74 -12 8 -54 169 -52 204 1 14 4 8 10 -17 5 -22 21 -73 35 -113z m-7076 99
c0 -11 -9 -23 -21 -26 -26 -9 -37 1 -19 18 10 9 11 9 6 0 -4 -7 -3 -13 3 -13
5 0 13 9 16 20 8 25 15 26 15 1z m7570 -27 c14 -37 24 -134 14 -134 -5 1 -24
13 -41 29 l-33 27 15 52 c17 57 31 65 45 26z m-254 -67 c12 -35 25 -83 29
-105 10 -61 28 -65 20 -6 l-6 49 32 -67 c30 -64 49 -85 49 -54 0 7 7 19 15 26
13 11 15 7 15 -23 0 -20 -4 -38 -9 -42 -5 -3 -30 6 -55 20 -25 14 -52 25 -60
25 -8 0 -27 5 -43 12 -15 7 -35 12 -43 12 -10 1 -16 13 -18 38 -3 32 -9 41
-53 67 -27 17 -49 36 -49 41 0 6 5 8 10 5 6 -3 10 -1 10 5 0 6 21 9 60 6 l60
-5 0 36 c0 47 8 38 36 -40z m-3580 26 c-10 -10 -19 5 -10 18 6 11 8 11 12 0 2
-7 1 -15 -2 -18z m-758 -44 c-3 -44 -7 -53 -27 -61 -23 -8 -24 -8 -9 9 9 10
18 29 22 43 3 14 3 20 1 14 -8 -15 -55 -5 -55 11 0 11 38 32 63 34 4 1 7 -22
5 -50z m4498 24 c-7 -7 -26 7 -26 19 0 6 6 6 15 -2 9 -7 13 -15 11 -17z
m-5836 -7 c0 -2 -8 -10 -17 -17 -16 -13 -17 -12 -4 4 13 16 21 21 21 13z
m7241 -53 c-49 -61 -114 -130 -105 -111 15 28 117 148 127 148 5 0 -5 -17 -22
-37z m-1124 -25 c-3 -8 -6 -5 -6 6 -1 11 2 17 5 13 3 -3 4 -12 1 -19z m1223
12 c0 -6 -11 -22 -25 -36 -14 -14 -25 -30 -25 -36 0 -6 -2 -9 -5 -6 -8 7 16
58 27 58 4 0 8 7 8 15 0 8 5 15 10 15 6 0 10 -5 10 -10z m-550 -10 c0 -5 -5
-10 -11 -10 -5 0 -7 5 -4 10 3 6 8 10 11 10 2 0 4 -4 4 -10z m-5432 -195 c-1
-65 -1 -63 -9 29 -10 119 -15 137 -20 69 -2 -28 -1 -49 4 -46 4 2 7 -1 7 -6 0
-6 -4 -11 -8 -11 -5 0 -9 -14 -10 -30 0 -21 3 -28 11 -23 7 4 6 0 -2 -10 -7
-9 -11 -24 -7 -32 3 -9 2 -13 -4 -10 -6 3 -10 30 -10 60 0 30 -4 57 -10 60
-15 9 -12 52 5 69 17 16 20 30 6 21 -5 -3 -12 -1 -15 4 -4 5 6 11 21 13 26 3
28 0 35 -42 3 -25 6 -76 6 -115z m5052 94 c-11 -24 -17 -33 -14 -19 6 30 26
71 31 66 2 -1 -6 -23 -17 -47z m-90 -10 c0 -5 -4 -9 -10 -9 -5 0 -10 7 -10 16
0 8 5 12 10 9 6 -3 10 -10 10 -16z m976 -5 c-4 -9 -9 -15 -11 -12 -3 3 -3 13
1 22 4 9 9 15 11 12 3 -3 3 -13 -1 -22z m-176 8 c0 -4 -10 -13 -22 -21 -23
-14 -23 -14 -4 8 20 22 26 25 26 13z m362 -24 c-7 -7 -12 -8 -12 -2 0 14 12
26 19 19 2 -3 -1 -11 -7 -17z m-2036 -29 c11 -23 12 -30 3 -27 -11 4 -33 58
-23 58 2 0 11 -14 20 -31z m1004 -29 c-17 -32 -24 -16 -9 20 9 19 15 25 17 16
2 -8 -2 -25 -8 -36z m-6554 13 c-10 -10 -19 5 -10 18 6 11 8 11 12 0 2 -7 1
-15 -2 -18z m7094 17 c0 -5 -5 -10 -11 -10 -5 0 -7 5 -4 10 3 6 8 10 11 10 2
0 4 -4 4 -10z m330 6 c0 -3 -4 -8 -10 -11 -5 -3 -10 -1 -10 4 0 6 5 11 10 11
6 0 10 -2 10 -4z m-1372 -55 c49 -49 49 -50 41 -93 -4 -24 -8 -61 -9 -84 0
-23 -5 -56 -11 -73 -10 -27 -15 -32 -35 -27 -20 5 -24 3 -24 -16 0 -12 -7 -41
-16 -65 -15 -39 -15 -45 0 -78 18 -38 25 -42 45 -22 10 10 11 5 6 -25 -6 -33
-2 -45 30 -94 21 -31 46 -59 56 -61 20 -6 28 -53 9 -53 -5 0 -10 3 -10 8 -1 4
-24 32 -52 62 -28 30 -45 45 -39 32 7 -12 9 -27 6 -32 -3 -5 4 -24 15 -42 11
-18 20 -42 20 -53 0 -16 -5 -12 -22 15 -12 19 -25 37 -28 40 -3 3 -6 12 -8 22
-1 9 -16 47 -33 84 -20 43 -27 70 -20 72 17 6 13 20 -14 56 -30 40 -31 46 -5
46 11 0 20 5 20 10 0 6 -4 10 -9 10 -4 0 -6 12 -4 28 4 26 3 26 -15 -6 -16
-30 -20 -32 -32 -17 -10 13 -11 23 -1 56 10 34 10 44 -2 57 -32 38 -32 45 1
39 25 -5 32 -3 32 10 0 8 14 43 31 77 34 67 56 97 40 53 -14 -36 -14 -67 -1
-67 6 0 13 8 16 18 17 52 24 55 19 7 -6 -56 8 -44 19 16 5 28 3 38 -9 43 -8 3
-15 11 -15 18 0 7 -10 18 -22 23 -20 9 -40 55 -24 55 3 0 27 -22 54 -49z
m-331 18 c14 -14 5 -49 -13 -49 -9 0 -14 11 -14 30 0 31 9 37 27 19z m1023 -8
c0 -5 -13 -14 -29 -21 -17 -6 -57 -40 -90 -73 -34 -34 -61 -57 -61 -51 0 19
73 97 119 126 47 29 61 34 61 19z m-971 -58 c0 -31 -2 -34 -9 -18 -12 28 -12
55 0 55 6 0 10 -17 9 -37z m94 -13 c31 -16 47 -30 47 -43 0 -18 -1 -18 -25 -3
-40 27 -48 21 -42 -29 6 -43 6 -45 -13 -35 -12 7 -20 21 -20 38 0 15 -3 44 -7
66 -3 22 -2 37 3 35 5 -3 30 -15 57 -29z m584 -2 c-3 -8 -6 -5 -6 6 -1 11 2
17 5 13 3 -3 4 -12 1 -19z m1064 -1 c-10 -9 -11 -8 -5 6 3 10 9 15 12 12 3 -3
0 -11 -7 -18z m-6044 -49 c-2 -13 -4 -5 -4 17 -1 22 1 32 4 23 2 -10 2 -28 0
-40z m5273 35 c0 -11 -122 -123 -134 -123 -11 0 22 38 79 92 39 37 55 45 55
31z m-8550 -43 c-8 -5 -19 -10 -25 -10 -5 0 -3 5 5 10 8 5 20 10 25 10 6 0 3
-5 -5 -10z m9298 -15 c-3 -3 -9 2 -12 12 -6 14 -5 15 5 6 7 -7 10 -15 7 -18z
m42 16 c0 -6 -4 -13 -10 -16 -5 -3 -10 1 -10 9 0 9 5 16 10 16 6 0 10 -4 10
-9z m-1830 -37 c0 -14 -4 -22 -10 -19 -5 3 -10 17 -10 31 0 14 4 22 10 19 6
-3 10 -17 10 -31z m1763 -20 c13 -13 -14 -45 -33 -39 -21 7 -38 -14 -20 -25 8
-5 8 -10 2 -14 -12 -7 -24 22 -16 37 22 39 51 57 67 41z m-1783 -14 c0 -5 -2
-10 -4 -10 -3 0 -8 5 -11 10 -3 6 -1 10 4 10 6 0 11 -4 11 -10z m604 -21 c9
-17 13 -36 10 -41 -3 -5 -1 -15 5 -22 11 -13 -4 -15 -63 -7 -4 1 -1 13 8 27
10 14 16 30 14 35 -3 9 -46 -46 -101 -130 -12 -19 -28 -36 -34 -39 -26 -8 -11
27 37 87 28 35 57 76 65 92 20 38 40 37 59 -2z m-4807 -26 c-3 -10 -5 -2 -5
17 0 19 2 27 5 18 2 -10 2 -26 0 -35z m6121 20 c-15 -15 -31 -24 -34 -20 -10
10 26 47 45 47 11 0 8 -7 -11 -27z m-1234 -18 c3 -8 -1 -29 -9 -47 -13 -29
-22 -31 -15 -3 1 6 2 22 2 38 -1 29 12 37 22 12z m936 0 c0 -9 -26 -42 -57
-74 -32 -32 -81 -83 -109 -112 -28 -30 -59 -61 -69 -69 -17 -14 -18 -14 -7 7
7 12 17 25 22 28 6 3 10 15 10 25 0 10 6 20 13 22 7 2 50 45 96 96 82 91 101
106 101 77z m-1602 -17 c17 -17 15 -29 -3 -22 -30 12 -14 -14 25 -41 22 -15
56 -48 77 -74 21 -25 65 -73 99 -106 65 -64 121 -141 111 -152 -4 -3 -15 1
-25 10 -10 10 -23 17 -29 17 -6 0 -30 21 -54 48 l-42 47 26 -49 c15 -27 26
-51 24 -53 -4 -3 -39 35 -92 99 -11 13 -26 35 -33 49 -7 13 -22 35 -33 49 -28
37 -14 -3 21 -56 15 -22 35 -63 46 -90 15 -41 73 -137 93 -154 3 -3 12 -12 19
-21 11 -14 9 -16 -12 -12 -26 5 -90 68 -82 81 2 4 0 14 -5 22 -7 12 -11 12
-17 2 -12 -18 -35 9 -26 31 3 8 -3 28 -13 43 -10 15 -30 62 -44 103 -15 42
-38 106 -52 144 -14 37 -22 67 -16 67 5 0 9 7 9 15 0 18 12 19 28 3z m1922 2
c-8 -5 -25 -10 -37 -10 -13 0 -23 -4 -23 -10 0 -5 -7 -10 -15 -10 -8 0 -15 -6
-15 -13 0 -7 -15 -21 -32 -31 -18 -11 -43 -28 -55 -39 -13 -11 -23 -16 -23
-10 0 6 4 13 9 15 5 2 30 22 55 46 54 51 82 67 122 70 22 1 25 -1 14 -8z
m-1100 -31 c0 -5 -4 -9 -10 -9 -5 0 -10 7 -10 16 0 8 5 12 10 9 6 -3 10 -10
10 -16z m-8095 1 c3 -6 -1 -7 -9 -4 -18 7 -21 14 -7 14 6 0 13 -4 16 -10z
m7981 -19 c7 -13 17 -28 23 -34 15 -15 14 -27 -4 -27 -8 0 -15 5 -15 10 0 6
-6 10 -14 10 -21 0 -38 27 -31 50 8 25 26 22 41 -9z m948 -16 c-15 -23 -44
-35 -44 -17 0 5 43 36 58 41 1 1 -5 -10 -14 -24z m-5716 -85 c0 -9 -3 -7 -8 5
-5 11 -8 29 -8 40 0 16 2 15 8 -5 4 -14 8 -32 8 -40z m-2165 35 c-3 -9 -8 -14
-10 -11 -3 3 -2 9 2 15 9 16 15 13 8 -4z m6405 3 c16 -16 15 -28 -3 -28 -8 0
-15 2 -15 4 0 2 -3 11 -6 20 -7 19 7 21 24 4z m303 -61 c-14 -15 -21 -17 -21
-8 0 21 33 56 38 41 3 -7 -5 -22 -17 -33z m1369 33 c0 -5 -7 -10 -16 -10 -8 0
-12 5 -9 10 3 6 10 10 16 10 5 0 9 -4 9 -10z m-9270 -60 c-1 -36 -16 -43 -75
-35 -56 7 -58 6 -95 -30 -45 -44 -74 -44 -77 0 0 17 -4 40 -8 52 -9 27 5 32
131 41 92 8 124 0 124 -28z m8785 17 c-16 -11 -109 -47 -122 -47 -2 0 -3 5 -3
10 0 15 79 50 115 50 28 0 28 -1 10 -13z m-5418 -19 c-3 -8 -6 -5 -6 6 -1 11
2 17 5 13 3 -3 4 -12 1 -19z m5241 -30 c-32 -49 -97 -106 -161 -141 -36 -21
-69 -42 -72 -47 -9 -15 -25 -12 -25 4 0 7 13 19 30 26 16 7 39 21 51 31 12 10
30 19 40 19 9 0 45 31 80 70 61 67 88 85 57 38z m-7665 -5 c-13 -2 -33 -2 -45
0 -13 2 -3 4 22 4 25 0 35 -2 23 -4z m7587 -19 c-21 -25 -50 -37 -50 -21 0 8
10 19 23 25 32 15 41 14 27 -4z m-5143 -31 c-3 -10 -5 -4 -5 12 0 17 2 24 5
18 2 -7 2 -21 0 -30z m4743 18 c21 -40 12 -56 -35 -69 -71 -19 -75 -18 -75 31
0 24 3 47 7 50 3 4 26 7 49 7 33 0 46 -5 54 -19z m-281 -10 c7 -5 11 -14 7
-19 -9 -15 -36 -4 -36 14 0 16 9 18 29 5z m984 -28 c4 -2 7 -15 7 -27 0 -17
-10 -28 -34 -40 -19 -9 -39 -16 -45 -16 -7 0 -30 -9 -51 -20 -52 -27 -51 -4 3
70 32 44 78 56 120 33z m-5408 -42 l30 -34 -32 19 c-20 11 -33 26 -33 38 0 11
1 17 3 15 1 -2 16 -19 32 -38z m4405 29 c0 -5 -2 -10 -4 -10 -3 0 -8 5 -11 10
-3 6 -1 10 4 10 6 0 11 -4 11 -10z m-334 -58 c-9 -8 -26 10 -26 26 1 15 2 15
15 -2 8 -11 13 -21 11 -24z m-3896 -12 c0 -5 -7 -10 -15 -10 -8 0 -15 -4 -15
-10 0 -5 -4 -10 -8 -10 -5 0 -9 7 -9 15 0 8 4 12 8 9 4 -2 10 0 14 6 8 13 25
13 25 0z m4722 -62 c-15 -15 -26 -4 -18 18 5 13 9 15 18 6 9 -9 9 -15 0 -24z
m-354 -14 c-4 -3 -12 5 -18 18 -12 22 -12 22 6 6 10 -10 15 -20 12 -24z m-551
20 c-3 -3 -12 -4 -19 -1 -8 3 -5 6 6 6 11 1 17 -2 13 -5z m1233 -8 c0 -7 -10
-21 -22 -30 -21 -15 -21 -16 -3 -14 11 2 26 16 33 31 11 22 20 28 40 25 15 -1
32 -6 39 -11 7 -5 17 -6 22 -3 5 4 12 2 16 -4 10 -16 -79 -50 -200 -75 -60
-13 -111 -22 -114 -20 -2 3 2 17 8 33 12 28 71 72 71 53 0 -17 26 -13 62 9 39
24 48 25 48 6z m-9995 -16 c3 -5 1 -10 -4 -10 -6 0 -11 5 -11 10 0 6 2 10 4
10 3 0 8 -4 11 -10z m8651 -65 c32 -14 46 -23 29 -20 -35 8 -115 43 -99 44 6
1 37 -10 70 -24z m1142 3 c-3 -7 -13 -15 -24 -17 -16 -3 -17 -1 -5 13 16 19
34 21 29 4z m857 2 c-11 -5 -27 -9 -35 -9 -9 0 -8 4 5 9 11 5 27 9 35 9 9 0 8
-4 -5 -9z m-5995 -20 c0 -5 -4 -10 -9 -10 -6 0 -13 5 -16 10 -3 6 1 10 9 10 9
0 16 -4 16 -10z m-4833 -42 c-3 -7 -5 -2 -5 12 0 14 2 19 5 13 2 -7 2 -19 0
-25z m10143 3 c0 -12 -20 -25 -27 -18 -7 7 6 27 18 27 5 0 9 -4 9 -9z m170 0
c0 -12 -20 -25 -27 -18 -7 7 6 27 18 27 5 0 9 -4 9 -9z m-488 -17 c-12 -8 -28
-12 -34 -8 -9 6 -5 10 12 15 41 11 46 10 22 -7z m-92 -25 c0 -5 -7 -9 -15 -9
-9 0 -15 9 -15 21 0 18 2 19 15 9 8 -7 15 -16 15 -21z m434 4 c-9 -38 -21 -50
-36 -35 -9 9 -6 17 13 36 31 31 31 31 23 -1z m-1084 -13 c-8 -5 -24 -9 -35 -9
-16 1 -16 2 5 9 35 11 48 11 30 0z m1015 0 c-3 -5 -11 -10 -16 -10 -6 0 -7 5
-4 10 3 6 11 10 16 10 6 0 7 -4 4 -10z m-135 -10 c0 -5 -4 -10 -10 -10 -5 0
-10 5 -10 10 0 6 5 10 10 10 6 0 10 -4 10 -10z m-230 -25 c0 -8 -4 -15 -10
-15 -5 0 -10 7 -10 15 0 8 5 15 10 15 6 0 10 -7 10 -15z m330 5 c0 -5 -5 -10
-11 -10 -5 0 -7 5 -4 10 3 6 8 10 11 10 2 0 4 -4 4 -10z m-280 -14 c0 -3 -4
-8 -10 -11 -5 -3 -10 -1 -10 4 0 6 5 11 10 11 6 0 10 -2 10 -4z m388 -31 c-3
-3 -9 2 -12 12 -6 14 -5 15 5 6 7 -7 10 -15 7 -18z m-67 -35 c29 -16 23 -31
-8 -24 -37 9 -44 14 -38 25 8 12 22 11 46 -1z m631 -50 c27 -25 17 -36 -39
-43 -37 -4 -43 -2 -43 13 0 16 34 48 53 49 4 1 18 -8 29 -19z m-234 -16 c-9
-9 -21 -13 -27 -10 -20 13 -11 26 16 26 25 0 26 -1 11 -16z m-523 -72 c-4 -4
-10 -1 -12 6 -3 6 -11 12 -19 12 -15 0 -19 12 -7 23 3 4 15 -2 26 -14 10 -11
16 -23 12 -27z m890 18 c3 -5 -1 -10 -10 -10 -9 0 -13 5 -10 10 3 6 8 10 10
10 2 0 7 -4 10 -10z m-98 -162 c-3 -8 -6 -5 -6 6 -1 11 2 17 5 13 3 -3 4 -12
1 -19z m-487 -8 c0 -5 -5 -10 -11 -10 -5 0 -7 5 -4 10 3 6 8 10 11 10 2 0 4
-4 4 -10z"/>
<path d="M23144 10545 c11 -8 22 -12 25 -9 6 6 -19 24 -34 24 -5 -1 -1 -7 9
-15z"/>
<path d="M28160 8374 c0 -5 7 -18 15 -28 8 -11 15 -16 15 -10 0 5 -7 18 -15
28 -8 11 -15 16 -15 10z"/>
<path d="M29790 7574 c0 -14 3 -14 15 -4 8 7 15 14 15 16 0 2 -7 4 -15 4 -8 0
-15 -7 -15 -16z"/>
<path d="M20530 7306 c0 -2 9 -6 20 -9 11 -3 18 -1 14 4 -5 9 -34 13 -34 5z"/>
<path d="M7586 11434 c-14 -13 -16 -52 -16 -274 0 -222 2 -261 16 -274 14 -14
160 -16 1454 -16 1294 0 1440 2 1454 16 14 13 16 52 16 274 0 222 -2 261 -16
274 -14 14 -160 16 -1454 16 -1294 0 -1440 -2 -1454 -16z m599 -154 c0 -18 -6
-26 -23 -28 -24 -4 -38 18 -28 44 3 9 15 14 28 12 17 -2 23 -10 23 -28z m1255
-76 c0 -88 3 -109 17 -119 25 -18 9 -45 -26 -45 -44 0 -51 23 -51 154 l0 116
30 0 30 0 0 -106z m485 96 c13 -20 -6 -50 -31 -50 -26 0 -40 20 -30 45 6 17
51 20 61 5z m-1993 -27 c53 -62 12 -143 -72 -143 -29 0 -30 -2 -30 -45 0 -43
-1 -45 -30 -45 l-30 0 0 125 0 125 73 0 c58 0 77 -4 89 -17z m1078 -3 c0 -18
-7 -20 -55 -20 -54 0 -55 0 -55 -30 0 -29 2 -30 45 -30 38 0 45 -3 45 -20 0
-17 -7 -20 -45 -20 -43 0 -45 -1 -45 -30 0 -30 1 -30 55 -30 52 0 55 -1 55
-25 0 -25 -1 -25 -85 -25 l-85 0 0 125 0 125 85 0 c78 0 85 -2 85 -20z m-970
-52 c0 -9 3 -9 12 0 7 7 22 12 35 12 18 0 23 -6 23 -24 0 -19 -7 -25 -35 -30
l-35 -7 0 -64 c0 -63 -1 -65 -25 -65 -25 0 -25 0 -25 95 0 95 0 95 25 95 14 0
25 -5 25 -12z m150 -83 l0 -95 -30 0 -30 0 0 95 0 95 30 0 30 0 0 -95z m200
83 c0 -9 3 -9 12 0 7 7 31 12 55 12 38 0 45 -3 54 -27 5 -14 9 -56 7 -92 -3
-64 -4 -66 -30 -69 l-28 -3 0 69 c0 53 -4 71 -15 76 -35 13 -45 -4 -45 -75 0
-67 -1 -69 -25 -69 -24 0 -25 2 -25 63 0 67 -10 88 -41 80 -16 -5 -19 -15 -19
-75 l0 -69 -27 3 c-28 3 -28 4 -31 82 -2 44 -1 85 2 91 6 17 156 19 156 3z
m304 -4 c9 -9 16 -32 16 -55 l0 -39 -57 0 -58 -1 24 -20 c18 -15 32 -18 58
-13 32 6 34 5 31 -17 -3 -21 -9 -24 -47 -27 -25 -2 -54 -1 -66 2 -46 12 -61
113 -24 160 16 21 29 26 64 26 26 0 50 -6 59 -16z m401 -6 l16 -23 16 23 c16
23 63 31 63 10 0 -6 -11 -26 -25 -45 l-26 -33 31 -44 c16 -25 30 -47 30 -50 0
-3 -13 -6 -29 -6 -20 0 -34 8 -46 27 l-17 26 -17 -26 c-11 -19 -24 -27 -43
-27 -35 0 -34 5 1 55 l29 40 -29 42 c-16 23 -29 44 -29 47 0 3 13 6 29 6 19 0
36 -8 46 -22z m255 -4 c0 -21 -4 -24 -20 -19 -33 11 -60 -12 -60 -50 0 -39 23
-58 58 -48 18 4 22 1 22 -21 0 -25 -3 -26 -50 -26 -67 0 -90 22 -90 89 0 71
26 101 91 101 46 0 49 -2 49 -26z m200 -37 c0 -67 10 -88 41 -80 16 5 19 15
19 75 l0 69 28 -3 27 -3 0 -90 0 -90 -70 -2 c-38 -1 -77 2 -85 7 -10 6 -16 32
-18 79 -5 86 0 101 33 101 24 0 25 -2 25 -63z m278 35 c3 -21 1 -22 -37 -16
-53 8 -55 -10 -4 -31 21 -9 41 -21 45 -28 26 -40 -13 -87 -71 -87 -53 0 -71 8
-71 32 0 17 5 19 46 12 57 -8 58 11 2 38 -44 21 -56 50 -33 84 14 22 22 25 68
22 45 -3 52 -6 55 -26z m92 -68 l0 -95 -27 3 c-28 3 -28 4 -31 82 -3 95 0 106
33 106 l25 0 0 -96z m99 39 c8 -29 17 -53 20 -53 3 0 13 24 21 53 13 45 19 52
43 55 35 4 35 -4 -5 -105 -29 -76 -34 -83 -59 -83 -24 0 -30 8 -58 78 -39 98
-40 114 -4 110 24 -3 30 -10 42 -55z m275 35 c9 -12 16 -37 16 -55 l0 -33 -55
0 c-30 0 -55 -4 -55 -10 0 -18 40 -31 75 -24 31 5 35 4 35 -14 0 -24 -18 -32
-75 -32 -67 0 -90 25 -89 95 0 48 4 61 23 76 34 28 105 26 125 -3z"/>
<path d="M7830 11215 c0 -30 3 -35 24 -35 13 0 29 7 36 15 10 13 10 19 -5 35
-10 11 -26 20 -37 20 -14 0 -18 -8 -18 -35z"/>
<path d="M8610 11175 c-11 -13 -8 -15 19 -15 21 0 31 5 31 15 0 8 -8 15 -19
15 -10 0 -24 -7 -31 -15z"/>
<path d="M10207 11176 c-5 -12 1 -16 24 -16 20 0 29 4 27 13 -7 18 -45 20 -51
3z"/>
<path d="M19300 11402 c-24 -2 -47 -15 -73 -40 -40 -38 -117 -144 -117 -160 0
-5 -7 -15 -15 -22 -8 -7 -15 -23 -15 -36 0 -13 -4 -24 -10 -24 -5 0 -10 -5
-10 -11 0 -6 -16 -44 -35 -85 -19 -40 -35 -78 -35 -83 0 -6 -9 -27 -19 -48
-10 -21 -26 -54 -34 -73 -8 -19 -44 -102 -80 -185 -36 -82 -77 -179 -92 -215
-15 -36 -35 -83 -46 -106 -10 -23 -36 -83 -59 -135 -22 -52 -69 -146 -104
-209 -96 -173 -153 -293 -148 -313 5 -25 -27 -124 -56 -172 -34 -56 -103 -125
-125 -125 -10 0 -15 -5 -11 -11 8 -14 -35 -98 -58 -112 -12 -8 -14 -15 -6 -24
7 -9 4 -24 -11 -53 -12 -22 -21 -46 -21 -52 0 -7 -28 -70 -62 -140 -50 -104
-66 -130 -86 -135 -24 -6 -24 -7 -7 -19 26 -19 11 -29 -38 -27 -42 2 -100 -18
-113 -38 -3 -6 -17 -15 -31 -20 -14 -5 -23 -12 -19 -16 3 -4 19 3 34 14 38 28
95 45 126 37 33 -8 33 -20 -1 -38 -21 -11 -23 -15 -10 -16 22 0 34 -29 17 -40
-8 -5 -12 -34 -12 -85 -1 -63 3 -80 16 -87 32 -18 37 -54 16 -111 -23 -60 -25
-84 -8 -89 7 -3 -19 -9 -59 -14 l-71 -10 -24 47 c-12 26 -26 45 -29 43 -4 -2
-16 15 -28 39 -12 23 -21 35 -21 26 0 -26 31 -109 41 -109 5 0 9 -7 9 -15 0
-7 7 -18 16 -23 12 -7 0 -13 -47 -25 -35 -9 -77 -18 -94 -21 -16 -3 -66 -17
-109 -30 -44 -14 -83 -23 -88 -20 -4 3 -8 -4 -8 -16 0 -13 -10 -24 -27 -31
-88 -33 -230 -114 -243 -138 -5 -10 -10 -53 -11 -97 -1 -43 -5 -91 -9 -105 -5
-15 -4 -42 0 -60 l8 -34 2 40 2 40 10 -35 11 -35 9 35 c6 19 8 52 5 73 -4 32
-3 36 9 26 8 -6 17 -9 21 -5 3 3 1 6 -5 6 -18 0 -14 31 5 45 19 14 8 39 -13
31 -8 -3 -14 -1 -14 4 0 6 4 10 10 10 5 0 43 21 85 47 41 25 78 44 81 40 3 -3
-10 -13 -30 -22 -20 -10 -36 -21 -36 -26 0 -5 -7 -9 -16 -9 -8 0 -12 -5 -9
-11 4 -6 13 -8 21 -5 8 3 14 -1 14 -10 0 -11 -6 -15 -20 -11 -32 8 -26 -31 8
-45 15 -7 35 -21 44 -32 17 -21 18 -21 18 12 0 36 25 45 35 12 9 -29 -3 -60
-21 -53 -9 3 -14 -1 -15 -13 0 -11 -3 -14 -6 -6 -10 25 -34 11 -50 -30 -9 -23
-19 -36 -21 -30 -6 19 -22 14 -22 -6 0 -22 -33 -55 -44 -45 -4 4 -11 1 -16 -7
-8 -12 -10 -11 -11 5 0 16 -3 14 -11 -7 -5 -16 -15 -28 -23 -28 -27 0 -38 -35
-60 -187 -27 -190 -34 -243 -30 -243 1 0 21 27 44 60 24 33 82 109 129 168
114 140 187 236 310 410 189 266 197 273 308 287 48 6 52 5 58 -17 3 -13 6
-39 6 -59 0 -19 7 -44 15 -55 15 -19 15 -19 31 1 16 20 16 20 9 -2 -5 -19 -3
-23 17 -23 38 0 56 20 91 105 87 207 85 204 125 202 34 -2 38 1 63 48 30 57
50 94 62 113 7 10 17 4 43 -22 19 -19 34 -29 34 -21 0 8 -4 17 -10 20 -17 10
-11 25 7 18 12 -5 15 -2 10 10 -5 13 -1 17 18 17 13 0 27 -5 30 -10 4 -6 11
-8 16 -4 5 3 -2 15 -16 26 -14 11 -23 23 -20 27 2 5 -19 13 -48 19 -29 6 -79
16 -111 23 -76 17 -140 63 -144 104 -4 53 8 60 85 48 37 -6 70 -6 71 -2 5 12
87 11 196 -1 49 -6 91 -8 95 -5 11 12 -25 24 -56 19 -17 -3 -55 1 -85 9 -37
11 -86 14 -166 11 -125 -4 -144 1 -167 46 -23 45 -19 76 17 109 26 24 43 30
100 36 37 4 70 10 72 14 2 3 74 6 160 6 88 0 156 4 156 9 0 5 7 18 17 28 15
17 15 18 -10 18 -14 0 -28 6 -30 13 -3 6 -6 0 -6 -15 -1 -16 -6 -28 -12 -28
-7 0 -9 10 -5 28 4 15 3 23 -1 17 -17 -21 -114 -31 -152 -15 -33 13 -54 54
-48 94 4 33 42 75 88 98 69 35 225 91 266 96 23 2 40 9 37 14 -9 14 27 36 50
30 20 -5 20 -5 4 12 -23 22 -41 91 -32 119 4 12 17 38 30 57 13 19 24 43 24
54 0 18 40 136 100 296 16 41 50 120 75 175 26 55 63 134 82 175 36 76 68 147
118 255 15 33 37 83 50 110 80 171 114 247 176 388 60 138 69 165 69 219 0 83
-50 172 -68 120 -2 -8 3 -10 15 -5 10 3 15 3 11 -2 -4 -4 -1 -20 7 -36 8 -15
15 -36 15 -46 -1 -11 -8 -4 -20 19 -11 20 -24 39 -29 42 -4 3 -22 -20 -39 -52
-28 -52 -34 -57 -64 -57 -18 0 -33 5 -33 11 0 7 -11 21 -25 33 -15 12 -19 20
-11 21 8 0 11 6 7 16 -3 8 -2 12 4 9 6 -3 10 1 10 9 0 9 7 16 15 16 11 0 15 9
13 29 -1 16 4 36 11 45 17 20 15 22 -29 18z m120 -191 c0 -16 -6 -36 -13 -43
-8 -7 -16 -20 -20 -28 -3 -10 -6 -7 -6 8 -1 24 24 92 33 92 4 0 6 -13 6 -29z
m-159 -84 c-10 -9 -11 -8 -5 6 3 10 9 15 12 12 3 -3 0 -11 -7 -18z m47 -88
c-30 -63 -48 -85 -48 -59 0 6 5 10 10 10 6 0 10 5 10 11 0 5 11 35 25 65 14
30 26 60 26 67 1 7 3 4 6 -6 3 -10 -10 -49 -29 -88z m-65 46 c-3 -9 -8 -14
-10 -11 -3 3 -2 9 2 15 9 16 15 13 8 -4z m65 -140 c-6 -14 -13 -23 -15 -21 -5
5 15 46 22 46 3 0 -1 -11 -7 -25z m-27 -62 c-12 -20 -14 -14 -5 12 4 9 9 14
11 11 3 -2 0 -13 -6 -23z m-388 -648 c-3 -9 -8 -14 -10 -11 -3 3 -2 9 2 15 9
16 15 13 8 -4z m-46 -101 c-8 -25 -8 -40 0 -53 14 -22 -3 -64 -47 -111 -17
-19 -40 -52 -51 -72 -12 -23 -27 -38 -38 -38 -22 0 -30 -10 -61 -79 -23 -49
-23 -54 -7 -66 16 -11 16 -14 -1 -53 -10 -26 -24 -42 -34 -42 -24 0 -38 -30
-25 -52 9 -14 8 -23 -2 -40 -8 -13 -23 -39 -34 -58 -41 -78 -43 -80 -55 -68
-9 9 -12 3 -10 -28 1 -38 -24 -104 -41 -104 -5 0 -14 7 -21 15 -10 12 -2 41
45 157 32 79 78 185 102 237 24 51 64 141 90 200 25 58 53 117 62 131 9 14 25
42 34 64 13 27 23 37 35 34 19 -5 32 5 51 40 17 32 21 27 8 -14z m-106 -797
c-13 -13 -15 11 -4 40 7 16 8 15 11 -6 2 -13 -1 -28 -7 -34z m-321 -67 c0 -5
-4 -10 -10 -10 -5 0 -10 5 -10 10 0 6 5 10 10 10 6 0 10 -4 10 -10z m-70 -180
c12 -8 11 -10 -7 -10 -13 0 -23 5 -23 10 0 13 11 13 30 0z m-316 -936 c19 -19
19 -11 0 -66 -17 -52 -31 -62 -58 -42 -21 15 -17 61 9 101 18 27 28 29 49 7z
m-494 -78 c0 -3 -4 -8 -10 -11 -5 -3 -10 -1 -10 4 0 6 5 11 10 11 6 0 10 -2
10 -4z m-91 -10 c-2 -2 -15 -9 -29 -15 -24 -11 -24 -11 -6 3 16 13 49 24 35
12z m61 0 c0 -3 -4 -8 -10 -11 -5 -3 -10 -1 -10 4 0 6 5 11 10 11 6 0 10 -2
10 -4z m-160 -86 c0 -5 -4 -10 -10 -10 -5 0 -10 5 -10 10 0 6 5 10 10 10 6 0
10 -4 10 -10z"/>
<path d="M21851 11184 c0 -11 3 -14 6 -6 3 7 2 16 -1 19 -3 4 -6 -2 -5 -13z"/>
<path d="M21882 11187 c-6 -7 -7 -19 -3 -26 6 -9 10 -6 14 10 8 28 3 34 -11
16z"/>
<path d="M22088 11173 c7 -3 16 -2 19 1 4 3 -2 6 -13 5 -11 0 -14 -3 -6 -6z"/>
<path d="M21896 11145 c-9 -26 -7 -32 5 -12 6 10 9 21 6 23 -2 3 -7 -2 -11
-11z"/>
<path d="M22296 11105 c4 -8 8 -15 10 -15 2 0 4 7 4 15 0 8 -4 15 -10 15 -5 0
-7 -7 -4 -15z"/>
<path d="M22260 11100 c0 -5 5 -10 11 -10 5 0 7 5 4 10 -3 6 -8 10 -11 10 -2
0 -4 -4 -4 -10z"/>
<path d="M21658 11093 c7 -3 16 -2 19 1 4 3 -2 6 -13 5 -11 0 -14 -3 -6 -6z"/>
<path d="M22311 11063 c-1 -13 -1 -26 -2 -30 -1 -15 72 -26 84 -13 9 10 7 11
-12 5 -14 -4 -21 -3 -18 2 3 5 -4 9 -15 9 -15 -1 -24 7 -29 24 -7 24 -7 24 -8
3z"/>
<path d="M22350 10994 c0 -2 9 -8 19 -13 14 -8 20 -7 24 2 3 7 -5 13 -19 13
-13 1 -24 0 -24 -2z"/>
<path d="M22450 10924 c0 -4 8 -13 18 -20 20 -16 92 -19 92 -4 0 6 -16 10 -36
10 -19 0 -44 5 -55 10 -10 6 -19 8 -19 4z"/>
<path d="M22855 10709 c-16 -6 -16 -8 -3 -8 9 -1 23 -4 32 -7 9 -3 16 -1 16 6
0 6 -4 9 -9 6 -5 -4 -11 -2 -13 3 -1 4 -12 5 -23 0z"/>
<path d="M22843 10660 c6 -10 15 -16 20 -13 13 8 3 26 -16 29 -13 2 -14 -1 -4
-16z"/>
<path d="M10633 10525 c-40 -17 -61 -49 -66 -99 -3 -27 -10 -42 -22 -46 -38
-13 -39 -77 -1 -82 20 -3 21 -9 23 -118 1 -63 3 -118 3 -122 0 -14 110 -9 110
5 1 6 1 63 1 125 l0 112 60 0 c42 0 59 -4 58 -12 -1 -7 -1 -64 0 -125 l1 -113
54 0 c40 0 55 4 60 16 3 9 6 65 6 125 l0 109 39 0 c32 0 39 4 43 23 7 38 -2
57 -28 58 -13 1 -30 2 -36 3 -18 1 -23 47 -6 57 7 5 28 9 46 9 30 0 32 2 32
35 0 41 -20 55 -82 55 -47 0 -100 -27 -118 -59 -6 -12 -11 -36 -12 -55 -1 -40
-7 -43 -63 -42 -38 1 -40 3 -40 31 0 27 4 30 33 33 30 3 32 6 32 42 0 25 -5
40 -16 44 -26 10 -77 6 -111 -9z"/>
<path d="M9606 10508 c-9 -12 -16 -36 -16 -53 0 -48 25 -75 69 -75 48 0 66 20
66 75 0 55 -18 75 -66 75 -28 0 -42 -6 -53 -22z m69 -54 c0 -19 -6 -30 -17
-32 -14 -3 -18 3 -18 26 0 16 3 32 7 36 14 13 28 -1 28 -30z"/>
<path d="M9797 10518 c-3 -7 -30 -66 -61 -130 -55 -118 -55 -118 -30 -118 22
0 32 14 85 126 32 69 59 128 59 130 0 10 -48 2 -53 -8z"/>
<path d="M7721 10496 c-79 -26 -126 -86 -141 -183 -18 -106 24 -203 103 -245
34 -18 58 -22 122 -21 44 0 98 7 120 14 l40 14 3 118 3 117 -90 0 c-97 0 -105
-5 -94 -64 5 -22 11 -26 39 -26 33 0 34 -1 34 -40 0 -40 0 -40 -40 -40 -57 0
-87 17 -104 62 -34 83 -11 168 51 195 38 15 124 14 166 -2 15 -6 17 -1 17 39
0 36 -4 48 -21 56 -34 19 -158 22 -208 6z"/>
<path d="M9302 10493 c-55 -27 -84 -89 -90 -192 -10 -181 69 -280 206 -257 48
7 82 33 111 86 47 83 37 262 -17 326 -45 53 -143 70 -210 37z m115 -100 c14
-21 18 -48 18 -124 -1 -104 -10 -129 -50 -129 -32 0 -43 18 -51 82 -17 146 33
248 83 171z"/>
<path d="M8918 10473 l-58 -26 0 -45 c0 -49 -3 -48 84 -26 l26 6 0 -166 0
-166 60 0 60 0 0 225 0 225 -57 -1 c-39 -1 -77 -9 -115 -26z"/>
<path d="M8435 10429 c-5 -29 -13 -43 -30 -49 -12 -5 -25 -15 -28 -23 -9 -25
4 -57 24 -57 17 0 19 -8 19 -80 0 -132 26 -170 118 -172 77 -2 92 7 92 53 0
39 0 39 -39 39 -47 0 -51 8 -51 95 l0 64 43 3 c41 3 42 4 45 40 3 29 -1 38
-17 43 -12 3 -25 4 -30 1 -22 -14 -41 7 -41 45 l0 39 -49 0 -49 0 -7 -41z"/>
<path d="M9827 10402 c-22 -24 -22 -95 -1 -116 24 -24 91 -21 104 5 16 28 16
75 0 104 -11 20 -21 25 -50 25 -23 0 -43 -7 -53 -18z m65 -39 c6 -28 -3 -53
-18 -53 -9 0 -14 12 -14 35 0 37 25 51 32 18z"/>
<path d="M8167 10389 c-80 -13 -127 -77 -127 -172 0 -113 46 -166 153 -174 38
-3 78 1 102 9 36 12 40 17 43 51 2 20 0 37 -5 37 -4 -1 -28 -5 -53 -10 -73
-14 -146 15 -124 51 3 5 45 9 94 9 71 0 89 3 94 16 18 47 -8 139 -47 163 -30
20 -85 28 -130 20z m71 -106 c2 -14 -2 -23 -10 -24 -7 -1 -28 -2 -45 -4 -35
-3 -39 4 -22 36 15 29 73 23 77 -8z"/>
<path d="M10272 10390 c-89 -13 -135 -77 -130 -182 5 -103 56 -158 152 -166
115 -9 186 57 186 175 0 126 -78 191 -208 173z m72 -102 c18 -26 21 -109 6
-139 -7 -12 -21 -19 -39 -19 -37 0 -56 41 -49 105 9 73 50 100 82 53z"/>
<path d="M23370 10226 c0 -2 9 -6 20 -9 11 -3 18 -1 14 4 -5 9 -34 13 -34 5z"/>
<path d="M23420 10200 c0 -5 5 -10 11 -10 5 0 7 5 4 10 -3 6 -8 10 -11 10 -2
0 -4 -4 -4 -10z"/>
<path d="M21452 10095 c-69 -30 -127 -87 -70 -69 35 11 102 6 154 -12 52 -18
95 -38 213 -102 75 -40 101 -44 101 -13 -1 32 -46 94 -85 116 -69 41 -121 65
-137 65 -9 0 -18 4 -20 9 -1 4 -14 12 -27 16 -20 6 -23 5 -17 -10 5 -15 4 -16
-8 -6 -23 19 -68 22 -104 6z"/>
<path d="M21378 9976 c-43 -23 -75 -66 -70 -92 2 -13 25 -39 51 -59 25 -19 58
-44 72 -55 33 -27 97 -42 121 -29 21 11 105 2 114 -12 8 -13 42 -11 47 4 2 6
-5 24 -15 40 -21 29 -18 36 5 12 13 -12 15 -11 13 10 0 15 -7 25 -16 26 -9 0
-11 2 -3 5 7 3 9 12 6 20 -7 20 14 17 26 -3 8 -15 10 -15 11 -3 0 9 -16 24
-35 34 -19 10 -32 22 -30 26 2 4 -30 24 -73 45 -89 44 -178 56 -224 31z m281
-127 c18 -17 28 -39 17 -39 -2 0 -20 15 -41 34 -27 25 -32 33 -17 29 11 -2 30
-14 41 -24z m-29 -48 c45 -38 32 -50 -38 -38 -50 8 -53 10 -48 33 5 20 3 24
-10 22 -9 -2 -19 3 -22 11 -3 9 1 11 16 7 11 -4 23 -2 27 4 7 12 25 3 75 -39z
m60 -62 c0 -6 -4 -7 -10 -4 -5 3 -10 11 -10 16 0 6 5 7 10 4 6 -3 10 -11 10
-16z"/>
<path d="M21630 9950 c0 -5 5 -10 11 -10 5 0 7 5 4 10 -3 6 -8 10 -11 10 -2 0
-4 -4 -4 -10z"/>
<path d="M23490 9761 c0 -10 -3 -26 -6 -35 -4 -10 -1 -16 7 -16 16 0 23 56 9
65 -6 4 -10 -3 -10 -14z"/>
<path d="M21588 9734 c-4 -6 -36 -9 -80 -7 -92 3 -61 -14 42 -23 50 -4 70 -3
70 6 0 6 -4 9 -9 5 -5 -3 -11 3 -13 12 -2 11 -6 14 -10 7z"/>
<path d="M9160 9670 c0 -57 -1 -60 -19 -50 -29 15 -78 12 -106 -6 -46 -30 -59
-125 -25 -181 23 -38 59 -50 110 -36 24 6 42 6 53 -1 31 -19 31 -20 27 317 0
10 -8 17 -20 17 -18 0 -20 -7 -20 -60z m-16 -86 c12 -5 16 -21 16 -74 0 -67 0
-68 -31 -79 -32 -11 -65 -2 -81 23 -11 16 -10 95 2 117 11 19 60 26 94 13z"/>
<path d="M9839 9708 c0 -13 0 -86 0 -162 1 -149 4 -159 50 -154 31 4 40 28 12
35 -20 5 -21 11 -21 154 0 142 -1 149 -20 149 -14 0 -20 -7 -21 -22z"/>
<path d="M10622 9563 c3 -160 4 -168 23 -168 18 0 20 8 23 92 l3 91 31 11 c40
14 44 14 62 -5 12 -12 16 -37 16 -105 0 -82 1 -89 20 -89 11 0 20 7 21 15 0 8
0 40 0 70 0 111 -1 124 -18 140 -17 17 -78 17 -115 1 -16 -7 -18 -2 -18 53 0
59 -1 61 -25 61 l-25 0 2 -167z"/>
<path d="M14332 9563 c3 -160 4 -168 23 -168 18 0 20 8 23 92 3 99 -1 91 61
108 38 11 51 -20 51 -116 0 -82 1 -89 20 -89 19 0 20 7 20 110 0 101 -2 110
-21 121 -22 11 -80 8 -111 -5 -16 -7 -18 -1 -18 53 0 59 -1 61 -25 61 l-25 0
2 -167z"/>
<path d="M7644 9710 c-44 -14 -65 -60 -51 -113 6 -22 21 -34 70 -56 71 -32 91
-52 82 -80 -6 -21 -62 -45 -86 -37 -54 17 -69 16 -69 -4 0 -25 35 -34 118 -31
46 1 82 39 82 86 0 55 -14 72 -81 96 -76 28 -97 60 -59 91 19 16 33 18 72 13
39 -6 48 -4 48 8 0 9 -4 18 -8 21 -19 11 -89 15 -118 6z"/>
<path d="M12800 9694 c0 -21 4 -25 23 -22 14 2 23 11 25 26 3 18 -1 22 -22 22
-21 0 -26 -5 -26 -26z"/>
<path d="M14040 9695 c0 -22 4 -26 23 -23 14 2 22 10 22 23 0 13 -8 21 -22 23
-19 3 -23 -1 -23 -23z"/>
<path d="M15172 9698 c2 -15 11 -24 26 -26 18 -3 22 1 22 22 0 21 -5 26 -26
26 -21 0 -25 -4 -22 -22z"/>
<path d="M14730 9550 c0 -152 1 -160 20 -160 16 0 19 8 22 63 l3 62 63 5 c78
6 102 29 102 97 0 33 -6 50 -25 68 -22 22 -32 25 -105 25 l-80 0 0 -160z m157
104 c17 -23 17 -55 0 -78 -9 -12 -28 -18 -62 -19 l-49 -2 -4 48 c-6 73 0 80
55 74 29 -3 52 -12 60 -23z"/>
<path d="M21635 9700 c-3 -5 -1 -10 4 -10 6 0 11 5 11 10 0 6 -2 10 -4 10 -3
0 -8 -4 -11 -10z"/>
<path d="M14176 9655 c-5 -26 -12 -35 -26 -35 -11 0 -20 -7 -20 -15 0 -8 9
-15 20 -15 18 0 20 -7 20 -80 0 -67 3 -83 20 -100 29 -29 100 -25 100 6 0 9
-12 14 -35 14 l-35 0 0 80 0 80 30 0 c39 0 41 27 3 32 -23 2 -29 8 -31 36 -5
46 -37 45 -46 -3z"/>
<path d="M7857 9623 c-4 -3 -7 -78 -7 -165 l0 -158 25 0 c24 0 25 3 25 55 0
52 1 55 19 45 88 -46 171 47 142 158 -7 23 -21 48 -34 57 -25 18 -79 20 -109
4 -14 -8 -23 -8 -31 0 -13 13 -21 14 -30 4z m151 -58 c29 -64 4 -135 -48 -135
-55 0 -60 6 -60 80 0 74 3 78 61 79 29 1 38 -4 47 -24z"/>
<path d="M8150 9623 c-18 -7 -30 -24 -24 -34 2 -4 20 -3 40 1 41 10 78 -1 87
-24 12 -30 -2 -41 -46 -38 -78 6 -123 -57 -81 -116 17 -25 70 -30 107 -11 16
9 22 9 25 0 2 -6 12 -11 23 -11 17 0 19 8 19 100 0 122 -12 140 -87 139 -27 0
-55 -3 -63 -6z m98 -155 c3 -23 -2 -30 -24 -38 -45 -17 -82 7 -68 44 7 17 29
25 64 23 19 -2 26 -8 28 -29z"/>
<path d="M8508 9623 c-10 -2 -18 -13 -18 -24 0 -15 5 -19 18 -15 70 21 112 10
112 -31 0 -27 -2 -28 -55 -28 -35 0 -59 -5 -68 -15 -46 -48 -15 -120 51 -120
20 0 43 4 51 9 9 6 21 5 32 -2 10 -6 22 -8 26 -3 4 4 8 50 8 103 0 88 -2 96
-24 114 -22 18 -87 24 -133 12z m96 -129 c9 -3 16 -16 16 -29 0 -28 -53 -54
-79 -38 -51 32 3 90 63 67z"/>
<path d="M8730 9509 c0 -112 1 -119 20 -119 18 0 20 7 21 70 1 39 3 75 4 80 1
6 3 17 4 25 1 16 56 34 83 27 22 -5 28 -32 28 -124 0 -71 2 -78 20 -78 19 0
20 7 20 104 0 82 -3 108 -16 120 -20 20 -76 20 -114 1 -17 -9 -30 -11 -30 -6
0 5 -9 11 -20 14 -19 5 -20 0 -20 -114z"/>
<path d="M9402 9614 c-25 -17 -30 -60 -9 -87 6 -9 33 -25 60 -36 48 -21 58
-39 32 -61 -10 -9 -31 -10 -66 -6 -48 7 -50 6 -39 -14 15 -29 96 -31 138 -4
19 12 23 23 20 52 -3 34 -7 39 -60 65 -32 15 -58 34 -58 41 0 26 28 38 70 31
32 -5 40 -4 40 8 0 30 -90 38 -128 11z"/>
<path d="M9604 9616 c-27 -20 -13 -29 53 -30 57 -1 58 -2 61 -31 3 -30 2 -30
-40 -27 -58 5 -98 -25 -98 -72 0 -19 8 -40 18 -49 21 -19 74 -22 104 -6 15 8
22 8 28 -1 5 -7 15 -10 24 -7 13 5 16 22 16 86 0 80 -11 129 -33 143 -21 13
-112 9 -133 -6z m111 -151 c0 -24 -5 -31 -32 -39 -23 -6 -37 -5 -48 4 -34 28
-2 73 49 68 27 -3 31 -7 31 -33z"/>
<path d="M9991 9605 c-55 -47 -51 -163 6 -200 14 -9 45 -17 70 -18 35 0 50 5
70 25 48 48 47 153 -2 195 -37 33 -103 31 -144 -2z m119 -31 c9 -9 15 -33 15
-65 0 -41 -4 -54 -24 -70 -50 -40 -101 -7 -101 67 0 79 60 115 110 68z"/>
<path d="M10247 9622 c-16 -3 -17 -15 -15 -115 3 -104 4 -112 23 -112 18 0 20
8 23 92 3 92 3 93 30 100 38 9 64 6 73 -9 5 -7 9 -52 9 -100 0 -81 2 -88 20
-88 22 0 22 -3 20 125 -1 71 -4 93 -17 103 -23 16 -78 15 -113 -3 -22 -12 -29
-12 -32 -2 -2 7 -11 11 -21 9z"/>
<path d="M10927 9609 c-55 -42 -60 -143 -10 -193 21 -21 35 -26 75 -26 41 0
54 5 79 29 26 26 29 36 29 91 0 55 -3 65 -29 91 -37 37 -104 41 -144 8z m112
-34 c7 -7 16 -33 18 -58 5 -40 2 -49 -21 -72 -21 -21 -33 -26 -54 -20 -38 9
-52 32 -52 82 0 76 60 114 109 68z"/>
<path d="M11235 9620 c-11 -4 -32 -5 -47 -3 l-28 6 0 -117 c0 -109 1 -116 20
-116 12 0 20 7 21 18 0 9 0 49 0 89 1 77 6 87 52 95 47 9 57 -12 57 -113 0
-82 1 -89 20 -89 19 0 20 7 20 94 0 102 -5 93 59 111 38 11 51 -20 51 -116 0
-82 1 -89 20 -89 19 0 20 7 20 103 0 88 -3 106 -18 120 -23 21 -81 22 -110 1
-20 -14 -24 -14 -38 0 -16 17 -66 20 -99 6z"/>
<path d="M11612 9620 c-66 -27 -67 -185 -1 -220 42 -23 132 -12 143 16 5 14
-1 15 -41 10 -58 -8 -94 8 -104 47 l-7 27 80 0 81 0 -6 47 c-3 32 -12 53 -27
65 -24 19 -80 23 -118 8z m90 -37 c10 -9 18 -24 18 -35 0 -15 -8 -18 -59 -18
-55 0 -59 2 -54 20 6 23 40 50 62 50 8 0 23 -7 33 -17z"/>
<path d="M11940 9610 c-39 -39 -21 -92 37 -111 48 -15 63 -27 63 -50 0 -23
-37 -34 -85 -25 -27 5 -35 4 -35 -8 0 -32 108 -40 141 -10 14 13 19 28 17 53
-3 32 -8 38 -55 61 -57 27 -70 44 -51 67 9 11 24 14 55 9 33 -4 43 -2 43 8 0
32 -99 37 -130 6z"/>
<path d="M12161 9605 c-53 -46 -51 -165 4 -201 42 -27 155 -18 155 13 0 12 -9
14 -47 9 -60 -8 -97 9 -101 47 l-3 27 75 0 76 0 0 39 c0 58 -30 91 -85 91 -32
0 -51 -7 -74 -25z m103 -21 c9 -8 16 -24 16 -35 0 -16 -7 -19 -55 -19 -61 0
-71 14 -35 50 24 24 53 26 74 4z"/>
<path d="M12453 9615 c-18 -8 -33 -10 -33 -5 0 6 -9 10 -20 10 -19 0 -20 -7
-20 -115 0 -108 1 -115 20 -115 18 0 20 8 22 93 l3 92 43 9 c30 7 42 15 42 28
0 21 -14 22 -57 3z"/>
<path d="M12551 9621 c-10 -7 -4 -32 30 -117 38 -95 47 -109 67 -109 21 0 29
14 67 110 24 60 42 112 39 116 -2 4 -12 5 -22 2 -12 -3 -27 -32 -46 -86 -16
-45 -32 -85 -35 -89 -4 -5 -19 30 -34 76 -29 88 -44 110 -66 97z"/>
<path d="M12813 9623 c-10 -3 -13 -37 -13 -120 0 -113 0 -114 23 -111 21 3 22
7 25 114 3 113 -2 128 -35 117z"/>
<path d="M12953 9610 c-58 -35 -63 -151 -9 -197 39 -33 136 -31 136 2 0 10
-14 13 -46 12 -61 -3 -88 27 -81 90 6 59 21 73 73 73 31 0 44 4 44 14 0 31
-70 35 -117 6z"/>
<path d="M13159 9615 c-64 -35 -64 -180 0 -215 21 -11 100 -14 125 -4 9 3 16
13 16 20 0 12 -10 13 -48 8 -52 -7 -88 13 -94 51 -3 18 3 20 76 23 l79 3 -6
47 c-3 31 -12 52 -27 64 -27 22 -85 23 -121 3z m95 -31 c9 -8 16 -24 16 -35 0
-17 -7 -19 -59 -19 -55 0 -59 2 -54 20 6 24 40 50 65 50 9 0 24 -7 32 -16z"/>
<path d="M13375 9605 c-14 -13 -25 -30 -25 -38 0 -24 38 -64 67 -72 44 -11 64
-34 52 -58 -10 -17 -18 -19 -65 -14 -41 4 -54 2 -54 -8 0 -18 23 -25 78 -25
53 0 64 5 81 38 22 42 6 70 -54 97 -40 17 -55 29 -55 44 0 24 28 34 75 25 19
-3 35 -2 35 3 0 20 -26 33 -67 33 -33 0 -50 -6 -68 -25z"/>
<path d="M13660 9617 c0 -7 16 -61 36 -120 32 -96 38 -108 58 -105 17 2 25 18
46 92 l24 88 24 -78 c12 -44 25 -85 27 -92 3 -7 14 -12 26 -10 17 2 28 24 60
116 l38 112 -23 0 c-20 0 -26 -9 -41 -62 -10 -35 -22 -74 -27 -88 -10 -24 -11
-23 -23 20 -8 25 -19 64 -25 88 -9 34 -15 42 -34 42 -21 0 -26 -9 -47 -90
l-24 -90 -27 89 c-21 67 -33 90 -48 94 -11 3 -20 0 -20 -6z"/>
<path d="M15070 9613 c-17 -12 -25 -13 -28 -5 -2 7 -12 12 -23 12 -18 0 -19
-8 -19 -115 0 -108 1 -115 20 -115 18 0 20 7 20 84 0 76 2 86 22 100 12 9 33
16 45 16 16 0 23 6 23 20 0 25 -27 26 -60 3z"/>
<path d="M15358 9614 c-16 -8 -28 -10 -28 -4 0 5 -9 10 -20 10 -19 0 -20 -7
-20 -115 0 -108 1 -115 20 -115 18 0 20 7 20 83 0 91 9 111 52 121 46 11 58
-13 58 -115 0 -82 1 -89 20 -89 19 0 20 7 20 94 0 102 -5 93 59 111 38 11 51
-20 51 -116 0 -82 1 -89 20 -89 19 0 20 7 20 103 0 88 -3 106 -18 120 -22 20
-78 21 -111 3 -21 -12 -27 -12 -39 0 -18 18 -70 17 -104 -2z"/>
<path d="M15727 9606 c-32 -30 -41 -63 -34 -124 7 -63 40 -92 107 -92 58 0 80
7 80 26 0 12 -10 13 -49 8 -44 -6 -52 -4 -75 19 -45 45 -36 56 52 59 l77 3 -2
45 c-3 55 -30 79 -89 80 -30 0 -48 -7 -67 -24z m109 -31 c8 -13 13 -29 9 -35
-7 -12 -115 -14 -115 -1 0 4 9 20 21 35 26 33 63 34 85 1z"/>
<path d="M14040 9504 c0 -114 0 -115 23 -112 21 3 22 7 25 116 l3 112 -26 0
-25 0 0 -116z"/>
<path d="M15172 9508 c3 -109 4 -113 26 -116 22 -3 22 -2 22 112 l0 116 -25 0
-26 0 3 -112z"/>
<path d="M21134 9396 c-7 -31 20 -74 53 -82 16 -4 22 -11 18 -21 -3 -10 -1
-13 9 -10 10 4 13 1 9 -9 -8 -22 6 -17 44 16 23 21 41 29 54 25 13 -4 19 -2
19 8 0 8 7 18 16 21 19 7 9 26 -14 26 -9 0 -30 -7 -45 -15 -15 -8 -25 -10 -22
-5 3 6 -1 7 -9 4 -9 -3 -16 -14 -16 -23 0 -14 -2 -14 -10 -1 -9 13 -11 13 -20
0 -9 -14 -12 -7 -9 16 0 4 -3 10 -8 13 -5 3 -14 18 -20 34 -15 33 -41 35 -49
3z"/>
<path d="M21575 9410 c-3 -5 1 -10 10 -10 9 0 13 5 10 10 -3 6 -8 10 -10 10
-2 0 -7 -4 -10 -10z"/>
<path d="M23705 9410 c-3 -5 -2 -10 4 -10 5 0 13 5 16 10 3 6 2 10 -4 10 -5 0
-13 -4 -16 -10z"/>
<path d="M21284 9296 c-10 -8 -16 -17 -12 -21 8 -8 48 13 48 25 0 14 -13 12
-36 -4z"/>
<path d="M23722 9120 c0 -19 2 -27 5 -17 2 9 2 25 0 35 -3 9 -5 1 -5 -18z"/>
<path d="M10840 8966 c0 -63 3 -121 6 -130 3 -9 17 -16 30 -16 25 0 33 15 12
22 -12 4 -14 25 -17 181 -1 43 -5 57 -16 57 -12 0 -15 -19 -15 -114z"/>
<path d="M10942 8953 c3 -114 5 -128 21 -131 10 -2 25 -1 34 2 14 6 14 8 -3
20 -18 14 -19 25 -23 204 -1 22 -6 32 -16 32 -13 0 -15 -18 -13 -127z"/>
<path d="M11912 8953 l3 -128 28 -3 c19 -2 27 1 27 12 0 9 -6 15 -12 14 -10
-2 -14 27 -16 115 -2 96 -5 117 -18 117 -12 0 -14 -20 -12 -127z"/>
<path d="M12400 9036 l0 -45 -35 6 c-55 9 -85 -24 -85 -92 0 -58 21 -88 62
-86 13 0 40 1 61 2 l37 1 0 129 c0 122 -1 129 -20 129 -17 0 -20 -7 -20 -44z
m-2 -125 c3 -56 -5 -71 -40 -71 -41 0 -62 64 -37 111 8 15 19 19 42 17 31 -3
32 -4 35 -57z"/>
<path d="M13157 9073 c-4 -3 -7 -62 -7 -130 0 -116 1 -123 20 -123 18 0 20 7
20 70 0 66 1 70 25 76 47 12 55 1 55 -76 0 -63 2 -70 20 -70 18 0 20 7 20 74
0 54 -4 79 -16 90 -18 18 -56 21 -85 6 -18 -10 -19 -7 -19 40 0 35 -4 50 -13
50 -8 0 -17 -3 -20 -7z"/>
<path d="M13710 9070 c0 -5 -2 -63 -3 -130 -3 -111 -2 -120 15 -120 15 0 18 8
18 43 l1 42 37 -43 c20 -23 45 -42 55 -42 25 0 21 10 -20 52 l-37 38 38 39
c53 54 24 61 -31 8 l-43 -41 0 82 c0 66 -3 82 -15 82 -8 0 -15 -4 -15 -10z"/>
<path d="M7827 9063 c-14 -13 -6 -33 13 -33 13 0 20 7 20 20 0 19 -20 27 -33
13z"/>
<path d="M10404 9059 c-9 -15 11 -33 30 -26 9 4 13 13 10 22 -7 17 -30 20 -40
4z"/>
<path d="M12017 9064 c-14 -15 -6 -34 14 -34 14 0 19 5 17 17 -3 18 -20 27
-31 17z"/>
<path d="M7580 8940 l0 -120 61 0 c33 0 69 5 80 10 27 15 49 63 49 109 0 85
-40 121 -135 121 l-55 0 0 -120z m137 64 c22 -35 20 -112 -4 -135 -10 -9 -35
-20 -55 -23 l-38 -7 0 96 0 95 40 0 c32 0 43 -5 57 -26z"/>
<path d="M18528 9053 c7 -3 16 -2 19 1 4 3 -2 6 -13 5 -11 0 -14 -3 -6 -6z"/>
<path d="M18624 9044 c-18 -14 -18 -15 4 -4 12 6 22 13 22 15 0 8 -5 6 -26
-11z"/>
<path d="M8846 9043 c-3 -3 -6 -15 -6 -25 0 -10 -10 -23 -22 -28 l-23 -9 22
-7 c20 -5 22 -14 25 -78 3 -70 3 -71 31 -74 16 -2 36 0 45 4 13 6 10 8 -13 13
-29 6 -30 8 -33 69 -3 60 -2 62 22 62 36 0 41 17 6 24 -21 4 -30 11 -30 25 0
21 -13 35 -24 24z"/>
<path d="M10303 9043 c-7 -3 -13 -14 -13 -25 0 -11 -8 -22 -20 -25 -23 -6 -27
-23 -5 -23 8 0 15 -8 15 -17 4 -114 18 -144 65 -135 31 5 33 20 3 24 -21 3
-23 9 -26 66 -3 61 -2 62 23 62 14 0 25 5 25 10 0 6 -11 10 -24 10 -20 0 -25
6 -28 28 -2 18 -8 27 -15 25z"/>
<path d="M18470 9040 c-13 -9 -13 -10 0 -10 8 0 22 5 30 10 13 9 13 10 0 10
-8 0 -22 -5 -30 -10z"/>
<path d="M9450 9015 c0 -16 -6 -25 -15 -25 -8 0 -15 -4 -15 -10 0 -5 7 -10 15
-10 12 0 15 -14 15 -62 0 -35 4 -68 8 -74 7 -12 31 -17 65 -15 25 2 21 19 -5
23 -17 2 -25 13 -32 39 -13 53 -1 89 29 89 34 0 32 18 -2 22 -20 2 -29 9 -31
26 -5 31 -32 29 -32 -3z"/>
<path d="M12780 9021 c0 -10 -10 -26 -22 -34 l-23 -16 22 0 c20 -1 22 -6 25
-73 l3 -73 45 -3 c45 -3 48 12 5 20 -17 3 -20 12 -23 66 -3 60 -2 62 22 62 35
0 42 18 9 22 -20 2 -29 9 -31 26 -4 27 -32 30 -32 3z"/>
<path d="M14300 9021 c0 -10 -10 -26 -22 -34 l-23 -16 22 0 c20 -1 22 -6 25
-73 l3 -73 38 -3 c39 -3 53 14 15 20 -21 3 -23 9 -26 66 -3 60 -2 62 22 62 35
0 42 18 9 22 -20 2 -29 9 -31 26 -4 27 -32 30 -32 3z"/>
<path d="M23733 8990 c0 -30 2 -43 4 -27 2 15 2 39 0 55 -2 15 -4 2 -4 -28z"/>
<path d="M7827 8994 c-4 -4 -7 -45 -7 -91 0 -77 2 -83 20 -83 20 0 21 5 18 87
-3 79 -12 106 -31 87z"/>
<path d="M7918 8989 c-11 -6 -18 -22 -18 -40 0 -26 6 -33 46 -50 61 -27 58
-54 -6 -55 -54 -1 -59 -16 -8 -28 48 -12 88 12 88 52 0 23 -8 32 -46 50 -54
27 -53 46 4 50 23 2 42 7 42 12 0 20 -72 27 -102 9z"/>
<path d="M8094 8990 c-45 -18 -56 -117 -16 -152 23 -21 58 -31 82 -23 29 9 26
33 -4 28 -44 -9 -66 13 -66 62 0 48 16 65 64 65 29 0 35 14 10 24 -21 8 -44 7
-70 -4z"/>
<path d="M8236 8979 c-22 -17 -26 -28 -26 -69 0 -66 24 -95 79 -95 58 0 84 29
83 92 0 39 -5 52 -27 70 -33 29 -74 29 -109 2z m94 -28 c28 -54 -5 -120 -54
-107 -38 10 -47 95 -12 118 21 14 55 8 66 -11z"/>
<path d="M8420 8920 c0 -94 14 -116 64 -104 17 4 43 6 59 6 l27 -1 0 84 c0 50
-4 85 -10 85 -5 0 -13 0 -16 0 -3 0 -7 -30 -8 -66 -3 -67 -12 -84 -49 -84 -24
0 -39 44 -35 104 2 41 0 49 -14 52 -16 2 -18 -7 -18 -76z"/>
<path d="M8620 8909 c0 -79 2 -90 17 -87 13 2 17 16 19 67 2 68 12 83 54 79
24 -3 25 -6 28 -75 3 -66 5 -73 24 -73 18 0 20 4 14 38 -3 20 -6 58 -6 84 0
43 -2 48 -27 54 -14 4 -40 2 -57 -4 -16 -7 -32 -8 -35 -4 -4 4 -12 8 -18 10
-10 1 -13 -21 -13 -89z"/>
<path d="M9064 8985 c-20 -15 -20 -16 41 -18 33 -2 41 -6 43 -24 3 -20 -1 -23
-32 -23 -38 0 -76 -28 -76 -55 0 -29 40 -58 68 -50 15 4 39 7 55 6 27 0 27 0
27 69 0 57 -4 74 -20 90 -24 24 -78 26 -106 5z m86 -110 c0 -18 -7 -26 -24
-31 -31 -7 -46 1 -46 26 0 20 13 28 48 29 17 1 22 -5 22 -24z"/>
<path d="M9236 8993 c-2 -3 -2 -39 0 -81 4 -88 19 -108 69 -96 17 4 42 6 56 6
l25 -1 -1 86 c-1 73 -3 87 -18 89 -15 2 -17 -8 -17 -72 0 -70 -1 -74 -25 -80
-47 -12 -55 -1 -55 79 0 59 -3 74 -15 74 -8 0 -17 -2 -19 -4z"/>
<path d="M9603 8988 c-27 -13 -36 -39 -35 -93 2 -55 40 -89 91 -81 49 8 71 37
71 96 0 41 -4 52 -26 69 -29 23 -66 26 -101 9z m87 -37 c14 -28 12 -63 -6 -89
-42 -61 -110 20 -74 89 7 12 21 19 40 19 19 0 33 -7 40 -19z"/>
<path d="M9832 8991 c-7 -4 -23 -6 -35 -4 -24 5 -24 9 -18 -149 1 -10 8 -18
16 -18 12 0 15 14 15 70 0 66 1 70 25 76 47 12 55 1 55 -76 0 -63 2 -71 18
-68 15 3 17 13 14 70 -4 65 -3 67 22 74 48 12 56 1 56 -76 0 -63 2 -70 20 -70
18 0 20 7 20 74 0 100 -23 123 -96 96 -19 -8 -30 -8 -38 0 -12 12 -56 13 -74
1z"/>
<path d="M10108 8993 c-37 -10 -18 -28 29 -28 42 0 48 -3 51 -22 3 -20 -1 -23
-35 -23 -47 -1 -73 -19 -73 -53 0 -39 27 -60 64 -52 17 4 41 7 54 6 21 -1 22
3 22 79 0 68 -3 81 -19 90 -20 10 -61 12 -93 3z m80 -117 c4 -21 -13 -36 -44
-36 -26 0 -39 27 -23 47 17 20 63 13 67 -11z"/>
<path d="M10416 8993 c-3 -3 -6 -44 -6 -90 0 -67 3 -83 15 -83 12 0 15 16 15
84 0 78 -7 105 -24 89z"/>
<path d="M10533 8990 c-12 -5 -26 -18 -32 -29 -16 -28 -13 -93 4 -117 24 -35
115 -41 115 -8 0 10 -8 12 -29 8 -21 -5 -34 -1 -50 15 -43 43 -15 111 45 111
35 0 46 13 18 24 -21 8 -44 7 -71 -4z"/>
<path d="M10673 8993 c-7 -2 -13 -10 -13 -17 0 -8 14 -10 41 -8 28 3 44 0 50
-9 18 -28 9 -39 -31 -39 -26 0 -47 -7 -60 -20 -37 -37 -1 -98 50 -85 14 4 37
7 53 6 l27 0 0 74 c0 86 -12 105 -68 104 -20 0 -43 -3 -49 -6z m77 -118 c0
-18 -7 -26 -24 -31 -31 -7 -46 1 -46 26 0 20 13 28 48 29 17 1 22 -5 22 -24z"/>
<path d="M11026 8992 c-2 -4 11 -44 29 -90 37 -91 35 -132 -5 -132 -11 0 -20
-7 -20 -15 0 -21 43 -19 62 3 8 9 33 65 56 125 36 97 38 107 21 107 -14 0 -22
-13 -34 -52 -25 -85 -30 -87 -55 -14 -21 59 -42 86 -54 68z"/>
<path d="M11328 8993 c-34 -9 -18 -22 30 -25 40 -3 47 -6 50 -25 3 -21 -1 -23
-36 -23 -43 0 -72 -23 -72 -58 0 -29 42 -56 72 -46 13 4 34 8 48 8 25 1 25 2
22 76 -3 55 -8 78 -20 88 -15 12 -59 14 -94 5z m82 -117 c0 -38 -63 -52 -73
-16 -6 23 15 39 51 40 17 0 22 -6 22 -24z"/>
<path d="M11551 8991 c-7 -5 -21 -6 -31 -4 -17 4 -19 -4 -22 -89 -4 -115 0
-148 18 -148 10 0 14 13 14 40 0 39 1 39 27 29 55 -21 103 23 103 95 0 63 -62
107 -109 77z m53 -27 c12 -4 16 -20 16 -54 0 -57 -16 -75 -60 -65 -29 6 -30 9
-30 60 0 33 5 55 13 58 18 8 43 8 61 1z"/>
<path d="M11707 8994 c-4 -4 -7 -61 -7 -126 0 -111 1 -118 20 -118 17 0 20 7
20 40 0 38 1 39 25 30 71 -27 130 63 91 138 -19 36 -53 49 -95 34 -18 -6 -32
-7 -38 -1 -5 5 -12 6 -16 3z m111 -36 c30 -30 5 -118 -33 -118 -36 0 -45 12
-45 64 0 29 3 56 7 59 11 11 58 8 71 -5z"/>
<path d="M12016 8993 c-3 -3 -6 -44 -6 -90 0 -67 3 -83 15 -83 12 0 15 16 15
84 0 78 -7 105 -24 89z"/>
<path d="M12120 8982 c-27 -22 -37 -95 -18 -131 15 -29 60 -43 106 -35 51 10
41 33 -12 27 -37 -5 -46 -2 -59 17 -23 33 -14 40 49 40 l54 0 0 34 c0 59 -71
88 -120 48z m88 -39 c3 -21 -1 -23 -42 -23 -50 0 -51 1 -35 31 15 29 73 23 77
-8z"/>
<path d="M12598 8993 c-34 -9 -18 -22 30 -25 40 -3 47 -6 50 -25 3 -21 -1 -23
-36 -23 -58 0 -90 -46 -63 -89 8 -13 18 -14 99 -11 35 1 35 0 33 100 0 40 -5
58 -18 67 -16 13 -60 15 -95 6z m80 -117 c4 -21 -13 -36 -44 -36 -25 0 -38 32
-20 50 17 17 60 8 64 -14z"/>
<path d="M13024 8989 c-63 -32 -55 -147 12 -169 37 -13 74 -6 74 14 0 8 -10
11 -28 8 -39 -5 -62 20 -62 67 0 46 14 61 58 61 22 0 32 4 30 13 -6 16 -57 19
-84 6z"/>
<path d="M13380 8982 c-13 -10 -23 -33 -26 -57 -11 -81 30 -123 108 -110 55
10 50 34 -6 28 -37 -5 -46 -2 -60 18 -9 13 -16 27 -16 31 0 5 27 8 60 8 l60 0
0 30 c0 60 -71 91 -120 52z m88 -39 c3 -21 -1 -23 -36 -23 -46 0 -55 6 -41 32
15 28 73 21 77 -9z"/>
<path d="M13567 8980 c-23 -18 -27 -29 -27 -74 0 -71 35 -102 101 -89 37 7 33
29 -5 25 -38 -5 -66 23 -66 64 0 41 22 64 62 64 39 0 32 24 -8 28 -19 2 -40
-5 -57 -18z"/>
<path d="M13909 8990 c-47 -27 -48 -124 -2 -160 30 -24 54 -25 92 -5 48 24 57
110 16 150 -25 26 -75 33 -106 15z m80 -29 c18 -11 19 -84 2 -105 -17 -20 -45
-21 -65 0 -19 18 -21 85 -4 102 14 14 47 15 67 3z"/>
<path d="M14088 8909 c3 -74 6 -81 28 -91 18 -8 31 -8 50 1 15 6 34 9 44 6 17
-5 19 2 22 80 3 76 1 85 -14 85 -15 0 -18 -10 -18 -70 0 -66 -1 -70 -25 -76
-47 -12 -55 -1 -55 76 0 60 -2 70 -17 70 -16 0 -18 -9 -15 -81z"/>
<path d="M18193 8793 c9 -2 25 -2 35 0 9 3 1 5 -18 5 -19 0 -27 -2 -17 -5z"/>
<path d="M17638 8773 c7 -3 16 -2 19 1 4 3 -2 6 -13 5 -11 0 -14 -3 -6 -6z"/>
<path d="M17700 8700 c-21 -7 -21 -8 -5 -9 11 0 27 4 35 9 18 11 5 11 -30 0z"/>
<path d="M18233 8633 c9 -2 23 -2 30 0 6 3 -1 5 -18 5 -16 0 -22 -2 -12 -5z"/>
<path d="M23041 8480 c-15 -13 -18 -20 -9 -20 8 0 23 9 33 20 23 26 7 25 -24
0z"/>
<path d="M17876 8315 c4 -8 8 -15 10 -15 2 0 4 7 4 15 0 8 -4 15 -10 15 -5 0
-7 -7 -4 -15z"/>
<path d="M8940 8019 c0 -147 1 -160 18 -157 18 4 19 9 21 100 1 49 4 60 26 74
14 9 33 13 44 9 18 -5 21 -16 23 -93 3 -75 5 -87 21 -90 18 -4 19 3 15 93 -2
83 -6 99 -23 111 -18 14 -54 15 -94 3 -11 -3 -14 8 -12 54 2 52 1 57 -18 57
-20 0 -21 -5 -21 -161z"/>
<path d="M11410 7960 c0 -140 4 -220 10 -220 6 0 10 80 10 220 0 140 -4 220
-10 220 -6 0 -10 -80 -10 -220z"/>
<path d="M27550 8171 c0 -5 7 -14 15 -21 16 -14 18 -10 9 14 -6 17 -24 22 -24
7z"/>
<path d="M10592 8143 c5 -26 38 -29 38 -4 0 15 -6 21 -21 21 -14 0 -19 -5 -17
-17z"/>
<path d="M13501 8146 c-18 -21 -2 -46 29 -46 31 0 47 25 29 46 -6 8 -19 14
-29 14 -10 0 -23 -6 -29 -14z"/>
<path d="M27590 8109 c0 -5 5 -7 10 -4 6 3 10 8 10 11 0 2 -4 4 -10 4 -5 0
-10 -5 -10 -11z"/>
<path d="M7645 8083 c-51 -13 -77 -73 -31 -73 13 0 26 7 30 15 8 21 43 19 49
-4 4 -15 -2 -20 -34 -25 -22 -3 -48 -15 -59 -26 -25 -25 -26 -72 -2 -93 21
-20 73 -22 90 -5 8 8 15 8 27 -2 22 -19 59 14 45 41 -6 10 -10 44 -10 76 0 33
-6 66 -12 75 -14 18 -62 29 -93 21z m36 -176 c-15 -15 -41 0 -41 23 0 12 9 24
23 29 19 7 22 5 25 -16 2 -14 -1 -30 -7 -36z"/>
<path d="M8144 8076 c-31 -14 -49 -40 -38 -57 9 -15 44 -10 50 6 9 23 54 19
54 -4 0 -14 -10 -21 -37 -26 -21 -4 -46 -14 -55 -22 -21 -19 -24 -83 -6 -101
15 -15 63 -16 89 -1 15 8 24 7 35 -2 12 -10 18 -9 28 2 19 19 7 172 -14 194
-22 22 -71 27 -106 11z m66 -129 c0 -25 -17 -47 -37 -47 -19 0 -16 47 5 59 26
16 32 13 32 -12z"/>
<path d="M9184 8074 c-38 -19 -54 -51 -54 -110 0 -95 106 -142 164 -73 47 56
32 155 -29 184 -40 18 -42 18 -81 -1z m93 -55 c24 -46 8 -113 -29 -125 -66
-21 -110 55 -73 126 24 46 78 45 102 -1z"/>
<path d="M9710 8077 c-33 -17 -50 -53 -50 -109 0 -65 36 -108 90 -108 47 0 70
8 70 25 0 9 -11 12 -40 8 -44 -6 -74 11 -83 48 -5 17 1 19 59 19 47 0 66 4 70
15 7 17 -12 80 -29 93 -22 18 -61 22 -87 9z m68 -39 c7 -7 12 -20 12 -30 0
-15 -8 -17 -47 -14 -35 2 -47 6 -45 17 9 37 54 53 80 27z"/>
<path d="M9961 8077 c-54 -27 -44 -85 19 -117 32 -16 41 -26 38 -43 -3 -19 -9
-22 -50 -20 -34 1 -48 -3 -48 -12 0 -16 22 -25 61 -25 42 0 66 15 73 45 9 35
-8 61 -54 85 -26 13 -40 27 -40 40 0 20 11 24 63 20 34 -2 38 25 5 34 -32 8
-40 7 -67 -7z"/>
<path d="M10123 8080 c-59 -24 -71 -152 -19 -197 38 -32 126 -31 126 2 0 9
-11 12 -40 8 -44 -6 -74 11 -83 48 -5 17 1 19 65 19 l71 0 -6 41 c-9 65 -61
101 -114 79z m67 -45 c21 -26 5 -43 -39 -42 -31 1 -41 5 -41 17 0 37 55 55 80
25z"/>
<path d="M10710 8073 c-64 -33 -78 -136 -25 -189 18 -18 35 -24 67 -24 24 0
49 4 57 9 25 16 2 29 -42 24 -38 -5 -47 -2 -61 18 -21 30 -21 88 0 118 14 19
24 22 60 19 37 -3 44 0 44 14 0 10 -6 18 -12 18 -7 0 -22 3 -33 5 -11 3 -36
-2 -55 -12z"/>
<path d="M10870 8077 c-34 -17 -50 -53 -50 -110 0 -62 39 -107 93 -107 44 0
67 8 67 25 0 9 -11 12 -40 8 -44 -6 -74 11 -83 48 -5 17 1 19 59 19 47 0 66 4
70 15 7 17 -12 80 -29 93 -22 18 -61 22 -87 9z m75 -63 c0 -15 -9 -20 -39 -22
-54 -5 -65 10 -32 43 25 25 29 26 49 12 12 -8 22 -23 22 -33z"/>
<path d="M11047 8078 c-28 -10 -43 -43 -33 -75 3 -10 26 -30 51 -45 41 -25 45
-30 34 -49 -9 -18 -17 -21 -50 -16 -40 5 -62 -9 -38 -24 23 -14 83 -10 107 7
35 24 27 72 -18 101 -75 48 -78 66 -12 71 46 3 58 25 20 36 -27 7 -26 7 -61
-6z"/>
<path d="M7800 7970 l0 -110 25 0 c24 0 25 2 25 73 0 78 9 103 34 94 13 -5 16
-22 16 -87 l0 -80 30 0 30 0 0 80 c0 65 3 82 16 87 25 9 34 -16 34 -94 0 -71
1 -73 25 -73 25 0 25 0 25 98 0 108 -6 122 -55 122 -17 0 -36 -5 -43 -12 -9
-9 -15 -9 -24 0 -7 7 -24 12 -38 12 -14 0 -31 -5 -38 -12 -9 -9 -12 -9 -12 0
0 7 -11 12 -25 12 l-25 0 0 -110z"/>
<path d="M8317 8067 c-8 -22 6 -35 36 -31 15 1 27 0 27 -4 0 -4 -16 -31 -35
-59 -19 -29 -35 -63 -35 -75 0 -22 3 -23 80 -23 55 0 80 4 80 12 0 20 -30 43
-56 43 -13 0 -24 3 -24 6 0 4 16 28 35 54 19 26 35 57 35 69 0 19 -5 21 -69
21 -48 0 -70 -4 -74 -13z"/>
<path d="M8510 8055 c-33 -35 -35 -120 -4 -162 35 -47 113 -44 139 7 29 56 11
158 -30 174 -37 14 -82 6 -105 -19z m84 -31 c12 -31 6 -101 -9 -114 -21 -17
-34 -3 -41 41 -10 60 32 121 50 73z"/>
<path d="M8690 7969 l0 -110 28 3 c27 3 27 4 30 81 2 59 7 79 18 84 25 9 34
-16 34 -94 0 -71 1 -73 25 -73 25 0 25 0 25 98 0 108 -6 122 -55 122 -17 0
-36 -5 -43 -12 -9 -9 -12 -9 -12 0 0 7 -11 12 -25 12 l-25 0 0 -111z"/>
<path d="M9347 8073 c-4 -3 -7 -53 -7 -110 0 -94 2 -104 18 -101 14 3 17 16
20 78 2 62 6 78 24 93 12 10 31 17 42 15 19 -3 21 -11 24 -95 2 -85 4 -93 22
-93 18 0 20 7 20 80 0 73 2 81 25 96 53 35 81 -9 73 -118 -4 -52 -2 -58 15
-58 18 0 19 7 15 96 -2 81 -6 98 -22 110 -25 17 -63 17 -95 0 -21 -12 -27 -12
-39 0 -16 17 -56 18 -85 3 -16 -9 -22 -9 -25 0 -4 12 -15 14 -25 4z"/>
<path d="M10266 8065 c-2 -6 -3 -54 -3 -108 0 -87 1 -97 18 -97 16 0 19 10 21
83 3 82 3 82 35 97 50 23 42 40 -17 37 -27 -1 -52 -7 -54 -12z"/>
<path d="M10390 8073 c0 -4 17 -53 38 -108 50 -132 63 -133 108 -10 36 98 41
125 21 125 -7 0 -25 -36 -41 -80 -16 -45 -31 -78 -34 -75 -4 3 -18 38 -32 78
-17 46 -33 73 -43 75 -9 2 -17 0 -17 -5z"/>
<path d="M10597 8073 c-4 -3 -7 -53 -7 -110 0 -96 1 -103 20 -103 19 0 20 7
20 110 0 85 -3 110 -13 110 -8 0 -17 -3 -20 -7z"/>
<path d="M13170 8070 c-14 -4 -42 -5 -62 -3 l-38 6 0 -142 0 -141 35 0 c34 0
35 1 35 40 0 39 1 39 30 34 44 -9 90 14 106 52 18 43 18 68 -2 110 -20 42 -57
57 -104 44z m38 -52 c7 -7 12 -28 12 -48 0 -43 -15 -60 -52 -60 -27 0 -28 2
-28 53 0 30 3 57 7 60 11 11 48 8 61 -5z"/>
<path d="M13746 8073 c-3 -3 -34 -6 -68 -7 l-63 -1 -3 -97 -3 -98 36 0 35 0 0
75 c0 72 1 75 26 81 36 9 44 -7 44 -88 l0 -68 30 0 30 0 0 75 c0 71 1 75 24
81 39 10 46 -2 46 -82 l0 -74 35 0 35 0 0 83 c0 51 -5 90 -13 100 -14 20 -69
24 -109 9 -15 -6 -30 -7 -32 -3 -7 11 -43 21 -50 14z"/>
<path d="M11727 8052 c-10 -10 -17 -23 -17 -29 0 -19 32 -24 50 -8 24 22 50
19 50 -5 0 -15 -7 -20 -29 -20 -70 0 -109 -81 -56 -116 22 -14 32 -15 63 -6
21 6 46 9 58 6 26 -7 53 21 36 38 -7 7 -12 40 -12 75 0 72 -11 83 -83 83 -30
0 -49 -6 -60 -18z m86 -109 c-10 -30 -24 -42 -39 -36 -17 6 -19 39 -1 46 28
12 46 7 40 -10z"/>
<path d="M11920 8048 c-1 -49 -2 -154 -1 -165 1 -7 12 -13 26 -13 24 0 25 3
25 59 0 72 6 91 31 91 17 0 19 -8 19 -75 l0 -75 30 0 29 0 3 73 c3 64 5 72 23
72 18 0 20 -8 23 -73 3 -73 3 -73 30 -70 27 3 27 3 27 84 -1 53 -5 87 -14 98
-17 20 -65 21 -84 1 -13 -13 -16 -13 -27 0 -15 17 -43 19 -71 5 -13 -7 -19 -7
-19 0 0 5 -11 10 -25 10 -19 0 -25 -5 -25 -22z"/>
<path d="M12240 8048 c-26 -28 -25 -34 2 -41 13 -4 29 0 40 10 19 17 48 11 48
-10 0 -9 -15 -16 -40 -20 -54 -7 -70 -22 -70 -67 0 -32 4 -39 29 -50 18 -7 38
-9 53 -4 13 5 39 9 58 9 l35 0 -4 80 c-4 99 -15 115 -82 115 -37 0 -53 -5 -69
-22z m88 -110 c-4 -31 -48 -39 -48 -10 0 20 12 30 38 31 8 1 12 -8 10 -21z"/>
<path d="M12440 8050 c0 -19 14 -25 48 -21 19 3 15 -8 -23 -60 -37 -52 -48
-106 -19 -95 39 15 64 17 98 7 30 -8 38 -7 43 5 8 20 -8 35 -47 43 l-32 6 36
47 c20 26 36 56 36 67 0 19 -6 21 -70 21 -63 0 -70 -2 -70 -20z"/>
<path d="M12635 8046 c-32 -32 -41 -83 -21 -129 25 -62 90 -75 137 -28 24 25
29 37 29 81 0 41 -5 56 -25 75 -33 34 -87 34 -120 1z m83 -69 c4 -54 -12 -84
-34 -66 -35 29 -23 124 14 117 13 -2 18 -16 20 -51z"/>
<path d="M12817 8063 c-4 -3 -7 -48 -7 -100 l0 -93 30 0 29 0 3 73 c3 64 5 72
23 72 18 0 20 -8 23 -72 l3 -73 29 0 30 0 0 73 c0 39 -6 83 -13 97 -14 28 -59
39 -82 20 -9 -7 -15 -8 -20 0 -7 11 -38 14 -48 3z"/>
<path d="M13330 7970 l0 -100 30 0 30 0 0 70 0 70 40 6 c34 6 40 10 40 30 0
27 -26 32 -63 13 -16 -9 -22 -9 -25 0 -2 6 -15 11 -28 11 -24 0 -24 -1 -24
-100z"/>
<path d="M13500 7970 l0 -100 30 0 30 0 0 100 0 100 -30 0 -30 0 0 -100z"/>
<path d="M14023 8055 c-54 -38 -50 -151 7 -180 52 -27 140 -16 140 16 0 16 -8
19 -44 19 -54 0 -76 8 -76 26 0 10 13 14 43 14 23 0 53 7 65 16 27 19 29 64 4
87 -24 22 -110 23 -139 2z m95 -42 c-2 -13 -14 -19 -41 -21 -36 -3 -38 -2 -27
17 14 28 73 30 68 4z"/>
<path d="M22725 7990 c-3 -6 1 -7 9 -4 18 7 21 14 7 14 -6 0 -13 -4 -16 -10z"/>
<path d="M22668 7983 c6 -2 18 -2 25 0 6 3 1 5 -13 5 -14 0 -19 -2 -12 -5z"/>
<path d="M17238 7946 c-10 -7 -15 -16 -12 -19 7 -7 44 14 44 25 0 12 -13 9
-32 -6z"/>
<path d="M27515 7900 c-9 -15 31 -62 81 -93 50 -31 53 -29 22 16 -40 55 -92
95 -103 77z"/>
<path d="M12444 7845 c-18 -13 -16 -14 24 -13 23 1 45 -2 49 -5 3 -4 1 -23 -5
-43 -8 -26 -8 -34 1 -31 19 6 51 72 44 90 -8 22 -85 23 -113 2z"/>
<path d="M8328 7843 c-34 -9 -18 -24 22 -21 22 1 43 -1 46 -5 4 -4 2 -24 -4
-44 -6 -20 -9 -39 -6 -42 15 -15 60 91 48 111 -5 8 -75 9 -106 1z"/>
<path d="M11880 7842 c0 -13 99 -73 158 -95 83 -30 272 -30 356 1 129 48 140
82 15 46 -142 -42 -337 -29 -466 31 -61 28 -63 28 -63 17z"/>
<path d="M7760 7831 c0 -16 104 -80 165 -101 79 -28 188 -36 267 -20 67 13
160 53 181 78 14 17 4 16 -93 -12 -138 -41 -318 -27 -448 34 -72 33 -72 34
-72 21z"/>
<path d="M20030 7775 c0 -11 7 -40 15 -65 l14 -45 -3 46 c-3 48 -25 104 -26
64z"/>
<path d="M22088 7763 c7 -3 16 -2 19 1 4 3 -2 6 -13 5 -11 0 -14 -3 -6 -6z"/>
<path d="M22298 7753 c6 -2 12 -14 12 -26 0 -18 2 -19 10 -7 10 16 -5 41 -24
39 -7 0 -6 -2 2 -6z"/>
<path d="M22150 7720 c-9 -6 -10 -10 -3 -10 6 0 15 5 18 10 8 12 4 12 -15 0z"/>
<path d="M27670 7721 c0 -5 5 -13 10 -16 6 -3 10 -16 10 -29 0 -13 12 -31 29
-44 35 -26 81 -39 81 -23 0 6 -5 11 -10 11 -6 0 -35 25 -65 56 -30 31 -55 51
-55 45z"/>
<path d="M22091 7664 c0 -11 3 -14 6 -6 3 7 2 16 -1 19 -3 4 -6 -2 -5 -13z"/>
<path d="M20061 7644 c0 -11 3 -14 6 -6 3 7 2 16 -1 19 -3 4 -6 -2 -5 -13z"/>
<path d="M22050 7573 c0 -18 5 -33 10 -33 13 0 13 30 0 50 -7 11 -10 7 -10
-17z"/>
<path d="M21915 7580 c-3 -6 1 -13 10 -16 19 -8 30 0 20 15 -8 14 -22 14 -30
1z"/>
<path d="M22000 7562 c0 -7 -7 -12 -15 -12 -8 0 -15 -4 -15 -10 0 -16 27 -11
34 6 4 9 4 19 1 22 -3 3 -5 0 -5 -6z"/>
<path d="M22015 7549 c-4 -11 -4 -23 0 -27 7 -7 25 17 25 36 0 20 -18 14 -25
-9z"/>
<path d="M22078 7523 c6 -2 12 -11 12 -19 0 -8 7 -14 15 -14 13 0 14 4 5 20
-6 11 -18 20 -28 19 -10 0 -12 -3 -4 -6z"/>
<path d="M27062 7461 c4 -12 88 -81 98 -81 4 0 35 -15 67 -33 32 -19 64 -32
70 -30 6 2 14 -1 18 -6 3 -6 11 -11 16 -11 6 0 7 5 3 11 -4 8 0 8 15 0 11 -7
21 -15 21 -20 0 -4 29 -21 65 -37 50 -23 63 -33 59 -46 -7 -22 30 -38 87 -38
35 0 53 13 30 22 -4 2 -28 20 -53 41 -62 52 -216 126 -227 108 -7 -10 -21 -7
-64 14 -31 14 -59 30 -61 34 -3 4 -24 14 -46 21 -23 8 -51 24 -63 37 -22 23
-42 31 -35 14z"/>
<path d="M22110 7425 c-7 -9 -8 -15 -2 -15 5 0 12 7 16 15 3 8 4 15 2 15 -2 0
-9 -7 -16 -15z"/>
<path d="M27580 7432 c0 -5 7 -15 15 -22 8 -7 15 -8 15 -2 0 5 -7 15 -15 22
-8 7 -15 8 -15 2z"/>
<path d="M22085 7389 c-4 -6 -5 -12 -2 -15 2 -3 7 2 10 11 7 17 1 20 -8 4z"/>
<path d="M24603 7390 c-33 -13 -28 -30 7 -30 23 0 30 4 30 20 0 22 -4 23 -37
10z"/>
<path d="M27460 7360 c12 -17 31 -35 43 -41 21 -11 21 -11 6 7 -9 10 -25 29
-35 42 -27 33 -39 27 -14 -8z"/>
<path d="M27140 7272 c0 -10 41 -24 49 -17 6 7 0 11 -26 19 -13 4 -23 3 -23
-2z"/>
<path d="M27700 7186 c0 -3 9 -10 20 -16 11 -6 20 -8 20 -6 0 3 -9 10 -20 16
-11 6 -20 8 -20 6z"/>
<path d="M24237 7039 c7 -7 15 -10 18 -7 3 3 -2 9 -12 12 -14 6 -15 5 -6 -5z"/>
<path d="M24275 7020 c3 -5 8 -10 11 -10 2 0 4 5 4 10 0 6 -5 10 -11 10 -5 0
-7 -4 -4 -10z"/>
<path d="M21191 6994 c0 -11 3 -14 6 -6 3 7 2 16 -1 19 -3 4 -6 -2 -5 -13z"/>
<path d="M24261 6940 c-1 -27 -5 -60 -10 -72 -4 -13 -9 -75 -10 -138 -1 -109
0 -116 19 -117 12 -1 20 5 21 15 0 12 3 11 9 -5 5 -13 12 -23 16 -23 6 0 -3
303 -12 358 -8 52 -31 40 -33 -18z"/>
<path d="M27250 6976 c14 -8 48 -20 75 -27 28 -7 79 -23 114 -36 35 -13 66
-22 68 -19 11 10 -10 46 -26 46 -9 0 -21 4 -26 9 -10 9 -112 29 -190 37 -39 5
-40 4 -15 -10z"/>
<path d="M27010 6915 c15 -17 149 -104 209 -135 56 -28 150 -60 176 -59 17 0
16 2 -5 11 -127 54 -260 121 -328 164 -57 37 -71 42 -52 19z"/>
<path d="M24811 6864 c0 -11 3 -14 6 -6 3 7 2 16 -1 19 -3 4 -6 -2 -5 -13z"/>
<path d="M27215 6848 c33 -17 68 -30 78 -30 9 0 17 -5 17 -13 0 -7 7 -16 16
-19 33 -13 33 -5 1 24 -19 17 -40 30 -46 30 -7 0 -29 9 -51 20 -22 11 -47 20
-57 20 -10 -1 9 -15 42 -32z"/>
<path d="M27550 6870 c-77 -7 -108 -12 -163 -27 -9 -2 -22 -13 -28 -24 -10
-20 -8 -20 180 -13 177 7 193 6 211 -11 18 -16 20 -17 14 -2 -6 17 25 18 316
3 l75 -4 -45 14 c-83 27 -214 53 -319 63 -111 12 -113 12 -241 1z"/>
<path d="M28110 6845 c0 -6 69 -35 83 -35 5 0 -2 9 -16 20 -22 18 -67 28 -67
15z"/>
<path d="M28326 6815 c4 -8 10 -15 15 -15 4 0 6 7 3 15 -4 8 -10 15 -15 15 -4
0 -6 -7 -3 -15z"/>
<path d="M24852 6800 c0 -14 2 -19 5 -12 2 6 2 18 0 25 -3 6 -5 1 -5 -13z"/>
<path d="M23572 6803 c-13 -2 -21 -10 -19 -16 3 -11 -35 -37 -55 -37 -5 0 -19
-10 -31 -21 l-22 -21 25 7 c14 4 37 15 52 26 33 23 54 24 74 4 9 -8 27 -15 42
-15 15 0 67 -9 116 -20 108 -24 166 -26 166 -6 0 9 -15 17 -40 21 -22 4 -42
11 -45 15 -3 5 -27 12 -53 16 -26 4 -63 15 -82 25 -39 20 -93 29 -128 22z"/>
<path d="M27383 6773 c8 -13 57 -23 57 -12 0 5 -6 9 -14 9 -8 0 -22 3 -32 7
-11 4 -15 3 -11 -4z"/>
<path d="M27797 6756 c-26 -7 -50 -16 -53 -19 -18 -17 17 -26 104 -27 53 0
132 -1 174 -1 43 0 83 3 89 7 7 4 9 3 5 -4 -3 -6 -2 -13 3 -16 5 -4 12 -2 16
4 12 19 22 1 36 -61 l14 -62 10 59 10 59 35 -3 c19 -2 36 -5 38 -7 2 -2 4 -32
5 -67 2 -56 5 -67 26 -83 13 -10 21 -13 17 -6 -4 6 -3 18 4 25 6 8 8 25 5 39
-7 26 12 48 24 29 4 -6 15 -43 26 -81 10 -39 23 -71 28 -71 10 0 -2 82 -13 90
-11 7 -50 118 -50 140 0 15 -7 20 -27 20 -16 0 -57 10 -93 21 -83 27 -357 37
-433 15z m383 -20 c0 -2 -7 -7 -16 -10 -8 -3 -12 -2 -9 4 6 10 25 14 25 6z
m10 -36 c0 -5 -5 -10 -11 -10 -5 0 -7 5 -4 10 3 6 8 10 11 10 2 0 4 -4 4 -10z
m144 -21 c-3 -5 -14 -5 -25 1 -26 14 -24 18 6 12 14 -2 22 -8 19 -13z m-6 -47
c-8 -9 -14 -9 -24 -1 -19 16 -18 17 10 15 18 -1 22 -4 14 -14z"/>
<path d="M28814 6720 c-38 -36 -53 -59 -58 -87 -4 -21 -9 -47 -12 -58 -4 -15
-3 -16 4 -6 5 7 14 11 19 8 6 -4 19 10 29 31 10 20 21 39 24 42 3 3 15 24 28
48 38 69 24 78 -34 22z"/>
<path d="M27365 6711 l-80 -6 50 -12 c69 -16 180 -25 143 -12 -17 7 -25 15
-21 25 3 8 1 13 -3 12 -5 -1 -45 -4 -89 -7z m72 -17 c-3 -3 -12 -4 -19 -1 -8
3 -5 6 6 6 11 1 17 -2 13 -5z"/>
<path d="M27578 6713 c7 -3 16 -2 19 1 4 3 -2 6 -13 5 -11 0 -14 -3 -6 -6z"/>
<path d="M27515 6690 c3 -4 16 -10 30 -12 13 -3 22 -2 20 2 -3 4 -16 10 -30
12 -13 3 -22 2 -20 -2z"/>
<path d="M27150 6686 c0 -25 160 -59 365 -77 72 -6 131 -14 133 -18 1 -3 21
-5 45 -3 52 3 139 -18 145 -36 3 -10 -7 -12 -39 -10 -30 2 -43 7 -41 16 2 10
-2 10 -20 1 -13 -7 -53 -13 -90 -15 -36 -1 -75 -7 -85 -13 -14 -8 -9 -9 22 -5
40 5 40 5 15 -11 -15 -10 -18 -14 -7 -11 10 3 28 6 38 6 11 0 17 5 14 10 -3 6
3 10 14 10 32 0 25 -13 -17 -32 -34 -17 -35 -17 -7 -13 17 3 49 8 73 12 23 3
45 10 49 16 4 7 -7 8 -33 4 -27 -5 -34 -3 -24 3 8 6 45 10 81 9 66 -2 89 4 89
21 0 27 -89 48 -370 86 -218 29 -285 39 -322 49 -16 4 -28 5 -28 1z"/>
<path d="M27605 6656 c31 -14 145 -33 134 -22 -4 4 -16 9 -28 11 -11 3 -31 7
-43 10 -13 3 -39 8 -58 11 l-35 4 30 -14z"/>
<path d="M27766 6629 c13 -12 31 -19 45 -17 20 2 17 6 -21 21 l-45 17 21 -21z"/>
<path d="M28020 6640 c-13 -67 -7 -107 16 -107 13 0 15 8 10 40 -6 35 -24 81
-26 67z"/>
<path d="M29230 6568 c-35 -83 -34 -87 4 -28 35 53 44 80 27 80 -4 0 -18 -24
-31 -52z"/>
<path d="M29374 6606 c-6 -7 -17 -23 -24 -37 -7 -13 -8 -19 -4 -14 47 52 56
65 48 65 -5 -1 -14 -6 -20 -14z"/>
<path d="M27840 6601 c0 -5 9 -11 21 -14 16 -4 18 -3 8 9 -13 16 -29 19 -29 5z"/>
<path d="M27947 6599 c-18 -10 -18 -11 0 -25 26 -19 33 -17 33 11 0 27 -6 30
-33 14z"/>
<path d="M24311 6574 c0 -11 3 -14 6 -6 3 7 2 16 -1 19 -3 4 -6 -2 -5 -13z"/>
<path d="M29036 6573 c-6 -14 -5 -15 5 -6 7 7 10 15 7 18 -3 3 -9 -2 -12 -12z"/>
<path d="M29155 6570 c-10 -11 -16 -22 -14 -24 2 -2 12 7 22 20 22 29 17 32
-8 4z"/>
<path d="M28995 6570 c-3 -5 -1 -10 4 -10 6 0 11 5 11 10 0 6 -2 10 -4 10 -3
0 -8 -4 -11 -10z"/>
<path d="M28476 6547 c3 -10 9 -15 12 -12 3 3 0 11 -7 18 -10 9 -11 8 -5 -6z"/>
<path d="M29740 6529 c0 -5 4 -9 9 -9 21 0 7 -52 -22 -76 -16 -13 -27 -27 -24
-30 6 -7 60 45 76 73 9 16 10 16 11 -5 0 -14 5 -22 13 -20 19 7 19 32 0 54
-19 21 -63 30 -63 13z"/>
<path d="M28266 6516 c3 -9 11 -16 16 -16 13 0 5 23 -10 28 -7 2 -10 -2 -6
-12z"/>
<path d="M28856 6515 c-3 -8 -1 -15 4 -15 6 0 10 7 10 15 0 8 -2 15 -4 15 -2
0 -6 -7 -10 -15z"/>
<path d="M29116 6513 c-6 -14 -5 -15 5 -6 7 7 10 15 7 18 -3 3 -9 -2 -12 -12z"/>
<path d="M27484 6505 c-17 -13 -16 -14 15 -5 41 11 51 20 25 20 -11 0 -29 -7
-40 -15z"/>
<path d="M28726 6505 c-3 -9 -6 -22 -5 -28 0 -7 5 -1 10 12 5 13 8 26 5 28 -2
2 -6 -3 -10 -12z"/>
<path d="M28035 6500 c3 -5 10 -10 16 -10 5 0 9 5 9 10 0 6 -7 10 -16 10 -8 0
-12 -4 -9 -10z"/>
<path d="M28316 6485 c4 -8 11 -15 16 -15 6 0 5 6 -2 15 -7 8 -14 15 -16 15
-2 0 -1 -7 2 -15z"/>
<path d="M29651 6491 c-11 -7 -11 -9 0 -14 10 -4 9 -6 -3 -6 -10 -1 -18 -5
-18 -11 0 -13 11 -12 32 3 19 15 9 40 -11 28z"/>
<path d="M27300 6476 c0 -22 23 -24 43 -4 16 17 16 18 -13 18 -19 0 -30 -5
-30 -14z"/>
<path d="M27475 6460 c-3 -5 1 -10 9 -10 8 0 18 5 21 10 3 6 -1 10 -9 10 -8 0
-18 -4 -21 -10z"/>
<path d="M27388 6453 c7 -3 16 -2 19 1 4 3 -2 6 -13 5 -11 0 -14 -3 -6 -6z"/>
<path d="M29600 6439 c0 -5 5 -7 10 -4 6 3 10 8 10 11 0 2 -4 4 -10 4 -5 0
-10 -5 -10 -11z"/>
<path d="M28415 6420 c3 -5 8 -10 11 -10 2 0 4 5 4 10 0 6 -5 10 -11 10 -5 0
-7 -4 -4 -10z"/>
</g>
</svg>
