<?xml version="1.0" standalone="no"?>
<!DOCTYPE svg PUBLIC "-//W3C//DTD SVG 20010904//EN"
 "http://www.w3.org/TR/2001/REC-SVG-20010904/DTD/svg10.dtd">
<svg version="1.0" xmlns="http://www.w3.org/2000/svg"
 width="3000.000000pt" height="1200.000000pt" viewBox="0 0 3000.000000 1200.000000"
 preserveAspectRatio="xMidYMid meet">

<g transform="translate(0.000000,1200.000000) scale(0.100000,-0.100000)"
fill="#000000" stroke="none">
<path d="M0 11045 l0 -955 43 -2 42 -1 -40 -7 c-32 -6 -28 -7 19 -4 32 2 67 4
77 4 12 0 19 7 19 20 0 18 7 20 80 20 64 0 80 3 80 15 0 12 17 15 83 17 70 1
76 2 37 8 -39 6 -33 7 38 8 65 2 82 5 82 17 0 11 11 15 40 15 29 0 40 4 40 15
0 12 17 15 83 17 70 1 76 2 37 8 -39 6 -33 7 38 8 65 2 82 5 82 17 0 11 11 15
40 15 29 0 40 4 40 15 0 12 17 15 83 17 70 1 76 2 37 8 -39 6 -33 7 38 8 65 2
82 5 82 17 0 11 11 15 40 15 29 0 40 4 40 15 0 12 17 15 83 17 l82 2 -85 6
-85 6 83 2 c65 2 82 5 82 17 0 12 16 15 80 15 64 0 80 3 80 15 0 12 17 15 83
17 l82 2 -85 6 -85 6 83 2 c65 2 82 5 82 17 0 12 16 15 80 15 64 0 80 3 80 15
0 12 17 15 83 17 l82 2 -85 6 -85 6 83 2 c65 2 82 5 82 17 0 12 16 15 80 15
64 0 80 3 80 15 0 12 16 15 80 15 79 0 80 0 80 25 0 25 1 25 80 25 64 0 80 3
80 15 0 12 16 15 80 15 79 0 80 0 80 25 0 25 1 25 80 25 64 0 80 3 80 15 0 12
17 15 83 17 l82 2 -85 6 -85 6 83 2 c65 2 82 5 82 17 0 12 16 15 80 15 64 0
80 3 80 15 0 11 12 15 43 17 l42 1 -45 7 c-39 6 -33 7 38 8 65 2 82 5 82 17 0
12 16 15 80 15 64 0 80 3 80 15 0 11 12 15 43 17 l42 1 -45 7 c-39 6 -33 7 38
8 65 2 82 5 82 17 0 12 16 15 80 15 64 0 80 3 80 15 0 12 17 15 83 17 l82 2
-85 6 -85 6 83 2 c65 2 82 5 82 17 0 12 16 15 80 15 64 0 80 3 80 15 0 12 17
15 83 17 l82 2 -85 6 -85 6 83 2 c65 2 82 5 82 17 0 12 16 15 80 15 64 0 80 3
80 15 0 12 17 15 83 17 70 1 76 2 37 8 l-45 7 43 1 c30 2 42 6 42 17 0 12 16
15 80 15 64 0 80 3 80 15 0 12 17 15 83 17 70 1 76 2 37 8 -39 6 -33 7 38 8
65 2 82 5 82 17 0 12 16 15 80 15 64 0 80 3 80 15 0 12 17 15 83 17 l82 2 -85
6 -85 6 83 2 c65 2 82 5 82 17 0 12 16 15 80 15 64 0 80 3 80 15 0 12 17 15
83 17 l82 2 -85 6 -85 6 83 2 c65 2 82 5 82 17 0 12 16 15 80 15 64 0 80 3 80
15 0 12 17 15 83 17 70 1 76 2 37 8 -39 6 -33 7 38 8 65 2 82 5 82 17 0 12 16
15 80 15 64 0 80 3 80 15 0 12 17 15 83 17 l82 2 -85 6 -85 6 83 2 c65 2 82 5
82 17 0 12 16 15 80 15 64 0 80 3 80 15 0 12 21 15 123 17 l122 2 -85 6 -85 6
83 2 82 2 0 35 c0 34 1 35 40 35 33 0 40 -3 40 -20 0 -17 7 -20 40 -20 29 0
40 4 40 15 0 12 17 15 83 17 l82 2 -85 6 -85 6 83 2 c65 2 82 5 82 17 0 12 16
15 80 15 64 0 80 3 80 15 0 12 17 15 83 17 l82 2 -85 6 -85 6 83 2 c65 2 82 5
82 17 0 12 16 15 80 15 64 0 80 3 80 15 0 12 17 15 83 17 l82 2 -85 6 -85 6
123 2 c101 2 122 5 122 17 0 12 16 15 80 15 63 0 80 3 80 15 0 11 18 15 83 18
45 1 -1755 4 -4000 5 l-4083 2 0 -955z m2623 -322 c-13 -2 -33 -2 -45 0 -13 2
-3 4 22 4 25 0 35 -2 23 -4z m-320 -80 c-13 -2 -33 -2 -45 0 -13 2 -3 4 22 4
25 0 35 -2 23 -4z"/>
<path d="M26720 11984 c0 -9 7 -14 17 -12 25 5 28 28 4 28 -12 0 -21 -6 -21
-16z"/>
<path d="M26820 11980 c0 -11 -4 -20 -10 -20 -5 0 -10 -9 -10 -20 0 -11 5 -20
10 -20 6 0 10 9 10 20 0 16 7 20 38 20 54 0 86 -34 40 -43 -13 -2 0 -5 29 -6
45 -1 54 -5 73 -31 28 -39 40 -38 40 5 0 28 4 35 20 35 17 0 20 -7 20 -40 0
-35 -3 -40 -22 -41 -16 -1 -11 -5 17 -13 41 -13 58 -42 33 -57 -7 -5 2 -6 24
-2 20 3 53 2 72 -1 34 -7 36 -9 36 -45 0 -35 3 -39 31 -45 17 -3 49 -6 70 -6
30 0 42 -6 59 -30 12 -16 29 -30 38 -31 9 0 12 -3 6 -5 -7 -3 -10 -14 -7 -24
4 -16 14 -20 44 -20 28 0 39 -4 39 -15 0 -11 12 -15 43 -16 23 -1 32 -4 20 -6
-28 -5 -29 -19 -3 -35 11 -7 20 -18 20 -25 0 -8 15 -13 40 -13 36 0 40 -3 40
-24 0 -23 4 -25 51 -28 38 -2 54 -8 60 -20 5 -10 13 -26 17 -35 11 -23 32 -29
32 -9 0 25 16 19 39 -13 12 -16 32 -32 46 -35 32 -8 75 -52 75 -76 0 -17 7
-20 47 -20 40 0 51 -5 79 -35 27 -30 29 -35 13 -35 -22 0 -24 -11 -7 -28 16
-16 28 -15 28 3 0 24 17 18 40 -15 12 -16 28 -30 36 -30 8 0 13 -4 10 -9 -3
-5 12 -13 34 -19 28 -7 40 -6 43 2 3 6 20 -6 39 -26 20 -21 33 -40 31 -42 -3
-3 4 -2 15 1 19 5 72 -37 72 -57 0 -6 19 -11 43 -12 l42 -1 -45 -7 -45 -7 43
-1 c26 -1 42 -7 42 -15 0 -7 9 -18 21 -25 11 -7 18 -19 15 -27 -2 -7 2 -16 10
-19 25 -10 34 -7 34 10 0 12 6 15 23 10 12 -3 30 -6 40 -6 13 0 17 -9 17 -40
l0 -40 41 0 c34 0 47 -6 73 -34 17 -18 41 -37 54 -40 18 -6 22 -15 22 -44 0
-33 4 -39 30 -49 17 -6 30 -7 30 -2 0 5 -4 9 -10 9 -5 0 -9 19 -9 43 1 25 4
33 6 18 3 -13 17 -34 32 -46 15 -14 31 -42 39 -70 10 -39 15 -46 30 -39 9 4
36 9 60 12 l42 4 0 -40 c0 -44 12 -52 83 -52 23 0 37 -5 37 -13 0 -7 9 -18 20
-25 11 -7 20 -17 20 -22 0 -6 -9 -10 -20 -10 -36 0 -21 -17 21 -24 23 -4 51
-17 66 -32 20 -20 38 -26 77 -29 48 -3 49 -2 11 5 l-40 8 45 -2 45 -1 0 -48 0
-47 47 0 c40 0 49 -4 68 -30 12 -16 33 -33 48 -37 15 -3 33 -15 40 -25 7 -10
22 -18 32 -18 10 0 25 -9 32 -19 9 -13 25 -19 46 -19 21 1 37 -6 46 -18 8 -10
27 -20 43 -20 15 -1 38 -5 51 -9 l22 -7 0 1026 0 1026 -1590 0 c-1583 0 -1590
0 -1590 -20z m540 -265 c0 -11 -11 -15 -40 -15 -29 0 -40 4 -40 15 0 11 11 15
40 15 29 0 40 -4 40 -15z m1708 -1207 c18 -18 15 -28 -8 -28 -13 0 -20 7 -20
20 0 23 10 26 28 8z"/>
<path d="M20395 11835 c-381 -39 -392 -40 -465 -67 -102 -36 -164 -83 -207
-155 -13 -23 -21 -48 -17 -54 4 -7 3 -9 -4 -5 -18 11 -52 -99 -62 -202 -6 -60
-6 -456 -2 -1027 5 -511 6 -932 4 -935 -2 -3 -92 85 -199 195 -107 110 -190
191 -184 180 5 -11 96 -105 200 -210 l191 -190 0 -385 c1 -429 8 -547 42 -641
l24 -64 -99 3 c-67 2 -103 -1 -113 -9 -12 -10 -17 -9 -27 1 -10 10 -9 11 3 5
8 -4 -127 135 -300 309 -173 174 -317 316 -320 316 -3 0 134 -139 304 -309
l309 -309 -39 -7 c-81 -13 -94 -17 -89 -24 9 -16 124 -31 262 -34 102 -2 146
-7 158 -17 15 -12 15 -15 2 -25 -9 -6 -18 -22 -22 -36 -9 -34 34 -71 115 -99
85 -29 200 -70 225 -80 118 -49 452 -81 835 -81 268 0 327 8 392 53 14 10 29
18 33 18 11 0 32 24 50 59 29 56 14 94 -53 138 -31 20 -60 41 -63 46 -3 5 -15
8 -25 7 -32 -4 -33 -1 -14 48 42 110 43 164 44 1417 0 660 4 1180 7 1155 4
-25 6 115 4 310 -2 290 -6 367 -19 419 -35 137 -113 238 -224 289 -87 40 -242
40 -657 -3z m241 -138 c-15 -22 -13 -24 29 -57 45 -35 60 -79 34 -96 -9 -5
-10 -64 -6 -218 3 -116 3 -204 -1 -196 -4 9 -18 14 -32 13 -14 -1 -37 -3 -52
-4 -16 -1 -28 -8 -28 -15 0 -23 37 -99 64 -132 46 -54 275 -232 299 -232 12 0
17 4 12 8 -14 9 -13 64 0 75 6 6 6 10 -2 14 -7 2 -13 9 -13 15 0 7 4 7 13 0 8
-7 24 -8 40 -4 27 7 27 7 -27 49 -96 75 -169 147 -183 180 -9 24 -13 90 -13
253 l0 221 25 25 c23 23 32 25 85 21 66 -4 90 -20 121 -77 20 -39 25 -29 8 18
-6 18 -16 29 -22 25 -6 -3 -7 -1 -3 6 4 6 1 23 -8 36 -18 27 -21 49 -6 40 6
-4 8 -11 5 -16 -4 -5 0 -12 8 -15 9 -3 24 -27 36 -53 16 -38 19 -62 15 -115
-2 -37 -1 -65 3 -63 10 6 9 -580 0 -609 -9 -25 -46 -46 -84 -49 -25 -1 -83 28
-91 47 -2 3 -29 26 -60 50 -31 24 -62 48 -68 53 -6 6 -23 19 -39 30 -15 11
-33 26 -39 33 -6 7 -18 21 -27 31 -9 10 -29 45 -45 77 l-29 59 3 240 c4 255 8
282 56 330 31 31 41 32 22 2z m308 -5 c3 -5 -1 -9 -9 -9 -8 0 -12 4 -9 9 3 4
7 8 9 8 2 0 6 -4 9 -8z m-1047 -48 c-3 -3 -12 -4 -19 -1 -8 3 -5 6 6 6 11 1
17 -2 13 -5z m-65 -23 c-7 -4 -12 -12 -11 -17 4 -16 -13 -44 -22 -38 -5 3 -22
-5 -37 -17 -15 -12 -19 -19 -9 -16 9 4 17 2 17 -3 0 -6 5 -10 11 -10 7 0 9 9
6 21 -3 13 -1 19 6 16 7 -3 11 -10 9 -16 -1 -7 2 -10 8 -6 6 3 8 10 6 14 -3 4
3 12 13 18 13 8 23 7 41 -7 23 -18 24 -19 7 -38 -27 -29 -20 -36 13 -12 l30
21 10 -26 c5 -14 14 -24 19 -21 5 3 15 -2 22 -12 13 -15 12 -16 -3 -3 -10 7
-18 10 -18 5 0 -4 -5 -3 -11 3 -13 13 -52 -15 -42 -30 3 -6 1 -7 -5 -3 -7 4
-12 1 -12 -9 0 -9 5 -13 10 -10 6 3 10 -1 10 -9 0 -9 5 -16 11 -16 6 0 9 9 6
19 -3 14 -1 18 9 14 10 -4 11 -10 3 -24 -11 -21 -24 -24 -34 -9 -4 6 -11 8
-16 4 -6 -3 -3 -12 8 -20 10 -7 13 -14 6 -14 -6 0 -15 5 -18 10 -7 12 -25 4
-25 -11 0 -5 7 -9 15 -9 8 0 14 -3 14 -7 -4 -22 2 -25 14 -8 16 20 38 13 36
-13 -1 -15 -2 -15 -6 1 -6 24 -23 21 -23 -5 0 -21 -1 -21 -28 5 -16 15 -31 25
-33 23 -3 -3 -5 12 -6 34 -1 23 4 43 13 50 8 7 14 9 14 5 0 -4 7 -2 15 5 8 7
12 17 9 22 -3 5 -15 1 -27 -9 -11 -10 -17 -12 -12 -4 5 10 4 12 -4 7 -6 -4
-11 -4 -10 1 1 4 1 17 0 28 -1 14 -4 16 -12 8 -9 -9 -8 -18 4 -36 14 -22 14
-26 -1 -40 -13 -13 -13 -19 -4 -29 19 -19 14 -32 -5 -17 -16 13 -17 12 -4 -3
7 -10 10 -18 5 -18 -5 0 5 -9 22 -19 44 -27 48 -37 15 -37 -22 0 -27 3 -23 18
2 10 -1 18 -7 18 -16 0 -14 -43 4 -66 13 -16 14 -16 9 -1 -3 9 -1 17 5 17 6 0
10 -3 10 -7 -4 -22 3 -24 23 -7 13 11 18 13 13 4 -11 -18 -14 -50 -5 -50 4 0
10 14 14 31 5 27 8 30 21 19 8 -7 14 -20 14 -29 -1 -13 -2 -13 -6 2 -2 9 -9
17 -14 17 -11 0 -12 -36 -1 -43 4 -2 1 -2 -7 0 -9 2 -12 -3 -8 -17 3 -11 2
-18 -1 -16 -4 2 -12 -2 -19 -9 -10 -11 -10 -15 0 -18 7 -3 4 -6 -5 -6 -10 -1
-18 5 -19 12 0 6 -4 3 -9 -8 -14 -32 -11 -36 13 -24 18 9 20 9 10 -2 -7 -7
-13 -17 -13 -21 0 -13 28 -9 33 5 4 7 6 8 6 1 1 -18 -26 -37 -34 -24 -10 15
-28 12 -22 -4 4 -10 1 -13 -9 -9 -9 3 -14 -1 -14 -12 0 -11 5 -15 16 -11 9 3
12 2 9 -5 -4 -5 -16 -7 -28 -3 -19 6 -20 5 -10 -8 7 -8 10 -18 6 -22 -11 -10
-12 -37 -2 -30 5 3 9 0 9 -6 0 -7 7 -9 18 -5 13 5 14 3 5 -6 -6 -6 -9 -18 -6
-25 3 -8 0 -14 -7 -14 -6 0 -8 5 -5 10 3 6 2 10 -3 10 -6 0 -12 -7 -16 -15 -3
-8 -1 -15 4 -15 6 0 10 -7 10 -16 0 -10 5 -14 16 -10 9 3 12 2 9 -5 -4 -5 -15
-7 -25 -4 -14 4 -18 1 -16 -12 2 -10 1 -12 -1 -5 -3 6 -10 12 -16 12 -7 0 -4
5 6 11 9 6 15 15 12 20 -4 5 -11 7 -16 4 -5 -4 -9 0 -10 7 -1 7 -4 2 -8 -12
-4 -14 -4 -30 1 -36 10 -14 -1 -74 -14 -74 -5 0 -6 -4 -3 -10 3 -5 2 -10 -3
-10 -5 0 -9 -13 -10 -30 0 -16 4 -30 9 -30 5 0 9 7 9 15 0 8 6 15 13 16 9 0 9
2 0 6 -10 3 -9 11 2 34 9 16 18 29 21 29 3 0 3 -4 -1 -9 -3 -6 2 -14 11 -19
13 -7 11 -14 -19 -46 -23 -24 -40 -34 -51 -30 -12 5 -13 10 -6 24 6 11 6 21 1
24 -17 11 -20 -48 -3 -68 10 -10 16 -27 14 -37 -4 -21 14 -26 21 -6 2 7 3 6 3
-3 -2 -24 -31 -18 -31 7 0 12 -8 30 -17 40 -8 10 -18 25 -22 33 -3 8 -3 2 0
-15 3 -16 11 -34 17 -38 8 -6 6 -7 -5 -3 -10 3 -18 1 -18 -4 0 -6 8 -11 18
-11 15 -1 15 -2 -1 -6 -11 -3 -16 -10 -13 -20 3 -8 6 -19 6 -24 0 -15 18 -10
22 6 2 13 6 13 20 -4 16 -19 15 -19 -18 -16 -31 2 -34 0 -34 -26 0 -20 4 -27
14 -23 22 8 30 -16 12 -34 -9 -9 -16 -11 -16 -5 0 6 6 13 13 16 6 2 8 8 4 13
-14 15 -28 -20 -23 -58 2 -21 0 -41 -5 -44 -5 -3 -9 186 -9 463 0 487 2 517
45 606 19 40 74 99 85 92 5 -3 10 2 14 10 3 8 11 15 18 15 10 0 10 -2 0 -9z
m78 -26 c-6 -8 -8 -20 -4 -27 5 -10 4 -10 -6 -1 -11 10 -11 15 0 28 7 8 15 15
17 15 3 0 0 -7 -7 -15z m101 -22 c-12 -20 -14 -14 -5 12 4 9 9 14 11 11 3 -2
0 -13 -6 -23z m-51 -7 c0 -2 -8 -10 -17 -17 -16 -13 -17 -12 -4 4 13 16 21 21
21 13z m14 -31 c-4 -8 -11 -15 -16 -15 -6 0 -5 6 2 15 7 8 14 15 16 15 2 0 1
-7 -2 -15z m19 -21 c-3 -9 0 -20 8 -25 9 -6 10 -9 2 -9 -6 0 -15 5 -18 10 -7
11 0 40 9 40 3 0 3 -7 -1 -16z m77 -48 c0 -2 -8 -10 -17 -17 -16 -13 -17 -12
-4 4 13 16 21 21 21 13z m-106 -28 c-3 -5 -12 -4 -20 3 -19 16 -18 18 6 12 11
-3 17 -9 14 -15z m53 -4 c3 -8 1 -20 -5 -26 -8 -8 -9 -4 -5 12 5 19 3 22 -11
17 -10 -4 -15 -3 -11 3 9 15 25 12 32 -6z m150 -6 c-3 -8 -6 -5 -6 6 -1 11 2
17 5 13 3 -3 4 -12 1 -19z m-187 -52 c0 -2 -8 -10 -17 -17 -16 -13 -17 -12 -4
4 13 16 21 21 21 13z m115 -54 c-3 -3 -11 0 -18 7 -9 10 -8 11 6 5 10 -3 15
-9 12 -12z m-85 -7 c0 -2 -6 -5 -13 -8 -8 -3 -14 1 -14 8 0 7 6 11 14 8 7 -3
13 -6 13 -8z m45 5 c4 -6 1 -9 -7 -8 -7 2 -13 -4 -13 -12 0 -8 6 -14 13 -12 8
1 11 -2 7 -9 -5 -8 -12 -6 -23 5 -13 12 -13 18 -2 30 15 19 17 19 25 6z m698
-128 c-10 -60 -28 -29 -31 54 -1 55 1 74 8 64 8 -13 10 -12 11 5 1 11 5 -5 10
-35 4 -30 6 -70 2 -88z m-788 118 c3 -6 -1 -7 -9 -4 -18 7 -21 14 -7 14 6 0
13 -4 16 -10z m-21 -26 c3 -8 2 -12 -4 -9 -6 3 -10 10 -10 16 0 14 7 11 14 -7z
m231 -18 c0 -15 -4 -21 -9 -16 -5 5 -6 16 -3 24 9 22 12 20 12 -8z m-158 -2
c8 -22 -13 -42 -29 -25 -11 10 -10 11 5 6 12 -5 17 -2 17 10 0 11 -5 15 -16
11 -8 -3 -12 -2 -9 4 9 15 25 12 32 -6z m84 -17 c-10 -9 -11 -8 -5 6 3 10 9
15 12 12 3 -3 0 -11 -7 -18z m50 -14 c12 -16 12 -17 -2 -6 -9 7 -20 9 -24 5
-5 -4 -5 -1 -1 6 9 16 11 15 27 -5z m-205 -20 c0 -10 5 -17 12 -15 8 1 11 -2
7 -9 -5 -8 -12 -6 -22 4 -9 8 -12 20 -9 26 10 16 14 14 12 -6z m109 -13 c-3
-5 -12 -10 -18 -10 -7 0 -6 4 3 10 19 12 23 12 15 0z m53 -21 c3 -12 2 -12 -6
0 -6 8 -15 10 -22 6 -9 -5 -11 -4 -6 4 10 15 28 10 34 -10z m-178 -4 c0 -8 -2
-15 -4 -15 -2 0 -6 7 -10 15 -3 8 -1 15 4 15 6 0 10 -7 10 -15z m81 -18 c-8
-8 -14 -8 -23 2 -11 10 -10 11 5 6 12 -5 17 -2 18 11 0 12 2 14 6 6 3 -8 0
-19 -6 -25z m-97 -10 c7 -6 6 -7 -4 -4 -8 2 -16 12 -17 23 -2 13 -1 15 4 4 3
-8 11 -19 17 -23z m147 -4 c13 -16 12 -17 -3 -5 -14 11 -18 10 -27 -5 -6 -10
-11 -13 -11 -7 0 8 19 34 26 34 1 0 8 -8 15 -17z m-108 0 c-7 -2 -13 -12 -13
-20 0 -9 -3 -14 -6 -10 -10 10 4 37 18 36 10 0 10 -2 1 -6z m130 -38 c-3 -9
-8 -14 -10 -11 -3 3 -2 9 2 15 9 16 15 13 8 -4z m-149 -31 c3 -8 2 -12 -4 -9
-6 3 -10 10 -10 16 0 14 7 11 14 -7z m-51 -45 c-8 -8 -11 -8 -10 2 1 8 -2 14
-8 14 -5 0 -9 -6 -8 -14 1 -9 -2 -10 -10 -2 -7 7 -6 15 3 26 12 14 15 14 29 1
11 -12 12 -19 4 -27z m88 24 c13 -16 12 -17 -3 -4 -17 13 -22 21 -14 21 2 0
10 -8 17 -17z m-27 -19 c3 -8 2 -12 -4 -9 -6 3 -10 10 -10 16 0 14 7 11 14 -7z
m74 -25 c3 -12 2 -12 -6 0 -6 8 -15 10 -22 6 -9 -5 -11 -4 -6 4 10 15 28 10
34 -10z m-183 1 c3 -6 -1 -7 -9 -4 -18 7 -21 14 -7 14 6 0 13 -4 16 -10z m62
-22 c-3 -8 -6 -5 -6 6 -1 11 2 17 5 13 3 -3 4 -12 1 -19z m-37 -17 c-13 -26 5
-38 20 -14 9 14 10 15 7 2 -3 -9 0 -23 6 -30 10 -10 9 -11 -3 -2 -19 14 -31
14 -50 0 -13 -10 -13 -10 -1 6 7 9 10 17 7 17 -4 0 -2 9 4 20 6 11 13 20 16
20 2 0 0 -9 -6 -19z m102 -25 c7 4 8 2 4 -5 -9 -14 -36 3 -36 23 0 6 5 3 11
-7 6 -9 15 -14 21 -11z m198 20 c0 -2 -8 -10 -17 -17 -16 -13 -17 -12 -4 4 13
16 21 21 21 13z m-52 -37 c3 -12 2 -12 -6 0 -6 8 -15 10 -22 6 -9 -5 -11 -4
-6 4 10 15 28 10 34 -10z m-88 -13 c0 -2 -8 -10 -17 -17 -16 -13 -17 -12 -4 4
13 16 21 21 21 13z m-105 -24 c-3 -3 -11 0 -18 7 -9 10 -8 11 6 5 10 -3 15 -9
12 -12z m-45 4 c0 -2 -8 -10 -17 -17 -16 -13 -17 -12 -4 4 13 16 21 21 21 13z
m-40 -41 c11 -13 10 -14 -4 -9 -9 3 -16 10 -16 15 0 13 6 11 20 -6z m95 -5 c3
-6 -1 -7 -9 -4 -18 7 -21 14 -7 14 6 0 13 -4 16 -10z m-45 -34 c0 -2 -7 -7
-16 -10 -8 -3 -12 -2 -9 4 6 10 25 14 25 6z m-2 -42 c-12 -12 -17 -13 -23 -3
-5 8 -4 10 4 5 6 -4 14 0 17 9 4 9 9 13 12 10 3 -3 -1 -13 -10 -21z m49 -26
c-3 -8 -6 -5 -6 6 -1 11 2 17 5 13 3 -3 4 -12 1 -19z m-132 -43 c0 -10 -6 -19
-13 -21 -7 -1 -8 0 -2 3 13 6 13 33 0 33 -5 0 -10 -5 -10 -12 0 -6 -3 -9 -6
-5 -9 9 6 29 19 24 7 -2 12 -12 12 -22z m83 -11 c-12 -12 -17 -13 -23 -3 -5 8
-4 10 4 5 6 -4 14 0 17 9 4 9 9 13 12 10 3 -3 -1 -13 -10 -21z m227 -34 c-3
-5 -12 -10 -18 -10 -7 0 -6 4 3 10 19 12 23 12 15 0z m-308 -26 c3 -8 0 -21
-6 -27 -9 -9 -11 -8 -5 7 4 11 2 21 -7 27 -10 6 -11 9 -1 9 7 0 15 -7 19 -16z
m39 -36 c4 -7 4 -10 -1 -6 -4 4 -15 2 -24 -5 -14 -11 -14 -10 -2 6 16 20 18
21 27 5z m-106 -18 c0 -5 -2 -10 -4 -10 -3 0 -8 5 -11 10 -3 6 -1 10 4 10 6 0
11 -4 11 -10z m21 -13 c-10 -9 -11 -8 -5 6 3 10 9 15 12 12 3 -3 0 -11 -7 -18z
m131 -39 c-9 -9 -15 -9 -24 1 -11 10 -10 11 5 6 10 -5 17 -2 17 6 0 7 3 9 7 6
4 -4 1 -13 -5 -19z m-52 -2 c0 -2 -8 -10 -17 -17 -16 -13 -17 -12 -4 4 13 16
21 21 21 13z m-79 -26 c9 13 10 13 6 0 -2 -8 -10 -15 -17 -15 -7 0 -15 7 -17
15 -4 13 -3 13 6 0 10 -13 12 -13 22 0z m-33 -45 c-3 -3 -9 2 -12 12 -6 14 -5
15 5 6 7 -7 10 -15 7 -18z m-1 -75 c4 -13 3 -13 -6 0 -9 12 -13 13 -20 2 -7
-11 -9 -11 -14 1 -4 10 1 14 16 13 11 -1 22 -8 24 -16z m420 -447 c3 -7 -4 -9
-16 -6 -13 3 -21 1 -21 -7 0 -6 9 -14 20 -17 21 -6 37 -44 25 -62 -8 -14 -52
-14 -60 0 -11 17 3 23 20 9 11 -9 19 -10 26 -3 8 8 4 16 -14 28 -33 21 -40 41
-20 60 16 17 34 16 40 -2z m219 -18 c31 -48 -4 -98 -60 -88 -18 4 -21 10 -18
39 3 21 0 34 -7 34 -10 0 -16 -33 -12 -66 1 -6 -5 -11 -12 -11 -9 0 -13 13
-13 41 1 32 5 42 21 47 33 9 45 -1 45 -38 0 -27 4 -34 18 -31 12 2 18 14 20
41 3 31 -1 39 -20 46 l-23 10 22 0 c13 1 29 -9 39 -24z m54 15 c0 -5 -7 -10
-16 -10 -8 0 -12 5 -9 10 3 6 10 10 16 10 5 0 9 -4 9 -10z m101 -27 c0 -35 1
-36 11 -15 6 12 18 22 26 22 12 0 12 -3 -4 -14 -19 -14 -19 -15 4 -45 22 -30
22 -31 2 -31 -11 0 -20 6 -20 14 0 8 -5 18 -12 22 -8 5 -9 0 -6 -14 5 -16 2
-22 -10 -22 -14 0 -17 11 -17 60 0 41 4 60 13 60 7 0 12 -15 13 -37z m-301
-29 c6 -39 5 -41 -22 -42 -22 0 -28 4 -28 20 0 11 8 22 20 25 20 5 25 15 13
26 -3 4 -12 2 -20 -4 -13 -12 -19 2 -6 15 18 17 38 -1 43 -40z m190 -4 c0 -52
-15 -52 -16 0 -1 22 3 40 7 40 5 0 9 -18 9 -40z m70 30 c0 -5 -7 -7 -15 -4 -8
4 -15 2 -15 -4 0 -5 7 -12 15 -16 16 -6 21 -41 6 -50 -12 -8 -41 4 -41 16 0 6
7 5 15 -2 9 -7 19 -10 23 -6 4 4 -4 15 -17 25 -16 12 -22 24 -18 35 7 17 47
23 47 6z"/>
<path d="M21021 11484 c0 -11 3 -14 6 -6 3 7 2 16 -1 19 -3 4 -6 -2 -5 -13z"/>
<path d="M21018 10827 c-3 -19 -2 -25 4 -19 6 6 8 18 6 28 -3 14 -5 12 -10 -9z"/>
<path d="M20994 10792 c3 -5 0 -12 -6 -15 -7 -2 -10 -7 -7 -11 3 -4 12 0 18 8
9 11 9 16 0 22 -7 4 -9 3 -5 -4z"/>
<path d="M19784 11588 c-3 -4 2 -8 10 -8 8 0 17 4 20 8 3 5 -2 9 -10 9 -8 0
-17 -4 -20 -9z"/>
<path d="M19835 11560 c-3 -5 -4 -14 -1 -19 4 -5 2 -11 -2 -13 -5 -1 -1 -16 9
-33 l19 -30 -4 32 c-3 19 0 32 6 30 6 -1 13 4 16 12 3 10 0 12 -12 8 -9 -4
-14 -3 -11 2 3 5 1 12 -4 15 -5 4 -12 2 -16 -4z"/>
<path d="M19905 11508 c-4 -10 -11 -15 -16 -12 -5 3 -9 1 -9 -5 0 -5 4 -12 9
-15 12 -8 34 20 28 36 -3 9 -7 8 -12 -4z"/>
<path d="M19730 11484 c0 -8 5 -12 10 -9 6 4 8 11 5 16 -9 14 -15 11 -15 -7z"/>
<path d="M19795 11469 c-4 -6 -13 -8 -20 -5 -8 3 -11 -2 -8 -13 2 -10 10 -18
18 -18 7 0 11 7 7 15 -3 10 -1 13 6 8 7 -4 12 -1 12 8 0 19 -6 20 -15 5z"/>
<path d="M19855 11420 c3 -5 1 -10 -5 -10 -6 0 -8 -5 -5 -10 5 -8 11 -7 21 1
14 12 10 29 -7 29 -6 0 -7 -4 -4 -10z"/>
<path d="M19730 11404 c0 -8 5 -12 10 -9 6 4 8 11 5 16 -9 14 -15 11 -15 -7z"/>
<path d="M19765 11358 c-6 -13 -16 -22 -22 -21 -6 1 -14 -4 -17 -12 -3 -9 0
-15 8 -15 8 0 17 7 20 16 3 8 11 12 17 8 8 -4 9 -3 5 4 -4 7 -2 12 3 12 6 0
11 7 11 15 0 22 -14 18 -25 -7z"/>
<path d="M19685 11360 c-3 -5 -1 -10 4 -10 6 0 11 5 11 10 0 6 -2 10 -4 10 -3
0 -8 -4 -11 -10z"/>
<path d="M19770 11292 c0 -7 7 -20 15 -28 19 -20 20 -4 0 22 -9 12 -14 14 -15
6z"/>
<path d="M19686 11281 c-4 -5 -2 -12 3 -15 5 -4 12 -2 15 3 4 5 2 12 -3 15 -5
4 -12 2 -15 -3z"/>
<path d="M19724 11243 c2 -9 10 -17 19 -19 18 -2 12 22 -8 30 -8 3 -12 -2 -11
-11z"/>
<path d="M19810 11246 c0 -8 5 -18 10 -21 6 -3 10 3 10 14 0 12 -4 21 -10 21
-5 0 -10 -6 -10 -14z"/>
<path d="M19840 11239 c0 -21 -16 -34 -25 -19 -8 13 -25 13 -25 -1 0 -5 5 -7
12 -3 8 5 9 2 5 -10 -4 -10 -3 -15 4 -11 6 4 7 -3 3 -19 -4 -16 -2 -26 5 -26
9 0 16 28 12 53 -2 12 17 8 22 -5 3 -10 7 -10 17 -1 15 14 4 36 -13 27 -8 -5
-8 -3 1 7 16 17 15 26 -3 26 -8 0 -15 -8 -15 -18z"/>
<path d="M19768 11195 c-5 -25 -4 -25 10 -11 12 11 13 19 5 27 -7 7 -12 3 -15
-16z"/>
<path d="M19685 11201 c-3 -5 -1 -12 5 -16 5 -3 10 1 10 9 0 18 -6 21 -15 7z"/>
<path d="M19793 11158 c1 -15 5 -24 9 -22 4 3 5 -3 1 -12 -4 -11 -8 -13 -11
-6 -6 18 -19 15 -24 -6 -4 -13 1 -17 19 -16 36 1 50 20 31 41 -8 10 -18 25
-21 33 -3 8 -5 3 -4 -12z"/>
<path d="M19730 11157 c0 -8 7 -20 16 -27 12 -11 15 -11 12 1 -2 8 3 13 12 11
8 -2 11 0 7 5 -5 4 -12 8 -15 8 -4 0 -13 4 -19 8 -8 5 -13 3 -13 -6z"/>
<path d="M19690 11114 c0 -8 5 -12 10 -9 6 4 8 11 5 16 -9 14 -15 11 -15 -7z"/>
<path d="M19730 11074 c0 -8 5 -12 10 -9 6 3 10 10 10 16 0 5 -4 9 -10 9 -5 0
-10 -7 -10 -16z"/>
<path d="M19767 11048 c3 -19 0 -28 -9 -28 -11 0 -10 -2 0 -9 16 -9 18 -21 5
-30 -25 -19 -47 -101 -22 -86 5 4 8 12 6 18 -2 7 4 26 13 42 9 17 16 38 14 48
-1 9 2 17 7 17 14 0 11 30 -3 30 -8 1 -5 7 6 15 18 13 18 14 -2 12 -16 -1 -19
-7 -15 -29z"/>
<path d="M19730 11046 c0 -2 7 -7 16 -10 8 -3 12 -2 9 4 -6 10 -25 14 -25 6z"/>
<path d="M19690 11030 c0 -5 5 -10 11 -10 5 0 7 5 4 10 -3 6 -8 10 -11 10 -2
0 -4 -4 -4 -10z"/>
<path d="M19730 10990 c0 -5 5 -10 10 -10 6 0 10 5 10 10 0 6 -4 10 -10 10 -5
0 -10 -4 -10 -10z"/>
<path d="M19783 10973 c-15 -6 -17 -33 -3 -33 6 0 10 6 10 14 0 8 6 17 13 19
6 3 8 5 2 5 -5 0 -16 -2 -22 -5z"/>
<path d="M19690 10942 c0 -12 3 -12 15 -2 8 7 15 13 15 15 0 1 -7 2 -15 2 -8
0 -15 -7 -15 -15z"/>
<path d="M19703 10885 c-19 -21 -25 -65 -7 -58 12 4 11 -1 -2 -32 l-15 -37 25
19 c13 10 29 26 36 37 9 15 8 21 -9 33 -21 14 -31 40 -11 28 6 -3 7 1 4 9 -7
19 -6 19 -21 1z m27 -60 c0 -7 -8 -19 -17 -26 -17 -13 -17 -12 -3 5 13 16 12
20 -3 31 -9 6 -14 15 -10 18 8 9 33 -12 33 -28z"/>
<path d="M19740 10871 c0 -6 5 -13 10 -16 6 -3 10 1 10 9 0 9 -4 16 -10 16 -5
0 -10 -4 -10 -9z"/>
<path d="M19770 10785 c0 -8 5 -15 10 -15 6 0 10 7 10 15 0 8 -4 15 -10 15 -5
0 -10 -7 -10 -15z"/>
<path d="M20175 9861 c-6 -11 9 -23 19 -14 9 9 7 23 -3 23 -6 0 -12 -4 -16 -9z"/>
<path d="M27160 11752 c0 -10 22 -32 32 -32 4 0 8 9 8 20 0 13 -7 20 -20 20
-11 0 -20 -4 -20 -8z"/>
<path d="M18074 10738 c-5 -7 -3 -8 6 -3 8 5 82 -62 226 -206 190 -190 233
-239 207 -239 -4 0 -103 95 -220 212 -117 117 -216 209 -220 205 -4 -4 89
-104 207 -222 l215 -215 -45 -43 c-25 -24 -107 -104 -183 -177 l-138 -134
-216 214 c-120 118 -206 202 -193 186 14 -16 100 -104 193 -196 92 -92 167
-171 167 -175 0 -5 -9 0 -20 10 -32 29 -32 12 1 -25 19 -22 28 -42 25 -54 -5
-21 9 -46 26 -46 5 0 8 11 6 24 -3 27 8 39 236 266 122 121 158 152 168 142 6
-6 13 -19 14 -27 3 -17 -411 -421 -427 -417 -6 1 -8 -2 -5 -7 3 -5 0 -11 -8
-14 -7 -3 -16 -15 -19 -28 -3 -13 78 61 196 178 312 308 370 361 401 369 26 6
39 -4 197 -162 93 -93 169 -174 169 -180 0 -7 7 -15 16 -18 9 -3 14 -2 12 3
-8 22 -347 360 -377 376 -18 9 -30 12 -27 7 3 -6 -1 -13 -10 -16 -10 -4 -13
-2 -8 7 4 6 -2 4 -13 -5 -24 -22 -37 -23 -53 -3 -7 8 -17 12 -22 9 -5 -3 -3
-13 6 -23 20 -22 20 -45 1 -61 -9 -8 -15 -9 -15 -2 0 6 5 14 11 17 10 7 -456
485 -472 485 -5 0 -11 -5 -15 -12z m36 -813 c20 -24 6 -28 -15 -5 -10 11 -13
20 -8 20 6 0 16 -7 23 -15z"/>
<path d="M10832 10579 c-44 -13 -72 -60 -72 -121 0 -43 -2 -47 -27 -50 -24 -3
-28 -8 -28 -33 0 -25 4 -30 28 -33 l27 -3 0 -140 0 -140 48 3 47 3 3 138 3
137 69 0 70 0 0 -141 0 -140 48 3 47 3 3 137 3 137 47 3 c47 3 47 3 47 38 0
35 0 35 -47 38 -47 3 -48 4 -48 36 0 42 15 56 63 56 37 0 38 1 35 33 -3 27 -8
33 -38 41 -88 21 -160 -34 -160 -121 l0 -43 -70 0 -70 0 0 33 c0 18 5 38 12
45 7 7 27 12 45 12 30 0 33 3 33 30 0 45 -45 60 -118 39z"/>
<path d="M9744 10559 c-11 -13 -19 -35 -19 -59 0 -50 27 -80 71 -80 23 0 38 7
48 22 22 31 21 101 -2 121 -26 24 -75 21 -98 -4z m74 -49 c3 -42 -10 -65 -32
-57 -16 7 -23 76 -9 91 17 17 38 -1 41 -34z"/>
<path d="M9891 10463 c-73 -148 -78 -163 -54 -163 14 0 35 34 85 140 58 121
64 140 47 140 -14 0 -33 -29 -78 -117z"/>
<path d="M9043 10551 c-17 -4 -46 -17 -65 -28 -27 -15 -34 -26 -36 -56 -4 -43
3 -45 58 -17 44 22 110 26 128 8 20 -20 13 -72 -16 -119 -16 -24 -63 -81 -105
-125 -67 -71 -77 -87 -77 -118 l0 -36 168 2 167 3 0 35 0 35 -108 5 -108 5 66
65 c118 117 155 199 118 269 -10 19 -29 43 -43 53 -29 21 -101 30 -147 19z"/>
<path d="M9447 10546 c-86 -31 -120 -99 -121 -236 -1 -108 12 -156 56 -206 56
-63 168 -70 233 -13 50 44 70 106 70 214 0 144 -41 219 -133 245 -47 13 -58
12 -105 -4z m107 -95 c36 -40 40 -245 5 -287 -38 -46 -101 -36 -118 20 -26 86
-18 231 15 267 22 25 76 25 98 0z"/>
<path d="M6940 10388 c1 -230 14 -271 101 -316 37 -20 55 -23 115 -19 86 5
130 27 161 83 21 36 23 51 23 222 l0 182 -49 0 -50 0 -3 -180 c-3 -204 -8
-217 -86 -227 -36 -5 -45 -2 -72 25 l-30 30 0 176 0 176 -55 0 -55 0 0 -152z"/>
<path d="M8085 10473 c-10 -57 -12 -61 -37 -65 -18 -2 -24 -10 -26 -35 -3 -29
0 -33 21 -33 25 0 25 0 29 -116 3 -112 4 -117 31 -140 22 -19 40 -24 82 -24
73 0 85 6 85 45 0 31 -1 32 -40 31 -26 0 -44 5 -50 14 -5 8 -10 54 -10 102 l0
87 48 3 c47 3 47 3 47 38 0 35 0 35 -47 38 l-48 3 0 45 0 44 -40 0 c-37 0 -39
-2 -45 -37z"/>
<path d="M9956 10438 c-23 -32 -20 -94 4 -118 51 -51 127 -2 117 75 -7 46 -28
65 -73 65 -23 0 -38 -7 -48 -22z m74 -27 c14 -26 13 -44 -4 -66 -27 -37 -59
19 -40 69 8 22 31 20 44 -3z"/>
<path d="M29107 10426 c-4 -10 -5 -21 -2 -24 9 -9 17 6 13 25 -3 17 -4 17 -11
-1z"/>
<path d="M7607 10420 c-16 -5 -35 -14 -43 -21 -11 -9 -18 -8 -33 5 -11 10 -31
16 -48 14 l-28 -3 -3 -247 -2 -248 50 0 50 0 0 85 0 85 26 -17 c38 -24 113
-22 151 5 46 33 68 85 68 167 0 77 -19 122 -65 157 -31 22 -85 30 -123 18z
m62 -89 c24 -24 36 -79 27 -127 -9 -46 -38 -74 -77 -74 -62 0 -69 11 -69 110
0 74 3 91 18 99 28 17 80 13 101 -8z"/>
<path d="M8438 10418 c-21 -5 -51 -25 -67 -44 -92 -104 -51 -282 72 -315 52
-14 124 -5 156 19 52 38 66 69 69 150 2 65 -1 83 -20 116 -13 22 -37 48 -53
57 -39 23 -110 30 -157 17z m111 -94 c35 -44 26 -160 -13 -186 -6 -4 -26 -8
-43 -8 -34 0 -53 20 -68 68 -11 36 4 111 26 133 28 28 73 25 98 -7z"/>
<path d="M10425 10415 c-113 -41 -151 -200 -73 -306 72 -97 261 -66 299 49 18
55 8 162 -19 200 -43 59 -133 84 -207 57z m114 -91 c35 -44 26 -160 -13 -186
-24 -17 -75 -8 -90 15 -34 52 -27 164 12 186 32 19 69 12 91 -15z"/>
<path d="M18955 9991 c28 -4 57 -10 65 -14 8 -5 6 -1 -4 7 -13 10 -37 15 -65
15 l-46 -2 50 -6z"/>
<path d="M18777 9953 c-37 -14 -66 -28 -64 -29 5 -5 110 31 134 45 30 17 1 11
-70 -16z"/>
<path d="M19011 9886 c2 -2 15 -9 29 -15 24 -11 24 -11 6 3 -16 13 -49 24 -35
12z"/>
<path d="M18798 9873 c-9 -2 -34 -13 -55 -24 -45 -23 -8 -15 52 12 38 17 39
22 3 12z"/>
<path d="M15325 9857 c-3 -6 -4 -400 -3 -875 2 -474 -1 -862 -5 -862 -5 0 -1
-7 8 -17 15 -14 61 -17 363 -24 502 -12 1043 -10 1059 3 10 8 13 6 13 -5 0
-16 37 -47 55 -47 5 1 -2 8 -17 16 -30 15 -39 58 -15 68 9 3 7 9 -5 19 -21 17
-25 83 -5 90 10 4 10 6 0 6 -9 1 -13 17 -13 47 0 25 3 43 8 41 4 -3 7 39 7 94
0 54 -3 99 -6 99 -3 0 -6 7 -6 15 0 13 76 15 624 15 l623 0 0 140 c0 156 -13
209 -56 229 -17 7 -116 11 -300 11 l-274 0 2 168 3 167 55 28 c30 16 180 92
333 168 330 166 352 178 339 191 -10 10 -79 -25 -528 -268 -105 -57 -194 -104
-198 -104 -3 0 -6 125 -6 278 0 152 -3 287 -6 300 l-6 22 -1020 0 c-799 0
-1020 -3 -1023 -13z m1934 -31 c21 -19 21 -24 20 -465 -1 -254 -5 -425 -9
-396 -5 28 -9 224 -9 436 -1 316 -4 389 -15 405 -14 18 -36 19 -863 22 -466 1
-862 0 -880 -3 -67 -12 -63 41 -63 -790 l0 -754 26 -20 c26 -21 36 -21 613
-22 322 -1 559 -5 526 -9 -33 -5 -304 -8 -603 -9 -527 0 -543 0 -562 19 -20
20 -20 37 -20 793 0 457 4 778 10 787 5 8 32 17 62 21 29 4 434 6 899 5 818
-1 848 -2 868 -20z m-719 -76 c0 -5 -7 -7 -16 -3 -19 7 -35 -14 -27 -34 4 -9
14 -13 26 -9 14 3 17 2 9 -6 -25 -25 -65 19 -42 47 14 17 50 20 50 5z m395 0
c-28 -12 -37 -12 -30 0 3 6 16 10 28 9 21 0 21 -1 2 -9z m162 -37 c-3 -10 -5
-2 -5 17 0 19 2 27 5 18 2 -10 2 -26 0 -35z m-215 7 c3 -16 1 -30 -4 -30 -4 0
-8 14 -8 30 0 17 2 30 4 30 2 0 6 -13 8 -30z m93 9 c-6 -33 -15 -36 -15 -6 0
15 4 27 9 27 6 0 8 -10 6 -21z m-409 -1 c0 -7 4 -13 9 -13 6 0 9 6 9 12 -1 7
2 10 7 7 15 -9 10 -34 -7 -41 -20 -7 -38 11 -31 31 8 19 15 21 13 4z m122 -13
c4 -20 3 -20 -11 -1 -14 19 -14 19 -25 0 -11 -18 -11 -18 -12 0 0 12 -5 16
-15 12 -8 -3 -15 -1 -15 5 0 6 16 9 37 7 29 -2 39 -8 41 -23z m25 4 c-4 -16
-2 -20 8 -17 8 3 13 13 12 23 -1 11 2 14 8 8 14 -14 1 -40 -22 -46 -15 -4 -19
0 -19 24 0 16 4 29 9 29 5 0 7 -10 4 -21z m87 -4 c0 -18 -5 -25 -20 -25 -13 0
-20 6 -19 18 0 10 3 12 6 5 8 -21 26 -15 20 7 -3 11 -1 20 4 20 5 0 9 -11 9
-25z m24 13 c-4 -6 1 -17 11 -25 16 -11 17 -13 3 -13 -9 0 -20 5 -23 10 -7 12
0 40 10 40 4 0 3 -5 -1 -12z m203 -22 c-9 -22 -37 -20 -36 2 0 10 3 12 6 5 9
-23 25 -14 18 10 -6 17 -5 19 5 10 7 -6 10 -19 7 -27z m47 -8 c-3 -4 -13 -8
-22 -8 -13 0 -14 2 -3 9 9 6 10 11 2 15 -6 4 -11 11 -11 16 0 6 9 2 19 -7 11
-9 18 -20 15 -25z m56 22 c0 -11 -2 -20 -4 -20 -2 0 -6 9 -9 20 -3 11 -1 20 4
20 5 0 9 -9 9 -20z m-187 3 c-7 -2 -19 -2 -25 0 -7 3 -2 5 12 5 14 0 19 -2 13
-5z m-1368 -293 c4 -6 3 -10 -2 -9 -22 4 -25 -2 -7 -15 23 -18 7 -41 -22 -33
-15 4 -14 5 5 6 24 1 24 1 5 22 -16 17 -16 22 -4 29 19 12 18 12 25 0z m179
-37 c-6 -9 -17 -19 -25 -21 -8 -2 -5 2 5 10 13 10 17 21 12 34 -6 15 -5 17 6
6 9 -9 10 -17 2 -29z m-124 2 c0 -14 -3 -25 -7 -25 -5 0 -8 11 -8 25 0 14 3
25 8 25 4 0 7 -11 7 -25z m56 7 c1 -7 0 -8 -3 -2 -8 16 -21 12 -28 -11 -4 -11
-9 -18 -12 -16 -2 3 1 15 7 27 12 22 32 23 36 2z m136 11 c-9 -4 -10 -8 -2
-18 7 -8 7 -16 2 -19 -12 -7 -25 22 -16 35 3 5 11 9 17 8 8 0 8 -2 -1 -6z m49
-24 c-5 -13 -10 -18 -10 -11 -1 7 -5 10 -11 7 -5 -3 -10 -1 -10 4 0 6 7 11 15
11 8 0 15 5 15 12 0 6 2 9 5 6 3 -3 1 -16 -4 -29z m-164 -11 c-3 -8 -6 -5 -6
6 -1 11 2 17 5 13 3 -3 4 -12 1 -19z m-59 -40 c-3 -7 -19 -14 -36 -16 -38 -4
-43 -22 -7 -22 36 0 31 -18 -7 -22 -42 -4 -50 -28 -9 -28 17 0 31 -4 31 -10 0
-5 -21 -10 -46 -10 -39 0 -45 3 -40 16 4 9 11 36 17 60 11 44 12 44 56 44 31
0 43 -4 41 -12z m726 2 c16 -6 26 -17 26 -29 0 -22 -35 -51 -62 -51 -9 0 -21
-8 -27 -17 -24 -43 -21 19 4 95 5 15 25 15 59 2z m117 0 c23 -13 25 -43 4 -60
-9 -7 -13 -21 -10 -31 4 -13 1 -19 -9 -19 -8 0 -18 9 -21 20 -3 11 -10 20 -15
20 -5 0 -12 -9 -15 -20 -3 -11 -13 -20 -20 -20 -11 0 -11 8 1 48 9 26 17 53
20 60 4 15 38 16 65 2z m139 -10 c23 -23 24 -33 9 -63 -16 -29 -28 -37 -64
-37 -56 0 -70 71 -22 105 29 20 53 19 77 -5z m-834 -5 c13 -12 12 -17 -6 -35
-21 -21 -26 -40 -10 -40 6 0 10 -4 10 -10 0 -5 -9 -10 -20 -10 -18 0 -20 6
-18 38 2 32 16 72 26 72 2 0 10 -7 18 -15z m-110 -16 c4 -8 9 -8 17 0 6 6 18
11 26 11 11 0 8 -6 -8 -24 -19 -20 -21 -28 -12 -45 9 -17 9 -21 -3 -21 -8 0
-17 6 -20 13 -5 10 -7 10 -12 0 -3 -7 -12 -13 -20 -13 -13 0 -13 3 0 22 9 12
13 31 10 45 -6 23 9 32 22 12z m194 -1 c0 -4 -8 -12 -19 -17 -10 -6 -22 -22
-25 -36 -7 -26 -26 -35 -26 -11 0 7 5 27 11 43 8 24 16 30 35 29 13 0 24 -4
24 -8z m88 -22 c3 -21 0 -27 -10 -24 -7 3 -22 2 -33 -3 -17 -7 -16 -8 8 -8 15
-1 27 -6 27 -12 0 -16 -62 -6 -73 12 -17 27 17 71 51 67 21 -2 28 -9 30 -32z
m158 20 c6 -17 -10 -69 -24 -74 -7 -2 -9 8 -5 34 5 29 3 36 -8 32 -7 -2 -18
-19 -23 -36 -5 -18 -15 -32 -22 -32 -9 0 -10 8 -4 30 15 53 -18 46 -34 -7 -4
-13 -12 -23 -17 -23 -11 0 -11 6 1 51 l10 35 61 1 c37 1 62 -4 65 -11z m92 5
c21 -13 10 -44 -17 -48 -32 -5 -40 -13 -13 -13 12 0 22 -4 22 -10 0 -5 -13
-10 -29 -10 -37 0 -50 30 -27 65 17 26 41 31 64 16z m432 -256 c0 -25 -4 -45
-10 -45 -5 0 -10 16 -10 35 0 19 -5 35 -11 35 -5 0 -7 5 -4 10 3 6 13 10 21
10 10 0 14 -12 14 -45z m80 34 c0 -6 -7 -9 -15 -6 -8 4 -17 2 -20 -2 -2 -5 5
-11 16 -14 31 -8 22 -52 -11 -52 -20 0 -26 6 -28 28 -2 16 2 35 9 43 14 17 49
19 49 3z m89 -7 c14 -26 3 -60 -21 -67 -24 -8 -48 11 -48 39 0 43 50 63 69 28z
m261 -42 c-29 -57 -37 -44 -8 14 12 26 24 43 26 37 2 -5 -6 -28 -18 -51z
m-171 33 c9 -17 11 -17 25 2 19 27 28 15 24 -31 -3 -33 -5 -36 -13 -19 -13 26
-45 29 -45 4 0 -10 -4 -19 -10 -19 -5 0 -10 18 -10 40 0 42 12 52 29 23z m126
-23 c0 -31 -3 -35 -27 -38 -27 -3 -28 -1 -28 38 0 39 1 41 28 38 24 -3 27 -7
27 -38z m97 11 c-10 -6 -10 -10 2 -21 9 -7 13 -16 10 -21 -7 -12 -44 -11 -44
1 0 5 8 7 18 4 15 -5 15 -4 -2 10 -20 16 -14 36 12 36 13 0 14 -2 4 -9z m-82
-237 c0 -14 -3 -14 -15 -4 -12 10 -19 10 -27 2 -8 -8 -5 -14 14 -21 32 -12 41
-26 33 -51 -5 -15 -15 -20 -41 -20 -28 0 -34 4 -34 22 0 21 1 21 20 3 15 -13
24 -15 31 -8 8 8 3 16 -20 27 -29 15 -40 43 -24 59 3 4 19 7 35 7 19 0 28 -5
28 -16z m254 0 c9 -8 16 -26 16 -39 0 -35 -26 -55 -71 -55 -38 0 -39 1 -39 36
0 21 -4 33 -10 29 -5 -3 -10 -19 -10 -36 0 -45 -27 -37 -32 10 -3 36 -1 40 24
43 38 6 58 -8 58 -42 0 -33 19 -40 40 -16 18 22 8 59 -20 73 l-25 13 27 0 c15
0 34 -7 42 -16z m66 6 c0 -5 -7 -10 -15 -10 -8 0 -15 5 -15 10 0 6 7 10 15 10
8 0 15 -4 15 -10z m120 -22 c1 -27 2 -30 11 -15 5 9 17 17 26 17 15 0 15 -1
-1 -13 -16 -12 -16 -14 4 -40 19 -24 19 -27 4 -27 -9 0 -23 8 -30 18 -13 16
-13 16 -14 0 0 -10 -8 -18 -17 -18 -15 0 -18 9 -18 55 0 46 3 55 18 55 13 0
17 -8 17 -32z m-368 0 c9 -7 18 -28 20 -45 4 -32 4 -33 -34 -33 -32 0 -38 3
-38 21 0 12 8 23 20 26 11 3 20 10 20 15 0 5 -9 6 -20 3 -21 -7 -28 10 -7 18
19 8 22 8 39 -5z m318 -8 c0 -5 -10 -6 -22 -2 -14 3 -19 2 -14 -6 4 -7 13 -12
21 -12 21 0 28 -33 9 -47 -19 -14 -54 -1 -54 19 0 9 3 9 12 0 7 -7 19 -12 28
-12 10 0 5 9 -15 25 -29 24 -29 26 -12 39 19 14 47 12 47 -4z m-72 -30 c0 -30
-4 -40 -17 -40 -12 0 -16 10 -16 40 0 31 4 40 17 40 13 0 17 -9 16 -40z m-758
-21 c-7 -11 -14 -19 -16 -16 -7 7 7 37 17 37 6 0 5 -9 -1 -21z m-50 -14 c-7
-9 -15 -13 -18 -10 -3 2 1 11 8 20 7 9 15 13 18 10 3 -2 -1 -11 -8 -20z m-40
-5 c-6 -11 -15 -20 -21 -20 -6 0 -6 7 1 20 6 11 15 20 21 20 6 0 6 -7 -1 -20z
m-47 -25 c-15 -32 -33 -47 -33 -27 0 19 26 62 37 62 9 0 8 -10 -4 -35z m92
-15 c3 -5 -1 -10 -9 -10 -8 0 -18 5 -21 10 -3 6 1 10 9 10 8 0 18 -4 21 -10z
m50 0 c3 -5 2 -10 -4 -10 -5 0 -13 5 -16 10 -3 6 -2 10 4 10 5 0 13 -4 16 -10z
m465 0 c0 -5 -11 -10 -24 -10 -14 0 -28 -4 -31 -10 -4 -6 5 -10 20 -10 15 0
24 -4 20 -10 -3 -5 -17 -10 -31 -10 -13 0 -24 -4 -24 -10 0 -5 11 -10 25 -10
14 0 25 -4 25 -10 0 -5 -18 -10 -40 -10 -39 0 -40 1 -34 28 16 65 22 72 59 72
19 0 35 -4 35 -10z m134 -6 c3 -8 -1 -22 -9 -30 -18 -18 -19 -34 -3 -34 9 0 9
-3 1 -11 -7 -7 -18 -9 -26 -6 -12 4 -13 14 -7 40 12 57 31 74 44 41z m-99 -14
c5 -8 11 -7 21 1 21 17 30 2 11 -18 -11 -13 -13 -23 -6 -36 8 -13 6 -17 -6
-17 -8 0 -15 5 -15 12 0 9 -3 9 -12 0 -7 -7 -19 -12 -27 -12 -11 0 -11 4 3 19
11 13 15 27 11 40 -7 22 9 29 20 11z m168 -6 c-3 -8 -9 -14 -14 -14 -5 0 -15
-11 -21 -25 -21 -47 -38 -23 -19 27 6 15 17 23 34 24 18 1 24 -2 20 -12z m61
10 c9 -3 16 -15 16 -25 0 -14 -8 -19 -27 -20 -24 -2 -25 -2 -5 -6 32 -6 27
-23 -7 -23 -38 0 -51 32 -25 61 19 21 24 22 48 13z m144 -12 c6 -19 -7 -62
-19 -62 -5 0 -8 10 -7 23 4 29 -15 35 -22 6 -3 -12 -12 -25 -19 -27 -10 -3
-12 2 -7 23 5 20 3 26 -6 23 -7 -3 -14 -14 -16 -26 -2 -12 -10 -22 -18 -22
-11 0 -14 6 -9 23 4 12 9 29 11 38 3 13 16 16 56 15 31 -1 53 -7 56 -14z m80
6 c22 -22 13 -38 -20 -39 -24 -1 -27 -3 -10 -6 32 -6 27 -25 -5 -21 -33 4 -43
37 -18 62 19 19 37 20 53 4z m-928 -46 c0 -48 -16 -57 -107 -61 l-73 -3 0 39
c0 21 5 44 12 51 7 7 43 12 90 12 l78 0 0 -38z m-42 -210 c3 -11 0 -12 -17 -3
-22 12 -41 7 -41 -9 0 -5 11 -12 25 -16 32 -8 48 -29 40 -53 -7 -23 -37 -35
-65 -26 -20 6 -28 35 -10 35 6 0 10 -4 10 -10 0 -13 37 -13 45 0 4 6 -10 17
-29 25 -27 12 -36 21 -36 39 0 14 6 27 13 30 21 9 60 2 65 -12z m62 -16 c0 -2
-7 -6 -15 -10 -8 -3 -15 -1 -15 4 0 6 7 10 15 10 8 0 15 -2 15 -4z m-7 -43
c-7 -2 -13 -11 -13 -18 0 -7 6 -16 13 -18 6 -3 2 -6 -10 -6 -16 -1 -23 5 -23
18 0 18 13 29 35 29 6 0 4 -2 -2 -5z"/>
<path d="M16330 9305 c0 -8 9 -15 20 -15 11 0 20 7 20 15 0 8 -9 15 -20 15
-11 0 -20 -7 -20 -15z"/>
<path d="M16440 9304 c0 -10 7 -14 22 -12 32 5 35 28 4 28 -17 0 -26 -5 -26
-16z"/>
<path d="M16560 9305 c-18 -22 -8 -50 19 -50 28 0 47 25 38 49 -8 20 -40 21
-57 1z"/>
<path d="M15915 9290 c-3 -5 3 -10 14 -10 12 0 21 5 21 10 0 6 -6 10 -14 10
-8 0 -18 -4 -21 -10z"/>
<path d="M16175 9290 c-3 -5 3 -10 15 -10 12 0 18 5 15 10 -3 6 -10 10 -15 10
-5 0 -12 -4 -15 -10z"/>
<path d="M16685 9041 c-3 -5 -1 -12 5 -16 12 -7 30 2 30 16 0 12 -27 12 -35 0z"/>
<path d="M16771 9073 c-12 -24 2 -48 23 -40 20 8 21 31 2 46 -12 10 -17 8 -25
-6z"/>
<path d="M16995 9070 c-3 -5 1 -10 9 -10 9 0 16 5 16 10 0 6 -4 10 -9 10 -6 0
-13 -4 -16 -10z"/>
<path d="M16998 9028 c9 -9 15 -9 24 0 9 9 7 12 -12 12 -19 0 -21 -3 -12 -12z"/>
<path d="M17095 8761 c-3 -5 -1 -12 5 -16 5 -3 10 1 10 9 0 18 -6 21 -15 7z"/>
<path d="M17310 8650 c0 -5 4 -10 9 -10 6 0 13 5 16 10 3 6 -1 10 -9 10 -9 0
-16 -4 -16 -10z"/>
<path d="M17530 8650 c0 -5 5 -10 10 -10 6 0 10 5 10 10 0 6 -4 10 -10 10 -5
0 -10 -4 -10 -10z"/>
<path d="M16517 8633 c-11 -10 -8 -41 4 -49 18 -11 34 13 20 30 -9 11 -9 15 1
19 9 4 8 6 -3 6 -9 1 -19 -2 -22 -6z"/>
<path d="M16560 8625 c0 -8 6 -15 13 -15 8 0 7 -3 -3 -10 -18 -11 -7 -25 15
-17 18 8 20 37 3 37 -9 0 -8 4 2 10 12 8 11 10 -7 10 -14 0 -23 -6 -23 -15z"/>
<path d="M19190 9838 c21 -37 50 -67 50 -52 -1 5 -17 27 -36 49 l-35 40 21
-37z"/>
<path d="M19070 9846 c0 -2 8 -10 18 -17 15 -13 16 -12 3 4 -13 16 -21 21 -21
13z"/>
<path d="M18070 9681 c0 -6 4 -13 10 -16 6 -3 7 1 4 9 -7 18 -14 21 -14 7z"/>
<path d="M19284 9680 c3 -8 15 -39 27 -68 20 -45 21 -54 9 -62 -8 -5 -18 -6
-22 -4 -4 3 -8 0 -8 -7 0 -9 -3 -9 -14 0 -12 10 -12 6 0 -35 8 -26 14 -60 14
-76 0 -27 1 -28 16 -14 24 25 44 20 45 -11 1 -25 2 -24 11 9 12 45 -9 136 -53
223 -16 33 -27 53 -25 45z"/>
<path d="M8520 9250 l0 -260 40 0 c25 0 43 5 46 14 4 11 14 10 53 -7 114 -47
211 34 211 178 0 133 -98 215 -204 171 -21 -9 -40 -16 -42 -16 -2 0 -4 41 -4
90 l0 90 -50 0 -50 0 0 -260z m220 10 c16 -16 20 -33 20 -90 0 -58 -3 -72 -22
-90 -24 -22 -53 -25 -92 -10 -25 9 -26 12 -26 100 0 85 1 91 23 100 37 15 76
11 97 -10z"/>
<path d="M8950 9276 c0 -232 0 -235 23 -262 19 -22 32 -27 69 -27 56 0 68 7
68 44 0 21 -5 29 -18 29 -39 0 -42 16 -42 237 l0 213 -50 0 -50 0 0 -234z"/>
<path d="M9960 9421 l0 -89 -43 16 c-111 40 -207 -44 -207 -182 0 -134 99
-214 210 -170 32 13 45 14 48 6 2 -7 23 -12 48 -12 l44 0 0 260 0 260 -50 0
-50 0 0 -89z m-19 -151 c17 -9 19 -22 19 -101 0 -87 -1 -90 -26 -99 -76 -29
-114 4 -114 100 0 53 4 71 20 88 22 24 68 29 101 12z"/>
<path d="M6704 9467 c-3 -8 -4 -117 -2 -243 l3 -229 53 -3 52 -3 0 90 0 91 68
0 c90 0 130 21 161 83 45 91 1 192 -93 216 -66 16 -235 15 -242 -2z m220 -88
c19 -15 26 -29 26 -56 0 -54 -23 -73 -87 -73 l-53 0 0 75 0 75 44 0 c29 0 52
-7 70 -21z"/>
<path d="M7891 9431 c-6 -11 -11 -30 -11 -43 0 -30 -11 -45 -35 -49 -14 -3
-21 -13 -23 -37 -3 -29 -1 -32 22 -32 l26 0 0 -99 c0 -155 21 -186 125 -185
66 1 75 7 75 50 0 33 -1 34 -40 34 -51 0 -60 17 -60 119 l0 80 48 3 c47 3 47
3 50 41 l3 37 -50 0 -50 0 -3 48 c-3 45 -4 47 -35 50 -23 2 -34 -2 -42 -17z"/>
<path d="M10571 9431 c-6 -11 -11 -30 -11 -43 0 -30 -11 -45 -35 -49 -14 -3
-21 -13 -23 -37 -3 -28 0 -32 22 -32 24 0 24 0 28 -116 3 -113 4 -116 32 -140
25 -22 36 -25 95 -22 l66 3 3 36 3 37 -42 0 c-23 1 -46 7 -50 14 -5 7 -9 52
-9 100 l0 87 48 3 c47 3 47 3 50 41 l3 37 -50 0 -50 0 -3 48 c-3 45 -4 47 -35
50 -23 2 -34 -2 -42 -17z"/>
<path d="M11726 9435 c-9 -9 -16 -28 -16 -43 0 -34 -10 -49 -35 -53 -30 -6
-28 -63 2 -67 20 -3 21 -9 25 -118 3 -113 4 -116 32 -140 25 -22 36 -25 95
-22 l66 3 3 37 3 37 -41 -2 c-27 -1 -44 4 -50 13 -6 8 -10 54 -10 102 l0 87
48 3 c47 3 47 3 50 41 l3 37 -50 0 -50 0 -3 48 c-3 42 -6 47 -29 50 -15 2 -34
-4 -43 -13z"/>
<path d="M7224 9350 c-44 -14 -92 -66 -105 -115 -14 -49 -6 -132 15 -173 55
-107 245 -110 303 -4 49 88 32 208 -38 264 -40 33 -119 45 -175 28z m107 -89
c19 -15 24 -30 27 -82 3 -54 1 -68 -18 -91 -26 -34 -71 -37 -100 -8 -30 30
-29 144 2 177 26 28 58 29 89 4z"/>
<path d="M8180 9347 c-42 -11 -45 -14 -45 -47 0 -26 4 -34 15 -31 8 2 43 6 77
8 73 7 93 -4 93 -52 l0 -32 -55 5 c-97 8 -155 -34 -155 -114 0 -89 88 -131
178 -85 36 18 42 19 42 6 0 -13 9 -15 43 -13 l42 3 0 135 c0 156 -5 181 -41
205 -34 22 -134 29 -194 12z m138 -243 c3 -26 -1 -33 -27 -43 -46 -20 -75 -11
-79 24 -5 37 21 57 68 53 31 -3 35 -6 38 -34z"/>
<path d="M9240 9338 c-56 -29 -80 -71 -87 -148 -13 -143 66 -220 211 -207 87
8 96 13 96 53 l0 33 -77 -5 c-70 -6 -81 -4 -105 16 -16 12 -28 30 -28 40 0 18
10 20 108 22 l107 3 3 45 c8 102 -36 157 -131 166 -41 4 -61 1 -97 -18z m120
-68 c11 -11 20 -29 20 -40 0 -18 -7 -20 -65 -20 -58 0 -65 2 -65 19 0 23 45
61 71 61 11 0 28 -9 39 -20z"/>
<path d="M10215 9347 c-46 -11 -50 -14 -53 -45 l-3 -33 80 7 c92 8 111 -1 111
-50 l0 -31 -50 3 c-98 7 -160 -35 -160 -110 0 -50 13 -74 50 -93 39 -20 83
-19 129 5 33 16 40 17 45 5 9 -23 72 -20 79 4 11 42 1 266 -12 293 -26 51
-111 69 -216 45z m133 -243 c3 -26 -1 -33 -27 -43 -46 -20 -75 -11 -79 24 -5
37 21 57 68 53 31 -3 35 -6 38 -34z"/>
<path d="M10865 9347 c-46 -11 -50 -14 -53 -45 l-3 -33 80 7 c93 8 111 -1 111
-51 l0 -32 -49 5 c-97 9 -161 -35 -161 -110 0 -50 13 -74 50 -93 39 -20 83
-19 129 5 33 16 40 17 45 5 7 -19 72 -20 79 -1 3 8 5 72 4 142 -3 135 -11 169
-49 193 -30 18 -124 23 -183 8z m133 -243 c3 -26 -1 -33 -27 -43 -42 -18 -74
-11 -82 19 -9 39 16 62 65 58 38 -3 41 -6 44 -34z"/>
<path d="M11434 9350 c-48 -15 -77 -53 -77 -101 0 -52 27 -80 108 -113 106
-43 77 -97 -40 -75 -30 5 -59 8 -64 5 -7 -5 -8 -30 -2 -57 2 -11 78 -29 120
-29 86 0 143 46 143 115 0 52 -23 79 -89 105 -70 28 -88 43 -79 66 5 14 17 16
76 12 l70 -5 0 32 c0 21 -6 35 -16 39 -30 12 -119 15 -150 6z"/>
<path d="M12063 9350 c-75 -24 -120 -108 -110 -208 7 -71 33 -112 87 -139 112
-58 233 -4 258 114 13 58 0 137 -27 173 -40 54 -136 82 -208 60z m113 -91 c12
-14 19 -40 22 -82 5 -75 -20 -117 -69 -117 -59 0 -79 46 -70 161 2 26 40 59
70 59 15 0 36 -9 47 -21z"/>
<path d="M12750 9354 c-60 -11 -80 -26 -80 -55 l0 -29 80 6 c92 8 110 -1 110
-51 l0 -32 -49 5 c-97 9 -161 -35 -161 -110 0 -50 13 -74 50 -93 39 -20 83
-19 129 5 33 16 40 17 45 5 3 -9 19 -15 41 -15 l35 0 0 145 c0 156 -7 186 -49
205 -29 13 -112 21 -151 14z m108 -249 c4 -36 -18 -55 -65 -55 -21 0 -36 6
-42 18 -5 9 -11 20 -13 23 -1 4 6 17 16 28 15 17 29 21 60 19 37 -3 41 -6 44
-33z"/>
<path d="M13135 9353 c-11 -3 -34 -18 -52 -35 -77 -74 -66 -246 19 -298 39
-24 98 -26 138 -5 29 15 30 15 30 -9 0 -72 -50 -103 -139 -86 -73 14 -71 14
-71 -21 0 -25 6 -32 37 -46 55 -22 159 -15 201 15 62 45 67 65 67 282 l0 195
-38 3 c-25 2 -39 -1 -43 -11 -5 -13 -9 -13 -34 0 -34 16 -86 24 -115 16z m123
-81 c9 -6 12 -33 10 -97 l-3 -89 -33 -10 c-22 -6 -40 -5 -57 2 -46 21 -57 140
-18 185 17 18 78 23 101 9z"/>
<path d="M13575 9351 c-84 -21 -120 -75 -120 -181 0 -93 21 -135 85 -167 49
-25 107 -29 176 -12 41 11 44 14 44 44 l0 33 -77 -5 c-70 -5 -81 -3 -105 17
-17 13 -28 31 -28 45 0 24 2 24 108 27 l107 3 0 56 c0 66 -18 105 -56 125 -35
18 -96 25 -134 15z m83 -77 c12 -8 22 -26 22 -40 0 -23 -2 -24 -69 -24 -64 0
-69 1 -64 20 7 25 49 60 72 60 9 0 27 -7 39 -16z"/>
<path d="M7550 9171 l0 -181 50 0 49 0 3 128 3 127 63 9 62 10 0 44 0 45 -40
-6 c-21 -3 -52 -15 -69 -26 l-30 -21 -3 22 c-2 19 -10 24 -45 26 l-43 3 0
-180z"/>
<path d="M12380 9171 l0 -181 50 0 50 0 0 124 c0 75 4 127 10 131 6 4 35 9 65
12 l55 6 0 45 0 45 -40 -6 c-21 -3 -52 -15 -67 -27 l-28 -22 -5 24 c-5 19 -13
24 -48 26 l-42 3 0 -180z"/>
<path d="M19259 9247 c-44 -41 -130 -100 -255 -174 -103 -62 -193 -114 -198
-116 -6 -3 -8 -7 -5 -11 10 -10 371 210 445 271 50 42 97 95 82 93 -2 -1 -33
-29 -69 -63z"/>
<path d="M17785 8520 c3 -5 8 -10 11 -10 2 0 4 5 4 10 0 6 -5 10 -11 10 -5 0
-7 -4 -4 -10z"/>
<path d="M17993 8465 c0 -38 2 -53 4 -32 2 20 2 52 0 70 -2 17 -4 1 -4 -38z"/>
<path d="M6829 8473 c-13 -34 -26 -43 -63 -43 -28 0 -28 -1 -22 -42 6 -37 4
-44 -21 -64 l-28 -22 27 -29 c22 -23 27 -37 25 -68 -2 -39 -1 -40 35 -43 32
-3 38 -8 48 -38 13 -39 13 -39 51 -17 27 16 31 16 64 0 20 -9 37 -17 40 -17 2
0 9 15 15 34 10 30 16 35 48 38 36 3 37 4 35 43 -2 31 3 45 25 68 l27 29 -28
23 c-24 22 -27 29 -21 65 6 39 6 40 -24 40 -33 0 -57 18 -67 50 -8 24 -18 25
-55 4 -26 -16 -29 -16 -51 0 -33 23 -48 20 -60 -11z m60 -25 c15 -9 26 -9 47
1 25 11 30 10 41 -6 25 -36 34 -43 57 -43 19 0 22 -4 18 -31 -3 -21 2 -37 17
-53 l21 -23 -21 -19 c-16 -14 -20 -27 -16 -51 5 -30 3 -32 -26 -35 -23 -2 -35
-10 -45 -30 -12 -27 -14 -27 -40 -14 -23 12 -31 12 -54 0 -25 -13 -28 -13 -40
13 -10 21 -22 29 -45 31 -29 3 -31 5 -26 35 4 24 0 37 -16 51 l-21 19 21 23
c15 16 20 32 17 53 -4 25 -1 30 23 35 16 3 36 17 45 31 19 29 18 29 43 13z"/>
<path d="M6832 8368 c-7 -7 -12 -24 -12 -38 0 -51 52 -69 72 -25 22 49 -25 98
-60 63z m38 -38 c0 -11 -4 -20 -10 -20 -5 0 -10 9 -10 20 0 11 5 20 10 20 6 0
10 -9 10 -20z"/>
<path d="M6900 8300 c-35 -70 -38 -80 -22 -80 11 0 25 14 35 33 13 26 16 28
16 11 1 -28 24 -46 53 -42 20 3 23 9 23 43 0 34 -3 40 -23 43 -13 2 -30 -2
-38 -8 -18 -16 -18 -2 1 30 17 29 19 50 5 50 -5 0 -28 -36 -50 -80z m76 -47
c-11 -11 -19 6 -11 24 8 17 8 17 12 0 3 -10 2 -21 -1 -24z"/>
<path d="M17710 8485 c-9 -11 -16 -13 -24 -5 -5 5 -53 10 -107 10 -79 0 -98
-3 -103 -16 -8 -21 -8 -24 4 -24 6 0 9 6 8 13 -4 19 191 20 199 1 3 -8 0 -21
-6 -28 -9 -11 -9 -15 1 -19 10 -4 8 -10 -6 -21 -12 -9 -14 -16 -7 -16 15 0 41
-25 41 -40 0 -6 -5 -8 -12 -4 -7 4 -8 3 -4 -5 9 -14 26 -5 26 14 0 7 -7 21
-16 30 -12 12 -13 19 -5 29 9 11 9 15 -1 19 -10 3 -10 8 -2 17 9 9 14 4 22
-18 6 -17 8 -33 5 -36 -4 -3 -1 -6 5 -6 15 0 15 -1 -3 50 -19 53 -19 50 6 50
15 0 19 -4 15 -16 -3 -9 -3 -21 1 -27 4 -7 9 -2 13 13 4 19 13 26 35 28 l30 4
-22 -21 c-11 -11 -24 -34 -28 -51 -4 -16 -11 -30 -16 -30 -5 0 -9 -13 -9 -30
0 -20 -5 -30 -15 -30 -8 0 -15 -4 -15 -10 0 -5 3 -10 8 -10 10 1 48 30 38 30
-5 0 -2 8 5 17 10 11 10 14 2 9 -18 -10 -16 9 2 24 9 7 15 8 15 2 0 -16 31
-23 46 -11 9 7 18 8 27 2 6 -5 23 -10 37 -11 14 -1 20 2 13 6 -8 5 -9 13 -3
22 6 8 10 25 10 37 0 26 -39 58 -54 43 -14 -14 -26 -12 -22 3 1 6 1 9 -1 5 -3
-4 -16 0 -30 9 -20 13 -29 14 -44 5 -11 -7 -20 -8 -24 -2 -9 14 -21 12 -35 -5z
m197 -41 c3 -8 2 -25 -1 -38 -5 -22 -11 -24 -58 -23 -33 1 -53 7 -56 16 -3 10
2 11 19 6 17 -4 20 -3 10 3 -8 6 -10 15 -5 23 6 10 3 10 -11 -1 -17 -14 -18
-14 -7 6 9 16 21 21 57 22 31 0 48 -4 52 -14z"/>
<path d="M17870 8420 c0 -11 5 -20 10 -20 6 0 10 9 10 20 0 11 -4 20 -10 20
-5 0 -10 -9 -10 -20z"/>
<path d="M17018 8483 c7 -3 16 -2 19 1 4 3 -2 6 -13 5 -11 0 -14 -3 -6 -6z"/>
<path d="M17052 8395 c0 -68 2 -81 8 -51 4 22 4 62 0 90 -7 45 -8 39 -8 -39z"/>
<path d="M17620 8445 c0 -8 7 -15 15 -15 9 0 12 6 9 15 -4 8 -10 15 -15 15 -5
0 -9 -7 -9 -15z"/>
<path d="M17003 8375 c0 -38 2 -53 4 -32 2 20 2 52 0 70 -2 17 -4 1 -4 -38z"/>
<path d="M17470 8418 c0 -19 2 -20 10 -8 13 19 13 30 0 30 -5 0 -10 -10 -10
-22z"/>
<path d="M17560 8430 c-12 -7 -12 -11 -2 -20 6 -5 10 -7 7 -4 -3 4 0 13 6 21
13 15 10 16 -11 3z"/>
<path d="M7290 8300 l0 -120 75 0 c60 0 75 3 75 15 0 12 -13 15 -60 15 l-60 0
0 105 c0 87 -3 105 -15 105 -12 0 -15 -20 -15 -120z"/>
<path d="M8010 8301 c0 -101 2 -121 15 -121 11 0 15 12 15 45 l0 45 39 0 c76
0 117 66 72 121 -14 18 -31 23 -80 27 l-61 4 0 -121z m101 79 c24 -13 26 -65
3 -74 -9 -3 -29 -6 -45 -6 -27 0 -29 3 -29 38 0 21 3 42 7 45 10 10 42 8 64
-3z"/>
<path d="M8330 8405 c0 -21 30 -31 40 -14 11 17 3 29 -21 29 -10 0 -19 -7 -19
-15z"/>
<path d="M17618 8413 c7 -3 16 -2 19 1 4 3 -2 6 -13 5 -11 0 -14 -3 -6 -6z"/>
<path d="M17108 8403 c7 -3 16 -2 19 1 4 3 -2 6 -13 5 -11 0 -14 -3 -6 -6z"/>
<path d="M17217 8392 c6 -4 13 -25 15 -47 l3 -40 -45 -6 c-25 -3 -39 -7 -32
-7 6 -1 14 -1 15 1 2 1 12 -4 21 -12 9 -8 13 -17 9 -20 -17 -13 -85 -102 -81
-107 3 -2 24 20 48 51 23 30 46 55 51 55 5 0 9 8 9 19 0 10 7 24 15 31 12 10
13 15 3 28 -11 12 -10 16 0 20 10 3 9 8 -4 23 -9 10 -22 19 -28 19 -7 0 -7 -3
1 -8z m3 -112 c0 -5 -2 -10 -4 -10 -3 0 -8 5 -11 10 -3 6 -1 10 4 10 6 0 11
-4 11 -10z"/>
<path d="M17491 8396 c12 -10 59 -15 59 -6 0 5 -14 10 -32 10 -17 0 -29 -2
-27 -4z"/>
<path d="M17510 8370 c12 -8 12 -10 -2 -15 -9 -4 -19 -12 -21 -20 -4 -10 1
-10 23 2 31 15 31 43 1 43 -14 0 -14 -2 -1 -10z"/>
<path d="M17568 8373 c7 -3 16 -2 19 1 4 3 -2 6 -13 5 -11 0 -14 -3 -6 -6z"/>
<path d="M17608 8373 c7 -3 16 -2 19 1 4 3 -2 6 -13 5 -11 0 -14 -3 -6 -6z"/>
<path d="M17088 8340 c2 -16 6 -30 8 -30 2 0 4 14 4 30 0 17 -4 30 -8 30 -5 0
-7 -13 -4 -30z"/>
<path d="M17120 8359 c0 -5 6 -7 13 -3 10 6 10 4 0 -7 -7 -7 -13 -21 -13 -30
0 -10 -5 -20 -10 -22 -6 -3 -5 -4 2 -3 7 1 15 13 17 27 3 22 4 23 12 4 6 -16
8 -14 8 13 1 22 -4 32 -14 32 -8 0 -15 -5 -15 -11z"/>
<path d="M17188 8363 c7 -3 16 -2 19 1 4 3 -2 6 -13 5 -11 0 -14 -3 -6 -6z"/>
<path d="M7487 8340 c-22 -18 -27 -29 -27 -66 0 -55 13 -82 47 -95 32 -12 89
5 103 31 16 30 12 96 -7 119 -27 33 -82 38 -116 11z m84 -26 c19 -23 15 -85
-7 -101 -24 -18 -30 -17 -55 8 -17 17 -20 29 -15 57 8 51 49 70 77 36z"/>
<path d="M8463 8350 c-29 -12 -43 -40 -43 -89 0 -57 27 -83 82 -79 53 4 63 26
12 26 -59 0 -83 50 -48 101 12 17 24 22 45 19 31 -5 41 15 13 26 -20 8 -34 7
-61 -4z"/>
<path d="M8596 8339 c-21 -17 -26 -29 -26 -65 0 -55 13 -82 47 -95 31 -12 93
-1 93 16 0 8 -16 12 -45 11 -31 -1 -49 4 -55 14 -20 32 -11 40 44 40 59 0 72
12 56 54 -18 48 -71 59 -114 25z m82 -36 c3 -21 -1 -23 -37 -23 -45 0 -46 2
-30 31 15 29 63 22 67 -8z"/>
<path d="M8774 8350 c-48 -19 -36 -70 22 -95 25 -10 34 -20 32 -32 -3 -14 -13
-18 -47 -16 -49 2 -52 -16 -5 -29 39 -11 83 8 90 38 8 30 -8 50 -52 64 -49 16
-43 45 9 45 38 0 51 18 21 29 -21 8 -44 7 -70 -4z"/>
<path d="M17625 8350 c-4 -7 3 -8 22 -4 38 9 42 14 10 14 -14 0 -29 -5 -32
-10z"/>
<path d="M7659 8268 c21 -64 32 -84 48 -86 16 -2 22 6 32 53 7 30 16 55 21 55
5 0 14 -25 21 -55 10 -47 16 -55 32 -53 16 2 27 22 48 86 26 76 26 82 9 82
-14 0 -22 -15 -36 -67 -19 -72 -19 -72 -44 25 -17 65 -42 57 -65 -20 l-18 -63
-19 63 c-14 47 -23 62 -38 62 -18 0 -17 -5 9 -82z"/>
<path d="M8200 8264 c0 -77 2 -84 20 -84 17 0 19 8 22 67 3 66 4 68 32 73 54
9 41 28 -18 28 l-56 -1 0 -83z"/>
<path d="M8340 8265 c0 -69 3 -85 15 -85 12 0 15 16 15 85 0 69 -3 85 -15 85
-12 0 -15 -16 -15 -85z"/>
<path d="M17450 8339 c0 -5 5 -7 10 -4 6 3 10 8 10 11 0 2 -4 4 -10 4 -5 0
-10 -5 -10 -11z"/>
<path d="M17180 8330 c0 -6 7 -10 15 -10 8 0 15 2 15 4 0 2 -7 6 -15 10 -8 3
-15 1 -15 -4z"/>
<path d="M17526 8325 c-18 -7 -24 -15 -17 -19 6 -4 17 -4 24 1 6 4 41 8 76 8
48 0 65 4 68 15 3 11 2 11 -4 3 -9 -13 -91 -15 -108 -3 -5 4 -23 2 -39 -5z"/>
<path d="M17018 8293 c7 -3 16 -2 19 1 4 3 -2 6 -13 5 -11 0 -14 -3 -6 -6z"/>
<path d="M16975 8260 c-3 -6 1 -7 9 -4 18 7 21 14 7 14 -6 0 -13 -4 -16 -10z"/>
<path d="M17030 8262 c0 -7 5 -12 10 -12 16 0 29 -43 18 -57 -14 -18 -48 -16
-48 2 0 9 6 12 18 9 16 -5 16 -5 -1 6 -9 6 -15 15 -12 20 3 5 0 12 -6 15 -7 5
-9 -6 -7 -31 3 -37 5 -39 38 -39 34 0 35 2 38 40 2 22 0 36 -4 32 -4 -4 -16 0
-26 10 -11 9 -18 11 -18 5z"/>
<path d="M17248 8259 c-13 -7 -18 -23 -18 -55 l0 -44 30 27 c33 29 38 43 14
43 -8 0 -13 -4 -10 -9 3 -5 -2 -15 -12 -22 -15 -13 -16 -12 -4 3 10 13 10 17
0 21 -20 9 19 36 42 30 25 -7 26 -40 3 -65 -14 -15 -14 -18 -1 -18 8 0 20 12
26 26 7 14 16 23 21 19 5 -3 12 -1 16 4 3 6 -3 8 -15 6 -12 -2 -20 1 -20 10 0
14 -30 35 -47 35 -4 0 -16 -5 -25 -11z"/>
<path d="M17330 8260 c0 -5 5 -10 10 -10 6 0 10 5 10 10 0 6 -4 10 -10 10 -5
0 -10 -4 -10 -10z"/>
<path d="M17098 8213 c-2 -37 -8 -50 -25 -59 -33 -16 -83 -6 -93 20 -6 14 -9
16 -9 6 -1 -22 19 -40 45 -40 12 0 25 -6 27 -12 4 -10 6 -10 6 -1 1 7 7 10 14
7 22 -8 47 29 50 75 2 23 0 44 -4 47 -4 2 -9 -17 -11 -43z"/>
<path d="M17190 8195 c-11 -13 -10 -14 4 -9 9 3 16 10 16 15 0 13 -6 11 -20
-6z"/>
<path d="M17991 8194 c0 -11 3 -14 6 -6 3 7 2 16 -1 19 -3 4 -6 -2 -5 -13z"/>
<path d="M19740 8190 c0 -6 7 -10 15 -10 8 0 15 2 15 4 0 2 -7 6 -15 10 -8 3
-15 1 -15 -4z"/>
<path d="M17324 8165 c-4 -10 -21 -15 -53 -15 -37 -1 -42 -3 -28 -11 10 -6 25
-8 33 -5 8 3 14 0 14 -7 0 -7 11 0 24 15 13 15 27 24 32 20 4 -4 4 -1 0 6 -9
16 -15 15 -22 -3z"/>
<path d="M17154 8149 c-9 -10 -12 -19 -6 -19 6 0 13 4 17 9 10 17 46 8 40 -9
-5 -11 -3 -12 6 -3 14 14 6 29 -20 36 -12 3 -27 -3 -37 -14z"/>
<path d="M17970 8160 c0 -6 -4 -9 -8 -6 -5 3 -9 -1 -9 -9 0 -19 11 -19 26 -1
8 10 9 16 1 21 -5 3 -10 1 -10 -5z"/>
<path d="M17538 8138 c8 -9 10 -23 6 -30 -4 -7 2 -4 14 6 23 20 29 32 12 21
-6 -4 -19 -1 -28 7 -15 12 -16 11 -4 -4z"/>
<path d="M17800 8140 c-44 -7 -44 -7 18 -8 40 -1 61 2 57 8 -3 6 -12 9 -18 8
-7 0 -32 -4 -57 -8z"/>
<path d="M17100 8130 c-9 -6 -10 -10 -3 -10 6 0 15 5 18 10 8 12 4 12 -15 0z"/>
<path d="M17175 8130 c-3 -5 -1 -10 4 -10 6 0 11 5 11 10 0 6 -2 10 -4 10 -3
0 -8 -4 -11 -10z"/>
<path d="M17180 8100 c0 -5 5 -10 11 -10 5 0 7 5 4 10 -3 6 -8 10 -11 10 -2 0
-4 -4 -4 -10z"/>
<path d="M17283 8089 c11 -7 23 -7 35 0 14 9 11 10 -18 10 -29 0 -32 -1 -17
-10z"/>
<path d="M17499 8063 l-24 -28 28 24 c25 23 32 31 24 31 -2 0 -14 -12 -28 -27z"/>
<path d="M17204 8053 c-13 -14 -22 -29 -19 -32 3 -3 19 9 36 27 16 18 25 32
19 32 -6 0 -22 -12 -36 -27z"/>
<path d="M17460 8060 c-9 -6 -10 -10 -3 -10 6 0 15 5 18 10 8 12 4 12 -15 0z"/>
<path d="M16968 8053 c7 -3 16 -2 19 1 4 3 -2 6 -13 5 -11 0 -14 -3 -6 -6z"/>
<path d="M16968 8033 c6 -2 18 -2 25 0 6 3 1 5 -13 5 -14 0 -19 -2 -12 -5z"/>
<path d="M17095 8030 c-27 -7 -27 -8 -5 -8 14 0 39 4 55 8 27 7 27 8 5 8 -14
0 -38 -4 -55 -8z"/>
<path d="M17360 8028 c0 -5 28 -8 62 -8 34 0 59 3 55 6 -8 9 -117 10 -117 2z"/>
<path d="M17238 8014 c-3 -2 -50 -5 -104 -5 -62 -1 -92 -4 -79 -9 26 -11 422
-12 429 -2 3 5 -47 10 -112 11 -64 1 -119 4 -123 6 -3 3 -8 2 -11 -1z"/>
<path d="M21190 7869 c-1071 -45 -1401 -52 -2425 -52 -1019 0 -1909 17 -2515
49 -116 6 -124 6 -111 -10 11 -13 16 -14 22 -5 5 9 11 8 24 -4 9 -10 25 -17
36 -17 10 0 19 -3 19 -8 0 -4 20 -16 45 -27 25 -11 45 -23 45 -26 0 -4 28 -17
63 -29 34 -13 76 -29 92 -35 36 -15 57 -22 68 -23 4 0 18 -7 31 -15 12 -9 44
-18 69 -22 25 -4 52 -14 58 -21 7 -8 20 -12 31 -8 10 3 25 0 33 -6 8 -6 19 -9
25 -5 5 3 10 2 10 -3 0 -9 33 -15 165 -28 33 -3 62 -9 65 -13 3 -4 14 -8 25
-8 51 -3 150 -12 150 -14 0 -1 11 -3 25 -5 14 -1 39 -5 55 -8 75 -14 345 -36
500 -41 94 -3 253 -8 355 -11 235 -7 1248 -7 1260 1 5 3 53 6 107 6 134 0 565
26 636 38 32 6 64 8 72 4 8 -3 15 0 15 6 0 6 6 8 13 6 6 -3 64 2 127 10 63 9
158 21 210 27 52 5 102 13 110 16 8 3 19 4 24 3 5 -1 26 5 48 14 21 8 51 15
66 15 15 0 32 4 38 10 5 5 50 17 99 26 50 9 95 21 102 26 7 5 21 7 31 4 13 -5
22 -1 26 10 4 10 12 14 22 10 9 -3 21 -3 27 1 6 4 30 9 52 11 22 2 73 14 113
28 40 13 93 29 118 34 25 6 53 17 61 25 8 8 22 15 32 15 10 0 21 3 25 8 4 4
12 7 17 7 5 0 9 4 8 9 0 5 12 15 28 22 24 11 6 12 -122 12 -82 -1 -229 -5
-325 -9z"/>
<path d="M14390 7079 c-1 -47 113 -110 286 -159 509 -143 1520 -241 2989 -290
377 -13 1817 -13 2190 0 1678 57 2766 177 3167 349 53 22 118 77 118 98 0 10
-13 4 -39 -20 -130 -117 -709 -232 -1521 -301 -902 -77 -1722 -108 -2830 -108
-1266 0 -2344 50 -3218 147 -599 67 -1075 186 -1131 282 -9 15 -10 16 -11 2z"/>
</g>
</svg>
