<?xml version="1.0" standalone="no"?>
<!DOCTYPE svg PUBLIC "-//W3C//DTD SVG 20010904//EN"
 "http://www.w3.org/TR/2001/REC-SVG-20010904/DTD/svg10.dtd">
<svg version="1.0" xmlns="http://www.w3.org/2000/svg"
 width="3000.000000pt" height="1200.000000pt" viewBox="0 0 3000.000000 1200.000000"
 preserveAspectRatio="xMidYMid meet">

<g transform="translate(0.000000,1200.000000) scale(0.100000,-0.100000)"
fill="#000000" stroke="none">
<path d="M18700 11546 c-36 -8 -127 -17 -203 -21 -135 -7 -159 -14 -139 -38 6
-7 12 -23 14 -37 3 -25 4 -25 131 -31 70 -3 132 -10 137 -15 10 -10 16 -211 6
-221 -3 -4 -6 -14 -6 -24 0 -13 -10 -20 -37 -24 -55 -9 -116 -26 -129 -36 -8
-6 -14 -79 -19 -202 -8 -220 0 -195 -130 -407 -104 -170 -125 -213 -165 -330
-37 -111 -67 -329 -72 -519 l-3 -124 69 -18 c38 -10 73 -23 78 -31 5 -7 7
-463 6 -1049 l-3 -1036 137 -7 c75 -4 355 -6 623 -6 268 1 488 0 490 -2 2 -2
6 -26 8 -53 4 -42 8 -51 28 -56 46 -13 564 -10 577 3 8 8 12 59 12 163 l0 151
-72 -9 c-40 -5 -170 -7 -288 -4 l-215 4 -3 -106 c-2 -58 -6 -108 -8 -110 -2
-2 -4 48 -4 112 0 93 -3 117 -14 117 -17 0 -22 29 -36 195 -6 72 -28 326 -50
565 -22 239 -55 617 -75 840 -19 223 -38 426 -41 453 l-6 47 166 0 166 0 -6
73 c-10 126 -34 290 -55 367 -24 88 -102 248 -184 375 -121 188 -119 182 -127
404 -3 108 -7 197 -7 197 -6 9 -87 33 -127 39 -48 6 -52 9 -58 37 -3 17 -6 75
-6 129 l0 98 33 9 c25 6 33 14 35 36 7 57 -5 74 -61 91 -72 23 -282 29 -367
11z m425 -610 c0 -30 -4 -58 -8 -62 -4 -4 -7 20 -7 54 0 34 4 62 8 62 5 0 8
-24 7 -54z m5 -111 c0 -27 -3 -33 -15 -29 -11 5 -13 10 -5 19 6 7 10 17 9 21
-2 13 0 24 6 24 3 0 5 -16 5 -35z m-497 -22 c-7 -2 -19 -2 -25 0 -7 3 -2 5 12
5 14 0 19 -2 13 -5z m771 -606 c30 -45 48 -115 56 -217 4 -58 7 -107 5 -109
-7 -7 -34 70 -40 116 -6 41 -33 156 -51 216 -8 25 13 21 30 -6z m-1055 -87
c-9 -54 -32 -251 -45 -384 -4 -44 -10 -63 -15 -55 -7 12 -11 11 -19 -1 -13
-20 -13 162 0 227 5 26 11 66 14 88 7 55 35 145 45 145 5 0 11 10 14 22 11 41
15 13 6 -42z m281 -102 c0 -5 5 -8 10 -8 6 0 10 9 10 20 0 13 7 20 20 20 18 0
20 -7 20 -60 0 -33 -2 -60 -5 -60 -3 0 -17 7 -30 16 -22 15 -25 15 -25 1 0
-21 -19 -32 -33 -18 -11 11 -20 99 -11 113 6 9 44 -13 44 -24z m130 -26 c0
-63 -4 -74 -26 -65 -10 3 -14 22 -14 57 0 55 4 66 27 66 9 0 13 -16 13 -58z
m63 32 l14 -26 16 26 c15 22 47 37 47 21 0 -14 -56 -115 -62 -113 -13 5 -68
105 -61 112 14 13 33 5 46 -20z m165 9 c2 -8 -5 -13 -17 -13 -28 0 -27 -16 2
-25 l22 -8 -22 -4 c-28 -5 -30 -19 -3 -26 35 -9 22 -27 -20 -27 l-40 0 0 53
c0 30 3 57 7 61 11 11 66 2 71 -11z m112 -35 c16 -29 30 -56 30 -59 0 -3 -29
-5 -64 -5 l-64 0 29 58 c16 32 31 58 34 58 3 0 18 -24 35 -52z m-468 -540 c17
17 46 15 50 -3 2 -12 9 -10 30 10 32 30 52 32 45 6 -3 -14 0 -17 14 -14 12 3
19 0 19 -8 0 -8 6 -5 16 7 14 18 15 16 9 -21 -8 -44 -20 -65 -41 -65 -17 0
-19 17 -3 22 7 2 9 13 5 26 -9 27 -26 29 -19 2 7 -25 -22 -38 -48 -21 -15 8
-24 8 -38 -1 -15 -9 -23 -9 -33 0 -10 8 -18 8 -25 1 -6 -6 -21 -9 -34 -7 -21
3 -24 9 -27 47 -4 57 14 70 46 34 17 -20 25 -24 34 -15z m253 -13 c0 -22 -5
-40 -12 -42 -9 -3 -13 9 -13 42 0 33 4 45 13 43 7 -3 12 -21 12 -43z m111 -11
c3 -39 1 -44 -11 -34 -15 13 -21 71 -8 83 11 12 17 -2 19 -49z m42 11 c1 -25
-2 -45 -8 -45 -5 0 -10 20 -10 45 0 25 4 45 8 45 5 0 10 -20 10 -45z m-84 -1
c6 -16 -10 -54 -22 -54 -14 0 -32 23 -32 40 0 37 41 47 54 14z m154 -10 c4
-29 -23 -51 -43 -34 -16 13 -20 42 -8 54 14 14 48 1 51 -20z m70 -6 c2 -16 -1
-28 -7 -28 -6 0 -11 9 -11 20 0 11 -4 20 -10 20 -5 0 -10 -9 -10 -20 0 -11 -4
-20 -10 -20 -5 0 -10 14 -10 31 0 27 3 30 28 27 21 -2 28 -9 30 -30z m-748
-213 c0 -105 -13 -110 -67 -27 l-38 57 -3 -57 c-5 -87 -22 -69 -22 22 0 96 12
103 62 34 l33 -46 3 51 c2 36 7 51 18 51 11 0 14 -17 14 -85z m435 75 c3 -6
-1 -13 -10 -16 -19 -8 -30 0 -20 15 8 14 22 14 30 1z m183 -21 c3 -22 7 -25
31 -21 35 5 38 0 42 -63 3 -41 1 -50 -13 -53 -15 -3 -18 4 -18 47 0 28 -2 51
-4 51 -25 0 -36 -16 -36 -56 0 -32 -4 -44 -14 -44 -17 0 -23 39 -18 118 4 55
24 69 30 21z m132 16 c0 -8 -4 -15 -9 -15 -13 0 -22 16 -14 24 11 11 23 6 23
-9z m-620 -45 c39 -39 12 -120 -39 -120 -32 0 -64 34 -64 68 0 63 61 94 103
52z m76 0 c1 -8 2 -30 3 -47 1 -22 6 -33 15 -33 11 0 16 14 18 48 2 34 7 47
18 47 12 0 15 -14 15 -64 l0 -65 -40 -3 c-22 -1 -46 1 -53 6 -13 8 -26 106
-16 123 9 14 39 5 40 -12z m178 -5 c-3 -7 -14 -15 -25 -18 -15 -4 -19 -14 -19
-47 0 -34 -3 -41 -17 -38 -13 2 -19 15 -21 45 -4 61 9 80 52 75 23 -3 33 -8
30 -17z m51 -46 c0 -43 -3 -54 -17 -57 -15 -3 -18 4 -18 51 0 29 3 57 7 61 17
17 28 -5 28 -55z m115 45 c0 -11 -6 -14 -20 -9 -37 12 -45 -7 -9 -24 44 -21
51 -57 15 -71 -29 -10 -76 2 -76 20 0 7 13 8 36 4 28 -5 36 -4 32 7 -2 7 -15
16 -28 19 -32 8 -47 34 -31 54 18 21 81 22 81 0z m201 -45 c-3 -59 -5 -64 -20
-54 -12 7 -15 97 -4 109 17 17 27 -5 24 -55z m132 52 c11 -2 8 -111 -3 -111
-5 0 -10 20 -10 45 0 76 -52 74 -54 -1 -1 -21 -7 -39 -13 -42 -10 -3 -13 13
-13 55 l0 59 43 -2 c23 0 45 -2 50 -3z m-618 -268 c4 -34 2 -54 -5 -58 -23
-14 -32 12 -25 70 9 66 21 61 30 -12z m-225 28 c0 -42 18 -48 22 -9 2 26 8 34
27 36 13 2 28 -2 33 -10 7 -10 11 -10 15 0 6 16 33 15 33 -2 0 -7 9 -16 20
-19 15 -4 20 -14 20 -41 l0 -36 -44 4 c-24 2 -50 0 -57 -5 -9 -5 -23 -2 -38 7
-17 12 -26 13 -30 5 -5 -8 -17 -7 -39 5 l-32 16 22 39 c26 47 48 51 48 10z
m388 -27 c43 -9 21 -20 -44 -22 -36 -1 -70 -5 -75 -8 -5 -3 -9 0 -9 5 0 6 0
14 -1 19 -1 17 62 20 129 6z m75 -11 c-7 -2 -21 -2 -30 0 -10 3 -4 5 12 5 17
0 24 -2 18 -5z m-133 -120 c0 -5 16 -9 36 -10 24 -1 41 -9 51 -22 8 -12 20
-21 26 -21 13 0 43 -45 67 -101 8 -20 21 -43 28 -52 8 -9 16 -35 18 -58 2 -23
11 -50 19 -60 23 -25 24 -144 1 -187 -36 -69 -89 -103 -173 -110 -72 -5 -85
-17 -18 -16 l45 1 0 -39 c0 -24 4 -37 10 -33 6 3 10 21 10 38 0 29 3 32 29 32
38 0 46 -9 46 -50 0 -28 -2 -31 -14 -22 -11 9 -15 9 -19 -2 -4 -11 -6 -11 -13
0 -8 11 -11 11 -20 -4 -14 -24 -49 -5 -49 28 0 14 -4 25 -10 25 -5 0 -10 -13
-10 -30 0 -16 -4 -30 -10 -30 -5 0 -10 13 -10 29 0 24 -4 29 -25 29 -25 0 -25
-1 -9 -19 33 -37 -32 -63 -70 -28 -5 5 -15 1 -21 -8 -8 -11 -18 -14 -31 -8
-10 4 -36 7 -56 6 l-38 -3 0 41 c0 43 12 53 29 24 10 -17 10 -17 11 -1 0 22
20 34 30 18 5 -9 9 -9 14 -1 9 15 46 14 46 -1 0 -6 3 -8 6 -5 13 13 -18 37
-40 31 -12 -3 -30 2 -41 11 -11 9 -15 14 -8 11 6 -4 15 -1 19 6 4 7 4 10 0 6
-5 -4 -20 -2 -34 3 -27 10 -102 17 -200 18 -33 1 -51 5 -47 11 3 6 46 10 96
10 53 0 89 4 89 10 0 6 10 10 22 10 l21 0 -21 19 c-20 17 -22 28 -22 131 0
111 24 260 42 260 4 0 8 9 8 20 0 11 7 23 15 26 8 4 15 16 15 29 0 18 8 25 38
33 45 12 122 15 122 5z m415 -553 c21 -5 4 -8 -57 -9 -53 -1 -88 3 -88 9 0 11
100 11 145 0z m-729 -91 c3 -6 3 -14 -2 -18 -16 -11 -15 -51 1 -51 15 0 19 10
16 41 -1 9 5 22 14 29 19 16 45 -2 45 -31 0 -11 -7 -19 -15 -19 -8 0 -15 -6
-15 -14 0 -14 -55 -30 -71 -20 -10 6 -12 77 -2 87 10 10 21 8 29 -4z m-110
-14 c19 -18 15 -44 -8 -59 -13 -8 -21 -7 -29 1 -8 8 -6 11 7 10 14 -2 19 5 19
23 0 15 -5 24 -13 22 -8 -1 -11 2 -7 8 8 14 14 13 31 -5z m58 7 c-6 -4 -14
-19 -17 -34 -5 -20 -3 -28 10 -31 14 -4 12 -5 -4 -6 -20 -1 -23 4 -23 39 0 35
3 40 23 40 12 0 17 -3 11 -8z m610 -4 c-12 -20 -12 -52 0 -61 7 -5 3 -7 -9 -5
-15 2 -21 12 -23 41 -3 32 0 37 18 37 14 0 19 -4 14 -12z m82 0 c4 -7 3 -8 -4
-4 -17 10 -15 -5 4 -25 9 -10 13 -23 9 -28 -8 -14 -45 -14 -45 -1 0 5 7 7 15
4 20 -8 19 5 -1 27 -9 10 -13 23 -9 28 8 14 22 14 31 -1z m49 -28 c0 -22 -4
-39 -9 -37 -11 4 -19 46 -12 64 10 26 21 12 21 -27z m72 20 c4 -12 3 -12 -5
-1 -7 9 -12 10 -16 2 -4 -6 0 -18 8 -27 9 -8 16 -21 15 -27 0 -9 -2 -8 -6 1
-2 6 -11 12 -19 12 -9 0 -14 11 -14 31 0 23 4 30 17 27 9 -2 18 -10 20 -18z
m49 -53 c9 -3 8 -4 -3 -3 -13 1 -19 11 -20 34 -3 31 -3 31 3 3 3 -17 12 -32
20 -34z m51 31 c-3 -7 -5 -2 -5 12 0 14 2 19 5 13 2 -7 2 -19 0 -25z m-731
-131 c-3 -19 -9 -22 -57 -23 -66 0 -72 2 -59 25 7 14 19 18 49 15 22 -2 43 1
46 6 10 17 25 1 21 -23z m160 11 c13 2 24 -1 24 -6 0 -21 -28 -29 -95 -28 -63
1 -70 3 -70 21 0 17 6 20 36 17 21 -2 40 2 44 8 5 8 11 7 22 -2 9 -7 26 -11
39 -10z m84 -8 c0 -15 -7 -20 -25 -20 -40 0 -25 27 23 39 1 1 2 -8 2 -19z
m170 6 c44 -1 80 2 80 6 0 5 4 7 10 3 5 -3 7 -11 4 -18 -6 -16 -234 -21 -234
-6 0 11 41 29 52 22 4 -2 43 -5 88 -7z m187 -18 c-3 -7 -5 -2 -5 12 0 14 2 19
5 13 2 -7 2 -19 0 -25z m-737 12 c0 -6 -30 -9 -72 -9 -59 1 -66 3 -38 9 53 11
110 11 110 0z m709 1 c9 -6 10 -10 2 -16 -16 -9 -44 2 -36 15 8 12 16 12 34 1z
m129 -8 c-10 -2 -28 -2 -40 0 -13 2 -5 4 17 4 22 1 32 -1 23 -4z m-604 -65 c9
-35 8 -38 -13 -38 -26 0 -34 15 -21 40 14 26 26 25 34 -2z m316 -3 c0 -14 -4
-25 -10 -25 -11 0 -14 33 -3 43 11 11 13 8 13 -18z m-210 -4 c0 -15 -7 -19
-37 -18 -47 2 -55 24 -11 30 18 2 36 5 41 5 4 1 7 -7 7 -17z m160 -10 c0 -14
-2 -14 -10 -1 -5 8 -10 10 -10 4 0 -6 -25 -11 -65 -11 -36 0 -65 3 -65 7 0 16
17 19 81 18 56 -1 69 -4 69 -17z m-567 -163 c4 -10 7 -10 14 0 9 12 67 11 80
-1 3 -4 13 -1 21 6 13 10 15 8 9 -13 -4 -14 -7 -31 -7 -37 0 -23 -19 -14 -26
12 -7 28 -24 24 -24 -5 0 -13 -7 -17 -25 -16 -14 0 -25 5 -25 11 0 5 -5 4 -12
-3 -16 -16 -45 -15 -50 0 -3 7 -2 23 0 35 5 25 37 32 45 11z m265 -24 c2 -22
-2 -33 -14 -38 -21 -8 -44 10 -44 35 0 11 -4 19 -10 19 -5 0 -10 -11 -10 -25
0 -14 -4 -25 -10 -25 -5 0 -10 10 -10 23 0 13 -5 28 -12 35 -8 8 3 11 48 9 58
-2 59 -2 62 -33z m70 13 c10 16 62 28 62 14 0 -6 -4 -11 -8 -11 -4 0 -8 -9 -8
-20 0 -11 6 -20 14 -20 7 0 11 -4 8 -9 -12 -18 -46 1 -46 26 0 13 -4 21 -10
18 -5 -3 -10 -15 -10 -26 0 -10 -4 -19 -10 -19 -12 0 -30 34 -30 57 1 17 2 16
16 -2 10 -14 17 -16 22 -8z m127 -15 c0 -32 -9 -42 -18 -19 -4 9 -8 8 -16 -3
-9 -12 -11 -9 -11 16 0 35 8 46 30 42 10 -2 15 -14 15 -36z m133 26 c8 -8 15
-8 24 0 9 7 27 8 53 2 21 -5 43 -7 47 -4 11 7 10 1 -3 -33 -12 -28 -12 -28
-18 -5 -7 29 -25 30 -29 2 -3 -15 -7 -18 -16 -11 -12 11 -41 9 -52 -2 -4 -4
-16 -7 -26 -7 -14 0 -18 8 -18 35 0 36 15 46 38 23z m202 2 c0 -5 -6 -10 -12
-10 -7 0 -2 -7 10 -16 26 -18 21 -34 -11 -33 -21 0 -21 1 -2 8 19 8 19 8 -2
22 -16 10 -19 16 -11 26 12 15 28 17 28 3z m-283 -31 c-12 -31 -23 -30 -29 3
-3 18 1 23 18 24 19 2 20 -1 11 -27z m349 -4 c1 -16 -1 -24 -3 -17 -3 6 -11
12 -19 12 -8 0 -14 8 -14 18 0 10 7 18 18 18 12 0 17 -9 18 -31z m31 -2 c-3
-10 -5 -4 -5 12 0 17 2 24 5 18 2 -7 2 -21 0 -30z m53 20 c30 -26 26 -49 -5
-26 -26 20 -40 43 -25 43 5 0 19 -8 30 -17z m-720 -140 c0 -5 -4 -14 -9 -21
-5 -9 0 -22 16 -38 23 -23 24 -27 10 -47 -29 -44 -87 -29 -87 22 0 33 35 91
55 91 8 0 15 -3 15 -7z m126 -19 c5 -18 1 -31 -15 -48 -26 -28 -26 -36 -1 -36
11 0 20 -7 20 -15 0 -11 -12 -15 -45 -15 -54 0 -57 12 -15 60 37 44 37 53 0
45 -16 -4 -30 -3 -30 2 0 18 24 33 52 33 21 0 29 -6 34 -26z m112 14 c-3 -7
-18 -16 -34 -19 -16 -4 -26 -7 -21 -8 4 0 8 0 10 1 1 1 12 -4 25 -11 26 -14
30 -62 8 -81 -21 -16 -60 -9 -64 13 -3 15 1 17 22 11 22 -5 26 -3 26 14 0 16
-6 20 -27 19 -22 -2 -29 3 -31 21 -6 41 5 52 49 52 28 0 39 -4 37 -12z m224
-55 c3 -38 4 -70 2 -72 -2 -2 -10 -1 -19 2 -21 9 -22 137 -1 137 10 0 15 -19
18 -67z m-56 3 c8 -32 2 -69 -13 -73 -7 -3 -13 10 -15 34 -4 49 -22 49 -26 1
-2 -24 -8 -38 -17 -38 -9 0 -15 14 -17 38 -4 48 -22 48 -26 -1 -5 -54 -26 -42
-30 16 l-3 47 70 0 c66 0 71 -2 77 -24z"/>
<path d="M19060 9960 c0 -5 5 -10 10 -10 6 0 10 5 10 10 0 6 -4 10 -10 10 -5
0 -10 -4 -10 -10z"/>
<path d="M18920 9424 c0 -8 5 -12 10 -9 6 4 8 11 5 16 -9 14 -15 11 -15 -7z"/>
<path d="M19070 9420 c0 -5 5 -10 10 -10 6 0 10 5 10 10 0 6 -4 10 -10 10 -5
0 -10 -4 -10 -10z"/>
<path d="M18495 9200 c-11 -18 6 -50 26 -50 14 0 19 7 19 30 0 23 -5 30 -19
30 -11 0 -23 -5 -26 -10z"/>
<path d="M18550 8970 c0 -5 5 -10 10 -10 6 0 10 5 10 10 0 6 -4 10 -10 10 -5
0 -10 -4 -10 -10z"/>
<path d="M18785 8210 c-3 -5 -1 -10 4 -10 6 0 11 5 11 10 0 6 -2 10 -4 10 -3
0 -8 -4 -11 -10z"/>
<path d="M18690 8151 c0 -12 5 -21 10 -21 6 0 10 6 10 14 0 8 -4 18 -10 21 -5
3 -10 -3 -10 -14z"/>
<path d="M18965 8160 c3 -5 8 -10 11 -10 2 0 4 5 4 10 0 6 -5 10 -11 10 -5 0
-7 -4 -4 -10z"/>
<path d="M18760 8145 c0 -8 7 -15 16 -15 14 0 14 3 4 15 -7 8 -14 15 -16 15
-2 0 -4 -7 -4 -15z"/>
<path d="M18380 7746 c0 -8 4 -17 9 -20 10 -7 23 19 14 28 -11 11 -23 6 -23
-8z"/>
<path d="M18640 7740 c0 -11 5 -20 10 -20 6 0 10 9 10 20 0 11 -4 20 -10 20
-5 0 -10 -9 -10 -20z"/>
<path d="M18982 7744 c4 -21 22 -23 26 -1 2 10 -3 17 -13 17 -10 0 -15 -6 -13
-16z"/>
<path d="M18606 7533 c-11 -11 -6 -23 9 -23 8 0 15 4 15 9 0 13 -16 22 -24 14z"/>
<path d="M20988 11193 c7 -3 16 -2 19 1 4 3 -2 6 -13 5 -11 0 -14 -3 -6 -6z"/>
<path d="M12260 10825 l0 -275 55 0 54 0 3 82 3 83 65 -83 65 -82 68 0 68 0
-80 93 c-44 50 -81 97 -81 102 0 6 32 46 70 90 39 44 70 83 70 88 0 4 -26 7
-58 7 l-59 0 -64 -80 -64 -79 -3 164 -2 165 -55 0 -55 0 0 -275z"/>
<path d="M8100 10805 l0 -255 130 0 c147 0 181 9 223 59 21 25 27 43 27 79 0
53 -27 107 -59 117 -27 8 -26 15 3 42 57 55 34 158 -46 199 -19 10 -65 14
-153 14 l-125 0 0 -255z m233 154 c13 -16 17 -32 13 -53 -10 -46 -23 -56 -82
-56 l-54 0 0 71 0 72 52 -5 c38 -4 57 -11 71 -29z m20 -206 c32 -37 22 -103
-18 -121 -14 -7 -48 -12 -75 -12 l-50 0 0 75 0 75 63 0 c48 0 68 -4 80 -17z"/>
<path d="M10714 11043 c3 -10 33 -117 66 -238 34 -121 63 -228 66 -238 5 -15
15 -17 67 -15 l62 3 37 168 c20 93 38 171 41 173 2 2 21 -74 43 -168 l39 -173
62 -3 62 -3 15 53 c9 29 38 136 66 238 28 102 53 193 56 203 5 15 -2 17 -54
17 l-60 0 -10 -47 c-6 -27 -23 -110 -39 -185 -15 -76 -30 -138 -34 -138 -3 0
-23 81 -44 180 l-38 181 -60 -3 -60 -3 -37 -170 c-20 -93 -39 -177 -42 -185
-3 -8 -11 12 -18 45 -7 33 -24 119 -39 190 l-28 130 -62 3 c-56 3 -62 1 -57
-15z"/>
<path d="M9866 11018 c-2 -7 -8 -31 -12 -53 -7 -30 -15 -41 -34 -45 -19 -4
-26 -13 -28 -38 -3 -30 -1 -32 27 -32 l31 0 0 -115 c0 -161 22 -195 123 -195
74 0 87 8 87 49 0 36 -1 37 -29 33 -16 -2 -38 1 -50 7 -19 11 -21 20 -21 116
l0 105 50 0 50 0 0 40 0 40 -50 0 -50 0 0 50 0 50 -45 0 c-28 0 -47 -5 -49
-12z"/>
<path d="M8650 10918 c-25 -13 -55 -38 -66 -56 -42 -62 -42 -193 0 -254 34
-50 79 -68 168 -68 104 0 128 10 128 53 l0 34 -81 -5 c-89 -5 -120 5 -138 45
-6 13 -11 28 -11 33 0 5 53 11 118 12 l117 3 3 55 c5 100 -46 160 -140 167
-41 3 -63 -1 -98 -19z m134 -80 c9 -12 16 -30 16 -40 0 -16 -10 -18 -75 -18
-83 0 -91 7 -54 54 27 35 90 37 113 4z"/>
<path d="M9065 10933 c-76 -17 -85 -23 -85 -60 0 -32 2 -35 23 -29 12 3 49 9
83 12 71 8 94 -7 94 -61 l0 -33 -58 5 c-39 4 -69 1 -94 -10 -41 -17 -78 -68
-78 -105 0 -37 28 -88 57 -103 37 -20 105 -16 147 9 29 17 36 18 36 7 0 -11
12 -15 45 -15 l45 0 0 153 c0 133 -3 156 -20 184 -27 44 -113 65 -195 46z
m113 -264 c3 -30 -1 -37 -23 -47 -43 -20 -84 -15 -94 11 -17 46 15 79 74 75
38 -3 40 -5 43 -39z"/>
<path d="M11545 10929 c-135 -50 -158 -285 -36 -366 28 -19 48 -23 111 -23 42
0 91 5 109 11 26 9 31 16 31 44 l0 32 -87 -4 c-98 -6 -126 6 -139 60 l-6 27
116 0 116 0 6 26 c9 35 -3 113 -21 141 -8 12 -26 30 -39 39 -31 20 -122 27
-161 13z m113 -82 c6 -6 13 -24 17 -40 l7 -27 -76 0 c-84 0 -92 7 -55 54 16
20 29 26 59 26 20 0 42 -6 48 -13z"/>
<path d="M11929 10917 c-64 -34 -92 -89 -93 -181 0 -58 4 -79 24 -115 35 -62
76 -81 172 -81 104 0 128 10 128 53 l0 33 -82 -4 c-73 -4 -86 -2 -109 17 -15
11 -29 32 -31 46 l-5 25 118 0 119 0 0 60 c0 86 -19 126 -72 150 -58 26 -115
25 -169 -3z m133 -74 c10 -9 18 -27 18 -40 0 -22 -3 -23 -75 -23 -41 0 -75 3
-75 8 0 4 9 22 20 40 16 27 26 32 57 32 20 0 45 -7 55 -17z"/>
<path d="M9387 10923 c-4 -3 -7 -71 -7 -150 0 -204 15 -233 122 -233 36 0 64
7 87 21 31 18 35 19 43 5 6 -11 23 -16 53 -16 l45 0 0 190 0 190 -55 0 -55 0
0 -145 c0 -132 -2 -145 -19 -155 -33 -17 -89 -12 -101 9 -5 11 -10 81 -10 155
l0 136 -48 0 c-27 0 -52 -3 -55 -7z"/>
<path d="M10110 10921 c0 -5 32 -90 70 -190 39 -99 70 -189 70 -199 0 -34 -32
-62 -75 -66 -38 -3 -40 -6 -43 -39 -3 -35 -2 -36 41 -42 57 -9 110 13 136 57
22 35 181 455 181 476 0 9 -15 12 -52 10 l-52 -3 -36 -125 c-20 -69 -39 -132
-41 -140 -5 -14 -15 13 -69 198 l-21 72 -54 0 c-30 0 -55 -4 -55 -9z"/>
<path d="M17530 10132 c-36 -6 -45 -11 -50 -32 -6 -24 -10 -25 -104 -32 -113
-8 -191 -28 -250 -65 -22 -14 -43 -27 -45 -29 -6 -5 40 -74 50 -74 5 0 26 11
47 24 51 34 119 49 196 44 77 -5 109 -26 104 -70 -2 -17 3 -33 12 -38 12 -8
10 -10 -10 -10 -14 0 -35 -3 -47 -6 -23 -6 -23 -9 -23 -150 0 -137 1 -144 20
-144 11 0 20 -4 20 -8 0 -13 -41 -30 -90 -38 -34 -5 -40 -8 -25 -14 13 -5 -5
-9 -52 -14 -60 -6 -72 -10 -76 -27 -3 -12 -3 -489 0 -1062 l6 -1042 21 -24
c11 -13 14 -21 6 -16 -12 7 -13 6 -2 -6 11 -11 92 -15 453 -17 243 -2 438 1
436 5 -3 5 11 8 31 6 20 -2 31 0 24 3 -9 4 -6 13 13 29 24 23 25 29 25 140 l0
115 -32 -1 c-18 0 -51 -4 -73 -8 -37 -8 -38 -9 -9 -10 27 -1 32 -5 32 -26 0
-20 -6 -25 -25 -25 -13 0 -22 -4 -19 -9 3 -5 15 -7 26 -4 39 10 21 -39 -20
-56 -24 -9 -24 -10 8 -10 30 -1 32 -3 22 -21 -6 -11 -20 -20 -31 -20 -18 0
-20 -4 -15 -25 4 -14 3 -24 -1 -23 -5 0 -15 -2 -24 -6 -9 -4 -45 -6 -80 -4
-61 3 -64 4 -61 26 3 21 1 23 -20 12 -19 -9 -21 -9 -8 2 11 10 14 27 10 68
l-5 55 -43 2 c-24 1 -54 4 -67 7 -14 4 -27 1 -31 -6 -5 -8 -2 -9 9 -5 15 6 17
-2 17 -55 0 -34 -3 -58 -7 -55 -3 4 -13 1 -21 -5 -17 -15 -80 -19 -104 -7 -10
6 -19 5 -23 -1 -11 -17 -43 -11 -61 13 -16 21 -16 22 -11 1 4 -17 1 -20 -15
-16 -14 3 -21 -2 -25 -17 -5 -20 -10 -21 -114 -19 -123 3 -121 2 -121 83 0
113 2 123 20 128 11 3 9 5 -8 6 -20 1 -22 3 -10 11 13 8 11 11 -7 16 l-23 6
-2 489 c-2 269 -3 569 -3 667 l0 177 31 3 31 3 6 -173 c4 -95 7 -230 7 -300 0
-71 3 -128 8 -128 4 0 6 81 4 180 l-3 180 146 0 c90 0 145 -4 145 -10 0 -5 -4
-10 -10 -10 -5 0 -7 -6 -4 -13 3 -8 -2 -20 -11 -27 -8 -7 -15 -17 -15 -23 0
-6 7 -2 15 9 10 13 14 14 15 5 0 -10 3 -11 14 -2 10 9 16 8 26 -4 10 -12 16
-13 26 -4 16 13 44 5 44 -12 0 -9 -4 -9 -14 0 -17 14 -34 -5 -19 -20 11 -11
43 -2 43 12 0 5 8 9 18 9 14 0 15 -2 2 -10 -8 -5 -11 -12 -7 -17 5 -4 12 -1
17 7 14 22 12 30 -7 30 -14 0 -15 2 -4 13 10 10 15 8 26 -7 8 -10 12 -23 9
-27 -3 -5 -1 -9 4 -9 5 0 12 9 15 20 3 12 14 20 26 20 14 0 21 6 21 20 0 11 7
20 15 20 9 0 12 -6 9 -17 -5 -15 -4 -16 5 -3 8 12 6 19 -10 33 -20 16 -16 17
116 17 l137 0 -4 -180 c-2 -114 1 -181 7 -184 7 -2 9 182 8 543 -1 300 -2 552
-2 559 -1 9 -90 12 -411 12 l-410 0 0 -231 0 -230 -32 3 -33 3 -3 178 c-3 175
-3 177 18 177 20 0 20 1 6 16 -16 16 -22 80 -8 100 12 18 164 29 427 29 322 0
456 -5 478 -16 13 -8 17 -22 17 -64 0 -37 -4 -55 -12 -56 -7 -1 -2 -4 12 -8
18 -5 24 -13 22 -29 -2 -12 1 -30 7 -39 8 -14 11 -9 12 27 3 101 0 163 -8 170
-4 4 -48 17 -98 29 -49 12 -102 27 -117 33 -30 11 -28 28 3 28 18 0 19 8 19
144 0 141 0 144 -22 150 -13 3 -34 6 -48 6 -14 0 -20 3 -14 8 6 4 14 56 18
122 10 162 22 153 -200 156 -98 1 -199 -1 -224 -4z m-62 -107 c-3 -3 -9 2 -12
12 -6 14 -5 15 5 6 7 -7 10 -15 7 -18z m140 -482 c-16 -2 -40 -2 -55 0 -16 2
-3 4 27 4 30 0 43 -2 28 -4z m100 0 c-10 -2 -26 -2 -35 0 -10 3 -2 5 17 5 19
0 27 -2 18 -5z m165 0 c-18 -2 -48 -2 -65 0 -18 2 -4 4 32 4 36 0 50 -2 33 -4z
m-289 -248 c16 -17 11 -45 -8 -45 -6 0 -3 -7 7 -14 9 -7 17 -17 17 -21 0 -5
-11 2 -25 15 -21 19 -25 21 -25 7 0 -9 -4 -17 -10 -17 -11 0 -14 73 -3 83 11
11 31 8 47 -8z m236 5 c0 -5 -12 -10 -26 -10 -32 0 -27 -22 7 -31 24 -7 24 -7
-3 -8 -16 -1 -28 -8 -31 -18 -3 -10 -5 0 -6 23 0 22 2 44 6 47 10 11 53 8 53
-3z m84 -6 c9 -8 16 -24 16 -34 0 -18 -24 -50 -38 -50 -17 0 -52 32 -52 47 0
20 29 53 46 53 7 0 20 -7 28 -16z m90 0 c9 -8 16 -24 16 -34 0 -18 -24 -50
-37 -50 -14 0 -43 34 -43 51 0 18 25 49 40 49 5 0 16 -7 24 -16z m67 6 c11 -6
19 -21 19 -35 0 -26 -26 -58 -44 -52 -19 6 -20 97 -1 97 4 0 15 -5 26 -10z
m-631 -37 l1 -38 18 40 19 40 11 -30 c20 -52 21 -55 11 -55 -6 0 -10 4 -10 8
0 5 -7 9 -15 9 -8 0 -15 -4 -15 -8 0 -4 -9 -7 -20 -6 -12 1 -18 7 -16 14 4 8
-3 13 -19 13 -14 0 -25 5 -25 10 0 6 11 10 25 10 18 0 23 4 19 15 -4 8 -1 15
5 15 6 0 11 -17 11 -37z m87 -25 c-2 -13 -4 -3 -4 22 0 25 2 35 4 23 2 -13 2
-33 0 -45z m-137 -8 c0 -5 -5 -10 -11 -10 -5 0 -7 5 -4 10 3 6 8 10 11 10 2 0
4 -4 4 -10z m535 -98 l40 -18 -83 -55 c-74 -48 -81 -55 -66 -66 16 -12 14 -13
-13 -13 -32 0 -197 -77 -266 -124 -46 -32 -52 -32 -54 -5 -2 29 27 85 71 138
41 49 46 63 14 35 l-23 -19 19 23 c11 12 24 22 30 22 6 0 26 13 44 30 18 16
45 33 59 36 15 4 38 13 52 20 37 19 129 17 176 -4z m-275 -22 c-8 -5 -19 -10
-25 -10 -5 0 -3 5 5 10 8 5 20 10 25 10 6 0 3 -5 -5 -10z m-130 -85 c-24 -25
-46 -45 -49 -45 -3 0 15 20 39 45 24 25 46 45 49 45 3 0 -15 -20 -39 -45z
m477 9 c-3 -3 -12 -4 -19 -1 -8 3 -5 6 6 6 11 1 17 -2 13 -5z m-10 -30 c-3 -3
-12 -4 -19 -1 -8 3 -5 6 6 6 11 1 17 -2 13 -5z m53 -13 c0 -5 -6 -12 -12 -15
-7 -3 -2 -3 12 0 20 5 22 4 13 -6 -6 -7 -9 -18 -7 -25 3 -7 -8 -17 -27 -24
-40 -14 -62 -14 -54 -1 3 5 0 7 -8 4 -8 -3 -20 2 -27 11 -11 13 -10 15 6 14
11 -1 28 -1 39 0 17 3 17 4 -5 11 -25 8 -25 8 8 15 17 4 32 11 32 16 0 5 7 9
15 9 8 0 15 -4 15 -9z m-748 -43 c-17 -8 -26 -8 -34 0 -9 9 -4 12 23 11 32 0
33 -1 11 -11z m518 -22 c0 -11 -19 -15 -25 -6 -3 5 1 10 9 10 9 0 16 -2 16 -4z
m80 -30 c0 -7 -11 -16 -25 -18 -24 -5 -34 10 -18 25 12 12 43 7 43 -7z m174
-22 c-10 -14 -39 -37 -64 -51 -25 -13 -34 -16 -20 -6 13 10 40 34 60 55 39 40
54 42 24 2z m-290 7 c31 -34 72 -45 117 -32 29 9 39 17 39 33 0 16 4 19 23 14
12 -3 33 -6 46 -6 21 0 22 -2 10 -17 -36 -43 -144 -68 -244 -55 -68 8 -83 29
-44 63 27 24 32 24 53 0z m66 -1456 c0 -33 4 -45 14 -45 10 0 16 14 19 45 l4
45 -1 -47 c-1 -45 -3 -48 -26 -47 -14 1 -28 -3 -31 -8 -4 -6 -9 -6 -13 1 -4 6
-2 11 3 11 6 0 11 20 11 45 0 25 5 45 10 45 6 0 10 -20 10 -45z m-187 -82
c-24 -2 -62 -2 -85 0 -24 2 -5 4 42 4 47 0 66 -2 43 -4z"/>
<path d="M17546 9275 c4 -8 12 -15 20 -15 8 0 14 7 14 15 0 8 -9 15 -20 15
-13 0 -18 -5 -14 -15z"/>
<path d="M17854 9276 c-10 -26 4 -48 28 -44 17 2 23 10 23 28 0 18 -6 26 -23
28 -13 2 -25 -3 -28 -12z"/>
<path d="M17947 9276 c-10 -26 4 -47 27 -44 15 2 21 10 21 28 0 29 -38 41 -48
16z"/>
<path d="M18030 9260 c0 -25 4 -31 18 -28 11 2 17 12 17 28 0 16 -6 26 -17 28
-14 3 -18 -3 -18 -28z"/>
<path d="M17456 9265 c-3 -9 0 -15 9 -15 9 0 12 6 9 15 -4 8 -7 15 -9 15 -2 0
-5 -7 -9 -15z"/>
<path d="M11093 10108 c-14 -15 -23 -39 -25 -68 -3 -38 -7 -46 -25 -48 -33 -5
-31 -42 2 -42 l25 0 0 -115 0 -115 25 0 25 0 0 114 0 115 43 3 c35 2 43 7 45
26 3 20 -1 22 -42 22 -46 0 -46 0 -46 34 0 41 20 60 60 54 27 -4 31 -2 28 16
-2 17 -11 22 -48 24 -37 2 -50 -1 -67 -20z"/>
<path d="M11307 10110 c-20 -16 -27 -31 -29 -68 -3 -40 -6 -47 -25 -50 -33 -5
-31 -42 2 -42 l25 0 0 -115 0 -115 25 0 25 0 0 114 0 115 43 3 c35 2 43 7 45
26 3 20 -1 22 -42 22 -45 0 -46 0 -46 33 0 42 15 57 58 57 26 0 33 4 30 18 -5
27 -77 29 -111 2z"/>
<path d="M10266 10098 c-19 -27 -20 -39 -4 -73 10 -22 17 -26 47 -23 45 4 61
39 41 87 -16 39 -60 43 -84 9z m62 -37 c4 -37 -14 -57 -35 -39 -14 11 -18 60
-6 72 17 16 38 -1 41 -33z"/>
<path d="M10379 10015 c-53 -112 -54 -115 -40 -115 8 0 111 201 111 216 0 2
-5 4 -11 4 -6 0 -33 -47 -60 -105z"/>
<path d="M10032 10099 c-51 -15 -84 -74 -90 -162 -8 -138 35 -216 124 -224
100 -8 147 53 148 192 1 90 -20 154 -59 179 -31 20 -84 27 -123 15z m88 -49
c27 -14 40 -64 40 -149 0 -85 -13 -120 -52 -138 -79 -39 -134 63 -109 203 15
82 63 115 121 84z"/>
<path d="M8110 9953 c0 -129 3 -152 20 -180 29 -48 72 -66 143 -61 53 4 63 8
93 40 38 42 47 91 42 243 l-3 100 -27 3 -28 3 0 -144 c0 -128 -2 -147 -20
-169 -39 -50 -139 -39 -160 17 -6 15 -10 87 -10 161 l0 134 -25 0 -25 0 0
-147z"/>
<path d="M9702 9969 c-51 -73 -92 -140 -92 -150 0 -17 9 -19 95 -19 l95 0 0
-40 c0 -33 3 -40 20 -40 17 0 20 7 20 40 0 38 2 40 30 40 23 0 30 5 30 19 0
14 -8 21 -27 23 l-28 3 -3 128 c-3 125 -3 127 -26 127 -18 0 -42 -28 -114
-131z m96 -36 l-3 -88 -64 -3 c-34 -2 -61 1 -60 6 9 22 115 171 122 172 4 0 6
-39 5 -87z"/>
<path d="M8990 10050 c0 -44 -10 -60 -36 -60 -17 0 -24 -6 -24 -20 0 -15 7
-20 25 -20 25 0 25 -1 25 -91 0 -98 9 -125 45 -139 37 -14 95 -1 95 21 0 15
-8 19 -39 19 -46 0 -51 10 -51 118 l0 72 46 0 c41 0 45 2 42 23 -2 18 -10 23
-45 25 -41 3 -43 4 -43 36 0 25 -5 35 -20 39 -17 4 -20 0 -20 -23z"/>
<path d="M10453 10020 c-50 -20 -32 -120 22 -120 49 0 72 73 35 110 -22 22
-25 23 -57 10z m45 -59 c-2 -28 -7 -36 -23 -36 -23 0 -34 48 -15 70 20 25 41
6 38 -34z"/>
<path d="M8490 9805 l0 -195 30 0 30 0 0 64 0 65 37 -15 c89 -38 163 26 163
142 0 51 -20 96 -52 118 -29 20 -90 20 -128 1 -27 -14 -30 -14 -30 0 0 9 -9
15 -25 15 l-25 0 0 -195z m170 145 c39 -21 50 -129 17 -169 -21 -25 -56 -32
-92 -16 l-35 14 0 81 c0 74 2 81 23 90 30 12 64 12 87 0z"/>
<path d="M9219 9985 c-50 -27 -74 -131 -45 -198 19 -46 49 -69 99 -74 92 -11
147 43 147 142 0 61 -18 105 -52 129 -28 20 -114 20 -149 1z m121 -43 c30 -24
39 -106 16 -150 -32 -62 -118 -47 -138 24 -11 40 0 102 23 125 24 24 70 24 99
1z"/>
<path d="M10761 9974 c-53 -44 -65 -148 -24 -210 48 -73 178 -71 217 4 38 73
27 162 -25 206 -44 37 -124 37 -168 0z m136 -36 c19 -18 23 -32 23 -79 0 -66
-19 -96 -67 -105 -26 -5 -37 -1 -57 19 -22 22 -26 35 -26 83 0 45 5 63 22 81
28 30 74 30 105 1z"/>
<path d="M20559 9970 l-24 -21 34 16 c62 31 141 -16 141 -83 0 -78 -53 -132
-129 -132 l-29 0 27 78 c15 42 33 87 40 100 14 26 1 29 -22 4 -13 -14 -77
-171 -77 -188 0 -10 114 -3 145 10 57 24 83 106 52 166 -17 33 -73 70 -107 70
-15 0 -38 -9 -51 -20z"/>
<path d="M20782 9877 c-36 -38 -47 -83 -28 -112 18 -27 36 -31 67 -15 43 24
65 115 32 141 -15 13 -15 12 -4 -9 22 -42 -18 -132 -60 -132 -40 0 -36 68 7
119 30 36 18 42 -14 8z"/>
<path d="M21018 9875 c-14 -14 -28 -38 -31 -53 -13 -65 48 -107 89 -61 l19 22
-28 -18 c-22 -14 -30 -15 -42 -5 -21 18 -19 50 4 50 30 0 73 39 69 64 -5 32
-48 33 -80 1z m62 0 c0 -8 -9 -24 -20 -35 -25 -25 -52 -27 -43 -2 15 42 63 71
63 37z"/>
<path d="M20895 9820 c0 -39 3 -70 6 -70 10 0 57 55 73 87 18 37 20 53 6 53
-5 0 -10 -10 -10 -23 0 -18 -43 -97 -54 -97 -1 0 -3 23 -4 51 -2 80 -18 78
-17 -1z"/>
<path d="M17510 9453 c0 -5 66 -7 147 -5 235 4 254 8 46 10 -106 1 -193 -1
-193 -5z"/>
<path d="M19550 9400 l0 -60 33 1 c30 0 30 1 9 10 -24 9 -27 46 -4 42 7 -2 12
2 12 7 0 6 -7 10 -15 10 -23 0 -18 30 8 40 20 8 19 9 -10 9 l-33 1 0 -60z"/>
<path d="M19930 9450 c0 -5 5 -10 10 -10 6 0 10 5 10 10 0 6 -4 10 -10 10 -5
0 -10 -4 -10 -10z"/>
<path d="M19727 9412 c-30 -33 -14 -73 28 -71 16 1 16 2 3 6 -9 2 -20 13 -23
24 -8 23 12 52 28 42 6 -3 7 -1 3 5 -10 17 -20 15 -39 -6z"/>
<path d="M19796 9414 c-30 -30 -13 -75 29 -73 15 1 16 2 3 6 -28 7 -31 33 -3
33 30 0 33 25 6 40 -15 7 -23 6 -35 -6z m34 -15 c0 -5 -7 -9 -15 -9 -9 0 -12
6 -9 15 6 15 24 11 24 -6z"/>
<path d="M10632 9408 c-17 -17 -15 -83 2 -97 8 -7 27 -11 43 -9 59 7 57 110
-2 116 -17 2 -36 -3 -43 -10z m60 -25 c4 -53 -14 -82 -39 -61 -14 11 -18 60
-6 71 13 14 43 7 45 -10z"/>
<path d="M10742 9315 c-56 -114 -57 -115 -42 -115 10 0 110 191 110 210 0 29
-20 0 -68 -95z"/>
<path d="M10960 9401 c0 -14 -5 -18 -20 -14 -11 3 -20 0 -20 -6 0 -6 7 -11 15
-11 18 0 19 -12 3 -28 -6 -6 -8 -15 -4 -19 4 -5 13 0 20 9 12 16 14 16 29 1 9
-9 20 -14 24 -10 3 4 1 13 -5 19 -16 16 -15 28 3 28 8 0 15 5 15 11 0 6 -9 9
-20 6 -15 -4 -20 0 -20 14 0 10 -4 19 -10 19 -5 0 -10 -9 -10 -19z"/>
<path d="M11990 9220 l0 -200 25 0 25 0 0 105 0 104 30 16 c41 21 87 19 100
-4 5 -11 10 -65 10 -120 l0 -101 25 0 25 0 0 120 c0 107 -2 122 -20 140 -24
24 -92 27 -130 5 -14 -8 -28 -14 -32 -15 -5 0 -8 34 -8 75 0 73 -1 75 -25 75
l-25 0 0 -200z"/>
<path d="M19630 9380 c0 -38 2 -40 30 -40 28 0 30 2 30 40 0 22 -4 40 -10 40
-5 0 -10 -16 -10 -35 0 -19 -4 -35 -10 -35 -5 0 -10 16 -10 35 0 19 -4 35 -10
35 -5 0 -10 -18 -10 -40z"/>
<path d="M19870 9379 c0 -22 5 -39 10 -39 6 0 10 12 10 26 0 15 8 32 17 39 15
11 14 13 -10 13 -25 0 -27 -4 -27 -39z"/>
<path d="M19930 9380 c0 -22 5 -40 10 -40 6 0 10 18 10 40 0 22 -4 40 -10 40
-5 0 -10 -18 -10 -40z"/>
<path d="M19972 9380 c-3 -47 15 -55 20 -8 4 46 28 49 28 4 0 -20 5 -36 10
-36 6 0 10 18 10 40 0 39 -1 40 -33 40 -32 0 -33 -2 -35 -40z"/>
<path d="M10079 9401 c-47 -15 -69 -32 -69 -51 0 -23 6 -24 40 -5 49 28 106
17 121 -23 14 -36 -17 -92 -101 -184 -40 -43 -70 -85 -70 -97 0 -20 5 -21 125
-21 118 0 125 1 125 20 0 19 -7 20 -96 20 l-96 0 70 75 c107 115 127 177 75
234 -30 33 -80 45 -124 32z"/>
<path d="M10410 9404 c-78 -28 -104 -76 -105 -194 0 -141 49 -206 149 -197 40
4 55 11 77 35 74 82 62 289 -19 339 -24 14 -82 24 -102 17z m77 -59 c43 -30
54 -194 17 -253 -33 -51 -100 -48 -129 7 -18 35 -21 164 -5 208 20 52 72 69
117 38z"/>
<path d="M11647 9404 c-4 -4 -7 -18 -7 -31 0 -21 4 -24 28 -21 21 2 27 8 27
28 0 18 -6 26 -20 28 -12 2 -24 0 -28 -4z"/>
<path d="M8580 9210 l0 -190 115 0 c108 0 115 1 115 20 0 19 -7 20 -90 20
l-90 0 0 65 0 65 75 0 c73 0 75 1 75 25 0 24 -2 25 -75 25 l-75 0 0 55 0 55
90 0 c89 0 90 0 90 25 l0 25 -115 0 -115 0 0 -190z"/>
<path d="M9175 9358 c-2 -7 -5 -24 -7 -38 -2 -17 -10 -26 -25 -28 -33 -5 -31
-42 2 -42 25 0 25 0 25 -98 0 -103 6 -119 53 -135 30 -11 77 4 77 24 0 13 -9
19 -37 21 l-38 3 -3 93 -3 92 41 0 c36 0 40 2 40 25 0 23 -4 25 -40 25 -39 0
-40 1 -40 35 0 29 -4 35 -20 35 -11 0 -23 -6 -25 -12z"/>
<path d="M11805 9358 c-2 -7 -5 -24 -7 -38 -2 -17 -10 -26 -25 -28 -34 -5 -31
-42 2 -42 l26 0 -2 -92 c0 -51 2 -101 6 -110 15 -38 125 -44 125 -7 0 13 -9
19 -37 21 l-38 3 -3 93 -3 92 41 0 c36 0 40 2 40 25 0 23 -4 25 -40 25 -39 0
-40 1 -40 35 0 29 -4 35 -20 35 -11 0 -23 -6 -25 -12z"/>
<path d="M8200 9280 l0 -50 -50 0 c-43 0 -50 -3 -50 -20 0 -17 7 -20 50 -20
l50 0 0 -56 c0 -52 1 -55 23 -52 19 3 22 10 25 56 l3 52 50 0 c42 0 49 3 49
20 0 17 -7 20 -50 20 l-50 0 0 50 c0 47 -2 50 -25 50 -23 0 -25 -3 -25 -50z"/>
<path d="M10812 9314 c-16 -11 -22 -25 -22 -53 0 -44 14 -61 52 -61 48 0 66
72 28 110 -24 24 -29 24 -58 4z m48 -28 c12 -32 2 -66 -20 -66 -29 0 -41 55
-18 78 18 18 27 15 38 -12z"/>
<path d="M19602 9305 c3 -3 49 -16 102 -29 l96 -23 96 23 c53 13 99 26 102 29
3 3 -86 5 -198 5 -112 0 -201 -2 -198 -5z"/>
<path d="M8856 9288 c4 -7 25 -39 46 -71 l39 -58 -45 -64 c-25 -35 -46 -66
-46 -69 0 -3 11 -6 25 -6 19 0 32 11 56 50 17 28 34 50 37 50 4 0 20 -23 37
-50 24 -41 34 -50 57 -50 15 0 28 2 28 5 0 2 -21 34 -46 70 l-47 67 46 66 c35
51 43 68 31 70 -26 6 -42 -5 -69 -48 -14 -22 -29 -40 -33 -40 -5 0 -22 20 -40
45 -23 34 -38 45 -57 45 -18 0 -24 -4 -19 -12z"/>
<path d="M9360 9160 l0 -140 25 0 c25 0 25 0 25 99 0 111 4 119 70 128 34 5
40 9 40 29 0 30 -32 32 -77 5 -31 -19 -31 -19 -36 0 -3 11 -14 19 -26 19 -20
0 -21 -5 -21 -140z"/>
<path d="M9588 9293 c-10 -2 -18 -13 -18 -23 0 -16 7 -18 60 -13 70 7 90 -5
90 -51 l0 -31 -59 0 c-49 0 -64 -4 -85 -24 -35 -33 -35 -83 -1 -116 28 -29 60
-31 113 -10 24 10 38 12 40 5 2 -5 12 -10 23 -10 18 0 19 8 19 120 0 150 -7
161 -102 159 -35 -1 -71 -3 -80 -6z m132 -187 c0 -29 -4 -36 -31 -45 -48 -17
-68 -13 -80 13 -19 42 3 66 61 66 l50 0 0 -34z"/>
<path d="M11182 9288 c3 -7 24 -70 47 -140 41 -123 44 -128 70 -128 27 0 29 4
56 105 15 58 29 105 30 105 1 0 15 -47 31 -105 27 -101 29 -105 56 -105 16 0
28 1 28 3 0 2 20 62 45 133 25 71 45 132 45 136 0 5 -11 8 -25 8 -22 0 -27 -8
-49 -82 -14 -46 -28 -96 -32 -111 -3 -15 -8 -26 -11 -24 -2 3 -17 51 -32 108
-26 96 -30 104 -54 107 -28 3 -25 10 -63 -137 -10 -39 -21 -71 -25 -71 -3 0
-19 47 -34 105 -28 103 -29 105 -58 105 -19 0 -28 -4 -25 -12z"/>
<path d="M11640 9160 l0 -140 25 0 25 0 0 140 0 140 -25 0 -25 0 0 -140z"/>
<path d="M12508 9284 c-39 -20 -58 -64 -58 -129 0 -69 19 -107 64 -129 55 -26
136 -15 136 19 0 11 -12 15 -52 15 -29 0 -58 4 -64 8 -37 25 -47 124 -15 163
16 20 28 24 75 23 46 0 56 3 56 17 0 9 -7 20 -16 23 -28 11 -98 6 -126 -10z"/>
<path d="M12752 9287 c-73 -35 -82 -190 -14 -251 31 -27 101 -32 146 -11 47
23 66 60 66 130 0 61 -18 105 -52 129 -26 19 -111 20 -146 3z m123 -47 c25
-28 31 -109 11 -148 -34 -66 -122 -46 -138 33 -10 45 6 110 30 124 29 17 77
13 97 -9z"/>
<path d="M13020 9180 c0 -115 1 -122 25 -145 29 -30 71 -32 123 -8 26 12 37
14 40 5 2 -7 12 -12 23 -12 18 0 19 9 19 140 l0 140 -25 0 -25 0 0 -115 0
-114 -40 -11 c-50 -13 -76 -6 -84 23 -3 12 -6 66 -6 120 0 97 0 97 -25 97
l-25 0 0 -120z"/>
<path d="M13340 9105 l0 -195 25 0 c24 0 25 2 25 65 0 36 2 65 4 65 2 0 17 -7
32 -15 35 -18 51 -19 92 -4 87 30 105 212 26 264 -29 19 -90 19 -126 1 -23
-12 -27 -12 -32 0 -3 8 -15 14 -26 14 -19 0 -20 -6 -20 -195z m174 139 c22
-21 29 -57 23 -111 -6 -55 -26 -77 -71 -76 -67 2 -76 14 -76 102 0 71 2 79 23
89 33 16 83 14 101 -4z"/>
<path d="M13709 9285 c-72 -39 -79 -188 -11 -249 31 -27 101 -32 146 -11 47
23 66 60 66 130 0 61 -18 105 -52 129 -28 20 -114 20 -149 1z m126 -45 c25
-28 31 -109 11 -148 -34 -66 -122 -46 -138 33 -10 45 6 110 30 124 29 17 77
13 97 -9z"/>
<path d="M13987 9293 c-4 -3 -7 -66 -7 -140 l0 -133 30 0 30 0 0 108 c0 107 0
109 25 120 33 15 78 15 93 0 8 -8 12 -49 12 -120 l0 -108 31 0 31 0 -3 119
c-5 143 -14 161 -88 161 -25 -1 -57 -7 -71 -15 -32 -18 -40 -18 -40 0 0 15
-31 21 -43 8z"/>
<path d="M20280 9199 c0 -6 -9 -92 -20 -192 -28 -258 -36 -364 -32 -429 l4
-58 126 1 c78 1 114 4 92 9 -35 6 -30 13 15 23 14 3 11 5 -9 6 -16 0 -37 -6
-46 -14 -16 -14 -18 -14 -23 0 -4 9 -1 15 8 15 8 0 15 5 15 10 0 6 -7 10 -15
10 -8 0 -15 8 -15 18 0 10 -5 23 -12 30 -9 9 -8 12 4 12 10 0 19 12 23 30 4
17 11 30 16 30 5 0 9 6 9 13 -1 6 -10 1 -21 -13 l-21 -25 3 25 c3 21 11 26 44
31 31 5 21 7 -40 8 -98 3 -148 19 -65 21 39 1 49 4 35 9 -17 7 -20 17 -19 58
1 27 4 58 7 69 4 10 7 64 9 119 1 55 7 104 13 108 7 6 6 10 -2 14 -16 6 -17
39 -1 49 8 5 6 10 -8 15 -29 11 -74 10 -74 -2z"/>
<path d="M20397 9143 c-8 -15 -2 -73 8 -73 6 0 10 5 10 12 0 23 25 20 26 -4 1
-19 3 -18 11 9 6 18 7 40 3 50 -6 16 -8 16 -16 -5 -5 -13 -13 -20 -19 -17 -6
4 -8 10 -5 15 3 5 1 11 -4 14 -5 4 -12 3 -14 -1z"/>
<path d="M20530 9105 c0 -25 4 -45 10 -45 5 0 7 7 4 15 -8 20 6 19 21 -1 10
-14 12 -12 12 17 0 37 -12 59 -33 59 -10 0 -14 -13 -14 -45z m30 15 c0 -5 -4
-10 -10 -10 -5 0 -10 5 -10 10 0 6 5 10 10 10 6 0 10 -4 10 -10z"/>
<path d="M20597 9143 c-4 -3 -7 -24 -7 -45 0 -31 4 -38 20 -38 18 0 40 26 40
49 0 11 -28 41 -39 41 -4 0 -11 -3 -14 -7z m33 -44 c0 -10 -6 -19 -14 -19 -9
0 -12 8 -8 25 5 28 22 24 22 -6z"/>
<path d="M20476 9116 c-3 -13 -8 -31 -11 -39 -5 -11 2 -14 24 -13 24 1 30 5
26 19 -3 9 -8 26 -11 37 -7 27 -21 25 -28 -4z"/>
<path d="M20670 9136 c0 -1 5 -18 11 -36 12 -33 12 -33 24 -10 l13 23 7 -23
c7 -23 8 -22 21 9 18 42 17 53 -1 21 l-14 -25 -9 24 -9 25 -7 -25 -7 -24 -9
23 c-8 19 -20 30 -20 18z"/>
<path d="M20791 9139 c-1 -4 -8 -24 -17 -45 -10 -25 -11 -35 -3 -27 8 8 18 9
31 2 10 -5 18 -6 17 -2 -1 12 -27 79 -28 72z m9 -45 c0 -8 -5 -12 -10 -9 -6 4
-8 11 -5 16 9 14 15 11 15 -7z"/>
<path d="M20827 9132 c6 -4 13 -23 16 -42 l4 -35 1 37 c1 20 8 39 15 41 6 3
-1 6 -18 6 -17 0 -25 -3 -18 -7z"/>
<path d="M20882 9103 c2 -27 8 -39 21 -41 9 -2 17 1 17 7 0 6 -5 10 -11 9 -19
-5 -21 20 -2 25 17 4 17 5 1 6 -10 0 -18 5 -18 10 0 5 8 12 18 14 12 3 11 5
-6 6 -21 1 -23 -3 -20 -36z"/>
<path d="M20941 9098 c0 -31 3 -37 8 -23 8 19 8 19 19 0 6 -11 14 -17 18 -13
4 4 1 14 -5 22 -8 9 -8 16 -2 20 16 10 1 36 -20 36 -16 0 -19 -7 -18 -42z m29
23 c0 -6 -4 -13 -10 -16 -5 -3 -10 1 -10 9 0 9 5 16 10 16 6 0 10 -4 10 -9z"/>
<path d="M20398 9013 c-2 -10 -2 -33 0 -51 4 -29 8 -33 30 -30 36 4 55 36 39
68 -16 31 -64 40 -69 13z m47 -33 c0 -13 -6 -25 -12 -27 -9 -3 -13 6 -13 27 0
21 4 30 13 28 6 -3 12 -15 12 -28z"/>
<path d="M20500 8980 c0 -49 1 -50 30 -50 17 0 30 5 30 10 0 6 -9 10 -20 10
-11 0 -20 5 -20 10 0 6 7 10 15 10 8 0 15 5 15 10 0 6 -9 10 -21 10 -11 0 -17
5 -14 10 3 6 15 10 26 10 11 0 17 5 14 10 -3 6 -17 10 -31 10 -22 0 -24 -4
-24 -50z"/>
<path d="M20580 8980 c0 -27 5 -50 10 -50 6 0 10 7 10 15 0 8 7 15 15 15 8 0
15 5 15 10 0 6 -7 10 -15 10 -8 0 -15 7 -15 15 0 8 9 15 20 15 11 0 20 5 20
10 0 6 -13 10 -30 10 -29 0 -30 -1 -30 -50z"/>
<path d="M20963 9022 c-20 -3 -23 -10 -23 -48 0 -43 1 -44 33 -43 29 1 29 2 8
8 -33 9 -38 28 -9 34 l23 4 -22 8 c-31 10 -29 23 5 27 15 2 23 5 17 9 -5 3
-20 3 -32 1z"/>
<path d="M19510 8993 c0 -16 4 -34 8 -40 5 -7 8 4 7 27 0 22 -3 40 -7 40 -5 0
-8 -12 -8 -27z"/>
<path d="M19770 8974 c0 -26 4 -43 10 -39 5 3 6 13 3 23 -5 12 1 10 22 -8 l29
-25 -17 28 c-10 15 -13 27 -7 27 5 0 10 9 10 20 0 11 -4 20 -9 20 -5 0 -8 -6
-7 -12 0 -7 -3 -13 -9 -13 -5 0 -9 6 -9 13 1 6 -2 12 -7 12 -5 0 -9 -21 -9
-46z"/>
<path d="M20660 8975 c0 -44 0 -45 33 -44 23 1 26 3 10 6 -25 5 -32 33 -8 33
8 0 15 5 15 10 0 6 -7 10 -15 10 -23 0 -18 18 8 23 16 3 13 5 -10 6 -33 1 -33
0 -33 -44z"/>
<path d="M20752 8975 c1 -40 2 -43 5 -15 l5 35 29 -35 28 -35 -1 50 c0 28 -3
38 -5 23 -2 -16 -6 -28 -9 -28 -3 0 -16 12 -29 28 l-24 27 1 -50z"/>
<path d="M20854 9008 c-4 -6 4 -21 20 -33 29 -23 22 -41 -10 -28 -12 4 -15 3
-10 -5 11 -18 46 -14 53 5 4 11 -1 22 -15 31 -25 16 -30 37 -7 28 8 -3 15 -1
15 4 0 14 -37 12 -46 -2z"/>
<path d="M19944 8970 c1 -17 4 -30 9 -30 10 0 9 48 -2 54 -4 3 -8 -8 -7 -24z"/>
<path d="M20009 8968 c4 -28 6 -29 9 -9 2 13 0 27 -5 32 -6 6 -7 -3 -4 -23z"/>
<path d="M19600 8965 c0 -14 2 -25 4 -25 2 0 6 11 8 25 3 14 1 25 -3 25 -5 0
-9 -11 -9 -25z"/>
<path d="M19643 8974 c-3 -9 2 -23 13 -32 17 -16 17 -16 5 0 -7 10 -11 25 -7
33 3 8 3 15 0 15 -2 0 -7 -7 -11 -16z"/>
<path d="M19742 8965 c0 -16 2 -22 5 -12 2 9 2 23 0 30 -3 6 -5 -1 -5 -18z"/>
<path d="M19842 8963 c2 -19 10 -29 23 -31 20 -4 20 -3 1 11 -12 9 -17 20 -13
31 4 9 2 16 -4 16 -6 0 -9 -12 -7 -27z"/>
<path d="M19913 8945 c0 -27 2 -38 4 -22 2 15 2 37 0 50 -2 12 -4 0 -4 -28z"/>
<path d="M20042 8965 c0 -16 2 -22 5 -12 2 9 2 23 0 30 -3 6 -5 -1 -5 -18z"/>
<path d="M20070 8965 c0 -14 5 -25 10 -25 6 0 10 11 10 25 0 14 -4 25 -10 25
-5 0 -10 -11 -10 -25z"/>
<path d="M19706 8945 c4 -8 8 -15 10 -15 2 0 4 7 4 15 0 8 -4 15 -10 15 -5 0
-7 -7 -4 -15z"/>
<path d="M19403 8943 c15 -2 39 -2 55 0 15 2 2 4 -28 4 -30 0 -43 -2 -27 -4z"/>
<path d="M20143 8943 c15 -2 39 -2 55 0 15 2 2 4 -28 4 -30 0 -43 -2 -27 -4z"/>
<path d="M16528 8923 c6 -2 18 -2 25 0 6 3 1 5 -13 5 -14 0 -19 -2 -12 -5z"/>
<path d="M19711 8853 c0 -21 3 -31 6 -23 4 8 13 20 21 26 17 12 8 34 -14 34
-10 0 -14 -11 -13 -37z m29 17 c0 -5 -4 -10 -10 -10 -5 0 -10 5 -10 10 0 6 5
10 10 10 6 0 10 -4 10 -10z"/>
<path d="M19762 8859 c2 -18 10 -35 18 -37 12 -4 13 -3 2 10 -7 9 -10 22 -6
31 3 8 0 18 -6 22 -8 5 -10 -3 -8 -26z"/>
<path d="M19808 8884 c-25 -25 10 -76 37 -54 8 7 15 18 15 24 0 6 -5 3 -11 -6
-15 -27 -27 -22 -31 13 -2 17 -6 27 -10 23z"/>
<path d="M19873 8874 c-3 -9 0 -20 8 -25 12 -8 12 -11 -1 -19 -11 -7 -11 -10
-2 -10 19 0 27 31 11 41 -12 8 -12 11 1 19 11 7 11 10 2 10 -7 0 -15 -7 -19
-16z"/>
<path d="M20400 8880 c0 -5 5 -10 10 -10 6 0 10 5 10 10 0 6 -4 10 -10 10 -5
0 -10 -4 -10 -10z"/>
<path d="M20470 8855 c10 -12 10 -15 -3 -15 -8 0 -18 6 -20 13 -4 9 -8 8 -16
-3 -7 -10 -11 -11 -11 -2 0 6 -4 12 -10 12 -17 0 -11 -28 8 -34 22 -7 130 -2
138 7 9 8 -3 37 -15 37 -6 0 -8 -6 -5 -14 4 -9 -3 -13 -20 -13 -15 0 -26 5
-26 13 0 8 -7 14 -16 14 -14 0 -14 -3 -4 -15z"/>
<path d="M20602 8854 c-7 -8 -12 -20 -9 -27 2 -7 9 -2 16 11 15 28 11 36 -7
16z"/>
<path d="M20642 8843 c-13 -3 -21 -10 -19 -16 3 -7 11 -10 18 -8 8 2 22 3 32
3 15 -1 16 2 7 14 -7 8 -13 13 -14 13 0 -1 -11 -4 -24 -6z"/>
<path d="M20940 8841 c0 -5 5 -13 10 -16 6 -3 10 -2 10 4 0 5 -4 13 -10 16 -5
3 -10 2 -10 -4z"/>
<path d="M20755 8820 c-16 -7 -17 -9 -3 -9 9 -1 20 4 23 9 7 11 7 11 -20 0z"/>
<path d="M19662 8720 c0 -14 2 -19 5 -12 2 6 2 18 0 25 -3 6 -5 1 -5 -13z"/>
<path d="M19692 8720 c0 -14 2 -19 5 -12 2 6 2 18 0 25 -3 6 -5 1 -5 -13z"/>
<path d="M19790 8721 c0 -11 4 -22 9 -25 4 -3 6 6 3 19 -5 30 -12 33 -12 6z"/>
<path d="M19851 8714 c0 -16 3 -23 6 -16 4 10 8 10 21 0 12 -9 11 -5 -3 12
-11 14 -21 27 -22 29 -2 2 -3 -9 -2 -25z"/>
<path d="M19902 8715 c0 -16 2 -22 5 -12 2 9 2 23 0 30 -3 6 -5 -1 -5 -18z"/>
<path d="M16467 8687 c-6 -15 0 -26 24 -44 13 -10 16 -10 16 2 0 8 -6 15 -14
15 -7 0 -13 7 -13 15 0 8 8 15 18 14 11 0 13 -2 4 -6 -10 -4 -7 -9 8 -20 19
-13 24 -13 31 -2 6 11 11 11 20 2 9 -9 16 -10 26 -1 10 8 17 8 25 0 18 -18 38
-14 38 6 1 16 1 16 11 -1 10 -18 11 -18 26 0 8 10 12 13 9 7 -3 -7 4 -14 17
-18 35 -9 45 -7 50 12 4 15 5 15 6 -2 1 -16 3 -16 17 -5 13 10 17 10 25 -2 6
-10 9 -7 9 13 l0 28 -67 -4 c-38 -3 -69 -9 -71 -16 -3 -7 -11 -5 -23 6 -17 16
-19 16 -19 1 0 -10 -4 -17 -10 -17 -5 0 -9 6 -7 12 1 7 -8 14 -20 16 -18 3
-23 -2 -24 -20 l0 -23 -11 23 c-13 27 -24 28 -33 5 -6 -17 -7 -17 -16 0 -12
20 -45 23 -52 4z m150 -3 c-3 -3 -12 -4 -19 -1 -8 3 -5 6 6 6 11 1 17 -2 13
-5z m124 -1 c-11 -5 -11 -7 0 -14 11 -7 10 -9 -3 -9 -18 0 -23 11 -11 23 3 4
11 7 17 6 6 0 5 -3 -3 -6z"/>
<path d="M20427 8670 c3 -11 7 -20 9 -20 2 0 4 9 4 20 0 11 -4 20 -9 20 -5 0
-7 -9 -4 -20z"/>
<path d="M20492 8660 c0 -14 2 -19 5 -12 2 6 2 18 0 25 -3 6 -5 1 -5 -13z"/>
<path d="M19637 8649 c4 -13 8 -18 11 -10 2 7 -1 18 -6 23 -8 8 -9 4 -5 -13z"/>
<path d="M19663 8654 c-3 -8 -2 -19 3 -24 5 -5 9 1 9 16 0 28 -3 30 -12 8z"/>
<path d="M19705 8645 c0 -13 3 -21 8 -18 4 2 7 10 7 18 0 8 -3 16 -7 18 -5 3
-8 -5 -8 -18z"/>
<path d="M19742 8645 c0 -16 2 -22 5 -12 2 9 2 23 0 30 -3 6 -5 -1 -5 -18z"/>
<path d="M19793 8654 c-3 -8 -2 -19 3 -24 5 -5 9 1 9 16 0 28 -3 30 -12 8z"/>
<path d="M19851 8662 c-1 -7 5 -20 13 -27 11 -12 14 -10 14 12 0 15 -3 20 -8
13 -6 -9 -9 -9 -13 1 -4 11 -6 11 -6 1z"/>
<path d="M19902 8645 c0 -16 2 -22 5 -12 2 9 2 23 0 30 -3 6 -5 -1 -5 -18z"/>
<path d="M19995 8660 c3 -5 8 -10 11 -10 2 0 4 5 4 10 0 6 -5 10 -11 10 -5 0
-7 -4 -4 -10z"/>
<path d="M19966 8637 c3 -10 9 -15 12 -12 3 3 0 11 -7 18 -10 9 -11 8 -5 -6z"/>
<path d="M16670 8630 c0 -6 -11 -8 -25 -4 -14 3 -25 2 -25 -3 0 -6 17 -10 39
-9 27 0 37 4 34 13 -6 15 -23 17 -23 3z"/>
<path d="M16741 8624 c0 -11 3 -14 6 -6 3 7 2 16 -1 19 -3 4 -6 -2 -5 -13z"/>
<path d="M16785 8630 c-21 -9 -21 -9 12 -16 17 -3 21 0 17 11 -4 8 -7 15 -8
14 0 0 -10 -4 -21 -9z"/>
<path d="M20400 8629 c0 -5 5 -7 10 -4 6 3 10 8 10 11 0 2 -4 4 -10 4 -5 0
-10 -5 -10 -11z"/>
<path d="M16580 8620 c-9 -6 -10 -10 -3 -10 6 0 15 5 18 10 8 12 4 12 -15 0z"/>
<path d="M20420 8615 c0 -9 24 -30 38 -32 19 -4 14 3 -13 21 -14 9 -25 14 -25
11z"/>
<path d="M17861 8593 c-1 -16 5 -23 17 -23 10 0 13 3 6 8 -6 4 -14 14 -17 22
-4 10 -6 8 -6 -7z"/>
<path d="M17627 8593 c-12 -11 -8 -23 8 -23 8 0 15 -4 15 -10 0 -15 -26 -12
-40 5 -20 24 -24 10 -5 -18 11 -17 13 -27 6 -32 -6 -3 -10 -23 -10 -43 1 -23
3 -29 6 -14 3 15 11 22 29 22 29 0 32 -16 4 -23 -11 -3 -20 -12 -20 -21 0 -9
-8 -16 -17 -16 -11 0 -14 -3 -7 -8 5 -4 10 -26 9 -49 -1 -51 5 -53 130 -52
100 1 230 15 163 18 -37 1 -38 2 -38 41 0 25 5 40 13 40 6 0 1 6 -13 14 -14 7
-29 10 -35 6 -5 -4 -27 -10 -49 -13 -32 -5 -39 -3 -43 13 -6 23 -7 24 -32 8
-18 -11 -18 -12 2 -39 17 -23 18 -31 7 -44 -16 -20 -74 -19 -91 1 -14 17 -3
44 22 53 12 4 12 2 0 -12 -19 -23 -7 -47 24 -47 35 0 41 24 16 56 -12 15 -21
30 -21 35 0 14 32 39 42 33 19 -12 78 -22 72 -13 -3 5 -12 9 -20 9 -8 0 -12 5
-9 10 9 15 45 -7 45 -27 0 -14 2 -14 15 3 10 14 14 15 15 5 0 -12 3 -12 12 -3
16 16 28 15 28 -3 0 -8 5 -15 10 -15 7 0 7 6 0 19 -14 27 -13 78 3 84 7 3 5 6
-5 6 -10 1 -18 6 -18 11 0 7 -6 7 -19 0 -11 -5 -49 -9 -85 -9 -55 1 -69 5 -89
25 -13 13 -27 21 -30 17z"/>
<path d="M17810 8580 c0 -5 4 -10 9 -10 6 0 13 5 16 10 3 6 -1 10 -9 10 -9 0
-16 -4 -16 -10z"/>
<path d="M17916 8578 c3 -5 10 -6 15 -3 13 9 11 12 -6 12 -8 0 -12 -4 -9 -9z"/>
<path d="M20061 8564 c0 -11 3 -14 6 -6 3 7 2 16 -1 19 -3 4 -6 -2 -5 -13z"/>
<path d="M17898 8548 c5 -5 16 -8 23 -6 8 3 3 7 -10 11 -17 4 -21 3 -13 -5z"/>
<path d="M21138 8523 c12 -2 32 -2 45 0 12 2 2 4 -23 4 -25 0 -35 -2 -22 -4z"/>
<path d="M17555 8494 c-9 -15 -12 -23 -6 -20 11 7 35 46 28 46 -3 0 -12 -12
-22 -26z"/>
<path d="M17920 8489 c-7 -11 -10 -23 -7 -25 2 -2 9 7 15 21 14 30 7 33 -8 4z"/>
<path d="M8186 8449 c-65 -18 -98 -82 -72 -143 18 -44 52 -66 99 -66 31 0 46
7 73 34 19 19 34 41 34 50 0 13 14 16 84 16 80 0 115 -11 80 -24 -12 -4 -14
-19 -12 -63 l3 -58 65 -3 c66 -3 87 -12 75 -31 -4 -8 -13 -7 -28 4 -29 20 -53
19 -77 -5 -17 -17 -33 -20 -100 -20 -67 0 -83 3 -100 20 -25 25 -55 25 -79 1
-20 -20 -20 -20 -23 16 -5 62 -28 53 -28 -11 0 -47 3 -56 18 -56 9 0 23 -9 30
-20 7 -11 23 -20 37 -20 14 0 34 9 45 20 17 17 33 20 100 20 67 0 83 -3 100
-20 11 -11 30 -20 42 -20 26 0 98 73 98 100 0 19 -25 50 -40 50 -4 0 -27 29
-50 65 -24 36 -51 70 -61 75 -10 6 -54 10 -99 10 -75 0 -81 2 -89 23 -17 45
-74 70 -125 56z m81 -51 c63 -59 -19 -160 -97 -118 -29 16 -42 67 -25 100 8
16 20 30 27 33 31 13 73 6 95 -15z m272 -137 c27 -38 27 -41 -9 -41 -28 0 -30
3 -30 35 0 43 12 44 39 6z m-252 -127 c9 -23 -13 -40 -32 -24 -12 10 -13 16
-4 26 15 18 28 18 36 -2z m280 0 c8 -21 -13 -42 -28 -27 -13 13 -5 43 11 43 6
0 13 -7 17 -16z"/>
<path d="M8220 8365 c-7 -9 -20 -13 -28 -10 -24 9 -34 -6 -16 -26 9 -10 21
-19 25 -19 10 0 59 52 59 62 0 14 -27 9 -40 -7z"/>
<path d="M17556 8442 c-3 -5 1 -9 9 -9 8 0 15 4 15 9 0 4 -4 8 -9 8 -6 0 -12
-4 -15 -8z"/>
<path d="M17745 8440 c-3 -5 1 -10 10 -10 9 0 13 5 10 10 -3 6 -8 10 -10 10
-2 0 -7 -4 -10 -10z"/>
<path d="M17910 8441 c0 -6 4 -13 10 -16 6 -3 7 1 4 9 -7 18 -14 21 -14 7z"/>
<path d="M19850 8380 c-6 -11 -8 -20 -6 -20 3 0 10 9 16 20 6 11 8 20 6 20 -3
0 -10 -9 -16 -20z"/>
<path d="M19809 8323 c-13 -16 -12 -17 4 -4 9 7 17 15 17 17 0 8 -8 3 -21 -13z"/>
<path d="M20410 8323 c0 -11 5 -11 20 -3 11 6 20 12 20 13 0 2 -9 3 -20 3 -11
0 -20 -6 -20 -13z"/>
<path d="M20522 8320 c0 -14 2 -19 5 -12 2 6 2 18 0 25 -3 6 -5 1 -5 -13z"/>
<path d="M20550 8325 c0 -9 5 -15 11 -13 6 2 11 8 11 13 0 5 -5 11 -11 13 -6
2 -11 -4 -11 -13z"/>
<path d="M20595 8320 c-3 -5 -1 -10 4 -10 6 0 11 5 11 10 0 6 -2 10 -4 10 -3
0 -8 -4 -11 -10z"/>
<path d="M11142 8305 c-7 -8 -8 -15 -3 -15 6 0 8 -6 5 -13 -3 -8 3 -13 16 -13
13 0 19 5 16 13 -3 7 -1 13 5 13 6 0 4 7 -5 15 -18 18 -18 18 -34 0z"/>
<path d="M12957 8313 c-4 -3 -7 -24 -7 -45 0 -35 -2 -38 -19 -28 -29 15 -39
13 -66 -15 -29 -29 -34 -88 -9 -123 13 -19 23 -22 70 -20 l54 2 0 118 c0 108
-5 130 -23 111z m-9 -150 c3 -49 1 -53 -23 -59 -35 -9 -55 11 -55 55 0 44 16
63 50 59 23 -3 25 -8 28 -55z"/>
<path d="M11934 8299 c-10 -17 13 -36 27 -22 12 12 4 33 -11 33 -5 0 -12 -5
-16 -11z"/>
<path d="M12545 8303 c-56 -13 -88 -90 -65 -158 15 -46 44 -65 98 -65 75 0
119 73 92 155 -17 50 -72 80 -125 68z m72 -38 c48 -33 32 -147 -22 -161 -60
-15 -102 36 -90 108 11 60 65 86 112 53z"/>
<path d="M8920 8190 c0 -91 3 -110 15 -110 11 0 15 12 15 50 l0 50 40 0 c22 0
40 5 40 10 0 6 -18 10 -40 10 l-40 0 0 40 0 40 50 0 c28 0 50 5 50 10 0 6 -28
10 -65 10 l-65 0 0 -110z"/>
<path d="M9090 8190 c0 -91 3 -110 15 -110 11 0 15 12 15 45 0 40 2 45 23 45
16 0 29 -12 47 -45 16 -29 31 -45 43 -45 18 0 18 2 5 23 -43 66 -43 63 -20 92
46 59 14 105 -73 105 l-55 0 0 -110z m104 74 c31 -31 15 -62 -37 -71 l-37 -6
0 47 c0 44 1 46 29 46 16 0 37 -7 45 -16z"/>
<path d="M9280 8190 l0 -110 65 0 c51 0 65 3 65 15 0 11 -12 15 -50 15 l-50 0
0 35 c0 35 0 35 46 35 59 0 55 24 -4 28 -41 3 -42 4 -42 38 l0 34 50 0 c28 0
50 5 50 10 0 6 -28 10 -65 10 l-65 0 0 -110z"/>
<path d="M9460 8190 l0 -110 65 0 c51 0 65 3 65 15 0 11 -12 15 -50 15 l-50 0
0 35 c0 35 0 35 46 35 59 0 55 24 -4 28 -41 3 -42 4 -42 38 l0 34 50 0 c28 0
50 5 50 10 0 6 -28 10 -65 10 l-65 0 0 -110z"/>
<path d="M9730 8190 l0 -110 44 0 c25 0 56 4 70 10 61 23 75 141 21 187 -20
18 -38 23 -81 23 l-54 0 0 -110z m119 65 c21 -21 22 -109 1 -129 -8 -8 -32
-18 -52 -21 l-38 -7 0 92 0 93 37 -6 c20 -4 44 -13 52 -22z"/>
<path d="M9950 8190 l0 -110 65 0 c51 0 65 3 65 15 0 11 -12 15 -50 15 l-50 0
0 35 c0 35 0 35 46 35 59 0 55 24 -4 28 -41 3 -42 4 -42 38 l0 34 50 0 c28 0
50 5 50 10 0 6 -28 10 -65 10 l-65 0 0 -110z"/>
<path d="M10130 8190 l0 -110 65 0 c51 0 65 3 65 15 0 11 -12 15 -50 15 l-50
0 0 95 c0 78 -3 95 -15 95 -12 0 -15 -19 -15 -110z"/>
<path d="M10290 8190 c0 -91 3 -110 15 -110 12 0 15 19 15 110 0 91 -3 110
-15 110 -12 0 -15 -19 -15 -110z"/>
<path d="M10360 8293 c0 -5 17 -54 37 -110 27 -73 43 -103 54 -103 19 0 17 -3
65 128 29 79 32 93 17 90 -11 -2 -27 -32 -47 -90 -17 -48 -33 -85 -37 -82 -4
2 -10 16 -13 31 -17 66 -50 143 -62 143 -8 0 -14 -3 -14 -7z"/>
<path d="M10590 8190 l0 -110 65 0 c51 0 65 3 65 15 0 11 -12 15 -50 15 l-50
0 0 35 c0 35 0 35 46 35 59 0 55 24 -4 28 -41 3 -42 4 -42 38 l0 34 50 0 c28
0 50 5 50 10 0 6 -28 10 -65 10 l-65 0 0 -110z"/>
<path d="M10770 8190 c0 -91 3 -110 15 -110 11 0 15 12 15 45 0 40 2 45 23 45
16 0 29 -12 47 -45 16 -29 31 -45 43 -45 18 0 18 2 5 23 -43 66 -43 63 -20 92
46 59 14 105 -73 105 l-55 0 0 -110z m104 74 c31 -31 15 -62 -37 -71 l-37 -6
0 47 c0 44 1 46 29 46 16 0 37 -7 45 -16z"/>
<path d="M10942 8293 c2 -5 18 -36 36 -70 20 -40 32 -77 32 -103 0 -29 4 -40
15 -40 11 0 15 11 15 40 0 26 12 60 35 103 39 71 41 77 22 77 -7 0 -26 -26
-41 -57 l-28 -58 -29 58 c-17 33 -36 57 -45 57 -9 0 -14 -3 -12 -7z"/>
<path d="M11770 8190 c0 -91 3 -110 15 -110 11 0 15 12 15 50 l0 50 40 0 c22
0 40 5 40 10 0 6 -18 10 -40 10 l-40 0 0 40 0 40 50 0 c28 0 50 5 50 10 0 6
-28 10 -65 10 l-65 0 0 -110z"/>
<path d="M18132 8280 c0 -14 2 -19 5 -12 2 6 2 18 0 25 -3 6 -5 1 -5 -13z"/>
<path d="M12280 8265 c0 -16 -6 -25 -15 -25 -19 0 -20 -16 0 -23 10 -4 15 -25
17 -69 l3 -63 33 -3 c18 -2 32 1 32 7 0 6 -9 11 -20 11 -23 0 -33 30 -28 81 2
26 8 35 26 37 12 2 22 7 22 12 0 5 -10 10 -22 12 -15 2 -24 11 -26 26 -5 30
-22 28 -22 -3z"/>
<path d="M19834 8266 c-18 -8 -35 -20 -40 -28 -6 -10 -5 -11 7 -1 8 6 30 18
49 26 19 9 31 16 25 16 -5 0 -24 -6 -41 -13z"/>
<path d="M20450 8250 c0 -11 4 -20 9 -20 5 0 7 9 4 20 -3 11 -7 20 -9 20 -2 0
-4 -9 -4 -20z"/>
<path d="M20485 8260 c-8 -13 3 -30 18 -30 7 0 6 4 -3 10 -13 9 -13 11 0 20 9
6 10 10 3 10 -6 0 -15 -4 -18 -10z"/>
<path d="M20521 8244 c0 -11 3 -14 6 -6 3 7 2 16 -1 19 -3 4 -6 -2 -5 -13z"/>
<path d="M11343 8240 c-28 -11 -43 -40 -43 -82 0 -51 24 -78 70 -78 59 0 88
40 76 105 -4 18 -12 38 -19 43 -19 16 -60 22 -84 12z m71 -51 c20 -58 -28
-113 -69 -79 -18 15 -20 81 -3 98 21 21 62 10 72 -19z"/>
<path d="M11555 8240 c-11 -4 -30 -6 -42 -3 -22 5 -23 3 -23 -76 0 -65 3 -81
15 -81 12 0 15 13 15 58 0 65 11 82 52 82 28 0 28 0 28 -70 0 -56 3 -70 15
-70 12 0 15 15 15 75 0 63 -3 76 -19 85 -23 12 -29 12 -56 0z"/>
<path d="M12153 8240 c-17 -7 -23 -18 -23 -40 0 -28 5 -34 40 -47 51 -21 51
-48 0 -49 -53 -1 -51 -19 2 -22 39 -3 49 0 58 18 17 32 4 56 -41 73 -49 19
-47 41 4 45 41 4 49 17 15 26 -28 7 -27 7 -55 -4z"/>
<path d="M13080 8243 c-36 -13 -50 -36 -50 -83 0 -61 22 -82 81 -78 23 2 44 8
46 14 2 6 -10 8 -32 6 -39 -5 -65 11 -65 39 0 16 8 19 50 19 49 0 50 1 50 29
0 43 -39 69 -80 54z m54 -39 c9 -24 -2 -34 -40 -34 -26 0 -34 4 -34 18 0 25 9
32 41 32 15 0 29 -7 33 -16z"/>
<path d="M11940 8160 c0 -64 3 -80 15 -80 12 0 15 16 15 80 0 64 -3 80 -15 80
-12 0 -15 -16 -15 -80z"/>
<path d="M12010 8160 c0 -63 3 -80 15 -80 10 0 15 16 17 62 3 61 4 63 36 72
33 9 44 26 16 26 -8 0 -24 -5 -35 -10 -13 -7 -19 -7 -19 0 0 5 -7 10 -15 10
-12 0 -15 -16 -15 -80z"/>
<path d="M12720 8160 c0 -63 3 -80 15 -80 10 0 15 16 17 62 3 61 4 63 36 72
33 9 44 26 16 26 -8 0 -24 -5 -35 -10 -13 -7 -19 -7 -19 0 0 5 -7 10 -15 10
-12 0 -15 -16 -15 -80z"/>
<path d="M13200 8160 c0 -63 3 -80 15 -80 10 0 15 16 17 62 3 61 4 63 36 72
33 9 44 26 16 26 -8 0 -24 -5 -35 -10 -13 -7 -19 -7 -19 0 0 5 -7 10 -15 10
-12 0 -15 -16 -15 -80z"/>
<path d="M17444 8217 c3 -10 6 -22 6 -26 0 -4 8 -7 18 -8 11 -1 17 6 18 23 1
13 -2 24 -7 24 -5 0 -9 -8 -9 -17 0 -15 -2 -14 -16 3 -14 17 -15 17 -10 1z"/>
<path d="M17507 8224 c-16 -16 -7 -44 14 -44 15 0 20 5 17 22 -3 22 -19 33
-31 22z m23 -25 c0 -5 -4 -9 -10 -9 -5 0 -10 7 -10 16 0 8 5 12 10 9 6 -3 10
-10 10 -16z"/>
<path d="M17557 8224 c-16 -16 -7 -44 14 -44 15 0 20 5 17 22 -3 22 -19 33
-31 22z m23 -19 c0 -8 -4 -15 -10 -15 -5 0 -10 7 -10 15 0 8 5 15 10 15 6 0
10 -7 10 -15z"/>
<path d="M17608 8205 c6 -32 17 -32 18 0 1 14 -4 25 -11 25 -8 0 -10 -9 -7
-25z"/>
<path d="M17649 8228 c-5 -17 -4 -48 3 -48 4 0 8 11 8 25 0 20 -7 34 -11 23z"/>
<path d="M17670 8207 c0 -15 4 -27 8 -27 10 0 9 36 -1 46 -4 4 -7 -5 -7 -19z"/>
<path d="M17723 8222 c-8 -5 -8 -12 2 -25 7 -11 16 -14 19 -8 4 5 2 12 -4 16
-6 4 -8 11 -5 16 7 11 4 11 -12 1z"/>
<path d="M17762 8205 c0 -16 2 -22 5 -12 2 9 2 23 0 30 -3 6 -5 -1 -5 -18z"/>
<path d="M17780 8205 c0 -14 5 -25 10 -25 6 0 10 11 10 25 0 14 -4 25 -10 25
-5 0 -10 -11 -10 -25z"/>
<path d="M17862 8210 c1 -17 8 -26 20 -26 13 0 18 8 17 26 0 22 -1 23 -8 5 -8
-19 -8 -19 -19 0 -11 19 -11 18 -10 -5z"/>
<path d="M17920 8204 c0 -23 2 -24 15 -10 8 8 15 19 15 25 0 6 -7 11 -15 11
-9 0 -15 -10 -15 -26z"/>
<path d="M17967 8224 c-16 -16 -7 -44 14 -44 15 0 20 5 17 22 -3 22 -19 33
-31 22z m23 -19 c0 -8 -4 -15 -10 -15 -5 0 -10 7 -10 15 0 8 5 15 10 15 6 0
10 -7 10 -15z"/>
<path d="M18014 8216 c-7 -19 3 -36 22 -36 10 0 14 8 12 22 -4 26 -26 36 -34
14z m22 -23 c-10 -10 -19 5 -10 18 6 11 8 11 12 0 2 -7 1 -15 -2 -18z"/>
<path d="M17400 8216 c0 -4 7 -14 15 -22 8 -9 15 -11 15 -6 0 5 -7 15 -15 22
-8 7 -15 9 -15 6z"/>
<path d="M17824 8204 c3 -9 6 -18 6 -20 0 -2 4 -4 9 -4 5 0 7 9 4 20 -3 11
-10 20 -15 20 -6 0 -7 -7 -4 -16z"/>
<path d="M16782 8178 c10 -6 10 -8 -1 -8 -8 0 -11 -6 -7 -16 4 -12 2 -15 -9
-10 -8 3 -15 1 -15 -4 0 -20 29 -9 49 18 15 20 20 23 21 10 0 -9 -4 -20 -10
-23 -5 -3 -10 -11 -10 -17 0 -7 6 -6 15 2 8 7 15 22 15 35 0 18 -6 22 -30 22
-20 0 -26 -3 -18 -9z"/>
<path d="M16611 8168 c-1 -17 -11 -22 -38 -19 -7 1 -13 -3 -13 -9 0 -6 -5 -8
-12 -4 -22 14 -68 12 -68 -3 0 -8 -4 -11 -10 -8 -5 3 -10 2 -10 -4 0 -18 24
-17 43 2 17 17 20 17 36 3 13 -12 20 -13 29 -4 9 9 12 9 12 0 0 -8 8 -5 21 7
12 11 19 27 16 38 -4 16 -5 16 -6 1z"/>
<path d="M18131 8164 c0 -11 3 -14 6 -6 3 7 2 16 -1 19 -3 4 -6 -2 -5 -13z"/>
<path d="M16720 8151 c0 -12 5 -21 10 -21 6 0 10 6 10 14 0 8 -4 18 -10 21 -5
3 -10 -3 -10 -14z"/>
<path d="M16650 8144 c-25 -15 -25 -15 10 -12 19 2 34 7 33 13 -2 15 -16 14
-43 -1z"/>
<path d="M18131 8123 c-1 -16 -8 -23 -28 -25 -25 -3 -26 -4 -7 -9 30 -9 47 4
41 32 -4 22 -4 22 -6 2z"/>
<path d="M17330 8089 c0 -5 5 -7 10 -4 6 3 10 8 10 11 0 2 -4 4 -10 4 -5 0
-10 -5 -10 -11z"/>
<path d="M17533 8083 c9 -2 25 -2 35 0 9 3 1 5 -18 5 -19 0 -27 -2 -17 -5z"/>
<path d="M17678 8083 c45 -2 119 -2 165 0 45 1 8 3 -83 3 -91 0 -128 -2 -82
-3z"/>
<path d="M17530 7991 c0 -6 5 -13 11 -17 8 -5 8 -8 0 -13 -6 -4 13 -7 41 -7
29 1 59 5 66 9 6 5 12 4 12 0 0 -5 12 -8 28 -8 20 1 28 7 30 23 2 12 -1 22 -6
22 -6 0 -8 -10 -5 -22 4 -23 4 -23 -10 1 -12 20 -15 21 -20 7 -4 -10 -11 -14
-17 -11 -6 4 -7 11 -4 17 4 6 1 9 -7 6 -8 -3 -14 -10 -14 -16 0 -7 -4 -12 -10
-12 -5 0 -10 5 -10 10 0 6 -4 10 -10 10 -5 0 -10 -5 -10 -12 0 -23 -25 -20
-26 4 -1 17 -3 18 -6 5 -2 -9 -9 -15 -14 -11 -5 3 -7 10 -4 15 4 5 1 9 -4 9
-6 0 -11 -4 -11 -9z"/>
<path d="M17730 7975 c0 -17 5 -25 18 -25 14 0 15 2 2 10 -8 5 -10 10 -4 10 6
0 11 7 11 15 0 8 -6 15 -14 15 -7 0 -13 -11 -13 -25z"/>
<path d="M17789 7998 c-8 -26 -5 -36 8 -31 11 4 12 8 3 13 -9 6 -9 9 1 13 10
4 10 6 2 6 -7 1 -13 0 -14 -1z"/>
<path d="M17820 7978 c0 -12 3 -18 7 -14 11 10 12 36 2 36 -5 0 -9 -10 -9 -22z"/>
<path d="M17849 7998 c0 -2 -2 -13 -3 -25 -2 -17 2 -23 18 -23 17 0 18 2 6 10
-13 9 -13 10 0 10 12 0 13 2 1 9 -11 7 -11 9 0 14 10 4 9 6 -3 6 -10 1 -18 0
-19 -1z"/>
<path d="M17890 7975 c0 -17 5 -25 18 -25 14 0 15 2 2 10 -13 9 -13 10 0 10
12 0 13 2 1 9 -11 7 -11 9 0 14 10 4 9 6 -3 6 -13 1 -18 -7 -18 -24z"/>
<path d="M21029 7909 c0 -13 -3 -18 -6 -11 -2 6 -9 12 -14 12 -4 0 -6 -7 -3
-15 7 -17 34 -21 34 -5 0 6 8 5 19 -2 15 -9 23 -9 36 2 13 11 18 11 25 1 6
-10 8 -11 12 -1 3 9 8 8 20 -4 9 -9 19 -12 22 -7 4 5 22 8 41 7 20 -2 40 2 46
10 14 17 16 16 -48 18 -29 2 -53 -2 -53 -7 0 -6 -5 -6 -12 1 -7 5 -22 6 -33 2
-11 -4 -26 -5 -34 -2 -9 3 -12 1 -7 -6 12 -20 -6 -13 -25 10 l-19 21 -1 -24z
m151 -9 c0 -5 -5 -10 -11 -10 -5 0 -7 5 -4 10 3 6 8 10 11 10 2 0 4 -4 4 -10z
m40 0 c0 -5 -4 -10 -10 -10 -5 0 -10 5 -10 10 0 6 5 10 10 10 6 0 10 -4 10
-10z m40 6 c0 -3 -4 -8 -10 -11 -5 -3 -10 -1 -10 4 0 6 5 11 10 11 6 0 10 -2
10 -4z"/>
<path d="M17590 7883 c0 -16 6 -23 20 -23 11 0 20 7 20 15 0 21 20 19 21 -2 0
-15 2 -15 9 2 7 17 9 17 9 3 1 -10 9 -18 19 -18 13 0 14 2 3 9 -11 7 -11 9 0
14 11 4 11 6 -1 6 -12 1 -12 3 -2 10 9 5 -8 8 -42 7 -51 0 -56 -2 -56 -23z
m30 2 c0 -8 -4 -15 -10 -15 -5 0 -10 7 -10 15 0 8 5 15 10 15 6 0 10 -7 10
-15z"/>
<path d="M17725 7902 c-10 -10 -5 -43 6 -37 6 4 8 14 5 22 -4 9 -1 13 6 10 7
-2 13 -10 12 -18 -1 -8 10 -15 27 -16 20 -2 26 2 24 15 -1 9 2 19 6 23 5 3
-11 5 -36 5 -25 1 -47 -1 -50 -4z m63 -27 c-3 -3 -9 2 -12 12 -6 14 -5 15 5 6
7 -7 10 -15 7 -18z"/>
<path d="M17830 7886 c0 -14 3 -27 8 -29 4 -3 7 8 7 24 1 16 -3 29 -7 29 -4 0
-8 -11 -8 -24z"/>
<path d="M21198 7832 c-10 -2 -18 -8 -18 -13 0 -6 5 -7 11 -3 7 4 25 7 40 6
16 0 31 2 33 6 4 8 -39 10 -66 4z"/>
<path d="M17521 7793 l1 -28 8 25 c7 22 15 11 11 -14 -1 -5 5 -6 13 -3 9 4 18
1 22 -5 4 -7 10 -6 16 3 7 11 11 11 15 2 3 -9 10 -10 22 -3 10 5 21 7 24 3 4
-3 23 -7 44 -9 20 -1 33 0 28 4 -12 9 -13 35 -1 43 5 4 -7 6 -25 5 -27 -2 -33
-6 -31 -22 2 -18 2 -18 -11 -1 -16 19 -28 23 -24 6 1 -6 -3 -13 -9 -16 -7 -2
-11 4 -10 13 0 9 -5 19 -11 21 -8 3 -13 -4 -13 -19 -1 -22 -1 -22 -15 -4 -11
14 -15 16 -15 5 -1 -10 -3 -9 -11 4 -15 26 -29 21 -28 -10z m171 -15 c-7 -7
-12 -8 -12 -2 0 14 12 26 19 19 2 -3 -1 -11 -7 -17z"/>
<path d="M17800 7793 c0 -14 3 -23 7 -19 10 10 11 46 1 46 -4 0 -8 -12 -8 -27z"/>
<path d="M17839 7815 c-1 0 -3 -10 -4 -23 -1 -12 0 -21 2 -18 3 3 15 1 27 -3
18 -8 21 -5 21 19 0 22 -4 27 -22 26 -13 0 -24 -1 -24 -1z"/>
<path d="M17904 7805 c-7 -17 1 -45 13 -45 4 0 8 14 8 30 0 32 -12 40 -21 15z"/>
<path d="M29941 7799 c-72 -25 -75 -30 -13 -28 58 2 75 10 70 31 -3 13 -10 13
-57 -3z"/>
<path d="M17740 7800 c0 -5 5 -10 11 -10 5 0 7 5 4 10 -3 6 -8 10 -11 10 -2 0
-4 -4 -4 -10z"/>
<path d="M17766 7794 c-8 -20 -8 -24 2 -24 4 0 8 9 9 20 2 24 -3 26 -11 4z"/>
<path d="M8952 7688 c-2 -59 0 -68 16 -68 11 0 13 3 5 8 -6 4 -14 34 -16 67
l-3 60 -2 -67z"/>
<path d="M8131 7727 c0 -10 -5 -15 -11 -12 -6 3 -7 -1 -4 -9 3 -9 10 -13 15
-10 5 3 9 0 9 -5 0 -6 4 -11 8 -11 4 0 8 9 8 19 0 11 -3 18 -7 15 -4 -2 -10 4
-12 13 -4 17 -5 17 -6 0z"/>
<path d="M8180 7730 c0 -5 9 -10 19 -10 17 0 21 -8 24 -52 l3 -53 2 53 c2 45
5 52 22 52 11 0 20 5 20 10 0 6 -20 10 -45 10 -25 0 -45 -4 -45 -10z"/>
<path d="M8302 7728 c-7 -7 -8 -17 -2 -28 7 -13 5 -22 -5 -30 -39 -32 2 -65
62 -51 21 5 33 9 27 10 -6 1 -10 13 -8 29 2 15 1 19 -2 10 -6 -21 -15 -23 -32
-6 -9 9 -8 16 4 29 30 34 -12 69 -44 37z m42 -6 c2 -4 1 -14 -4 -22 -7 -11
-12 -12 -21 -3 -6 6 -8 16 -5 22 8 13 23 14 30 3z m-10 -71 c13 -14 14 -20 4
-23 -21 -8 -38 2 -38 23 0 24 12 24 34 0z"/>
<path d="M8442 7724 c-53 -37 -6 -134 51 -106 21 10 20 11 -10 11 -36 1 -58
29 -48 61 7 23 41 44 55 35 6 -3 10 -1 10 4 0 16 -32 13 -58 -5z"/>
<path d="M19480 7729 c0 -5 9 -9 20 -9 11 0 20 2 20 4 0 2 -9 6 -20 9 -11 3
-20 1 -20 -4z"/>
<path d="M20090 7730 c0 -5 9 -10 21 -10 11 0 17 5 14 10 -3 6 -13 10 -21 10
-8 0 -14 -4 -14 -10z"/>
<path d="M17926 7721 c-3 -5 -15 -7 -26 -4 -12 3 -20 0 -20 -6 0 -7 5 -9 13
-5 8 5 7 2 -2 -9 -8 -10 -11 -20 -7 -24 3 -3 6 0 6 7 0 11 3 11 12 2 7 -7 28
-12 48 -12 26 0 31 3 20 10 -9 6 -11 10 -3 10 7 0 10 7 7 15 -9 22 -24 18 -24
-5 0 -11 -4 -20 -9 -20 -5 0 -8 11 -6 25 2 26 0 31 -9 16z"/>
<path d="M19770 7720 c0 -5 5 -10 10 -10 6 0 10 5 10 10 0 6 -4 10 -10 10 -5
0 -10 -4 -10 -10z"/>
<path d="M19850 7719 c0 -5 5 -7 10 -4 6 3 10 8 10 11 0 2 -4 4 -10 4 -5 0
-10 -5 -10 -11z"/>
<path d="M17469 7704 c-5 -17 -2 -20 20 -20 19 0 27 5 27 18 0 10 -4 18 -8 18
-4 0 -8 -7 -8 -15 0 -21 -18 -19 -22 3 -3 14 -5 14 -9 -4z"/>
<path d="M17533 7693 c-1 -24 -1 -25 7 -8 11 26 12 35 2 35 -4 0 -8 -12 -9
-27z"/>
<path d="M17564 7698 c-3 -11 -3 -22 0 -25 3 -4 6 2 6 12 0 18 1 18 14 -1 8
-10 18 -16 22 -11 4 4 2 7 -4 7 -6 0 -9 8 -7 18 4 25 -23 24 -31 0z"/>
<path d="M17620 7704 c0 -9 5 -14 12 -12 18 6 21 28 4 28 -9 0 -16 -7 -16 -16z"/>
<path d="M17655 7697 c-10 -21 -9 -23 27 -23 21 -1 35 2 32 7 -3 5 -12 9 -20
9 -8 0 -14 7 -14 15 0 22 -14 18 -25 -8z"/>
<path d="M17741 7707 c-9 -11 -8 -17 3 -26 18 -15 48 -3 44 18 -4 21 -32 26
-47 8z m31 -12 c0 -5 -5 -11 -11 -13 -6 -2 -11 4 -11 13 0 9 5 15 11 13 6 -2
11 -8 11 -13z"/>
<path d="M17850 7693 c0 -30 9 -27 15 6 2 11 0 21 -6 21 -5 0 -9 -12 -9 -27z"/>
<path d="M8533 7703 c-21 -8 -15 -33 12 -45 39 -18 30 -34 -15 -28 -11 1 -12
-1 -4 -10 17 -17 54 -3 54 21 0 10 -6 19 -14 19 -20 0 -43 30 -25 31 8 1 18 1
22 0 5 -1 6 3 2 9 -7 11 -13 11 -32 3z"/>
<path d="M8660 7699 c-13 -9 -13 -10 0 -8 8 1 21 1 28 0 17 -1 15 -58 -3 -64
-20 -8 -29 11 -15 28 7 9 8 15 2 15 -5 0 -15 -7 -22 -16 -18 -21 6 -46 38 -38
38 10 27 97 -11 94 -1 0 -9 -5 -17 -11z"/>
<path d="M8763 7703 c-21 -4 -23 -10 -23 -64 0 -33 4 -59 10 -59 6 0 10 9 10
21 0 12 5 19 13 16 23 -8 47 13 47 41 0 26 -16 54 -29 51 -4 -1 -16 -4 -28 -6z
m42 -43 c0 -18 -6 -26 -22 -28 -20 -3 -23 1 -23 28 0 27 3 31 23 28 16 -2 22
-10 22 -28z"/>
<path d="M8863 7703 c-21 -4 -23 -10 -23 -64 0 -33 4 -59 10 -59 6 0 10 9 10
21 0 14 5 19 14 16 16 -6 41 11 49 34 5 17 -18 60 -31 58 -4 -1 -17 -4 -29 -6z
m42 -43 c0 -18 -6 -26 -22 -28 -20 -3 -23 1 -23 28 0 27 3 31 23 28 16 -2 22
-10 22 -28z"/>
<path d="M8990 7693 c1 -5 7 -19 15 -33 20 -35 19 -68 -2 -73 -17 -4 -17 -5 0
-6 13 -1 25 15 43 54 27 62 28 65 15 65 -4 0 -13 -15 -18 -32 l-11 -33 -13 33
c-12 29 -30 44 -29 25z"/>
<path d="M17805 7680 c3 -5 11 -10 16 -10 6 0 7 5 4 10 -3 6 -11 10 -16 10 -6
0 -7 -4 -4 -10z"/>
<path d="M16375 7620 c3 -5 8 -10 11 -10 2 0 4 5 4 10 0 6 -5 10 -11 10 -5 0
-7 -4 -4 -10z"/>
<path d="M16916 7621 c-4 -5 3 -7 14 -4 23 6 26 13 6 13 -8 0 -17 -4 -20 -9z"/>
<path d="M16880 7600 c-8 -5 -12 -12 -9 -15 4 -3 12 1 19 10 14 17 11 19 -10
5z"/>
<path d="M16298 7563 c-26 -13 -28 -18 -28 -83 0 -72 6 -100 22 -100 5 0 6 5
3 10 -6 9 8 14 28 11 5 -1 6 3 3 8 -4 5 -2 12 4 16 11 7 14 156 3 154 -5 -1
-20 -8 -35 -16z"/>
<path d="M16965 7488 c3 -46 7 -100 8 -121 2 -74 22 -29 31 72 8 94 7 103 -10
116 -10 8 -23 15 -27 15 -5 0 -6 -37 -2 -82z"/>
<path d="M17516 7560 c18 -4 52 -6 77 -5 30 1 44 -2 40 -9 -5 -8 -3 -8 8 0 30
22 99 9 99 -19 0 -8 21 -12 65 -12 83 0 85 13 3 17 -34 2 -63 8 -65 13 -2 6
30 9 87 7 61 -3 90 0 90 7 0 8 -65 11 -217 10 -121 -1 -204 -4 -187 -9z"/>
<path d="M17340 7540 c0 -5 5 -10 10 -10 6 0 10 5 10 10 0 6 -4 10 -10 10 -5
0 -10 -4 -10 -10z"/>
<path d="M17486 7534 c-19 -19 -11 -40 9 -24 22 18 30 -8 9 -31 -17 -18 -17
-20 1 -33 12 -9 16 -19 11 -31 -5 -14 -9 -16 -18 -7 -16 16 -28 15 -28 -3 0
-8 9 -19 20 -25 27 -14 65 22 55 53 -3 12 -6 29 -6 37 1 8 1 25 1 38 0 13 4
21 9 18 5 -3 12 1 15 9 4 13 2 13 -14 5 -12 -7 -21 -7 -25 0 -9 14 -21 12 -39
-6z"/>
<path d="M17577 7532 c-26 -29 -23 -123 4 -148 21 -19 21 -18 40 5 26 32 27
121 1 144 -23 21 -25 21 -45 -1z m33 -72 c0 -27 -4 -50 -10 -50 -5 0 -10 23
-10 50 0 28 5 50 10 50 6 0 10 -22 10 -50z"/>
<path d="M17670 7535 c-7 -8 -15 -13 -19 -11 -15 10 5 -124 21 -141 16 -16 19
-16 38 2 38 34 22 165 -19 165 -5 0 -14 -7 -21 -15z m30 -75 c0 -27 -4 -50
-10 -50 -5 0 -10 23 -10 50 0 28 5 50 10 50 6 0 10 -22 10 -50z"/>
<path d="M17886 7531 c-3 -5 1 -14 9 -21 12 -10 15 -10 15 3 0 19 -16 31 -24
18z"/>
<path d="M17920 7460 l0 -80 30 0 c20 0 30 5 30 15 0 8 -7 15 -15 15 -12 0
-15 14 -15 65 0 51 -3 65 -15 65 -12 0 -15 -16 -15 -80z"/>
<path d="M17756 7457 c3 -8 1 -18 -5 -22 -17 -10 -13 -25 7 -25 14 0 15 2 2
10 -10 6 -11 10 -2 10 14 0 16 26 2 35 -5 3 -7 0 -4 -8z"/>
<path d="M17340 7449 c0 -5 5 -7 10 -4 6 3 10 8 10 11 0 2 -4 4 -10 4 -5 0
-10 -5 -10 -11z"/>
<path d="M17345 7411 c-3 -5 -1 -12 5 -16 5 -3 10 1 10 9 0 18 -6 21 -15 7z"/>
<path d="M17725 7391 c-6 -11 9 -23 19 -14 9 9 7 23 -3 23 -6 0 -12 -4 -16 -9z"/>
<path d="M17351 7364 c0 -11 3 -14 6 -6 3 7 2 16 -1 19 -3 4 -6 -2 -5 -13z"/>
<path d="M16270 7366 c0 -3 7 -11 15 -20 20 -19 51 -10 34 10 -10 13 -49 20
-49 10z"/>
<path d="M16366 7341 c-4 -5 3 -7 14 -4 23 6 26 13 6 13 -8 0 -17 -4 -20 -9z"/>
<path d="M16337 7295 c10 -13 24 -27 31 -30 7 -2 4 9 -8 25 -12 17 -26 30 -31
30 -6 0 -2 -11 8 -25z"/>
<path d="M16935 7293 l-18 -28 27 24 c28 26 31 31 17 31 -5 0 -17 -12 -26 -27z"/>
<path d="M16630 7260 l-215 -6 205 -1 c113 -1 225 2 250 6 38 7 40 8 10 8 -19
-1 -132 -4 -250 -7z"/>
</g>
</svg>
