<svg xmlns="http://www.w3.org/2000/svg" version="1.1" xmlns:xlink="http://www.w3.org/1999/xlink" xmlns:svgjs="http://svgjs.dev/svgjs" width="1500" height="1500" viewBox="0 0 1500 1500"><rect width="1500" height="1500" fill="#21232b"></rect><g transform="matrix(0.6666666666666666,0,0,0.6666666666666666,249.3939393939395,597.5463120212131)"><svg viewBox="0 0 396 121" data-background-color="#21232b" preserveAspectRatio="xMidYMid meet" height="458" width="1500" xmlns="http://www.w3.org/2000/svg" xmlns:xlink="http://www.w3.org/1999/xlink"><g id="tight-bounds" transform="matrix(1,0,0,1,0.23999999999995225,-0.08440094290429556)"><svg viewBox="0 0 395.52 121.1688018858086" height="121.1688018858086" width="395.52"><g><svg viewBox="0 0 514.758084614502 157.69776591265395" height="121.1688018858086" width="395.52"><g transform="matrix(1,0,0,1,119.23808461450207,48.73089863381858)"><svg viewBox="0 0 395.5199999999999 60.23596864501679" height="60.23596864501679" width="395.5199999999999"><g id="textblocktransform"><svg viewBox="0 0 395.5199999999999 60.23596864501679" height="60.23596864501679" width="395.5199999999999" id="textblock"><g><svg viewBox="0 0 395.5199999999999 60.23596864501679" height="60.23596864501679" width="395.5199999999999"><g transform="matrix(1,0,0,1,0,0)"><svg width="395.5199999999999" viewBox="2.5 -37 312.53 47.6" height="60.23596864501679" data-palette-color="#f4f3f0"><path d="M26 0L26-5.55 25.75-5.55Q25.35-2.9 23.05-1.15 20.75 0.6 16.8 0.6L16.8 0.6Q13.8 0.6 11.2-0.55 8.6-1.7 6.65-3.95 4.7-6.2 3.6-9.55 2.5-12.9 2.5-17.3L2.5-17.3Q2.5-21.7 3.65-25.1 4.8-28.5 6.88-30.8 8.95-33.1 11.85-34.3 14.75-35.5 18.3-35.5L18.3-35.5Q23-35.5 26.4-33.48 29.8-31.45 31.75-27.4L31.75-27.4 25.55-23.85Q24.75-25.9 23.05-27.33 21.35-28.75 18.3-28.75L18.3-28.75Q14.75-28.75 12.65-26.7 10.55-24.65 10.55-20.25L10.55-20.25 10.55-14.65Q10.55-10.3 12.65-8.22 14.75-6.15 18.3-6.15L18.3-6.15Q19.7-6.15 20.95-6.48 22.2-6.8 23.15-7.48 24.1-8.15 24.63-9.1 25.15-10.05 25.15-11.35L25.15-11.35 25.15-13.1 18.65-13.1 18.65-19.45 32.4-19.45 32.4 0 26 0ZM62.9 0L58.8 0Q56.8 0 55.47-1.25 54.15-2.5 53.8-4.6L53.8-4.6 53.5-4.6Q52.9-2.05 50.85-0.73 48.8 0.6 45.8 0.6L45.8 0.6Q41.85 0.6 39.75-1.5 37.65-3.6 37.65-7.05L37.65-7.05Q37.65-11.2 40.67-13.23 43.7-15.25 48.9-15.25L48.9-15.25 53.05-15.25 53.05-16.9Q53.05-18.8 52.05-19.93 51.05-21.05 48.7-21.05L48.7-21.05Q46.5-21.05 45.2-20.1 43.9-19.15 43.05-17.95L43.05-17.95 38.65-21.85Q40.25-24.2 42.67-25.53 45.1-26.85 49.25-26.85L49.25-26.85Q54.85-26.85 57.65-24.4 60.45-21.95 60.45-17.25L60.45-17.25 60.45-5.75 62.9-5.75 62.9 0ZM48.55-4.55L48.55-4.55Q50.4-4.55 51.72-5.35 53.05-6.15 53.05-7.95L53.05-7.95 53.05-11.05 49.45-11.05Q45.1-11.05 45.1-8.1L45.1-8.1 45.1-7.35Q45.1-5.9 46-5.23 46.9-4.55 48.55-4.55ZM83.95 0L83.95-4.4 83.7-4.4Q83.4-3.35 82.75-2.43 82.1-1.5 81.17-0.83 80.25-0.15 79.07 0.23 77.9 0.6 76.65 0.6L76.65 0.6Q71.65 0.6 69.1-2.93 66.55-6.45 66.55-13.15L66.55-13.15Q66.55-19.85 69.1-23.35 71.65-26.85 76.65-26.85L76.65-26.85Q79.2-26.85 81.17-25.45 83.15-24.05 83.7-21.85L83.7-21.85 83.95-21.85 83.95-37 91.35-37 91.35 0 83.95 0ZM79.1-5.4L79.1-5.4Q81.2-5.4 82.57-6.43 83.95-7.45 83.95-9.25L83.95-9.25 83.95-17Q83.95-18.8 82.57-19.83 81.2-20.85 79.1-20.85L79.1-20.85Q77-20.85 75.62-19.38 74.25-17.9 74.25-15.4L74.25-15.4 74.25-10.85Q74.25-8.35 75.62-6.88 77-5.4 79.1-5.4ZM122.54 1.9L122.54 1.9Q122.54 4 121.82 5.6 121.09 7.2 119.44 8.33 117.79 9.45 115.07 10.03 112.34 10.6 108.34 10.6L108.34 10.6Q104.94 10.6 102.57 10.18 100.19 9.75 98.72 8.97 97.24 8.2 96.57 7.08 95.89 5.95 95.89 4.5L95.89 4.5Q95.89 2.3 97.19 1.05 98.49-0.2 100.79-0.5L100.79-0.5 100.79-1.05Q98.89-1.4 97.94-2.68 96.99-3.95 96.99-5.65L96.99-5.65Q96.99-6.7 97.42-7.48 97.84-8.25 98.52-8.83 99.19-9.4 100.09-9.75 100.99-10.1 101.89-10.3L101.89-10.3 101.89-10.5Q99.49-11.6 98.34-13.53 97.19-15.45 97.19-18L97.19-18Q97.19-22 99.97-24.43 102.74-26.85 108.44-26.85L108.44-26.85Q111.04-26.85 112.89-26.35L112.89-26.35 112.89-27.35Q112.89-29.45 113.92-30.38 114.94-31.3 116.84-31.3L116.84-31.3 120.99-31.3 120.99-25.8 115.19-25.8 115.19-25.5Q117.49-24.4 118.59-22.48 119.69-20.55 119.69-18L119.69-18Q119.69-14.05 116.92-11.68 114.14-9.3 108.44-9.3L108.44-9.3Q105.89-9.3 103.79-9.85L103.79-9.85Q102.64-9.1 102.64-7.75L102.64-7.75Q102.64-6.8 103.37-6.28 104.09-5.75 105.79-5.75L105.79-5.75 113.39-5.75Q118.19-5.75 120.37-3.75 122.54-1.75 122.54 1.9ZM115.59 2.9L115.59 2.9Q115.59 1.75 114.69 1.15 113.79 0.55 111.54 0.55L111.54 0.55 102.54 0.55Q102.04 1.05 101.82 1.68 101.59 2.3 101.59 2.9L101.59 2.9Q101.59 4.35 102.84 5.03 104.09 5.7 107.09 5.7L107.09 5.7 110.09 5.7Q113.09 5.7 114.34 5.03 115.59 4.35 115.59 2.9ZM108.44-14.15L108.44-14.15Q110.64-14.15 111.72-15.08 112.79-16 112.79-17.75L112.79-17.75 112.79-18.35Q112.79-20.1 111.72-21.03 110.64-21.95 108.44-21.95L108.44-21.95Q106.24-21.95 105.17-21.03 104.09-20.1 104.09-18.35L104.09-18.35 104.09-17.75Q104.09-16 105.17-15.08 106.24-14.15 108.44-14.15ZM136.49 0.6L136.49 0.6Q133.49 0.6 131.14-0.38 128.79-1.35 127.17-3.13 125.54-4.9 124.72-7.45 123.89-10 123.89-13.15L123.89-13.15Q123.89-16.25 124.69-18.78 125.49-21.3 127.07-23.1 128.64-24.9 130.94-25.88 133.24-26.85 136.19-26.85L136.19-26.85Q139.44-26.85 141.77-25.75 144.09-24.65 145.57-22.8 147.04-20.95 147.72-18.53 148.39-16.1 148.39-13.45L148.39-13.45 148.39-11.25 131.54-11.25 131.54-10.85Q131.54-8.25 132.94-6.73 134.34-5.2 137.34-5.2L137.34-5.2Q139.64-5.2 141.09-6.13 142.54-7.05 143.79-8.35L143.79-8.35 147.49-3.75Q145.74-1.7 142.92-0.55 140.09 0.6 136.49 0.6ZM136.34-21.4L136.34-21.4Q134.09-21.4 132.82-19.93 131.54-18.45 131.54-16L131.54-16 131.54-15.6 140.74-15.6 140.74-16.05Q140.74-18.45 139.67-19.93 138.59-21.4 136.34-21.4ZM167.24 0L162.84 0Q158.99 0 157.01-1.95 155.04-3.9 155.04-7.65L155.04-7.65 155.04-20.5 151.34-20.5 151.34-26.25 153.19-26.25Q154.69-26.25 155.24-26.98 155.79-27.7 155.79-29.05L155.79-29.05 155.79-33.35 162.44-33.35 162.44-26.25 167.64-26.25 167.64-20.5 162.44-20.5 162.44-5.75 167.24-5.75 167.24 0ZM194.09 0L194.09-14.3 180.79-14.3 180.79 0 173.19 0 173.19-34.9 180.79-34.9 180.79-21 194.09-21 194.09-34.9 201.69-34.9 201.69 0 194.09 0ZM219.63 0.6L219.63 0.6Q216.73 0.6 214.46-0.35 212.18-1.3 210.61-3.1 209.03-4.9 208.18-7.45 207.33-10 207.33-13.15L207.33-13.15Q207.33-16.3 208.18-18.85 209.03-21.4 210.61-23.18 212.18-24.95 214.46-25.9 216.73-26.85 219.63-26.85L219.63-26.85Q222.53-26.85 224.81-25.9 227.08-24.95 228.66-23.18 230.23-21.4 231.08-18.85 231.93-16.3 231.93-13.15L231.93-13.15Q231.93-10 231.08-7.45 230.23-4.9 228.66-3.1 227.08-1.3 224.81-0.35 222.53 0.6 219.63 0.6ZM219.63-5.25L219.63-5.25Q221.83-5.25 223.03-6.6 224.23-7.95 224.23-10.45L224.23-10.45 224.23-15.8Q224.23-18.3 223.03-19.65 221.83-21 219.63-21L219.63-21Q217.43-21 216.23-19.65 215.03-18.3 215.03-15.8L215.03-15.8 215.03-10.45Q215.03-7.95 216.23-6.6 217.43-5.25 219.63-5.25ZM252.68 0L252.68-4.4 252.43-4.4Q252.08-3.4 251.51-2.5 250.93-1.6 250.03-0.9 249.13-0.2 247.91 0.2 246.68 0.6 245.08 0.6L245.08 0.6Q241.03 0.6 238.96-2.08 236.88-4.75 236.88-9.75L236.88-9.75 236.88-26.25 244.28-26.25 244.28-10.4Q244.28-8 245.13-6.7 245.98-5.4 248.03-5.4L248.03-5.4Q248.88-5.4 249.73-5.65 250.58-5.9 251.23-6.38 251.88-6.85 252.28-7.55 252.68-8.25 252.68-9.2L252.68-9.2 252.68-26.25 260.08-26.25 260.08 0 252.68 0ZM275.88 0.6L275.88 0.6Q272.08 0.6 269.48-0.63 266.88-1.85 264.83-4.1L264.83-4.1 269.18-8.5Q270.58-6.95 272.28-6.05 273.98-5.15 276.13-5.15L276.13-5.15Q278.33-5.15 279.18-5.83 280.03-6.5 280.03-7.65L280.03-7.65Q280.03-9.5 277.38-9.85L277.38-9.85 274.53-10.2Q265.68-11.3 265.68-18.3L265.68-18.3Q265.68-20.2 266.4-21.78 267.13-23.35 268.45-24.48 269.78-25.6 271.65-26.23 273.53-26.85 275.88-26.85L275.88-26.85Q277.93-26.85 279.5-26.58 281.08-26.3 282.3-25.78 283.53-25.25 284.55-24.48 285.58-23.7 286.58-22.75L286.58-22.75 282.33-18.4Q281.08-19.65 279.5-20.38 277.93-21.1 276.28-21.1L276.28-21.1Q274.38-21.1 273.58-20.5 272.78-19.9 272.78-18.9L272.78-18.9Q272.78-17.85 273.35-17.28 273.93-16.7 275.53-16.45L275.53-16.45 278.48-16.05Q287.13-14.9 287.13-8.15L287.13-8.15Q287.13-6.25 286.33-4.65 285.53-3.05 284.05-1.88 282.58-0.7 280.5-0.05 278.43 0.6 275.88 0.6ZM303.13 0.6L303.13 0.6Q300.13 0.6 297.78-0.38 295.43-1.35 293.8-3.13 292.18-4.9 291.35-7.45 290.53-10 290.53-13.15L290.53-13.15Q290.53-16.25 291.33-18.78 292.13-21.3 293.7-23.1 295.28-24.9 297.58-25.88 299.88-26.85 302.83-26.85L302.83-26.85Q306.08-26.85 308.4-25.75 310.73-24.65 312.2-22.8 313.68-20.95 314.35-18.53 315.03-16.1 315.03-13.45L315.03-13.45 315.03-11.25 298.18-11.25 298.18-10.85Q298.18-8.25 299.58-6.73 300.98-5.2 303.98-5.2L303.98-5.2Q306.28-5.2 307.73-6.13 309.18-7.05 310.43-8.35L310.43-8.35 314.13-3.75Q312.38-1.7 309.55-0.55 306.73 0.6 303.13 0.6ZM302.98-21.4L302.98-21.4Q300.73-21.4 299.45-19.93 298.18-18.45 298.18-16L298.18-16 298.18-15.6 307.38-15.6 307.38-16.05Q307.38-18.45 306.3-19.93 305.23-21.4 302.98-21.4Z" opacity="1" transform="matrix(1,0,0,1,0,0)" fill="#f4f3f0" class="wordmark-text-0" data-fill-palette-color="primary" id="text-0"></path></svg></g></svg></g></svg></g></svg></g><g><svg viewBox="0 0 105.01781808066109 157.69776591265395" height="157.69776591265395" width="105.01781808066109"><g><svg xmlns="http://www.w3.org/2000/svg" xmlns:xlink="http://www.w3.org/1999/xlink" version="1.1" x="0" y="0" viewBox="10.6 3 30.699999999999996 46.099999999999994" style="enable-background:new 0 0 52 52;" xml:space="preserve" height="157.69776591265395" width="105.01781808066109" class="icon-icon-0" data-fill-palette-color="accent" id="icon-0"><g fill="#2f84ff" data-fill-palette-color="accent"><path d="M38.5 3H13.5c-1.6 0-2.9 1.3-2.9 2.9v40.3c0 1.6 1.3 2.9 2.9 2.9h24.9c1.6 0 2.9-1.3 2.9-2.9V5.9C41.3 4.3 40 3 38.5 3zM22.2 44.2c0-0.5 0.4-1 1-1h5.8c0.5 0 1 0.4 1 1 0 0.5-0.4 1-1 1h-5.8C22.6 45.2 22.2 44.7 22.2 44.2zM36.5 24.4C36.3 24.8 36 25 35.6 25h-1.9v10.5c0 0.5-0.4 1-1 1H19.3c-0.5 0-1-0.4-1-1V25h-1.9c-0.4 0-0.8-0.3-0.9-0.6-0.1-0.4 0-0.8 0.3-1.1l9.6-7.7c0.4-0.3 0.9-0.3 1.2 0l9.6 7.7C36.5 23.6 36.6 24 36.5 24.4zM23.1 7.8c0-0.5 0.4-1 1-1h3.8c0.5 0 1 0.4 1 1s-0.4 1-1 1h-3.8C23.5 8.8 23.1 8.3 23.1 7.8z" fill="#2f84ff" data-fill-palette-color="accent"></path><path d="M19.1 23.1h0.1c0.5 0 1 0.4 1 1v10.5h1.9v-6.7c0-0.5 0.4-1 1-1h5.8c0.5 0 1 0.4 1 1v6.7h1.9V24.1c0-0.5 0.4-1 1-1h0.1L26 17.6 19.1 23.1z" fill="#2f84ff" data-fill-palette-color="accent"></path><rect x="24.1" y="28.9" width="3.8" height="5.8" fill="#2f84ff" data-fill-palette-color="accent"></rect></g></svg></g></svg></g></svg></g><defs></defs></svg><rect width="395.52" height="121.1688018858086" fill="none" stroke="none" visibility="hidden"></rect></g></svg></g></svg>